<?xml version="1.0" encoding="utf-8" standalone="no"?>
<!DOCTYPE svg PUBLIC "-//W3C//DTD SVG 1.1//EN"
  "http://www.w3.org/Graphics/SVG/1.1/DTD/svg11.dtd">
<svg xmlns:xlink="http://www.w3.org/1999/xlink" width="504pt" height="360pt" viewBox="0 0 504 360" xmlns="http://www.w3.org/2000/svg" version="1.1">
 <metadata>
  <rdf:RDF xmlns:dc="http://purl.org/dc/elements/1.1/" xmlns:cc="http://creativecommons.org/ns#" xmlns:rdf="http://www.w3.org/1999/02/22-rdf-syntax-ns#">
   <cc:Work>
    <dc:type rdf:resource="http://purl.org/dc/dcmitype/StillImage"/>
    <dc:date>2026-07-03T15:24:03.480426</dc:date>
    <dc:format>image/svg+xml</dc:format>
    <dc:creator>
     <cc:Agent>
      <dc:title>Matplotlib v3.10.0, https://matplotlib.org/</dc:title>
     </cc:Agent>
    </dc:creator>
   </cc:Work>
  </rdf:RDF>
 </metadata>
 <defs>
  <style type="text/css">*{stroke-linejoin: round; stroke-linecap: butt}</style>
 </defs>
 <g id="figure_1">
  <g id="patch_1">
   <path d="M 0 360 
L 504 360 
L 504 0 
L 0 0 
z
" style="fill: #ffffff"/>
  </g>
  <g id="axes_1">
   <g id="patch_2">
    <path d="M 47.72 318.04 
L 485.28 318.04 
L 485.28 26.88 
L 47.72 26.88 
z
" style="fill: #ffffff"/>
   </g>
   <g id="matplotlib.axis_1">
    <g id="xtick_1">
     <g id="line2d_1">
      <path d="M 47.72 318.04 
L 47.72 26.88 
" clip-path="url(#p7a0a827dcf)" style="fill: none; stroke: #b0b0b0; stroke-opacity: 0.25; stroke-width: 0.8; stroke-linecap: square"/>
     </g>
     <g id="line2d_2">
      <defs>
       <path id="m5998b60be8" d="M 0 0 
L 0 3.5 
" style="stroke: #000000; stroke-width: 0.8"/>
      </defs>
      <g>
       <use xlink:href="#m5998b60be8" x="47.72" y="318.04" style="stroke: #000000; stroke-width: 0.8"/>
      </g>
     </g>
     <g id="text_1">
      <!-- 0.0 -->
      <g transform="translate(39.768438 332.638438) scale(0.1 -0.1)">
       <defs>
        <path id="DejaVuSans-30" d="M 2034 4250 
Q 1547 4250 1301 3770 
Q 1056 3291 1056 2328 
Q 1056 1369 1301 889 
Q 1547 409 2034 409 
Q 2525 409 2770 889 
Q 3016 1369 3016 2328 
Q 3016 3291 2770 3770 
Q 2525 4250 2034 4250 
z
M 2034 4750 
Q 2819 4750 3233 4129 
Q 3647 3509 3647 2328 
Q 3647 1150 3233 529 
Q 2819 -91 2034 -91 
Q 1250 -91 836 529 
Q 422 1150 422 2328 
Q 422 3509 836 4129 
Q 1250 4750 2034 4750 
z
" transform="scale(0.015625)"/>
        <path id="DejaVuSans-2e" d="M 684 794 
L 1344 794 
L 1344 0 
L 684 0 
L 684 794 
z
" transform="scale(0.015625)"/>
       </defs>
       <use xlink:href="#DejaVuSans-30"/>
       <use xlink:href="#DejaVuSans-2e" transform="translate(63.623047 0)"/>
       <use xlink:href="#DejaVuSans-30" transform="translate(95.410156 0)"/>
      </g>
     </g>
    </g>
    <g id="xtick_2">
     <g id="line2d_3">
      <path d="M 135.232 318.04 
L 135.232 26.88 
" clip-path="url(#p7a0a827dcf)" style="fill: none; stroke: #b0b0b0; stroke-opacity: 0.25; stroke-width: 0.8; stroke-linecap: square"/>
     </g>
     <g id="line2d_4">
      <g>
       <use xlink:href="#m5998b60be8" x="135.232" y="318.04" style="stroke: #000000; stroke-width: 0.8"/>
      </g>
     </g>
     <g id="text_2">
      <!-- 0.2 -->
      <g transform="translate(127.280438 332.638438) scale(0.1 -0.1)">
       <defs>
        <path id="DejaVuSans-32" d="M 1228 531 
L 3431 531 
L 3431 0 
L 469 0 
L 469 531 
Q 828 903 1448 1529 
Q 2069 2156 2228 2338 
Q 2531 2678 2651 2914 
Q 2772 3150 2772 3378 
Q 2772 3750 2511 3984 
Q 2250 4219 1831 4219 
Q 1534 4219 1204 4116 
Q 875 4013 500 3803 
L 500 4441 
Q 881 4594 1212 4672 
Q 1544 4750 1819 4750 
Q 2544 4750 2975 4387 
Q 3406 4025 3406 3419 
Q 3406 3131 3298 2873 
Q 3191 2616 2906 2266 
Q 2828 2175 2409 1742 
Q 1991 1309 1228 531 
z
" transform="scale(0.015625)"/>
       </defs>
       <use xlink:href="#DejaVuSans-30"/>
       <use xlink:href="#DejaVuSans-2e" transform="translate(63.623047 0)"/>
       <use xlink:href="#DejaVuSans-32" transform="translate(95.410156 0)"/>
      </g>
     </g>
    </g>
    <g id="xtick_3">
     <g id="line2d_5">
      <path d="M 222.744 318.04 
L 222.744 26.88 
" clip-path="url(#p7a0a827dcf)" style="fill: none; stroke: #b0b0b0; stroke-opacity: 0.25; stroke-width: 0.8; stroke-linecap: square"/>
     </g>
     <g id="line2d_6">
      <g>
       <use xlink:href="#m5998b60be8" x="222.744" y="318.04" style="stroke: #000000; stroke-width: 0.8"/>
      </g>
     </g>
     <g id="text_3">
      <!-- 0.4 -->
      <g transform="translate(214.792438 332.638438) scale(0.1 -0.1)">
       <defs>
        <path id="DejaVuSans-34" d="M 2419 4116 
L 825 1625 
L 2419 1625 
L 2419 4116 
z
M 2253 4666 
L 3047 4666 
L 3047 1625 
L 3713 1625 
L 3713 1100 
L 3047 1100 
L 3047 0 
L 2419 0 
L 2419 1100 
L 313 1100 
L 313 1709 
L 2253 4666 
z
" transform="scale(0.015625)"/>
       </defs>
       <use xlink:href="#DejaVuSans-30"/>
       <use xlink:href="#DejaVuSans-2e" transform="translate(63.623047 0)"/>
       <use xlink:href="#DejaVuSans-34" transform="translate(95.410156 0)"/>
      </g>
     </g>
    </g>
    <g id="xtick_4">
     <g id="line2d_7">
      <path d="M 310.256 318.04 
L 310.256 26.88 
" clip-path="url(#p7a0a827dcf)" style="fill: none; stroke: #b0b0b0; stroke-opacity: 0.25; stroke-width: 0.8; stroke-linecap: square"/>
     </g>
     <g id="line2d_8">
      <g>
       <use xlink:href="#m5998b60be8" x="310.256" y="318.04" style="stroke: #000000; stroke-width: 0.8"/>
      </g>
     </g>
     <g id="text_4">
      <!-- 0.6 -->
      <g transform="translate(302.304438 332.638438) scale(0.1 -0.1)">
       <defs>
        <path id="DejaVuSans-36" d="M 2113 2584 
Q 1688 2584 1439 2293 
Q 1191 2003 1191 1497 
Q 1191 994 1439 701 
Q 1688 409 2113 409 
Q 2538 409 2786 701 
Q 3034 994 3034 1497 
Q 3034 2003 2786 2293 
Q 2538 2584 2113 2584 
z
M 3366 4563 
L 3366 3988 
Q 3128 4100 2886 4159 
Q 2644 4219 2406 4219 
Q 1781 4219 1451 3797 
Q 1122 3375 1075 2522 
Q 1259 2794 1537 2939 
Q 1816 3084 2150 3084 
Q 2853 3084 3261 2657 
Q 3669 2231 3669 1497 
Q 3669 778 3244 343 
Q 2819 -91 2113 -91 
Q 1303 -91 875 529 
Q 447 1150 447 2328 
Q 447 3434 972 4092 
Q 1497 4750 2381 4750 
Q 2619 4750 2861 4703 
Q 3103 4656 3366 4563 
z
" transform="scale(0.015625)"/>
       </defs>
       <use xlink:href="#DejaVuSans-30"/>
       <use xlink:href="#DejaVuSans-2e" transform="translate(63.623047 0)"/>
       <use xlink:href="#DejaVuSans-36" transform="translate(95.410156 0)"/>
      </g>
     </g>
    </g>
    <g id="xtick_5">
     <g id="line2d_9">
      <path d="M 397.768 318.04 
L 397.768 26.88 
" clip-path="url(#p7a0a827dcf)" style="fill: none; stroke: #b0b0b0; stroke-opacity: 0.25; stroke-width: 0.8; stroke-linecap: square"/>
     </g>
     <g id="line2d_10">
      <g>
       <use xlink:href="#m5998b60be8" x="397.768" y="318.04" style="stroke: #000000; stroke-width: 0.8"/>
      </g>
     </g>
     <g id="text_5">
      <!-- 0.8 -->
      <g transform="translate(389.816438 332.638438) scale(0.1 -0.1)">
       <defs>
        <path id="DejaVuSans-38" d="M 2034 2216 
Q 1584 2216 1326 1975 
Q 1069 1734 1069 1313 
Q 1069 891 1326 650 
Q 1584 409 2034 409 
Q 2484 409 2743 651 
Q 3003 894 3003 1313 
Q 3003 1734 2745 1975 
Q 2488 2216 2034 2216 
z
M 1403 2484 
Q 997 2584 770 2862 
Q 544 3141 544 3541 
Q 544 4100 942 4425 
Q 1341 4750 2034 4750 
Q 2731 4750 3128 4425 
Q 3525 4100 3525 3541 
Q 3525 3141 3298 2862 
Q 3072 2584 2669 2484 
Q 3125 2378 3379 2068 
Q 3634 1759 3634 1313 
Q 3634 634 3220 271 
Q 2806 -91 2034 -91 
Q 1263 -91 848 271 
Q 434 634 434 1313 
Q 434 1759 690 2068 
Q 947 2378 1403 2484 
z
M 1172 3481 
Q 1172 3119 1398 2916 
Q 1625 2713 2034 2713 
Q 2441 2713 2670 2916 
Q 2900 3119 2900 3481 
Q 2900 3844 2670 4047 
Q 2441 4250 2034 4250 
Q 1625 4250 1398 4047 
Q 1172 3844 1172 3481 
z
" transform="scale(0.015625)"/>
       </defs>
       <use xlink:href="#DejaVuSans-30"/>
       <use xlink:href="#DejaVuSans-2e" transform="translate(63.623047 0)"/>
       <use xlink:href="#DejaVuSans-38" transform="translate(95.410156 0)"/>
      </g>
     </g>
    </g>
    <g id="xtick_6">
     <g id="line2d_11">
      <path d="M 485.28 318.04 
L 485.28 26.88 
" clip-path="url(#p7a0a827dcf)" style="fill: none; stroke: #b0b0b0; stroke-opacity: 0.25; stroke-width: 0.8; stroke-linecap: square"/>
     </g>
     <g id="line2d_12">
      <g>
       <use xlink:href="#m5998b60be8" x="485.28" y="318.04" style="stroke: #000000; stroke-width: 0.8"/>
      </g>
     </g>
     <g id="text_6">
      <!-- 1.0 -->
      <g transform="translate(477.328437 332.638438) scale(0.1 -0.1)">
       <defs>
        <path id="DejaVuSans-31" d="M 794 531 
L 1825 531 
L 1825 4091 
L 703 3866 
L 703 4441 
L 1819 4666 
L 2450 4666 
L 2450 531 
L 3481 531 
L 3481 0 
L 794 0 
L 794 531 
z
" transform="scale(0.015625)"/>
       </defs>
       <use xlink:href="#DejaVuSans-31"/>
       <use xlink:href="#DejaVuSans-2e" transform="translate(63.623047 0)"/>
       <use xlink:href="#DejaVuSans-30" transform="translate(95.410156 0)"/>
      </g>
     </g>
    </g>
    <g id="text_7">
     <!-- Decision threshold -->
     <g transform="translate(220.079688 346.316563) scale(0.1 -0.1)">
      <defs>
       <path id="DejaVuSans-44" d="M 1259 4147 
L 1259 519 
L 2022 519 
Q 2988 519 3436 956 
Q 3884 1394 3884 2338 
Q 3884 3275 3436 3711 
Q 2988 4147 2022 4147 
L 1259 4147 
z
M 628 4666 
L 1925 4666 
Q 3281 4666 3915 4102 
Q 4550 3538 4550 2338 
Q 4550 1131 3912 565 
Q 3275 0 1925 0 
L 628 0 
L 628 4666 
z
" transform="scale(0.015625)"/>
       <path id="DejaVuSans-65" d="M 3597 1894 
L 3597 1613 
L 953 1613 
Q 991 1019 1311 708 
Q 1631 397 2203 397 
Q 2534 397 2845 478 
Q 3156 559 3463 722 
L 3463 178 
Q 3153 47 2828 -22 
Q 2503 -91 2169 -91 
Q 1331 -91 842 396 
Q 353 884 353 1716 
Q 353 2575 817 3079 
Q 1281 3584 2069 3584 
Q 2775 3584 3186 3129 
Q 3597 2675 3597 1894 
z
M 3022 2063 
Q 3016 2534 2758 2815 
Q 2500 3097 2075 3097 
Q 1594 3097 1305 2825 
Q 1016 2553 972 2059 
L 3022 2063 
z
" transform="scale(0.015625)"/>
       <path id="DejaVuSans-63" d="M 3122 3366 
L 3122 2828 
Q 2878 2963 2633 3030 
Q 2388 3097 2138 3097 
Q 1578 3097 1268 2742 
Q 959 2388 959 1747 
Q 959 1106 1268 751 
Q 1578 397 2138 397 
Q 2388 397 2633 464 
Q 2878 531 3122 666 
L 3122 134 
Q 2881 22 2623 -34 
Q 2366 -91 2075 -91 
Q 1284 -91 818 406 
Q 353 903 353 1747 
Q 353 2603 823 3093 
Q 1294 3584 2113 3584 
Q 2378 3584 2631 3529 
Q 2884 3475 3122 3366 
z
" transform="scale(0.015625)"/>
       <path id="DejaVuSans-69" d="M 603 3500 
L 1178 3500 
L 1178 0 
L 603 0 
L 603 3500 
z
M 603 4863 
L 1178 4863 
L 1178 4134 
L 603 4134 
L 603 4863 
z
" transform="scale(0.015625)"/>
       <path id="DejaVuSans-73" d="M 2834 3397 
L 2834 2853 
Q 2591 2978 2328 3040 
Q 2066 3103 1784 3103 
Q 1356 3103 1142 2972 
Q 928 2841 928 2578 
Q 928 2378 1081 2264 
Q 1234 2150 1697 2047 
L 1894 2003 
Q 2506 1872 2764 1633 
Q 3022 1394 3022 966 
Q 3022 478 2636 193 
Q 2250 -91 1575 -91 
Q 1294 -91 989 -36 
Q 684 19 347 128 
L 347 722 
Q 666 556 975 473 
Q 1284 391 1588 391 
Q 1994 391 2212 530 
Q 2431 669 2431 922 
Q 2431 1156 2273 1281 
Q 2116 1406 1581 1522 
L 1381 1569 
Q 847 1681 609 1914 
Q 372 2147 372 2553 
Q 372 3047 722 3315 
Q 1072 3584 1716 3584 
Q 2034 3584 2315 3537 
Q 2597 3491 2834 3397 
z
" transform="scale(0.015625)"/>
       <path id="DejaVuSans-6f" d="M 1959 3097 
Q 1497 3097 1228 2736 
Q 959 2375 959 1747 
Q 959 1119 1226 758 
Q 1494 397 1959 397 
Q 2419 397 2687 759 
Q 2956 1122 2956 1747 
Q 2956 2369 2687 2733 
Q 2419 3097 1959 3097 
z
M 1959 3584 
Q 2709 3584 3137 3096 
Q 3566 2609 3566 1747 
Q 3566 888 3137 398 
Q 2709 -91 1959 -91 
Q 1206 -91 779 398 
Q 353 888 353 1747 
Q 353 2609 779 3096 
Q 1206 3584 1959 3584 
z
" transform="scale(0.015625)"/>
       <path id="DejaVuSans-6e" d="M 3513 2113 
L 3513 0 
L 2938 0 
L 2938 2094 
Q 2938 2591 2744 2837 
Q 2550 3084 2163 3084 
Q 1697 3084 1428 2787 
Q 1159 2491 1159 1978 
L 1159 0 
L 581 0 
L 581 3500 
L 1159 3500 
L 1159 2956 
Q 1366 3272 1645 3428 
Q 1925 3584 2291 3584 
Q 2894 3584 3203 3211 
Q 3513 2838 3513 2113 
z
" transform="scale(0.015625)"/>
       <path id="DejaVuSans-20" transform="scale(0.015625)"/>
       <path id="DejaVuSans-74" d="M 1172 4494 
L 1172 3500 
L 2356 3500 
L 2356 3053 
L 1172 3053 
L 1172 1153 
Q 1172 725 1289 603 
Q 1406 481 1766 481 
L 2356 481 
L 2356 0 
L 1766 0 
Q 1100 0 847 248 
Q 594 497 594 1153 
L 594 3053 
L 172 3053 
L 172 3500 
L 594 3500 
L 594 4494 
L 1172 4494 
z
" transform="scale(0.015625)"/>
       <path id="DejaVuSans-68" d="M 3513 2113 
L 3513 0 
L 2938 0 
L 2938 2094 
Q 2938 2591 2744 2837 
Q 2550 3084 2163 3084 
Q 1697 3084 1428 2787 
Q 1159 2491 1159 1978 
L 1159 0 
L 581 0 
L 581 4863 
L 1159 4863 
L 1159 2956 
Q 1366 3272 1645 3428 
Q 1925 3584 2291 3584 
Q 2894 3584 3203 3211 
Q 3513 2838 3513 2113 
z
" transform="scale(0.015625)"/>
       <path id="DejaVuSans-72" d="M 2631 2963 
Q 2534 3019 2420 3045 
Q 2306 3072 2169 3072 
Q 1681 3072 1420 2755 
Q 1159 2438 1159 1844 
L 1159 0 
L 581 0 
L 581 3500 
L 1159 3500 
L 1159 2956 
Q 1341 3275 1631 3429 
Q 1922 3584 2338 3584 
Q 2397 3584 2469 3576 
Q 2541 3569 2628 3553 
L 2631 2963 
z
" transform="scale(0.015625)"/>
       <path id="DejaVuSans-6c" d="M 603 4863 
L 1178 4863 
L 1178 0 
L 603 0 
L 603 4863 
z
" transform="scale(0.015625)"/>
       <path id="DejaVuSans-64" d="M 2906 2969 
L 2906 4863 
L 3481 4863 
L 3481 0 
L 2906 0 
L 2906 525 
Q 2725 213 2448 61 
Q 2172 -91 1784 -91 
Q 1150 -91 751 415 
Q 353 922 353 1747 
Q 353 2572 751 3078 
Q 1150 3584 1784 3584 
Q 2172 3584 2448 3432 
Q 2725 3281 2906 2969 
z
M 947 1747 
Q 947 1113 1208 752 
Q 1469 391 1925 391 
Q 2381 391 2643 752 
Q 2906 1113 2906 1747 
Q 2906 2381 2643 2742 
Q 2381 3103 1925 3103 
Q 1469 3103 1208 2742 
Q 947 2381 947 1747 
z
" transform="scale(0.015625)"/>
      </defs>
      <use xlink:href="#DejaVuSans-44"/>
      <use xlink:href="#DejaVuSans-65" transform="translate(77.001953 0)"/>
      <use xlink:href="#DejaVuSans-63" transform="translate(138.525391 0)"/>
      <use xlink:href="#DejaVuSans-69" transform="translate(193.505859 0)"/>
      <use xlink:href="#DejaVuSans-73" transform="translate(221.289062 0)"/>
      <use xlink:href="#DejaVuSans-69" transform="translate(273.388672 0)"/>
      <use xlink:href="#DejaVuSans-6f" transform="translate(301.171875 0)"/>
      <use xlink:href="#DejaVuSans-6e" transform="translate(362.353516 0)"/>
      <use xlink:href="#DejaVuSans-20" transform="translate(425.732422 0)"/>
      <use xlink:href="#DejaVuSans-74" transform="translate(457.519531 0)"/>
      <use xlink:href="#DejaVuSans-68" transform="translate(496.728516 0)"/>
      <use xlink:href="#DejaVuSans-72" transform="translate(560.107422 0)"/>
      <use xlink:href="#DejaVuSans-65" transform="translate(598.970703 0)"/>
      <use xlink:href="#DejaVuSans-73" transform="translate(660.494141 0)"/>
      <use xlink:href="#DejaVuSans-68" transform="translate(712.59375 0)"/>
      <use xlink:href="#DejaVuSans-6f" transform="translate(775.972656 0)"/>
      <use xlink:href="#DejaVuSans-6c" transform="translate(837.154297 0)"/>
      <use xlink:href="#DejaVuSans-64" transform="translate(864.9375 0)"/>
     </g>
    </g>
   </g>
   <g id="matplotlib.axis_2">
    <g id="ytick_1">
     <g id="line2d_13">
      <path d="M 47.72 318.04 
L 485.28 318.04 
" clip-path="url(#p7a0a827dcf)" style="fill: none; stroke: #b0b0b0; stroke-opacity: 0.25; stroke-width: 0.8; stroke-linecap: square"/>
     </g>
     <g id="line2d_14">
      <defs>
       <path id="m7c0d985051" d="M 0 0 
L -3.5 0 
" style="stroke: #000000; stroke-width: 0.8"/>
      </defs>
      <g>
       <use xlink:href="#m7c0d985051" x="47.72" y="318.04" style="stroke: #000000; stroke-width: 0.8"/>
      </g>
     </g>
     <g id="text_8">
      <!-- 0.0 -->
      <g transform="translate(24.816875 321.839219) scale(0.1 -0.1)">
       <use xlink:href="#DejaVuSans-30"/>
       <use xlink:href="#DejaVuSans-2e" transform="translate(63.623047 0)"/>
       <use xlink:href="#DejaVuSans-30" transform="translate(95.410156 0)"/>
      </g>
     </g>
    </g>
    <g id="ytick_2">
     <g id="line2d_15">
      <path d="M 47.72 259.808 
L 485.28 259.808 
" clip-path="url(#p7a0a827dcf)" style="fill: none; stroke: #b0b0b0; stroke-opacity: 0.25; stroke-width: 0.8; stroke-linecap: square"/>
     </g>
     <g id="line2d_16">
      <g>
       <use xlink:href="#m7c0d985051" x="47.72" y="259.808" style="stroke: #000000; stroke-width: 0.8"/>
      </g>
     </g>
     <g id="text_9">
      <!-- 0.2 -->
      <g transform="translate(24.816875 263.607219) scale(0.1 -0.1)">
       <use xlink:href="#DejaVuSans-30"/>
       <use xlink:href="#DejaVuSans-2e" transform="translate(63.623047 0)"/>
       <use xlink:href="#DejaVuSans-32" transform="translate(95.410156 0)"/>
      </g>
     </g>
    </g>
    <g id="ytick_3">
     <g id="line2d_17">
      <path d="M 47.72 201.576 
L 485.28 201.576 
" clip-path="url(#p7a0a827dcf)" style="fill: none; stroke: #b0b0b0; stroke-opacity: 0.25; stroke-width: 0.8; stroke-linecap: square"/>
     </g>
     <g id="line2d_18">
      <g>
       <use xlink:href="#m7c0d985051" x="47.72" y="201.576" style="stroke: #000000; stroke-width: 0.8"/>
      </g>
     </g>
     <g id="text_10">
      <!-- 0.4 -->
      <g transform="translate(24.816875 205.375219) scale(0.1 -0.1)">
       <use xlink:href="#DejaVuSans-30"/>
       <use xlink:href="#DejaVuSans-2e" transform="translate(63.623047 0)"/>
       <use xlink:href="#DejaVuSans-34" transform="translate(95.410156 0)"/>
      </g>
     </g>
    </g>
    <g id="ytick_4">
     <g id="line2d_19">
      <path d="M 47.72 143.344 
L 485.28 143.344 
" clip-path="url(#p7a0a827dcf)" style="fill: none; stroke: #b0b0b0; stroke-opacity: 0.25; stroke-width: 0.8; stroke-linecap: square"/>
     </g>
     <g id="line2d_20">
      <g>
       <use xlink:href="#m7c0d985051" x="47.72" y="143.344" style="stroke: #000000; stroke-width: 0.8"/>
      </g>
     </g>
     <g id="text_11">
      <!-- 0.6 -->
      <g transform="translate(24.816875 147.143219) scale(0.1 -0.1)">
       <use xlink:href="#DejaVuSans-30"/>
       <use xlink:href="#DejaVuSans-2e" transform="translate(63.623047 0)"/>
       <use xlink:href="#DejaVuSans-36" transform="translate(95.410156 0)"/>
      </g>
     </g>
    </g>
    <g id="ytick_5">
     <g id="line2d_21">
      <path d="M 47.72 85.112 
L 485.28 85.112 
" clip-path="url(#p7a0a827dcf)" style="fill: none; stroke: #b0b0b0; stroke-opacity: 0.25; stroke-width: 0.8; stroke-linecap: square"/>
     </g>
     <g id="line2d_22">
      <g>
       <use xlink:href="#m7c0d985051" x="47.72" y="85.112" style="stroke: #000000; stroke-width: 0.8"/>
      </g>
     </g>
     <g id="text_12">
      <!-- 0.8 -->
      <g transform="translate(24.816875 88.911219) scale(0.1 -0.1)">
       <use xlink:href="#DejaVuSans-30"/>
       <use xlink:href="#DejaVuSans-2e" transform="translate(63.623047 0)"/>
       <use xlink:href="#DejaVuSans-38" transform="translate(95.410156 0)"/>
      </g>
     </g>
    </g>
    <g id="ytick_6">
     <g id="line2d_23">
      <path d="M 47.72 26.88 
L 485.28 26.88 
" clip-path="url(#p7a0a827dcf)" style="fill: none; stroke: #b0b0b0; stroke-opacity: 0.25; stroke-width: 0.8; stroke-linecap: square"/>
     </g>
     <g id="line2d_24">
      <g>
       <use xlink:href="#m7c0d985051" x="47.72" y="26.88" style="stroke: #000000; stroke-width: 0.8"/>
      </g>
     </g>
     <g id="text_13">
      <!-- 1.0 -->
      <g transform="translate(24.816875 30.679219) scale(0.1 -0.1)">
       <use xlink:href="#DejaVuSans-31"/>
       <use xlink:href="#DejaVuSans-2e" transform="translate(63.623047 0)"/>
       <use xlink:href="#DejaVuSans-30" transform="translate(95.410156 0)"/>
      </g>
     </g>
    </g>
    <g id="text_14">
     <!-- False-positive rate on real benign traffic -->
     <g transform="translate(18.737188 272.1225) rotate(-90) scale(0.1 -0.1)">
      <defs>
       <path id="DejaVuSans-46" d="M 628 4666 
L 3309 4666 
L 3309 4134 
L 1259 4134 
L 1259 2759 
L 3109 2759 
L 3109 2228 
L 1259 2228 
L 1259 0 
L 628 0 
L 628 4666 
z
" transform="scale(0.015625)"/>
       <path id="DejaVuSans-61" d="M 2194 1759 
Q 1497 1759 1228 1600 
Q 959 1441 959 1056 
Q 959 750 1161 570 
Q 1363 391 1709 391 
Q 2188 391 2477 730 
Q 2766 1069 2766 1631 
L 2766 1759 
L 2194 1759 
z
M 3341 1997 
L 3341 0 
L 2766 0 
L 2766 531 
Q 2569 213 2275 61 
Q 1981 -91 1556 -91 
Q 1019 -91 701 211 
Q 384 513 384 1019 
Q 384 1609 779 1909 
Q 1175 2209 1959 2209 
L 2766 2209 
L 2766 2266 
Q 2766 2663 2505 2880 
Q 2244 3097 1772 3097 
Q 1472 3097 1187 3025 
Q 903 2953 641 2809 
L 641 3341 
Q 956 3463 1253 3523 
Q 1550 3584 1831 3584 
Q 2591 3584 2966 3190 
Q 3341 2797 3341 1997 
z
" transform="scale(0.015625)"/>
       <path id="DejaVuSans-2d" d="M 313 2009 
L 1997 2009 
L 1997 1497 
L 313 1497 
L 313 2009 
z
" transform="scale(0.015625)"/>
       <path id="DejaVuSans-70" d="M 1159 525 
L 1159 -1331 
L 581 -1331 
L 581 3500 
L 1159 3500 
L 1159 2969 
Q 1341 3281 1617 3432 
Q 1894 3584 2278 3584 
Q 2916 3584 3314 3078 
Q 3713 2572 3713 1747 
Q 3713 922 3314 415 
Q 2916 -91 2278 -91 
Q 1894 -91 1617 61 
Q 1341 213 1159 525 
z
M 3116 1747 
Q 3116 2381 2855 2742 
Q 2594 3103 2138 3103 
Q 1681 3103 1420 2742 
Q 1159 2381 1159 1747 
Q 1159 1113 1420 752 
Q 1681 391 2138 391 
Q 2594 391 2855 752 
Q 3116 1113 3116 1747 
z
" transform="scale(0.015625)"/>
       <path id="DejaVuSans-76" d="M 191 3500 
L 800 3500 
L 1894 563 
L 2988 3500 
L 3597 3500 
L 2284 0 
L 1503 0 
L 191 3500 
z
" transform="scale(0.015625)"/>
       <path id="DejaVuSans-62" d="M 3116 1747 
Q 3116 2381 2855 2742 
Q 2594 3103 2138 3103 
Q 1681 3103 1420 2742 
Q 1159 2381 1159 1747 
Q 1159 1113 1420 752 
Q 1681 391 2138 391 
Q 2594 391 2855 752 
Q 3116 1113 3116 1747 
z
M 1159 2969 
Q 1341 3281 1617 3432 
Q 1894 3584 2278 3584 
Q 2916 3584 3314 3078 
Q 3713 2572 3713 1747 
Q 3713 922 3314 415 
Q 2916 -91 2278 -91 
Q 1894 -91 1617 61 
Q 1341 213 1159 525 
L 1159 0 
L 581 0 
L 581 4863 
L 1159 4863 
L 1159 2969 
z
" transform="scale(0.015625)"/>
       <path id="DejaVuSans-67" d="M 2906 1791 
Q 2906 2416 2648 2759 
Q 2391 3103 1925 3103 
Q 1463 3103 1205 2759 
Q 947 2416 947 1791 
Q 947 1169 1205 825 
Q 1463 481 1925 481 
Q 2391 481 2648 825 
Q 2906 1169 2906 1791 
z
M 3481 434 
Q 3481 -459 3084 -895 
Q 2688 -1331 1869 -1331 
Q 1566 -1331 1297 -1286 
Q 1028 -1241 775 -1147 
L 775 -588 
Q 1028 -725 1275 -790 
Q 1522 -856 1778 -856 
Q 2344 -856 2625 -561 
Q 2906 -266 2906 331 
L 2906 616 
Q 2728 306 2450 153 
Q 2172 0 1784 0 
Q 1141 0 747 490 
Q 353 981 353 1791 
Q 353 2603 747 3093 
Q 1141 3584 1784 3584 
Q 2172 3584 2450 3431 
Q 2728 3278 2906 2969 
L 2906 3500 
L 3481 3500 
L 3481 434 
z
" transform="scale(0.015625)"/>
       <path id="DejaVuSans-66" d="M 2375 4863 
L 2375 4384 
L 1825 4384 
Q 1516 4384 1395 4259 
Q 1275 4134 1275 3809 
L 1275 3500 
L 2222 3500 
L 2222 3053 
L 1275 3053 
L 1275 0 
L 697 0 
L 697 3053 
L 147 3053 
L 147 3500 
L 697 3500 
L 697 3744 
Q 697 4328 969 4595 
Q 1241 4863 1831 4863 
L 2375 4863 
z
" transform="scale(0.015625)"/>
      </defs>
      <use xlink:href="#DejaVuSans-46"/>
      <use xlink:href="#DejaVuSans-61" transform="translate(48.394531 0)"/>
      <use xlink:href="#DejaVuSans-6c" transform="translate(109.673828 0)"/>
      <use xlink:href="#DejaVuSans-73" transform="translate(137.457031 0)"/>
      <use xlink:href="#DejaVuSans-65" transform="translate(189.556641 0)"/>
      <use xlink:href="#DejaVuSans-2d" transform="translate(251.080078 0)"/>
      <use xlink:href="#DejaVuSans-70" transform="translate(287.164062 0)"/>
      <use xlink:href="#DejaVuSans-6f" transform="translate(350.640625 0)"/>
      <use xlink:href="#DejaVuSans-73" transform="translate(411.822266 0)"/>
      <use xlink:href="#DejaVuSans-69" transform="translate(463.921875 0)"/>
      <use xlink:href="#DejaVuSans-74" transform="translate(491.705078 0)"/>
      <use xlink:href="#DejaVuSans-69" transform="translate(530.914062 0)"/>
      <use xlink:href="#DejaVuSans-76" transform="translate(558.697266 0)"/>
      <use xlink:href="#DejaVuSans-65" transform="translate(617.876953 0)"/>
      <use xlink:href="#DejaVuSans-20" transform="translate(679.400391 0)"/>
      <use xlink:href="#DejaVuSans-72" transform="translate(711.1875 0)"/>
      <use xlink:href="#DejaVuSans-61" transform="translate(752.300781 0)"/>
      <use xlink:href="#DejaVuSans-74" transform="translate(813.580078 0)"/>
      <use xlink:href="#DejaVuSans-65" transform="translate(852.789062 0)"/>
      <use xlink:href="#DejaVuSans-20" transform="translate(914.3125 0)"/>
      <use xlink:href="#DejaVuSans-6f" transform="translate(946.099609 0)"/>
      <use xlink:href="#DejaVuSans-6e" transform="translate(1007.28125 0)"/>
      <use xlink:href="#DejaVuSans-20" transform="translate(1070.660156 0)"/>
      <use xlink:href="#DejaVuSans-72" transform="translate(1102.447266 0)"/>
      <use xlink:href="#DejaVuSans-65" transform="translate(1141.310547 0)"/>
      <use xlink:href="#DejaVuSans-61" transform="translate(1202.833984 0)"/>
      <use xlink:href="#DejaVuSans-6c" transform="translate(1264.113281 0)"/>
      <use xlink:href="#DejaVuSans-20" transform="translate(1291.896484 0)"/>
      <use xlink:href="#DejaVuSans-62" transform="translate(1323.683594 0)"/>
      <use xlink:href="#DejaVuSans-65" transform="translate(1387.160156 0)"/>
      <use xlink:href="#DejaVuSans-6e" transform="translate(1448.683594 0)"/>
      <use xlink:href="#DejaVuSans-69" transform="translate(1512.0625 0)"/>
      <use xlink:href="#DejaVuSans-67" transform="translate(1539.845703 0)"/>
      <use xlink:href="#DejaVuSans-6e" transform="translate(1603.322266 0)"/>
      <use xlink:href="#DejaVuSans-20" transform="translate(1666.701172 0)"/>
      <use xlink:href="#DejaVuSans-74" transform="translate(1698.488281 0)"/>
      <use xlink:href="#DejaVuSans-72" transform="translate(1737.697266 0)"/>
      <use xlink:href="#DejaVuSans-61" transform="translate(1778.810547 0)"/>
      <use xlink:href="#DejaVuSans-66" transform="translate(1840.089844 0)"/>
      <use xlink:href="#DejaVuSans-66" transform="translate(1875.294922 0)"/>
      <use xlink:href="#DejaVuSans-69" transform="translate(1910.5 0)"/>
      <use xlink:href="#DejaVuSans-63" transform="translate(1938.283203 0)"/>
     </g>
    </g>
   </g>
   <g id="line2d_25">
    <path d="M 47.72 26.88 
L 49.9078 185.183692 
L 52.0956 237.708956 
L 54.2834 256.954632 
L 58.659 275.8218 
L 63.0346 283.304612 
L 65.2224 288.691072 
L 67.4102 292.388804 
L 69.598 293.757256 
L 71.7858 294.659852 
L 73.9736 295.737144 
L 76.1614 296.465044 
L 78.3492 301.472996 
L 82.7248 302.987028 
L 91.476 305.52012 
L 93.6638 305.898628 
L 95.8516 306.713876 
L 100.2272 307.383544 
L 104.6028 308.257024 
L 106.7906 308.460836 
L 111.1662 309.188736 
L 115.5418 309.567244 
L 117.7296 309.88752 
L 128.6686 310.528072 
L 130.8564 310.761 
L 135.232 310.935696 
L 137.4198 311.168624 
L 139.6076 311.226856 
L 141.7954 311.401552 
L 143.9832 311.430668 
L 146.171 311.78006 
L 148.3588 311.983872 
L 159.2978 312.333264 
L 163.6734 312.770004 
L 168.049 312.828236 
L 170.2368 313.206744 
L 174.6124 313.38144 
L 181.1758 313.468788 
L 196.4904 313.789064 
L 200.866 313.81818 
L 203.0538 313.934644 
L 211.805 313.992876 
L 216.1806 314.080224 
L 224.9318 314.138456 
L 227.1196 314.25492 
L 246.8098 314.342268 
L 259.9366 314.429616 
L 303.6926 314.516964 
L 323.3828 314.69166 
L 336.5096 314.749892 
L 340.8852 314.866356 
L 354.012 314.953704 
L 371.5144 315.099284 
L 380.2656 315.157516 
L 384.6412 315.27398 
L 395.5802 315.361328 
L 399.9558 315.477792 
L 406.5192 315.594256 
L 410.8948 315.739836 
L 417.4582 315.827184 
L 432.7728 316.322156 
L 437.1484 316.467736 
L 463.402 317.45768 
L 476.5288 317.719724 
L 483.0922 318.04 
L 485.28 318.04 
L 485.28 318.04 
" clip-path="url(#p7a0a827dcf)" style="fill: none; stroke: #1f77b4; stroke-opacity: 0.9; stroke-width: 1.6; stroke-linecap: square"/>
   </g>
   <g id="line2d_26">
    <path d="M 47.72 26.88 
L 49.9078 84.879072 
L 52.0956 89.799676 
L 54.2834 92.507464 
L 56.4712 95.564644 
L 58.659 97.398952 
L 60.8468 98.592708 
L 63.0346 99.145912 
L 65.2224 103.222152 
L 69.598 104.7653 
L 71.7858 105.726128 
L 80.537 107.82248 
L 82.7248 109.511208 
L 84.9126 110.937892 
L 93.6638 112.131648 
L 95.8516 112.248112 
L 98.0394 114.51916 
L 100.2272 114.781204 
L 102.415 114.926784 
L 111.1662 116.237004 
L 113.354 116.731976 
L 119.9174 117.110484 
L 122.1052 117.197832 
L 124.293 117.401644 
L 126.4808 117.488992 
L 128.6686 117.692804 
L 150.5466 118.624516 
L 152.7344 119.119488 
L 157.11 119.265068 
L 163.6734 119.527112 
L 165.8612 119.643576 
L 168.049 119.90562 
L 172.4246 119.992968 
L 187.7392 120.48794 
L 192.1148 120.720868 
L 194.3026 120.749984 
L 196.4904 120.895564 
L 203.0538 121.041144 
L 207.4294 121.244956 
L 213.9928 121.477884 
L 222.744 121.856392 
L 229.3074 122.031088 
L 238.0586 122.322248 
L 242.4342 122.52606 
L 264.3122 122.904568 
L 266.5 126.194676 
L 275.2512 126.485836 
L 284.0024 126.6023 
L 290.5658 126.980808 
L 297.1292 127.155504 
L 323.3828 127.76694 
L 327.7584 127.91252 
L 334.3218 128.174564 
L 340.8852 128.34926 
L 358.3876 128.873348 
L 375.89 129.863292 
L 380.2656 130.125336 
L 386.829 130.358264 
L 395.5802 130.940584 
L 397.768 130.9697 
L 402.1436 131.348208 
L 410.8948 131.872296 
L 413.0826 132.13434 
L 421.8338 132.629312 
L 426.2094 133.00782 
L 430.585 133.269864 
L 432.7728 133.648372 
L 434.9606 133.852184 
L 439.3362 134.521852 
L 443.7118 135.133288 
L 452.463 136.094116 
L 454.6508 136.443508 
L 456.8386 136.967596 
L 459.0264 137.287872 
L 465.5898 138.947484 
L 469.9654 140.4324 
L 474.341 142.819912 
L 476.5288 144.828916 
L 478.7166 147.245544 
L 480.9044 152.51554 
L 483.0922 164.569564 
L 485.28 318.04 
L 485.28 318.04 
" clip-path="url(#p7a0a827dcf)" style="fill: none; stroke: #ff7f0e; stroke-opacity: 0.9; stroke-width: 1.6; stroke-linecap: square"/>
   </g>
   <g id="line2d_27">
    <path d="M 47.72 26.88 
L 49.9078 100.601712 
L 52.0956 106.279332 
L 54.2834 111.258168 
L 56.4712 112.976012 
L 58.659 113.820376 
L 60.8468 115.305292 
L 63.0346 116.324352 
L 67.4102 117.518108 
L 76.1614 119.119488 
L 78.3492 119.439764 
L 84.9126 119.90562 
L 87.1004 120.34236 
L 89.2882 120.34236 
L 91.476 120.546172 
L 93.6638 120.866448 
L 104.6028 121.79816 
L 108.9784 122.031088 
L 111.1662 122.264016 
L 119.9174 122.642524 
L 122.1052 122.904568 
L 126.4808 123.10838 
L 137.4198 123.603352 
L 139.6076 123.661584 
L 146.171 124.185672 
L 159.2978 124.85534 
L 163.6734 125.408544 
L 165.8612 125.525008 
L 170.2368 125.58324 
L 176.8002 125.8744 
L 178.988 125.903516 
L 181.1758 126.078212 
L 185.5514 126.16556 
L 189.927 126.427604 
L 196.4904 126.689648 
L 216.1806 127.242852 
L 220.5562 127.446664 
L 227.1196 127.592244 
L 231.4952 127.679592 
L 235.8708 127.737824 
L 253.3732 128.291028 
L 262.1244 128.786 
L 270.8756 128.960696 
L 275.2512 129.018928 
L 277.439 129.310088 
L 281.8146 129.484784 
L 288.378 129.834176 
L 292.7536 129.95064 
L 297.1292 129.979756 
L 301.5048 130.183568 
L 314.6316 130.67854 
L 319.0072 130.736772 
L 321.195 130.998816 
L 327.7584 131.26086 
L 332.134 131.435556 
L 336.5096 131.755832 
L 347.4486 131.959644 
L 358.3876 132.309036 
L 360.5754 132.309036 
L 369.3266 132.687544 
L 373.7022 132.804008 
L 380.2656 133.00782 
L 382.4534 133.269864 
L 391.2046 133.561024 
L 395.5802 133.706604 
L 406.5192 134.17246 
L 408.707 134.521852 
L 413.0826 134.813012 
L 419.646 135.278868 
L 424.0216 135.366216 
L 428.3972 135.744724 
L 432.7728 136.297928 
L 439.3362 136.909364 
L 441.524 137.637264 
L 452.463 138.656324 
L 454.6508 139.12218 
L 459.0264 139.908312 
L 465.5898 141.043836 
L 474.341 143.19842 
L 476.5288 144.101016 
L 478.7166 145.294772 
L 480.9044 147.798748 
L 483.0922 152.020568 
L 485.28 318.04 
L 485.28 318.04 
" clip-path="url(#p7a0a827dcf)" style="fill: none; stroke: #2ca02c; stroke-opacity: 0.9; stroke-width: 1.6; stroke-linecap: square"/>
   </g>
   <g id="line2d_28">
    <path d="M 47.72 26.88 
L 49.9078 137.287872 
L 52.0956 144.741568 
L 54.2834 148.381068 
L 56.4712 151.234436 
L 58.659 152.835816 
L 60.8468 154.728356 
L 63.0346 155.980344 
L 65.2224 156.708244 
L 67.4102 157.989348 
L 69.598 158.6299 
L 71.7858 159.386916 
L 82.7248 161.949124 
L 84.9126 162.41498 
L 89.2882 163.57962 
L 102.415 166.112712 
L 111.1662 168.23818 
L 113.354 169.11166 
L 115.5418 169.781328 
L 119.9174 170.392764 
L 124.293 170.887736 
L 126.4808 171.353592 
L 133.0442 172.139724 
L 135.232 172.576464 
L 139.6076 173.129668 
L 141.7954 173.653756 
L 146.171 174.35254 
L 150.5466 175.08044 
L 152.7344 175.458948 
L 154.9222 176.041268 
L 157.11 176.274196 
L 159.2978 176.8274 
L 168.049 178.079388 
L 170.2368 178.71994 
L 172.4246 179.069332 
L 176.8002 180.03016 
L 183.3636 181.311264 
L 185.5514 182.097396 
L 187.7392 182.417672 
L 189.927 182.999992 
L 192.1148 183.465848 
L 194.3026 186.14452 
L 196.4904 186.552144 
L 198.6782 187.338276 
L 200.866 187.7459 
L 205.2416 189.230816 
L 207.4294 190.133412 
L 211.805 192.462692 
L 213.9928 193.42352 
L 216.1806 195.0249 
L 218.3684 196.014844 
L 224.9318 199.916388 
L 227.1196 200.964564 
L 229.3074 202.274784 
L 231.4952 203.439424 
L 233.683 208.825884 
L 235.8708 210.45638 
L 238.0586 212.34892 
L 240.2464 213.746488 
L 244.622 218.084772 
L 251.1854 225.538468 
L 253.3732 228.479184 
L 255.561 232.089568 
L 257.7488 235.234096 
L 264.3122 247.404584 
L 266.5 255.353252 
L 270.8756 263.826008 
L 273.0634 267.989596 
L 275.2512 272.997548 
L 277.439 277.248484 
L 279.6268 281.877928 
L 281.8146 285.983284 
L 284.0024 291.719136 
L 288.378 301.73504 
L 290.5658 304.996032 
L 292.7536 307.616472 
L 294.9414 309.945752 
L 297.1292 312.857352 
L 301.5048 316.846244 
L 303.6926 317.486796 
L 308.0682 317.836188 
L 310.256 317.981768 
L 321.195 318.04 
L 485.28 318.04 
L 485.28 318.04 
" clip-path="url(#p7a0a827dcf)" style="fill: none; stroke: #d62728; stroke-opacity: 0.9; stroke-width: 1.6; stroke-linecap: square"/>
   </g>
   <g id="line2d_29">
    <path d="M 47.72 26.88 
L 49.9078 37.390876 
L 52.0956 43.738164 
L 54.2834 45.65982 
L 56.4712 47.2612 
L 60.8468 48.658768 
L 63.0346 48.979044 
L 65.2224 49.968988 
L 67.4102 50.231032 
L 69.598 51.104512 
L 71.7858 51.395672 
L 73.9736 51.48302 
L 76.1614 54.97694 
L 78.3492 55.297216 
L 80.537 55.471912 
L 84.9126 55.675724 
L 87.1004 55.937768 
L 108.9784 57.073292 
L 111.1662 57.335336 
L 117.7296 57.568264 
L 119.9174 58.150584 
L 122.1052 58.150584 
L 126.4808 58.47086 
L 133.0442 58.558208 
L 161.4856 59.227876 
L 172.4246 59.431688 
L 176.8002 59.519036 
L 185.5514 59.548152 
L 189.927 59.693732 
L 198.6782 59.868428 
L 205.2416 59.955776 
L 235.8708 60.450748 
L 242.4342 60.567212 
L 246.8098 60.625444 
L 253.3732 60.712792 
L 259.9366 60.771024 
L 266.5 60.94572 
L 268.6878 60.94572 
L 273.0634 61.0913 
L 303.6926 61.848316 
L 308.0682 61.906548 
L 334.3218 62.517984 
L 336.5096 62.517984 
L 338.6974 62.663564 
L 349.6364 62.750912 
L 351.8242 62.98384 
L 356.1998 63.158536 
L 362.7632 63.333232 
L 364.951 63.653508 
L 371.5144 63.769972 
L 373.7022 64.061132 
L 378.0778 64.119364 
L 380.2656 67.6424 
L 384.6412 67.817096 
L 386.829 67.817096 
L 389.0168 67.962676 
L 399.9558 68.195604 
L 410.8948 68.574112 
L 413.0826 68.603228 
L 419.646 69.039968 
L 426.2094 69.214664 
L 428.3972 69.476708 
L 434.9606 70.000796 
L 437.1484 70.175492 
L 441.524 70.321072 
L 448.0874 70.786928 
L 452.463 70.99074 
L 454.6508 71.252784 
L 456.8386 71.835104 
L 461.2142 72.184496 
L 463.402 72.563004 
L 465.5898 72.7377 
L 467.7776 73.17444 
L 469.9654 73.436484 
L 472.1532 74.426428 
L 474.341 75.06698 
L 478.7166 77.046868 
L 480.9044 78.735596 
L 483.0922 83.714432 
L 485.28 318.04 
L 485.28 318.04 
" clip-path="url(#p7a0a827dcf)" style="fill: none; stroke: #9467bd; stroke-opacity: 0.9; stroke-width: 1.6; stroke-linecap: square"/>
   </g>
   <g id="line2d_30">
    <path d="M 47.72 26.88 
L 49.9078 246.036132 
L 52.0956 272.997548 
L 54.2834 281.237376 
L 56.4712 284.84776 
L 58.659 288.021404 
L 60.8468 290.496264 
L 63.0346 291.864716 
L 69.598 294.718084 
L 71.7858 295.445984 
L 78.3492 298.037308 
L 82.7248 299.172832 
L 84.9126 299.755152 
L 87.1004 300.046312 
L 91.476 301.531228 
L 93.6638 301.88062 
L 95.8516 302.521172 
L 100.2272 303.33642 
L 102.415 303.831392 
L 108.9784 304.64664 
L 111.1662 305.52012 
L 117.7296 306.480948 
L 119.9174 306.917688 
L 122.1052 307.237964 
L 124.293 307.383544 
L 126.4808 307.791168 
L 133.0442 308.72288 
L 135.232 309.15962 
L 139.6076 309.479896 
L 148.3588 310.644536 
L 150.5466 310.790116 
L 159.2978 311.983872 
L 163.6734 312.275032 
L 165.8612 312.595308 
L 172.4246 313.032048 
L 178.988 313.410556 
L 181.1758 313.497904 
L 183.3636 313.789064 
L 189.927 314.051108 
L 192.1148 314.051108 
L 203.0538 314.54608 
L 233.683 314.953704 
L 235.8708 315.27398 
L 242.4342 315.303096 
L 251.1854 315.594256 
L 257.7488 315.652488 
L 262.1244 315.71072 
L 270.8756 315.798068 
L 284.0024 315.885416 
L 312.4438 315.972764 
L 316.8194 316.030996 
L 323.3828 316.060112 
L 327.7584 316.176576 
L 351.8242 316.263924 
L 362.7632 316.322156 
L 369.3266 316.351272 
L 373.7022 316.43862 
L 382.4534 316.5842 
L 391.2046 316.613316 
L 404.3314 316.700664 
L 415.2704 316.758896 
L 443.7118 316.817128 
L 448.0874 316.933592 
L 476.5288 317.399448 
L 483.0922 317.632376 
L 485.28 318.04 
L 485.28 318.04 
" clip-path="url(#p7a0a827dcf)" style="fill: none; stroke: #8c564b; stroke-opacity: 0.9; stroke-width: 1.6; stroke-linecap: square"/>
   </g>
   <g id="line2d_31">
    <path d="M 47.72 26.88 
L 49.9078 276.375004 
L 52.0956 285.371848 
L 54.2834 289.826596 
L 56.4712 292.010296 
L 58.659 293.204052 
L 60.8468 294.252228 
L 63.0346 294.863664 
L 65.2224 295.62068 
L 69.598 296.523276 
L 73.9736 297.280292 
L 80.537 298.153772 
L 82.7248 298.212004 
L 91.476 298.998136 
L 95.8516 299.434876 
L 100.2272 299.726036 
L 102.415 299.98808 
L 106.7906 300.046312 
L 111.1662 300.191892 
L 117.7296 300.453936 
L 119.9174 300.803328 
L 122.1052 300.948908 
L 124.293 300.978024 
L 128.6686 301.181836 
L 130.8564 301.210952 
L 135.232 301.414764 
L 148.3588 301.618576 
L 152.7344 301.822388 
L 161.4856 301.997084 
L 172.4246 302.346476 
L 196.4904 302.724984 
L 198.6782 302.841448 
L 200.866 302.841448 
L 205.2416 302.987028 
L 216.1806 303.04526 
L 224.9318 303.307304 
L 233.683 303.394652 
L 238.0586 303.656696 
L 257.7488 303.831392 
L 284.0024 303.889624 
L 290.5658 303.976972 
L 294.9414 303.976972 
L 297.1292 304.093436 
L 310.256 304.180784 
L 319.0072 304.2099 
L 336.5096 304.297248 
L 340.8852 304.35548 
L 345.2608 304.384596 
L 347.4486 304.530176 
L 375.89 304.821336 
L 397.768 304.879568 
L 410.8948 305.141612 
L 424.0216 305.22896 
L 428.3972 305.316308 
L 441.524 305.403656 
L 454.6508 305.491004 
L 463.402 305.6657 
L 467.7776 305.95686 
L 472.1532 306.277136 
L 474.341 306.451832 
L 476.5288 306.772108 
L 478.7166 307.383544 
L 480.9044 308.402604 
L 483.0922 311.430668 
L 485.28 318.04 
L 485.28 318.04 
" clip-path="url(#p7a0a827dcf)" style="fill: none; stroke: #e377c2; stroke-opacity: 0.9; stroke-width: 1.6; stroke-linecap: square"/>
   </g>
   <g id="line2d_32">
    <path d="M 47.72 26.88 
L 49.9078 269.037772 
L 52.0956 275.23948 
L 54.2834 277.85992 
L 56.4712 279.89804 
L 58.659 281.324724 
L 60.8468 282.51848 
L 67.4102 284.440136 
L 71.7858 285.546544 
L 76.1614 285.925052 
L 78.3492 286.332676 
L 80.537 286.565604 
L 82.7248 286.944112 
L 84.9126 287.147924 
L 87.1004 287.235272 
L 89.2882 287.526432 
L 93.6638 287.817592 
L 98.0394 288.079636 
L 102.415 288.283448 
L 108.9784 288.720188 
L 113.354 288.807536 
L 115.5418 289.011348 
L 122.1052 289.273392 
L 126.4808 289.477204 
L 170.2368 290.554496 
L 220.5562 291.282396 
L 224.9318 291.427976 
L 240.2464 291.660904 
L 248.9976 292.039412 
L 255.561 292.12676 
L 259.9366 292.184992 
L 266.5 292.359688 
L 279.6268 292.447036 
L 286.1902 292.5635 
L 290.5658 292.85466 
L 314.6316 293.233168 
L 319.0072 293.349632 
L 327.7584 293.553444 
L 334.3218 293.640792 
L 349.6364 293.902836 
L 356.1998 294.106648 
L 367.1388 294.339576 
L 389.0168 294.863664 
L 404.3314 294.921896 
L 424.0216 295.445984 
L 426.2094 295.62068 
L 439.3362 295.824492 
L 441.524 295.940956 
L 443.7118 296.290348 
L 450.2752 296.465044 
L 452.463 296.523276 
L 465.5898 297.571452 
L 474.341 298.765208 
L 476.5288 299.231064 
L 478.7166 300.512168 
L 480.9044 302.084432 
L 483.0922 305.08338 
L 485.28 314.371384 
L 485.28 314.371384 
" clip-path="url(#p7a0a827dcf)" style="fill: none; stroke: #7f7f7f; stroke-opacity: 0.9; stroke-width: 1.6; stroke-linecap: square"/>
   </g>
   <g id="line2d_33">
    <path d="M 47.72 26.88 
L 49.9078 231.798408 
L 52.0956 238.55332 
L 54.2834 239.688844 
L 56.4712 241.872544 
L 58.659 242.687792 
L 63.0346 244.056244 
L 65.2224 244.405636 
L 69.598 244.900608 
L 71.7858 245.453812 
L 76.1614 245.861436 
L 78.3492 246.239944 
L 82.7248 246.647568 
L 84.9126 247.229888 
L 91.476 247.812208 
L 93.6638 249.18066 
L 98.0394 249.6174 
L 104.6028 249.850328 
L 106.7906 250.025024 
L 113.354 250.257952 
L 117.7296 250.519996 
L 122.1052 250.665576 
L 146.171 251.539056 
L 152.7344 251.684636 
L 157.11 251.859332 
L 161.4856 251.888448 
L 165.8612 252.09226 
L 172.4246 252.121376 
L 174.6124 252.616348 
L 178.988 252.67458 
L 185.5514 252.849276 
L 189.927 252.936624 
L 194.3026 253.140436 
L 198.6782 253.286016 
L 200.866 253.431596 
L 207.4294 253.489828 
L 213.9928 253.664524 
L 231.4952 253.955684 
L 235.8708 254.072148 
L 314.6316 255.178556 
L 321.195 255.4406 
L 325.5706 255.498832 
L 340.8852 256.1685 
L 345.2608 256.372312 
L 349.6364 256.488776 
L 354.012 256.576124 
L 362.7632 256.954632 
L 380.2656 257.362256 
L 386.829 257.449604 
L 391.2046 257.595184 
L 397.768 257.91546 
L 404.3314 258.264852 
L 408.707 258.468664 
L 410.8948 260.797944 
L 413.0826 260.856176 
L 417.4582 261.11822 
L 421.8338 261.205568 
L 434.9606 261.642308 
L 456.8386 262.86518 
L 459.0264 263.185456 
L 463.402 263.389268 
L 467.7776 264.02982 
L 469.9654 264.553908 
L 472.1532 264.845068 
L 474.341 265.48562 
L 476.5288 269.474512 
L 478.7166 270.464456 
L 480.9044 272.153184 
L 483.0922 274.482464 
L 485.28 318.04 
L 485.28 318.04 
" clip-path="url(#p7a0a827dcf)" style="fill: none; stroke: #bcbd22; stroke-opacity: 0.9; stroke-width: 1.6; stroke-linecap: square"/>
   </g>
   <g id="line2d_34">
    <path d="M 47.72 26.88 
L 49.9078 210.718424 
L 52.0956 217.73538 
L 54.2834 221.171068 
L 58.659 224.8688 
L 60.8468 226.528412 
L 65.2224 228.391836 
L 67.4102 229.323548 
L 69.598 230.459072 
L 78.3492 233.283324 
L 82.7248 234.18592 
L 89.2882 235.554372 
L 91.476 235.816416 
L 93.6638 236.282272 
L 95.8516 236.864592 
L 98.0394 237.09752 
L 100.2272 237.563376 
L 104.6028 238.000116 
L 106.7906 238.291276 
L 111.1662 238.465972 
L 119.9174 239.13564 
L 122.1052 239.57238 
L 128.6686 240.096468 
L 133.0442 240.358512 
L 150.5466 241.726964 
L 152.7344 242.309284 
L 154.9222 242.513096 
L 157.11 242.513096 
L 159.2978 242.77514 
L 165.8612 243.299228 
L 170.2368 243.561272 
L 176.8002 243.968896 
L 189.927 244.929724 
L 200.866 245.424696 
L 203.0538 245.570276 
L 205.2416 245.83232 
L 209.6172 245.9779 
L 211.805 246.152596 
L 213.9928 246.210828 
L 216.1806 246.385524 
L 227.1196 246.764032 
L 233.683 247.4337 
L 238.0586 247.57928 
L 242.4342 247.666628 
L 246.8098 247.841324 
L 248.9976 248.1616 
L 253.3732 248.30718 
L 255.561 248.540108 
L 259.9366 248.831268 
L 264.3122 249.151544 
L 266.5 249.32624 
L 268.6878 249.355356 
L 270.8756 249.646516 
L 275.2512 250.025024 
L 277.439 250.19972 
L 281.8146 250.316184 
L 284.0024 250.578228 
L 286.1902 250.723808 
L 288.378 250.752924 
L 292.7536 251.014968 
L 299.317 251.422592 
L 301.5048 251.8011 
L 305.8804 252.063144 
L 310.256 252.38342 
L 316.8194 252.645464 
L 334.3218 253.83922 
L 336.5096 254.101264 
L 340.8852 254.188612 
L 343.073 254.479772 
L 347.4486 254.56712 
L 351.8242 254.7127 
L 354.012 254.945628 
L 362.7632 255.265904 
L 373.7022 255.935572 
L 378.0778 256.197616 
L 391.2046 257.129328 
L 393.3924 257.33314 
L 395.5802 257.420488 
L 397.768 257.91546 
L 402.1436 258.3522 
L 406.5192 258.847172 
L 410.8948 259.050984 
L 421.8338 260.011812 
L 426.2094 260.302972 
L 430.585 261.059988 
L 434.9606 261.40938 
L 437.1484 261.525844 
L 443.7118 262.42844 
L 445.8996 262.632252 
L 448.0874 263.15634 
L 450.2752 263.30192 
L 452.463 263.563964 
L 454.6508 264.02982 
L 456.8386 264.350096 
L 461.2142 265.223576 
L 463.402 265.48562 
L 465.5898 265.893244 
L 467.7776 266.621144 
L 469.9654 267.611088 
L 472.1532 268.39722 
L 474.341 269.387164 
L 476.5288 270.202412 
L 480.9044 273.463404 
L 483.0922 276.054728 
L 485.28 294.252228 
L 485.28 294.252228 
" clip-path="url(#p7a0a827dcf)" style="fill: none; stroke: #17becf; stroke-opacity: 0.9; stroke-width: 1.6; stroke-linecap: square"/>
   </g>
   <g id="line2d_35">
    <path d="M 47.72 26.88 
L 65.2224 26.88 
L 67.4102 28.510496 
L 69.598 71.514828 
L 71.7858 172.401768 
L 73.9736 203.497656 
L 76.1614 215.813724 
L 78.3492 222.073664 
L 80.537 226.295484 
L 84.9126 231.798408 
L 87.1004 233.428904 
L 93.6638 236.486084 
L 98.0394 238.174812 
L 104.6028 239.747076 
L 111.1662 240.940832 
L 115.5418 241.523152 
L 119.9174 241.785196 
L 124.293 242.163704 
L 143.9832 243.64862 
L 146.171 243.765084 
L 148.3588 243.765084 
L 152.7344 244.172708 
L 157.11 244.37652 
L 159.2978 244.66768 
L 163.6734 244.784144 
L 170.2368 245.075304 
L 174.6124 245.39558 
L 189.927 245.948784 
L 196.4904 246.036132 
L 207.4294 246.385524 
L 218.3684 246.618452 
L 231.4952 247.055192 
L 233.683 247.113424 
L 235.8708 247.28812 
L 253.3732 247.608396 
L 264.3122 247.957788 
L 273.0634 248.394528 
L 281.8146 248.45276 
L 286.1902 248.627456 
L 292.7536 248.685688 
L 297.1292 248.918616 
L 336.5096 250.05414 
L 340.8852 250.316184 
L 343.073 250.49088 
L 360.5754 251.014968 
L 364.951 251.277012 
L 371.5144 251.539056 
L 373.7022 251.684636 
L 378.0778 251.742868 
L 404.3314 252.703696 
L 406.5192 252.703696 
L 419.646 253.664524 
L 430.585 254.596236 
L 432.7728 254.85828 
L 437.1484 255.644412 
L 441.524 256.430544 
L 445.8996 257.682532 
L 448.0874 258.701592 
L 450.2752 259.575072 
L 452.463 261.147336 
L 454.6508 263.88424 
L 456.8386 268.571916 
L 459.0264 276.229424 
L 461.2142 286.682068 
L 463.402 306.073324 
L 465.5898 317.865304 
L 467.7776 318.010884 
L 476.5288 318.04 
L 485.28 318.04 
L 485.28 318.04 
" clip-path="url(#p7a0a827dcf)" style="fill: none; stroke: #1f77b4; stroke-opacity: 0.9; stroke-width: 1.6; stroke-linecap: square"/>
   </g>
   <g id="line2d_36">
    <path d="M 47.72 26.88 
L 54.2834 26.967348 
L 63.0346 27.491436 
L 65.2224 28.306684 
L 67.4102 44.815456 
L 69.598 98.418012 
L 71.7858 136.967596 
L 73.9736 160.347744 
L 76.1614 177.031212 
L 78.3492 186.697724 
L 80.537 192.812084 
L 82.7248 196.62628 
L 84.9126 199.68346 
L 89.2882 204.836992 
L 91.476 206.438372 
L 95.8516 209.29174 
L 98.0394 210.281684 
L 100.2272 211.883064 
L 102.415 212.378036 
L 108.9784 214.619968 
L 113.354 215.69726 
L 115.5418 216.366928 
L 117.7296 217.502452 
L 119.9174 218.084772 
L 128.6686 219.569688 
L 130.8564 220.006428 
L 133.0442 220.239356 
L 135.232 220.705212 
L 146.171 222.39394 
L 148.3588 222.743332 
L 150.5466 222.97626 
L 152.7344 223.005376 
L 157.11 223.471232 
L 159.2978 223.84974 
L 163.6734 223.99532 
L 165.8612 224.053552 
L 174.6124 225.072612 
L 181.1758 225.509352 
L 183.3636 225.74228 
L 187.7392 226.004324 
L 189.927 226.266368 
L 194.3026 226.644876 
L 198.6782 226.994268 
L 203.0538 227.168964 
L 209.6172 227.722168 
L 213.9928 227.896864 
L 216.1806 228.158908 
L 229.3074 229.003272 
L 231.4952 229.061504 
L 233.683 232.380728 
L 235.8708 232.409844 
L 248.9976 233.225092 
L 253.3732 233.45802 
L 257.7488 233.807412 
L 262.1244 234.04034 
L 284.0024 234.680892 
L 290.5658 234.942936 
L 292.7536 235.030284 
L 294.9414 235.263212 
L 301.5048 235.583488 
L 308.0682 236.194924 
L 312.4438 236.456968 
L 323.3828 237.213984 
L 325.5706 237.446912 
L 332.134 237.883652 
L 351.8242 239.106524 
L 354.012 239.13564 
L 356.1998 239.514148 
L 360.5754 239.776192 
L 364.951 240.067352 
L 378.0778 241.6105 
L 380.2656 242.018124 
L 382.4534 242.163704 
L 384.6412 242.542212 
L 386.829 242.62956 
L 402.1436 245.075304 
L 404.3314 245.54116 
L 408.707 246.152596 
L 410.8948 246.734916 
L 413.0826 247.14254 
L 417.4582 248.365412 
L 421.8338 249.32624 
L 428.3972 250.316184 
L 430.585 251.014968 
L 432.7728 251.568172 
L 434.9606 251.917564 
L 437.1484 252.412536 
L 441.524 253.635408 
L 445.8996 255.265904 
L 448.0874 257.04198 
L 450.2752 258.235736 
L 452.463 260.273856 
L 456.8386 263.913356 
L 459.0264 267.873132 
L 461.2142 273.696332 
L 463.402 281.674116 
L 465.5898 293.786372 
L 467.7776 307.237964 
L 469.9654 316.43862 
L 472.1532 317.050056 
L 476.5288 317.923536 
L 478.7166 318.04 
L 485.28 318.04 
L 485.28 318.04 
" clip-path="url(#p7a0a827dcf)" style="fill: none; stroke: #ff7f0e; stroke-opacity: 0.9; stroke-width: 1.6; stroke-linecap: square"/>
   </g>
   <g id="patch_3">
    <path d="M 47.72 318.04 
L 47.72 26.88 
" style="fill: none; stroke: #000000; stroke-width: 0.8; stroke-linejoin: miter; stroke-linecap: square"/>
   </g>
   <g id="patch_4">
    <path d="M 485.28 318.04 
L 485.28 26.88 
" style="fill: none; stroke: #000000; stroke-width: 0.8; stroke-linejoin: miter; stroke-linecap: square"/>
   </g>
   <g id="patch_5">
    <path d="M 47.72 318.04 
L 485.28 318.04 
" style="fill: none; stroke: #000000; stroke-width: 0.8; stroke-linejoin: miter; stroke-linecap: square"/>
   </g>
   <g id="patch_6">
    <path d="M 47.72 26.88 
L 485.28 26.88 
" style="fill: none; stroke: #000000; stroke-width: 0.8; stroke-linejoin: miter; stroke-linecap: square"/>
   </g>
   <g id="text_15">
    <!-- Threshold sensitivity — flat = robust, steep = brittle -->
    <g transform="translate(109.586875 20.88) scale(0.12 -0.12)">
     <defs>
      <path id="DejaVuSans-54" d="M -19 4666 
L 3928 4666 
L 3928 4134 
L 2272 4134 
L 2272 0 
L 1638 0 
L 1638 4134 
L -19 4134 
L -19 4666 
z
" transform="scale(0.015625)"/>
      <path id="DejaVuSans-79" d="M 2059 -325 
Q 1816 -950 1584 -1140 
Q 1353 -1331 966 -1331 
L 506 -1331 
L 506 -850 
L 844 -850 
Q 1081 -850 1212 -737 
Q 1344 -625 1503 -206 
L 1606 56 
L 191 3500 
L 800 3500 
L 1894 763 
L 2988 3500 
L 3597 3500 
L 2059 -325 
z
" transform="scale(0.015625)"/>
      <path id="DejaVuSans-2014" d="M 313 1978 
L 6088 1978 
L 6088 1528 
L 313 1528 
L 313 1978 
z
" transform="scale(0.015625)"/>
      <path id="DejaVuSans-3d" d="M 678 2906 
L 4684 2906 
L 4684 2381 
L 678 2381 
L 678 2906 
z
M 678 1631 
L 4684 1631 
L 4684 1100 
L 678 1100 
L 678 1631 
z
" transform="scale(0.015625)"/>
      <path id="DejaVuSans-75" d="M 544 1381 
L 544 3500 
L 1119 3500 
L 1119 1403 
Q 1119 906 1312 657 
Q 1506 409 1894 409 
Q 2359 409 2629 706 
Q 2900 1003 2900 1516 
L 2900 3500 
L 3475 3500 
L 3475 0 
L 2900 0 
L 2900 538 
Q 2691 219 2414 64 
Q 2138 -91 1772 -91 
Q 1169 -91 856 284 
Q 544 659 544 1381 
z
M 1991 3584 
L 1991 3584 
z
" transform="scale(0.015625)"/>
      <path id="DejaVuSans-2c" d="M 750 794 
L 1409 794 
L 1409 256 
L 897 -744 
L 494 -744 
L 750 256 
L 750 794 
z
" transform="scale(0.015625)"/>
     </defs>
     <use xlink:href="#DejaVuSans-54"/>
     <use xlink:href="#DejaVuSans-68" transform="translate(61.083984 0)"/>
     <use xlink:href="#DejaVuSans-72" transform="translate(124.462891 0)"/>
     <use xlink:href="#DejaVuSans-65" transform="translate(163.326172 0)"/>
     <use xlink:href="#DejaVuSans-73" transform="translate(224.849609 0)"/>
     <use xlink:href="#DejaVuSans-68" transform="translate(276.949219 0)"/>
     <use xlink:href="#DejaVuSans-6f" transform="translate(340.328125 0)"/>
     <use xlink:href="#DejaVuSans-6c" transform="translate(401.509766 0)"/>
     <use xlink:href="#DejaVuSans-64" transform="translate(429.292969 0)"/>
     <use xlink:href="#DejaVuSans-20" transform="translate(492.769531 0)"/>
     <use xlink:href="#DejaVuSans-73" transform="translate(524.556641 0)"/>
     <use xlink:href="#DejaVuSans-65" transform="translate(576.65625 0)"/>
     <use xlink:href="#DejaVuSans-6e" transform="translate(638.179688 0)"/>
     <use xlink:href="#DejaVuSans-73" transform="translate(701.558594 0)"/>
     <use xlink:href="#DejaVuSans-69" transform="translate(753.658203 0)"/>
     <use xlink:href="#DejaVuSans-74" transform="translate(781.441406 0)"/>
     <use xlink:href="#DejaVuSans-69" transform="translate(820.650391 0)"/>
     <use xlink:href="#DejaVuSans-76" transform="translate(848.433594 0)"/>
     <use xlink:href="#DejaVuSans-69" transform="translate(907.613281 0)"/>
     <use xlink:href="#DejaVuSans-74" transform="translate(935.396484 0)"/>
     <use xlink:href="#DejaVuSans-79" transform="translate(974.605469 0)"/>
     <use xlink:href="#DejaVuSans-20" transform="translate(1033.785156 0)"/>
     <use xlink:href="#DejaVuSans-2014" transform="translate(1065.572266 0)"/>
     <use xlink:href="#DejaVuSans-20" transform="translate(1165.572266 0)"/>
     <use xlink:href="#DejaVuSans-66" transform="translate(1197.359375 0)"/>
     <use xlink:href="#DejaVuSans-6c" transform="translate(1232.564453 0)"/>
     <use xlink:href="#DejaVuSans-61" transform="translate(1260.347656 0)"/>
     <use xlink:href="#DejaVuSans-74" transform="translate(1321.626953 0)"/>
     <use xlink:href="#DejaVuSans-20" transform="translate(1360.835938 0)"/>
     <use xlink:href="#DejaVuSans-3d" transform="translate(1392.623047 0)"/>
     <use xlink:href="#DejaVuSans-20" transform="translate(1476.412109 0)"/>
     <use xlink:href="#DejaVuSans-72" transform="translate(1508.199219 0)"/>
     <use xlink:href="#DejaVuSans-6f" transform="translate(1547.0625 0)"/>
     <use xlink:href="#DejaVuSans-62" transform="translate(1608.244141 0)"/>
     <use xlink:href="#DejaVuSans-75" transform="translate(1671.720703 0)"/>
     <use xlink:href="#DejaVuSans-73" transform="translate(1735.099609 0)"/>
     <use xlink:href="#DejaVuSans-74" transform="translate(1787.199219 0)"/>
     <use xlink:href="#DejaVuSans-2c" transform="translate(1826.408203 0)"/>
     <use xlink:href="#DejaVuSans-20" transform="translate(1858.195312 0)"/>
     <use xlink:href="#DejaVuSans-73" transform="translate(1889.982422 0)"/>
     <use xlink:href="#DejaVuSans-74" transform="translate(1942.082031 0)"/>
     <use xlink:href="#DejaVuSans-65" transform="translate(1981.291016 0)"/>
     <use xlink:href="#DejaVuSans-65" transform="translate(2042.814453 0)"/>
     <use xlink:href="#DejaVuSans-70" transform="translate(2104.337891 0)"/>
     <use xlink:href="#DejaVuSans-20" transform="translate(2167.814453 0)"/>
     <use xlink:href="#DejaVuSans-3d" transform="translate(2199.601562 0)"/>
     <use xlink:href="#DejaVuSans-20" transform="translate(2283.390625 0)"/>
     <use xlink:href="#DejaVuSans-62" transform="translate(2315.177734 0)"/>
     <use xlink:href="#DejaVuSans-72" transform="translate(2378.654297 0)"/>
     <use xlink:href="#DejaVuSans-69" transform="translate(2419.767578 0)"/>
     <use xlink:href="#DejaVuSans-74" transform="translate(2447.550781 0)"/>
     <use xlink:href="#DejaVuSans-74" transform="translate(2486.759766 0)"/>
     <use xlink:href="#DejaVuSans-6c" transform="translate(2525.96875 0)"/>
     <use xlink:href="#DejaVuSans-65" transform="translate(2553.751953 0)"/>
    </g>
   </g>
   <g id="legend_1">
    <g id="patch_7">
     <path d="M 311.486406 155.77625 
L 480.38 155.77625 
Q 481.78 155.77625 481.78 154.37625 
L 481.78 31.78 
Q 481.78 30.38 480.38 30.38 
L 311.486406 30.38 
Q 310.086406 30.38 310.086406 31.78 
L 310.086406 154.37625 
Q 310.086406 155.77625 311.486406 155.77625 
z
" style="fill: #ffffff; opacity: 0.8; stroke: #cccccc; stroke-linejoin: miter"/>
    </g>
    <g id="line2d_37">
     <path d="M 312.886406 36.048906 
L 319.886406 36.048906 
L 326.886406 36.048906 
" style="fill: none; stroke: #1f77b4; stroke-opacity: 0.9; stroke-width: 1.6; stroke-linecap: square"/>
    </g>
    <g id="text_16">
     <!-- bastion-prompt-protection (70M) -->
     <g transform="translate(332.486406 38.498906) scale(0.07 -0.07)">
      <defs>
       <path id="DejaVuSans-6d" d="M 3328 2828 
Q 3544 3216 3844 3400 
Q 4144 3584 4550 3584 
Q 5097 3584 5394 3201 
Q 5691 2819 5691 2113 
L 5691 0 
L 5113 0 
L 5113 2094 
Q 5113 2597 4934 2840 
Q 4756 3084 4391 3084 
Q 3944 3084 3684 2787 
Q 3425 2491 3425 1978 
L 3425 0 
L 2847 0 
L 2847 2094 
Q 2847 2600 2669 2842 
Q 2491 3084 2119 3084 
Q 1678 3084 1418 2786 
Q 1159 2488 1159 1978 
L 1159 0 
L 581 0 
L 581 3500 
L 1159 3500 
L 1159 2956 
Q 1356 3278 1631 3431 
Q 1906 3584 2284 3584 
Q 2666 3584 2933 3390 
Q 3200 3197 3328 2828 
z
" transform="scale(0.015625)"/>
       <path id="DejaVuSans-28" d="M 1984 4856 
Q 1566 4138 1362 3434 
Q 1159 2731 1159 2009 
Q 1159 1288 1364 580 
Q 1569 -128 1984 -844 
L 1484 -844 
Q 1016 -109 783 600 
Q 550 1309 550 2009 
Q 550 2706 781 3412 
Q 1013 4119 1484 4856 
L 1984 4856 
z
" transform="scale(0.015625)"/>
       <path id="DejaVuSans-37" d="M 525 4666 
L 3525 4666 
L 3525 4397 
L 1831 0 
L 1172 0 
L 2766 4134 
L 525 4134 
L 525 4666 
z
" transform="scale(0.015625)"/>
       <path id="DejaVuSans-4d" d="M 628 4666 
L 1569 4666 
L 2759 1491 
L 3956 4666 
L 4897 4666 
L 4897 0 
L 4281 0 
L 4281 4097 
L 3078 897 
L 2444 897 
L 1241 4097 
L 1241 0 
L 628 0 
L 628 4666 
z
" transform="scale(0.015625)"/>
       <path id="DejaVuSans-29" d="M 513 4856 
L 1013 4856 
Q 1481 4119 1714 3412 
Q 1947 2706 1947 2009 
Q 1947 1309 1714 600 
Q 1481 -109 1013 -844 
L 513 -844 
Q 928 -128 1133 580 
Q 1338 1288 1338 2009 
Q 1338 2731 1133 3434 
Q 928 4138 513 4856 
z
" transform="scale(0.015625)"/>
      </defs>
      <use xlink:href="#DejaVuSans-62"/>
      <use xlink:href="#DejaVuSans-61" transform="translate(63.476562 0)"/>
      <use xlink:href="#DejaVuSans-73" transform="translate(124.755859 0)"/>
      <use xlink:href="#DejaVuSans-74" transform="translate(176.855469 0)"/>
      <use xlink:href="#DejaVuSans-69" transform="translate(216.064453 0)"/>
      <use xlink:href="#DejaVuSans-6f" transform="translate(243.847656 0)"/>
      <use xlink:href="#DejaVuSans-6e" transform="translate(305.029297 0)"/>
      <use xlink:href="#DejaVuSans-2d" transform="translate(368.408203 0)"/>
      <use xlink:href="#DejaVuSans-70" transform="translate(404.492188 0)"/>
      <use xlink:href="#DejaVuSans-72" transform="translate(467.96875 0)"/>
      <use xlink:href="#DejaVuSans-6f" transform="translate(506.832031 0)"/>
      <use xlink:href="#DejaVuSans-6d" transform="translate(568.013672 0)"/>
      <use xlink:href="#DejaVuSans-70" transform="translate(665.425781 0)"/>
      <use xlink:href="#DejaVuSans-74" transform="translate(728.902344 0)"/>
      <use xlink:href="#DejaVuSans-2d" transform="translate(768.111328 0)"/>
      <use xlink:href="#DejaVuSans-70" transform="translate(804.195312 0)"/>
      <use xlink:href="#DejaVuSans-72" transform="translate(867.671875 0)"/>
      <use xlink:href="#DejaVuSans-6f" transform="translate(906.535156 0)"/>
      <use xlink:href="#DejaVuSans-74" transform="translate(967.716797 0)"/>
      <use xlink:href="#DejaVuSans-65" transform="translate(1006.925781 0)"/>
      <use xlink:href="#DejaVuSans-63" transform="translate(1068.449219 0)"/>
      <use xlink:href="#DejaVuSans-74" transform="translate(1123.429688 0)"/>
      <use xlink:href="#DejaVuSans-69" transform="translate(1162.638672 0)"/>
      <use xlink:href="#DejaVuSans-6f" transform="translate(1190.421875 0)"/>
      <use xlink:href="#DejaVuSans-6e" transform="translate(1251.603516 0)"/>
      <use xlink:href="#DejaVuSans-20" transform="translate(1314.982422 0)"/>
      <use xlink:href="#DejaVuSans-28" transform="translate(1346.769531 0)"/>
      <use xlink:href="#DejaVuSans-37" transform="translate(1385.783203 0)"/>
      <use xlink:href="#DejaVuSans-30" transform="translate(1449.40625 0)"/>
      <use xlink:href="#DejaVuSans-4d" transform="translate(1513.029297 0)"/>
      <use xlink:href="#DejaVuSans-29" transform="translate(1599.308594 0)"/>
     </g>
    </g>
    <g id="line2d_38">
     <path d="M 312.886406 46.323594 
L 319.886406 46.323594 
L 326.886406 46.323594 
" style="fill: none; stroke: #ff7f0e; stroke-opacity: 0.9; stroke-width: 1.6; stroke-linecap: square"/>
    </g>
    <g id="text_17">
     <!-- deepset injection (184M) -->
     <g transform="translate(332.486406 48.773594) scale(0.07 -0.07)">
      <defs>
       <path id="DejaVuSans-6a" d="M 603 3500 
L 1178 3500 
L 1178 -63 
Q 1178 -731 923 -1031 
Q 669 -1331 103 -1331 
L -116 -1331 
L -116 -844 
L 38 -844 
Q 366 -844 484 -692 
Q 603 -541 603 -63 
L 603 3500 
z
M 603 4863 
L 1178 4863 
L 1178 4134 
L 603 4134 
L 603 4863 
z
" transform="scale(0.015625)"/>
      </defs>
      <use xlink:href="#DejaVuSans-64"/>
      <use xlink:href="#DejaVuSans-65" transform="translate(63.476562 0)"/>
      <use xlink:href="#DejaVuSans-65" transform="translate(125 0)"/>
      <use xlink:href="#DejaVuSans-70" transform="translate(186.523438 0)"/>
      <use xlink:href="#DejaVuSans-73" transform="translate(250 0)"/>
      <use xlink:href="#DejaVuSans-65" transform="translate(302.099609 0)"/>
      <use xlink:href="#DejaVuSans-74" transform="translate(363.623047 0)"/>
      <use xlink:href="#DejaVuSans-20" transform="translate(402.832031 0)"/>
      <use xlink:href="#DejaVuSans-69" transform="translate(434.619141 0)"/>
      <use xlink:href="#DejaVuSans-6e" transform="translate(462.402344 0)"/>
      <use xlink:href="#DejaVuSans-6a" transform="translate(525.78125 0)"/>
      <use xlink:href="#DejaVuSans-65" transform="translate(553.564453 0)"/>
      <use xlink:href="#DejaVuSans-63" transform="translate(615.087891 0)"/>
      <use xlink:href="#DejaVuSans-74" transform="translate(670.068359 0)"/>
      <use xlink:href="#DejaVuSans-69" transform="translate(709.277344 0)"/>
      <use xlink:href="#DejaVuSans-6f" transform="translate(737.060547 0)"/>
      <use xlink:href="#DejaVuSans-6e" transform="translate(798.242188 0)"/>
      <use xlink:href="#DejaVuSans-20" transform="translate(861.621094 0)"/>
      <use xlink:href="#DejaVuSans-28" transform="translate(893.408203 0)"/>
      <use xlink:href="#DejaVuSans-31" transform="translate(932.421875 0)"/>
      <use xlink:href="#DejaVuSans-38" transform="translate(996.044922 0)"/>
      <use xlink:href="#DejaVuSans-34" transform="translate(1059.667969 0)"/>
      <use xlink:href="#DejaVuSans-4d" transform="translate(1123.291016 0)"/>
      <use xlink:href="#DejaVuSans-29" transform="translate(1209.570312 0)"/>
     </g>
    </g>
    <g id="line2d_39">
     <path d="M 312.886406 56.598281 
L 319.886406 56.598281 
L 326.886406 56.598281 
" style="fill: none; stroke: #2ca02c; stroke-opacity: 0.9; stroke-width: 1.6; stroke-linecap: square"/>
    </g>
    <g id="text_18">
     <!-- fmops distilbert (67M) -->
     <g transform="translate(332.486406 59.048281) scale(0.07 -0.07)">
      <use xlink:href="#DejaVuSans-66"/>
      <use xlink:href="#DejaVuSans-6d" transform="translate(35.205078 0)"/>
      <use xlink:href="#DejaVuSans-6f" transform="translate(132.617188 0)"/>
      <use xlink:href="#DejaVuSans-70" transform="translate(193.798828 0)"/>
      <use xlink:href="#DejaVuSans-73" transform="translate(257.275391 0)"/>
      <use xlink:href="#DejaVuSans-20" transform="translate(309.375 0)"/>
      <use xlink:href="#DejaVuSans-64" transform="translate(341.162109 0)"/>
      <use xlink:href="#DejaVuSans-69" transform="translate(404.638672 0)"/>
      <use xlink:href="#DejaVuSans-73" transform="translate(432.421875 0)"/>
      <use xlink:href="#DejaVuSans-74" transform="translate(484.521484 0)"/>
      <use xlink:href="#DejaVuSans-69" transform="translate(523.730469 0)"/>
      <use xlink:href="#DejaVuSans-6c" transform="translate(551.513672 0)"/>
      <use xlink:href="#DejaVuSans-62" transform="translate(579.296875 0)"/>
      <use xlink:href="#DejaVuSans-65" transform="translate(642.773438 0)"/>
      <use xlink:href="#DejaVuSans-72" transform="translate(704.296875 0)"/>
      <use xlink:href="#DejaVuSans-74" transform="translate(745.410156 0)"/>
      <use xlink:href="#DejaVuSans-20" transform="translate(784.619141 0)"/>
      <use xlink:href="#DejaVuSans-28" transform="translate(816.40625 0)"/>
      <use xlink:href="#DejaVuSans-36" transform="translate(855.419922 0)"/>
      <use xlink:href="#DejaVuSans-37" transform="translate(919.042969 0)"/>
      <use xlink:href="#DejaVuSans-4d" transform="translate(982.666016 0)"/>
      <use xlink:href="#DejaVuSans-29" transform="translate(1068.945312 0)"/>
     </g>
    </g>
    <g id="line2d_40">
     <path d="M 312.886406 66.872969 
L 319.886406 66.872969 
L 326.886406 66.872969 
" style="fill: none; stroke: #d62728; stroke-opacity: 0.9; stroke-width: 1.6; stroke-linecap: square"/>
    </g>
    <g id="text_19">
     <!-- hlyn judge (70M) -->
     <g transform="translate(332.486406 69.322969) scale(0.07 -0.07)">
      <use xlink:href="#DejaVuSans-68"/>
      <use xlink:href="#DejaVuSans-6c" transform="translate(63.378906 0)"/>
      <use xlink:href="#DejaVuSans-79" transform="translate(91.162109 0)"/>
      <use xlink:href="#DejaVuSans-6e" transform="translate(150.341797 0)"/>
      <use xlink:href="#DejaVuSans-20" transform="translate(213.720703 0)"/>
      <use xlink:href="#DejaVuSans-6a" transform="translate(245.507812 0)"/>
      <use xlink:href="#DejaVuSans-75" transform="translate(273.291016 0)"/>
      <use xlink:href="#DejaVuSans-64" transform="translate(336.669922 0)"/>
      <use xlink:href="#DejaVuSans-67" transform="translate(400.146484 0)"/>
      <use xlink:href="#DejaVuSans-65" transform="translate(463.623047 0)"/>
      <use xlink:href="#DejaVuSans-20" transform="translate(525.146484 0)"/>
      <use xlink:href="#DejaVuSans-28" transform="translate(556.933594 0)"/>
      <use xlink:href="#DejaVuSans-37" transform="translate(595.947266 0)"/>
      <use xlink:href="#DejaVuSans-30" transform="translate(659.570312 0)"/>
      <use xlink:href="#DejaVuSans-4d" transform="translate(723.193359 0)"/>
      <use xlink:href="#DejaVuSans-29" transform="translate(809.472656 0)"/>
     </g>
    </g>
    <g id="line2d_41">
     <path d="M 312.886406 77.147656 
L 319.886406 77.147656 
L 326.886406 77.147656 
" style="fill: none; stroke: #9467bd; stroke-opacity: 0.9; stroke-width: 1.6; stroke-linecap: square"/>
    </g>
    <g id="text_20">
     <!-- meta prompt-guard v1 (86M, deprecated) -->
     <g transform="translate(332.486406 79.597656) scale(0.07 -0.07)">
      <use xlink:href="#DejaVuSans-6d"/>
      <use xlink:href="#DejaVuSans-65" transform="translate(97.412109 0)"/>
      <use xlink:href="#DejaVuSans-74" transform="translate(158.935547 0)"/>
      <use xlink:href="#DejaVuSans-61" transform="translate(198.144531 0)"/>
      <use xlink:href="#DejaVuSans-20" transform="translate(259.423828 0)"/>
      <use xlink:href="#DejaVuSans-70" transform="translate(291.210938 0)"/>
      <use xlink:href="#DejaVuSans-72" transform="translate(354.6875 0)"/>
      <use xlink:href="#DejaVuSans-6f" transform="translate(393.550781 0)"/>
      <use xlink:href="#DejaVuSans-6d" transform="translate(454.732422 0)"/>
      <use xlink:href="#DejaVuSans-70" transform="translate(552.144531 0)"/>
      <use xlink:href="#DejaVuSans-74" transform="translate(615.621094 0)"/>
      <use xlink:href="#DejaVuSans-2d" transform="translate(654.830078 0)"/>
      <use xlink:href="#DejaVuSans-67" transform="translate(690.914062 0)"/>
      <use xlink:href="#DejaVuSans-75" transform="translate(754.390625 0)"/>
      <use xlink:href="#DejaVuSans-61" transform="translate(817.769531 0)"/>
      <use xlink:href="#DejaVuSans-72" transform="translate(879.048828 0)"/>
      <use xlink:href="#DejaVuSans-64" transform="translate(918.412109 0)"/>
      <use xlink:href="#DejaVuSans-20" transform="translate(981.888672 0)"/>
      <use xlink:href="#DejaVuSans-76" transform="translate(1013.675781 0)"/>
      <use xlink:href="#DejaVuSans-31" transform="translate(1072.855469 0)"/>
      <use xlink:href="#DejaVuSans-20" transform="translate(1136.478516 0)"/>
      <use xlink:href="#DejaVuSans-28" transform="translate(1168.265625 0)"/>
      <use xlink:href="#DejaVuSans-38" transform="translate(1207.279297 0)"/>
      <use xlink:href="#DejaVuSans-36" transform="translate(1270.902344 0)"/>
      <use xlink:href="#DejaVuSans-4d" transform="translate(1334.525391 0)"/>
      <use xlink:href="#DejaVuSans-2c" transform="translate(1420.804688 0)"/>
      <use xlink:href="#DejaVuSans-20" transform="translate(1452.591797 0)"/>
      <use xlink:href="#DejaVuSans-64" transform="translate(1484.378906 0)"/>
      <use xlink:href="#DejaVuSans-65" transform="translate(1547.855469 0)"/>
      <use xlink:href="#DejaVuSans-70" transform="translate(1609.378906 0)"/>
      <use xlink:href="#DejaVuSans-72" transform="translate(1672.855469 0)"/>
      <use xlink:href="#DejaVuSans-65" transform="translate(1711.71875 0)"/>
      <use xlink:href="#DejaVuSans-63" transform="translate(1773.242188 0)"/>
      <use xlink:href="#DejaVuSans-61" transform="translate(1828.222656 0)"/>
      <use xlink:href="#DejaVuSans-74" transform="translate(1889.501953 0)"/>
      <use xlink:href="#DejaVuSans-65" transform="translate(1928.710938 0)"/>
      <use xlink:href="#DejaVuSans-64" transform="translate(1990.234375 0)"/>
      <use xlink:href="#DejaVuSans-29" transform="translate(2053.710938 0)"/>
     </g>
    </g>
    <g id="line2d_42">
     <path d="M 312.886406 87.422344 
L 319.886406 87.422344 
L 326.886406 87.422344 
" style="fill: none; stroke: #8c564b; stroke-opacity: 0.9; stroke-width: 1.6; stroke-linecap: square"/>
    </g>
    <g id="text_21">
     <!-- meta prompt-guard v2 (22M) -->
     <g transform="translate(332.486406 89.872344) scale(0.07 -0.07)">
      <use xlink:href="#DejaVuSans-6d"/>
      <use xlink:href="#DejaVuSans-65" transform="translate(97.412109 0)"/>
      <use xlink:href="#DejaVuSans-74" transform="translate(158.935547 0)"/>
      <use xlink:href="#DejaVuSans-61" transform="translate(198.144531 0)"/>
      <use xlink:href="#DejaVuSans-20" transform="translate(259.423828 0)"/>
      <use xlink:href="#DejaVuSans-70" transform="translate(291.210938 0)"/>
      <use xlink:href="#DejaVuSans-72" transform="translate(354.6875 0)"/>
      <use xlink:href="#DejaVuSans-6f" transform="translate(393.550781 0)"/>
      <use xlink:href="#DejaVuSans-6d" transform="translate(454.732422 0)"/>
      <use xlink:href="#DejaVuSans-70" transform="translate(552.144531 0)"/>
      <use xlink:href="#DejaVuSans-74" transform="translate(615.621094 0)"/>
      <use xlink:href="#DejaVuSans-2d" transform="translate(654.830078 0)"/>
      <use xlink:href="#DejaVuSans-67" transform="translate(690.914062 0)"/>
      <use xlink:href="#DejaVuSans-75" transform="translate(754.390625 0)"/>
      <use xlink:href="#DejaVuSans-61" transform="translate(817.769531 0)"/>
      <use xlink:href="#DejaVuSans-72" transform="translate(879.048828 0)"/>
      <use xlink:href="#DejaVuSans-64" transform="translate(918.412109 0)"/>
      <use xlink:href="#DejaVuSans-20" transform="translate(981.888672 0)"/>
      <use xlink:href="#DejaVuSans-76" transform="translate(1013.675781 0)"/>
      <use xlink:href="#DejaVuSans-32" transform="translate(1072.855469 0)"/>
      <use xlink:href="#DejaVuSans-20" transform="translate(1136.478516 0)"/>
      <use xlink:href="#DejaVuSans-28" transform="translate(1168.265625 0)"/>
      <use xlink:href="#DejaVuSans-32" transform="translate(1207.279297 0)"/>
      <use xlink:href="#DejaVuSans-32" transform="translate(1270.902344 0)"/>
      <use xlink:href="#DejaVuSans-4d" transform="translate(1334.525391 0)"/>
      <use xlink:href="#DejaVuSans-29" transform="translate(1420.804688 0)"/>
     </g>
    </g>
    <g id="line2d_43">
     <path d="M 312.886406 97.697031 
L 319.886406 97.697031 
L 326.886406 97.697031 
" style="fill: none; stroke: #e377c2; stroke-opacity: 0.9; stroke-width: 1.6; stroke-linecap: square"/>
    </g>
    <g id="text_22">
     <!-- meta prompt-guard v2 (86M) -->
     <g transform="translate(332.486406 100.147031) scale(0.07 -0.07)">
      <use xlink:href="#DejaVuSans-6d"/>
      <use xlink:href="#DejaVuSans-65" transform="translate(97.412109 0)"/>
      <use xlink:href="#DejaVuSans-74" transform="translate(158.935547 0)"/>
      <use xlink:href="#DejaVuSans-61" transform="translate(198.144531 0)"/>
      <use xlink:href="#DejaVuSans-20" transform="translate(259.423828 0)"/>
      <use xlink:href="#DejaVuSans-70" transform="translate(291.210938 0)"/>
      <use xlink:href="#DejaVuSans-72" transform="translate(354.6875 0)"/>
      <use xlink:href="#DejaVuSans-6f" transform="translate(393.550781 0)"/>
      <use xlink:href="#DejaVuSans-6d" transform="translate(454.732422 0)"/>
      <use xlink:href="#DejaVuSans-70" transform="translate(552.144531 0)"/>
      <use xlink:href="#DejaVuSans-74" transform="translate(615.621094 0)"/>
      <use xlink:href="#DejaVuSans-2d" transform="translate(654.830078 0)"/>
      <use xlink:href="#DejaVuSans-67" transform="translate(690.914062 0)"/>
      <use xlink:href="#DejaVuSans-75" transform="translate(754.390625 0)"/>
      <use xlink:href="#DejaVuSans-61" transform="translate(817.769531 0)"/>
      <use xlink:href="#DejaVuSans-72" transform="translate(879.048828 0)"/>
      <use xlink:href="#DejaVuSans-64" transform="translate(918.412109 0)"/>
      <use xlink:href="#DejaVuSans-20" transform="translate(981.888672 0)"/>
      <use xlink:href="#DejaVuSans-76" transform="translate(1013.675781 0)"/>
      <use xlink:href="#DejaVuSans-32" transform="translate(1072.855469 0)"/>
      <use xlink:href="#DejaVuSans-20" transform="translate(1136.478516 0)"/>
      <use xlink:href="#DejaVuSans-28" transform="translate(1168.265625 0)"/>
      <use xlink:href="#DejaVuSans-38" transform="translate(1207.279297 0)"/>
      <use xlink:href="#DejaVuSans-36" transform="translate(1270.902344 0)"/>
      <use xlink:href="#DejaVuSans-4d" transform="translate(1334.525391 0)"/>
      <use xlink:href="#DejaVuSans-29" transform="translate(1420.804688 0)"/>
     </g>
    </g>
    <g id="line2d_44">
     <path d="M 312.886406 107.971719 
L 319.886406 107.971719 
L 326.886406 107.971719 
" style="fill: none; stroke: #7f7f7f; stroke-opacity: 0.9; stroke-width: 1.6; stroke-linecap: square"/>
    </g>
    <g id="text_23">
     <!-- protectai v2 (184M) -->
     <g transform="translate(332.486406 110.421719) scale(0.07 -0.07)">
      <use xlink:href="#DejaVuSans-70"/>
      <use xlink:href="#DejaVuSans-72" transform="translate(63.476562 0)"/>
      <use xlink:href="#DejaVuSans-6f" transform="translate(102.339844 0)"/>
      <use xlink:href="#DejaVuSans-74" transform="translate(163.521484 0)"/>
      <use xlink:href="#DejaVuSans-65" transform="translate(202.730469 0)"/>
      <use xlink:href="#DejaVuSans-63" transform="translate(264.253906 0)"/>
      <use xlink:href="#DejaVuSans-74" transform="translate(319.234375 0)"/>
      <use xlink:href="#DejaVuSans-61" transform="translate(358.443359 0)"/>
      <use xlink:href="#DejaVuSans-69" transform="translate(419.722656 0)"/>
      <use xlink:href="#DejaVuSans-20" transform="translate(447.505859 0)"/>
      <use xlink:href="#DejaVuSans-76" transform="translate(479.292969 0)"/>
      <use xlink:href="#DejaVuSans-32" transform="translate(538.472656 0)"/>
      <use xlink:href="#DejaVuSans-20" transform="translate(602.095703 0)"/>
      <use xlink:href="#DejaVuSans-28" transform="translate(633.882812 0)"/>
      <use xlink:href="#DejaVuSans-31" transform="translate(672.896484 0)"/>
      <use xlink:href="#DejaVuSans-38" transform="translate(736.519531 0)"/>
      <use xlink:href="#DejaVuSans-34" transform="translate(800.142578 0)"/>
      <use xlink:href="#DejaVuSans-4d" transform="translate(863.765625 0)"/>
      <use xlink:href="#DejaVuSans-29" transform="translate(950.044922 0)"/>
     </g>
    </g>
    <g id="line2d_45">
     <path d="M 312.886406 118.246406 
L 319.886406 118.246406 
L 326.886406 118.246406 
" style="fill: none; stroke: #bcbd22; stroke-opacity: 0.9; stroke-width: 1.6; stroke-linecap: square"/>
    </g>
    <g id="text_24">
     <!-- proventra mdeberta (280M) -->
     <g transform="translate(332.486406 120.696406) scale(0.07 -0.07)">
      <use xlink:href="#DejaVuSans-70"/>
      <use xlink:href="#DejaVuSans-72" transform="translate(63.476562 0)"/>
      <use xlink:href="#DejaVuSans-6f" transform="translate(102.339844 0)"/>
      <use xlink:href="#DejaVuSans-76" transform="translate(163.521484 0)"/>
      <use xlink:href="#DejaVuSans-65" transform="translate(222.701172 0)"/>
      <use xlink:href="#DejaVuSans-6e" transform="translate(284.224609 0)"/>
      <use xlink:href="#DejaVuSans-74" transform="translate(347.603516 0)"/>
      <use xlink:href="#DejaVuSans-72" transform="translate(386.8125 0)"/>
      <use xlink:href="#DejaVuSans-61" transform="translate(427.925781 0)"/>
      <use xlink:href="#DejaVuSans-20" transform="translate(489.205078 0)"/>
      <use xlink:href="#DejaVuSans-6d" transform="translate(520.992188 0)"/>
      <use xlink:href="#DejaVuSans-64" transform="translate(618.404297 0)"/>
      <use xlink:href="#DejaVuSans-65" transform="translate(681.880859 0)"/>
      <use xlink:href="#DejaVuSans-62" transform="translate(743.404297 0)"/>
      <use xlink:href="#DejaVuSans-65" transform="translate(806.880859 0)"/>
      <use xlink:href="#DejaVuSans-72" transform="translate(868.404297 0)"/>
      <use xlink:href="#DejaVuSans-74" transform="translate(909.517578 0)"/>
      <use xlink:href="#DejaVuSans-61" transform="translate(948.726562 0)"/>
      <use xlink:href="#DejaVuSans-20" transform="translate(1010.005859 0)"/>
      <use xlink:href="#DejaVuSans-28" transform="translate(1041.792969 0)"/>
      <use xlink:href="#DejaVuSans-32" transform="translate(1080.806641 0)"/>
      <use xlink:href="#DejaVuSans-38" transform="translate(1144.429688 0)"/>
      <use xlink:href="#DejaVuSans-30" transform="translate(1208.052734 0)"/>
      <use xlink:href="#DejaVuSans-4d" transform="translate(1271.675781 0)"/>
      <use xlink:href="#DejaVuSans-29" transform="translate(1357.955078 0)"/>
     </g>
    </g>
    <g id="line2d_46">
     <path d="M 312.886406 128.521094 
L 319.886406 128.521094 
L 326.886406 128.521094 
" style="fill: none; stroke: #17becf; stroke-opacity: 0.9; stroke-width: 1.6; stroke-linecap: square"/>
    </g>
    <g id="text_25">
     <!-- sentinel (qualifire, 395M) -->
     <g transform="translate(332.486406 130.971094) scale(0.07 -0.07)">
      <defs>
       <path id="DejaVuSans-71" d="M 947 1747 
Q 947 1113 1208 752 
Q 1469 391 1925 391 
Q 2381 391 2643 752 
Q 2906 1113 2906 1747 
Q 2906 2381 2643 2742 
Q 2381 3103 1925 3103 
Q 1469 3103 1208 2742 
Q 947 2381 947 1747 
z
M 2906 525 
Q 2725 213 2448 61 
Q 2172 -91 1784 -91 
Q 1150 -91 751 415 
Q 353 922 353 1747 
Q 353 2572 751 3078 
Q 1150 3584 1784 3584 
Q 2172 3584 2448 3432 
Q 2725 3281 2906 2969 
L 2906 3500 
L 3481 3500 
L 3481 -1331 
L 2906 -1331 
L 2906 525 
z
" transform="scale(0.015625)"/>
       <path id="DejaVuSans-33" d="M 2597 2516 
Q 3050 2419 3304 2112 
Q 3559 1806 3559 1356 
Q 3559 666 3084 287 
Q 2609 -91 1734 -91 
Q 1441 -91 1130 -33 
Q 819 25 488 141 
L 488 750 
Q 750 597 1062 519 
Q 1375 441 1716 441 
Q 2309 441 2620 675 
Q 2931 909 2931 1356 
Q 2931 1769 2642 2001 
Q 2353 2234 1838 2234 
L 1294 2234 
L 1294 2753 
L 1863 2753 
Q 2328 2753 2575 2939 
Q 2822 3125 2822 3475 
Q 2822 3834 2567 4026 
Q 2313 4219 1838 4219 
Q 1578 4219 1281 4162 
Q 984 4106 628 3988 
L 628 4550 
Q 988 4650 1302 4700 
Q 1616 4750 1894 4750 
Q 2613 4750 3031 4423 
Q 3450 4097 3450 3541 
Q 3450 3153 3228 2886 
Q 3006 2619 2597 2516 
z
" transform="scale(0.015625)"/>
       <path id="DejaVuSans-39" d="M 703 97 
L 703 672 
Q 941 559 1184 500 
Q 1428 441 1663 441 
Q 2288 441 2617 861 
Q 2947 1281 2994 2138 
Q 2813 1869 2534 1725 
Q 2256 1581 1919 1581 
Q 1219 1581 811 2004 
Q 403 2428 403 3163 
Q 403 3881 828 4315 
Q 1253 4750 1959 4750 
Q 2769 4750 3195 4129 
Q 3622 3509 3622 2328 
Q 3622 1225 3098 567 
Q 2575 -91 1691 -91 
Q 1453 -91 1209 -44 
Q 966 3 703 97 
z
M 1959 2075 
Q 2384 2075 2632 2365 
Q 2881 2656 2881 3163 
Q 2881 3666 2632 3958 
Q 2384 4250 1959 4250 
Q 1534 4250 1286 3958 
Q 1038 3666 1038 3163 
Q 1038 2656 1286 2365 
Q 1534 2075 1959 2075 
z
" transform="scale(0.015625)"/>
       <path id="DejaVuSans-35" d="M 691 4666 
L 3169 4666 
L 3169 4134 
L 1269 4134 
L 1269 2991 
Q 1406 3038 1543 3061 
Q 1681 3084 1819 3084 
Q 2600 3084 3056 2656 
Q 3513 2228 3513 1497 
Q 3513 744 3044 326 
Q 2575 -91 1722 -91 
Q 1428 -91 1123 -41 
Q 819 9 494 109 
L 494 744 
Q 775 591 1075 516 
Q 1375 441 1709 441 
Q 2250 441 2565 725 
Q 2881 1009 2881 1497 
Q 2881 1984 2565 2268 
Q 2250 2553 1709 2553 
Q 1456 2553 1204 2497 
Q 953 2441 691 2322 
L 691 4666 
z
" transform="scale(0.015625)"/>
      </defs>
      <use xlink:href="#DejaVuSans-73"/>
      <use xlink:href="#DejaVuSans-65" transform="translate(52.099609 0)"/>
      <use xlink:href="#DejaVuSans-6e" transform="translate(113.623047 0)"/>
      <use xlink:href="#DejaVuSans-74" transform="translate(177.001953 0)"/>
      <use xlink:href="#DejaVuSans-69" transform="translate(216.210938 0)"/>
      <use xlink:href="#DejaVuSans-6e" transform="translate(243.994141 0)"/>
      <use xlink:href="#DejaVuSans-65" transform="translate(307.373047 0)"/>
      <use xlink:href="#DejaVuSans-6c" transform="translate(368.896484 0)"/>
      <use xlink:href="#DejaVuSans-20" transform="translate(396.679688 0)"/>
      <use xlink:href="#DejaVuSans-28" transform="translate(428.466797 0)"/>
      <use xlink:href="#DejaVuSans-71" transform="translate(467.480469 0)"/>
      <use xlink:href="#DejaVuSans-75" transform="translate(530.957031 0)"/>
      <use xlink:href="#DejaVuSans-61" transform="translate(594.335938 0)"/>
      <use xlink:href="#DejaVuSans-6c" transform="translate(655.615234 0)"/>
      <use xlink:href="#DejaVuSans-69" transform="translate(683.398438 0)"/>
      <use xlink:href="#DejaVuSans-66" transform="translate(711.181641 0)"/>
      <use xlink:href="#DejaVuSans-69" transform="translate(746.386719 0)"/>
      <use xlink:href="#DejaVuSans-72" transform="translate(774.169922 0)"/>
      <use xlink:href="#DejaVuSans-65" transform="translate(813.033203 0)"/>
      <use xlink:href="#DejaVuSans-2c" transform="translate(874.556641 0)"/>
      <use xlink:href="#DejaVuSans-20" transform="translate(906.34375 0)"/>
      <use xlink:href="#DejaVuSans-33" transform="translate(938.130859 0)"/>
      <use xlink:href="#DejaVuSans-39" transform="translate(1001.753906 0)"/>
      <use xlink:href="#DejaVuSans-35" transform="translate(1065.376953 0)"/>
      <use xlink:href="#DejaVuSans-4d" transform="translate(1129 0)"/>
      <use xlink:href="#DejaVuSans-29" transform="translate(1215.279297 0)"/>
     </g>
    </g>
    <g id="line2d_47">
     <path d="M 312.886406 138.795781 
L 319.886406 138.795781 
L 326.886406 138.795781 
" style="fill: none; stroke: #1f77b4; stroke-opacity: 0.9; stroke-width: 1.6; stroke-linecap: square"/>
    </g>
    <g id="text_26">
     <!-- wolf-defender (0.3B) -->
     <g transform="translate(332.486406 141.245781) scale(0.07 -0.07)">
      <defs>
       <path id="DejaVuSans-77" d="M 269 3500 
L 844 3500 
L 1563 769 
L 2278 3500 
L 2956 3500 
L 3675 769 
L 4391 3500 
L 4966 3500 
L 4050 0 
L 3372 0 
L 2619 2869 
L 1863 0 
L 1184 0 
L 269 3500 
z
" transform="scale(0.015625)"/>
       <path id="DejaVuSans-42" d="M 1259 2228 
L 1259 519 
L 2272 519 
Q 2781 519 3026 730 
Q 3272 941 3272 1375 
Q 3272 1813 3026 2020 
Q 2781 2228 2272 2228 
L 1259 2228 
z
M 1259 4147 
L 1259 2741 
L 2194 2741 
Q 2656 2741 2882 2914 
Q 3109 3088 3109 3444 
Q 3109 3797 2882 3972 
Q 2656 4147 2194 4147 
L 1259 4147 
z
M 628 4666 
L 2241 4666 
Q 2963 4666 3353 4366 
Q 3744 4066 3744 3513 
Q 3744 3084 3544 2831 
Q 3344 2578 2956 2516 
Q 3422 2416 3680 2098 
Q 3938 1781 3938 1306 
Q 3938 681 3513 340 
Q 3088 0 2303 0 
L 628 0 
L 628 4666 
z
" transform="scale(0.015625)"/>
      </defs>
      <use xlink:href="#DejaVuSans-77"/>
      <use xlink:href="#DejaVuSans-6f" transform="translate(81.787109 0)"/>
      <use xlink:href="#DejaVuSans-6c" transform="translate(142.96875 0)"/>
      <use xlink:href="#DejaVuSans-66" transform="translate(170.751953 0)"/>
      <use xlink:href="#DejaVuSans-2d" transform="translate(200.457031 0)"/>
      <use xlink:href="#DejaVuSans-64" transform="translate(236.541016 0)"/>
      <use xlink:href="#DejaVuSans-65" transform="translate(300.017578 0)"/>
      <use xlink:href="#DejaVuSans-66" transform="translate(361.541016 0)"/>
      <use xlink:href="#DejaVuSans-65" transform="translate(396.746094 0)"/>
      <use xlink:href="#DejaVuSans-6e" transform="translate(458.269531 0)"/>
      <use xlink:href="#DejaVuSans-64" transform="translate(521.648438 0)"/>
      <use xlink:href="#DejaVuSans-65" transform="translate(585.125 0)"/>
      <use xlink:href="#DejaVuSans-72" transform="translate(646.648438 0)"/>
      <use xlink:href="#DejaVuSans-20" transform="translate(687.761719 0)"/>
      <use xlink:href="#DejaVuSans-28" transform="translate(719.548828 0)"/>
      <use xlink:href="#DejaVuSans-30" transform="translate(758.5625 0)"/>
      <use xlink:href="#DejaVuSans-2e" transform="translate(822.185547 0)"/>
      <use xlink:href="#DejaVuSans-33" transform="translate(853.972656 0)"/>
      <use xlink:href="#DejaVuSans-42" transform="translate(917.595703 0)"/>
      <use xlink:href="#DejaVuSans-29" transform="translate(986.199219 0)"/>
     </g>
    </g>
    <g id="line2d_48">
     <path d="M 312.886406 149.070469 
L 319.886406 149.070469 
L 326.886406 149.070469 
" style="fill: none; stroke: #ff7f0e; stroke-opacity: 0.9; stroke-width: 1.6; stroke-linecap: square"/>
    </g>
    <g id="text_27">
     <!-- wolf-defender-small (0.1B) -->
     <g transform="translate(332.486406 151.520469) scale(0.07 -0.07)">
      <use xlink:href="#DejaVuSans-77"/>
      <use xlink:href="#DejaVuSans-6f" transform="translate(81.787109 0)"/>
      <use xlink:href="#DejaVuSans-6c" transform="translate(142.96875 0)"/>
      <use xlink:href="#DejaVuSans-66" transform="translate(170.751953 0)"/>
      <use xlink:href="#DejaVuSans-2d" transform="translate(200.457031 0)"/>
      <use xlink:href="#DejaVuSans-64" transform="translate(236.541016 0)"/>
      <use xlink:href="#DejaVuSans-65" transform="translate(300.017578 0)"/>
      <use xlink:href="#DejaVuSans-66" transform="translate(361.541016 0)"/>
      <use xlink:href="#DejaVuSans-65" transform="translate(396.746094 0)"/>
      <use xlink:href="#DejaVuSans-6e" transform="translate(458.269531 0)"/>
      <use xlink:href="#DejaVuSans-64" transform="translate(521.648438 0)"/>
      <use xlink:href="#DejaVuSans-65" transform="translate(585.125 0)"/>
      <use xlink:href="#DejaVuSans-72" transform="translate(646.648438 0)"/>
      <use xlink:href="#DejaVuSans-2d" transform="translate(681.386719 0)"/>
      <use xlink:href="#DejaVuSans-73" transform="translate(717.470703 0)"/>
      <use xlink:href="#DejaVuSans-6d" transform="translate(769.570312 0)"/>
      <use xlink:href="#DejaVuSans-61" transform="translate(866.982422 0)"/>
      <use xlink:href="#DejaVuSans-6c" transform="translate(928.261719 0)"/>
      <use xlink:href="#DejaVuSans-6c" transform="translate(956.044922 0)"/>
      <use xlink:href="#DejaVuSans-20" transform="translate(983.828125 0)"/>
      <use xlink:href="#DejaVuSans-28" transform="translate(1015.615234 0)"/>
      <use xlink:href="#DejaVuSans-30" transform="translate(1054.628906 0)"/>
      <use xlink:href="#DejaVuSans-2e" transform="translate(1118.251953 0)"/>
      <use xlink:href="#DejaVuSans-31" transform="translate(1150.039062 0)"/>
      <use xlink:href="#DejaVuSans-42" transform="translate(1213.662109 0)"/>
      <use xlink:href="#DejaVuSans-29" transform="translate(1282.265625 0)"/>
     </g>
    </g>
   </g>
  </g>
 </g>
 <defs>
  <clipPath id="p7a0a827dcf">
   <rect x="47.72" y="26.88" width="437.56" height="291.16"/>
  </clipPath>
 </defs>
</svg>
