<?xml version="1.0" encoding="utf-8" standalone="no"?>
<!DOCTYPE svg PUBLIC "-//W3C//DTD SVG 1.1//EN"
  "http://www.w3.org/Graphics/SVG/1.1/DTD/svg11.dtd">
<svg xmlns:xlink="http://www.w3.org/1999/xlink" width="504pt" height="360pt" viewBox="0 0 504 360" xmlns="http://www.w3.org/2000/svg" version="1.1">
 <metadata>
  <rdf:RDF xmlns:dc="http://purl.org/dc/elements/1.1/" xmlns:cc="http://creativecommons.org/ns#" xmlns:rdf="http://www.w3.org/1999/02/22-rdf-syntax-ns#">
   <cc:Work>
    <dc:type rdf:resource="http://purl.org/dc/dcmitype/StillImage"/>
    <dc:date>2026-06-24T19:48:56.622602</dc:date>
    <dc:format>image/svg+xml</dc:format>
    <dc:creator>
     <cc:Agent>
      <dc:title>Matplotlib v3.11.0, https://matplotlib.org/</dc:title>
     </cc:Agent>
    </dc:creator>
   </cc:Work>
  </rdf:RDF>
 </metadata>
 <defs>
  <style type="text/css">*{stroke-linejoin: round; stroke-linecap: butt}</style>
 </defs>
 <g id="figure_1">
  <g id="patch_1">
   <path d="M 0 360 
L 504 360 
L 504 0 
L 0 0 
z
" style="fill: #ffffff"/>
  </g>
  <g id="axes_1">
   <g id="patch_2">
    <path d="M 47.962344 317.877656 
L 485.28 317.877656 
L 485.28 26.16 
L 47.962344 26.16 
z
" style="fill: #ffffff"/>
   </g>
   <g id="matplotlib.axis_1">
    <g id="xtick_1">
     <g id="line2d_1">
      <path d="M 47.962344 317.877656 
L 47.962344 26.16 
" clip-path="url(#pa089482f91)" style="fill: none; stroke: #b0b0b0; stroke-opacity: 0.25; stroke-width: 0.8; stroke-linecap: square"/>
     </g>
     <g id="line2d_2">
      <defs>
       <path id="me5c6592f96" d="M 0 0 
L 0 3.5 
" style="stroke: #000000; stroke-width: 0.8"/>
      </defs>
      <g>
       <use xlink:href="#me5c6592f96" x="47.962344" y="317.877656" style="stroke: #000000; stroke-width: 0.8"/>
      </g>
     </g>
     <g id="text_1">
      <!-- 0.0 -->
      <g transform="translate(40.010781 332.475312) scale(0.1 -0.1)">
       <defs>
        <path id="DejaVuSans-13" d="M 2034 4250 
Q 1547 4250 1301 3770 
Q 1056 3291 1056 2328 
Q 1056 1369 1301 889 
Q 1547 409 2034 409 
Q 2525 409 2770 889 
Q 3016 1369 3016 2328 
Q 3016 3291 2770 3770 
Q 2525 4250 2034 4250 
z
M 2034 4750 
Q 2819 4750 3233 4129 
Q 3647 3509 3647 2328 
Q 3647 1150 3233 529 
Q 2819 -91 2034 -91 
Q 1250 -91 836 529 
Q 422 1150 422 2328 
Q 422 3509 836 4129 
Q 1250 4750 2034 4750 
z
" transform="scale(0.015625)"/>
        <path id="DejaVuSans-11" d="M 684 794 
L 1344 794 
L 1344 0 
L 684 0 
L 684 794 
z
" transform="scale(0.015625)"/>
       </defs>
       <use xlink:href="#DejaVuSans-13"/>
       <use xlink:href="#DejaVuSans-11" transform="translate(63.625 0)"/>
       <use xlink:href="#DejaVuSans-13" transform="translate(95.40625 0)"/>
      </g>
     </g>
    </g>
    <g id="xtick_2">
     <g id="line2d_3">
      <path d="M 135.425875 317.877656 
L 135.425875 26.16 
" clip-path="url(#pa089482f91)" style="fill: none; stroke: #b0b0b0; stroke-opacity: 0.25; stroke-width: 0.8; stroke-linecap: square"/>
     </g>
     <g id="line2d_4">
      <g>
       <use xlink:href="#me5c6592f96" x="135.425875" y="317.877656" style="stroke: #000000; stroke-width: 0.8"/>
      </g>
     </g>
     <g id="text_2">
      <!-- 0.2 -->
      <g transform="translate(127.474313 332.475312) scale(0.1 -0.1)">
       <defs>
        <path id="DejaVuSans-15" d="M 1228 531 
L 3431 531 
L 3431 0 
L 469 0 
L 469 531 
Q 828 903 1448 1529 
Q 2069 2156 2228 2338 
Q 2531 2678 2651 2914 
Q 2772 3150 2772 3378 
Q 2772 3750 2511 3984 
Q 2250 4219 1831 4219 
Q 1534 4219 1204 4116 
Q 875 4013 500 3803 
L 500 4441 
Q 881 4594 1212 4672 
Q 1544 4750 1819 4750 
Q 2544 4750 2975 4387 
Q 3406 4025 3406 3419 
Q 3406 3131 3298 2873 
Q 3191 2616 2906 2266 
Q 2828 2175 2409 1742 
Q 1991 1309 1228 531 
z
" transform="scale(0.015625)"/>
       </defs>
       <use xlink:href="#DejaVuSans-13"/>
       <use xlink:href="#DejaVuSans-11" transform="translate(63.625 0)"/>
       <use xlink:href="#DejaVuSans-15" transform="translate(95.40625 0)"/>
      </g>
     </g>
    </g>
    <g id="xtick_3">
     <g id="line2d_5">
      <path d="M 222.889406 317.877656 
L 222.889406 26.16 
" clip-path="url(#pa089482f91)" style="fill: none; stroke: #b0b0b0; stroke-opacity: 0.25; stroke-width: 0.8; stroke-linecap: square"/>
     </g>
     <g id="line2d_6">
      <g>
       <use xlink:href="#me5c6592f96" x="222.889406" y="317.877656" style="stroke: #000000; stroke-width: 0.8"/>
      </g>
     </g>
     <g id="text_3">
      <!-- 0.4 -->
      <g transform="translate(214.937844 332.475312) scale(0.1 -0.1)">
       <defs>
        <path id="DejaVuSans-17" d="M 2419 4116 
L 825 1625 
L 2419 1625 
L 2419 4116 
z
M 2253 4666 
L 3047 4666 
L 3047 1625 
L 3713 1625 
L 3713 1100 
L 3047 1100 
L 3047 0 
L 2419 0 
L 2419 1100 
L 313 1100 
L 313 1709 
L 2253 4666 
z
" transform="scale(0.015625)"/>
       </defs>
       <use xlink:href="#DejaVuSans-13"/>
       <use xlink:href="#DejaVuSans-11" transform="translate(63.625 0)"/>
       <use xlink:href="#DejaVuSans-17" transform="translate(95.40625 0)"/>
      </g>
     </g>
    </g>
    <g id="xtick_4">
     <g id="line2d_7">
      <path d="M 310.352937 317.877656 
L 310.352937 26.16 
" clip-path="url(#pa089482f91)" style="fill: none; stroke: #b0b0b0; stroke-opacity: 0.25; stroke-width: 0.8; stroke-linecap: square"/>
     </g>
     <g id="line2d_8">
      <g>
       <use xlink:href="#me5c6592f96" x="310.352937" y="317.877656" style="stroke: #000000; stroke-width: 0.8"/>
      </g>
     </g>
     <g id="text_4">
      <!-- 0.6 -->
      <g transform="translate(302.401375 332.475312) scale(0.1 -0.1)">
       <defs>
        <path id="DejaVuSans-19" d="M 2113 2584 
Q 1688 2584 1439 2293 
Q 1191 2003 1191 1497 
Q 1191 994 1439 701 
Q 1688 409 2113 409 
Q 2538 409 2786 701 
Q 3034 994 3034 1497 
Q 3034 2003 2786 2293 
Q 2538 2584 2113 2584 
z
M 3366 4563 
L 3366 3988 
Q 3128 4100 2886 4159 
Q 2644 4219 2406 4219 
Q 1781 4219 1451 3797 
Q 1122 3375 1075 2522 
Q 1259 2794 1537 2939 
Q 1816 3084 2150 3084 
Q 2853 3084 3261 2657 
Q 3669 2231 3669 1497 
Q 3669 778 3244 343 
Q 2819 -91 2113 -91 
Q 1303 -91 875 529 
Q 447 1150 447 2328 
Q 447 3434 972 4092 
Q 1497 4750 2381 4750 
Q 2619 4750 2861 4703 
Q 3103 4656 3366 4563 
z
" transform="scale(0.015625)"/>
       </defs>
       <use xlink:href="#DejaVuSans-13"/>
       <use xlink:href="#DejaVuSans-11" transform="translate(63.625 0)"/>
       <use xlink:href="#DejaVuSans-19" transform="translate(95.40625 0)"/>
      </g>
     </g>
    </g>
    <g id="xtick_5">
     <g id="line2d_9">
      <path d="M 397.816469 317.877656 
L 397.816469 26.16 
" clip-path="url(#pa089482f91)" style="fill: none; stroke: #b0b0b0; stroke-opacity: 0.25; stroke-width: 0.8; stroke-linecap: square"/>
     </g>
     <g id="line2d_10">
      <g>
       <use xlink:href="#me5c6592f96" x="397.816469" y="317.877656" style="stroke: #000000; stroke-width: 0.8"/>
      </g>
     </g>
     <g id="text_5">
      <!-- 0.8 -->
      <g transform="translate(389.864906 332.475312) scale(0.1 -0.1)">
       <defs>
        <path id="DejaVuSans-1b" d="M 2034 2216 
Q 1584 2216 1326 1975 
Q 1069 1734 1069 1313 
Q 1069 891 1326 650 
Q 1584 409 2034 409 
Q 2484 409 2743 651 
Q 3003 894 3003 1313 
Q 3003 1734 2745 1975 
Q 2488 2216 2034 2216 
z
M 1403 2484 
Q 997 2584 770 2862 
Q 544 3141 544 3541 
Q 544 4100 942 4425 
Q 1341 4750 2034 4750 
Q 2731 4750 3128 4425 
Q 3525 4100 3525 3541 
Q 3525 3141 3298 2862 
Q 3072 2584 2669 2484 
Q 3125 2378 3379 2068 
Q 3634 1759 3634 1313 
Q 3634 634 3220 271 
Q 2806 -91 2034 -91 
Q 1263 -91 848 271 
Q 434 634 434 1313 
Q 434 1759 690 2068 
Q 947 2378 1403 2484 
z
M 1172 3481 
Q 1172 3119 1398 2916 
Q 1625 2713 2034 2713 
Q 2441 2713 2670 2916 
Q 2900 3119 2900 3481 
Q 2900 3844 2670 4047 
Q 2441 4250 2034 4250 
Q 1625 4250 1398 4047 
Q 1172 3844 1172 3481 
z
" transform="scale(0.015625)"/>
       </defs>
       <use xlink:href="#DejaVuSans-13"/>
       <use xlink:href="#DejaVuSans-11" transform="translate(63.625 0)"/>
       <use xlink:href="#DejaVuSans-1b" transform="translate(95.40625 0)"/>
      </g>
     </g>
    </g>
    <g id="xtick_6">
     <g id="line2d_11">
      <path d="M 485.28 317.877656 
L 485.28 26.16 
" clip-path="url(#pa089482f91)" style="fill: none; stroke: #b0b0b0; stroke-opacity: 0.25; stroke-width: 0.8; stroke-linecap: square"/>
     </g>
     <g id="line2d_12">
      <g>
       <use xlink:href="#me5c6592f96" x="485.28" y="317.877656" style="stroke: #000000; stroke-width: 0.8"/>
      </g>
     </g>
     <g id="text_6">
      <!-- 1.0 -->
      <g transform="translate(477.328437 332.475312) scale(0.1 -0.1)">
       <defs>
        <path id="DejaVuSans-14" d="M 794 531 
L 1825 531 
L 1825 4091 
L 703 3866 
L 703 4441 
L 1819 4666 
L 2450 4666 
L 2450 531 
L 3481 531 
L 3481 0 
L 794 0 
L 794 531 
z
" transform="scale(0.015625)"/>
       </defs>
       <use xlink:href="#DejaVuSans-14"/>
       <use xlink:href="#DejaVuSans-11" transform="translate(63.625 0)"/>
       <use xlink:href="#DejaVuSans-13" transform="translate(95.40625 0)"/>
      </g>
     </g>
    </g>
    <g id="text_7">
     <!-- Decision threshold -->
     <g transform="translate(220.198516 346.476094) scale(0.1 -0.1)">
      <defs>
       <path id="DejaVuSans-27" d="M 1259 4147 
L 1259 519 
L 2022 519 
Q 2988 519 3436 956 
Q 3884 1394 3884 2338 
Q 3884 3275 3436 3711 
Q 2988 4147 2022 4147 
L 1259 4147 
z
M 628 4666 
L 1925 4666 
Q 3281 4666 3915 4102 
Q 4550 3538 4550 2338 
Q 4550 1131 3912 565 
Q 3275 0 1925 0 
L 628 0 
L 628 4666 
z
" transform="scale(0.015625)"/>
       <path id="DejaVuSans-48" d="M 3597 1894 
L 3597 1613 
L 953 1613 
Q 991 1019 1311 708 
Q 1631 397 2203 397 
Q 2534 397 2845 478 
Q 3156 559 3463 722 
L 3463 178 
Q 3153 47 2828 -22 
Q 2503 -91 2169 -91 
Q 1331 -91 842 396 
Q 353 884 353 1716 
Q 353 2575 817 3079 
Q 1281 3584 2069 3584 
Q 2775 3584 3186 3129 
Q 3597 2675 3597 1894 
z
M 3022 2063 
Q 3016 2534 2758 2815 
Q 2500 3097 2075 3097 
Q 1594 3097 1305 2825 
Q 1016 2553 972 2059 
L 3022 2063 
z
" transform="scale(0.015625)"/>
       <path id="DejaVuSans-46" d="M 3122 3366 
L 3122 2828 
Q 2878 2963 2633 3030 
Q 2388 3097 2138 3097 
Q 1578 3097 1268 2742 
Q 959 2388 959 1747 
Q 959 1106 1268 751 
Q 1578 397 2138 397 
Q 2388 397 2633 464 
Q 2878 531 3122 666 
L 3122 134 
Q 2881 22 2623 -34 
Q 2366 -91 2075 -91 
Q 1284 -91 818 406 
Q 353 903 353 1747 
Q 353 2603 823 3093 
Q 1294 3584 2113 3584 
Q 2378 3584 2631 3529 
Q 2884 3475 3122 3366 
z
" transform="scale(0.015625)"/>
       <path id="DejaVuSans-4c" d="M 603 3500 
L 1178 3500 
L 1178 0 
L 603 0 
L 603 3500 
z
M 603 4863 
L 1178 4863 
L 1178 4134 
L 603 4134 
L 603 4863 
z
" transform="scale(0.015625)"/>
       <path id="DejaVuSans-56" d="M 2834 3397 
L 2834 2853 
Q 2591 2978 2328 3040 
Q 2066 3103 1784 3103 
Q 1356 3103 1142 2972 
Q 928 2841 928 2578 
Q 928 2378 1081 2264 
Q 1234 2150 1697 2047 
L 1894 2003 
Q 2506 1872 2764 1633 
Q 3022 1394 3022 966 
Q 3022 478 2636 193 
Q 2250 -91 1575 -91 
Q 1294 -91 989 -36 
Q 684 19 347 128 
L 347 722 
Q 666 556 975 473 
Q 1284 391 1588 391 
Q 1994 391 2212 530 
Q 2431 669 2431 922 
Q 2431 1156 2273 1281 
Q 2116 1406 1581 1522 
L 1381 1569 
Q 847 1681 609 1914 
Q 372 2147 372 2553 
Q 372 3047 722 3315 
Q 1072 3584 1716 3584 
Q 2034 3584 2315 3537 
Q 2597 3491 2834 3397 
z
" transform="scale(0.015625)"/>
       <path id="DejaVuSans-52" d="M 1959 3097 
Q 1497 3097 1228 2736 
Q 959 2375 959 1747 
Q 959 1119 1226 758 
Q 1494 397 1959 397 
Q 2419 397 2687 759 
Q 2956 1122 2956 1747 
Q 2956 2369 2687 2733 
Q 2419 3097 1959 3097 
z
M 1959 3584 
Q 2709 3584 3137 3096 
Q 3566 2609 3566 1747 
Q 3566 888 3137 398 
Q 2709 -91 1959 -91 
Q 1206 -91 779 398 
Q 353 888 353 1747 
Q 353 2609 779 3096 
Q 1206 3584 1959 3584 
z
" transform="scale(0.015625)"/>
       <path id="DejaVuSans-51" d="M 3513 2113 
L 3513 0 
L 2938 0 
L 2938 2094 
Q 2938 2591 2744 2837 
Q 2550 3084 2163 3084 
Q 1697 3084 1428 2787 
Q 1159 2491 1159 1978 
L 1159 0 
L 581 0 
L 581 3500 
L 1159 3500 
L 1159 2956 
Q 1366 3272 1645 3428 
Q 1925 3584 2291 3584 
Q 2894 3584 3203 3211 
Q 3513 2838 3513 2113 
z
" transform="scale(0.015625)"/>
       <path id="DejaVuSans-3" transform="scale(0.015625)"/>
       <path id="DejaVuSans-57" d="M 1172 4494 
L 1172 3500 
L 2356 3500 
L 2356 3053 
L 1172 3053 
L 1172 1153 
Q 1172 725 1289 603 
Q 1406 481 1766 481 
L 2356 481 
L 2356 0 
L 1766 0 
Q 1100 0 847 248 
Q 594 497 594 1153 
L 594 3053 
L 172 3053 
L 172 3500 
L 594 3500 
L 594 4494 
L 1172 4494 
z
" transform="scale(0.015625)"/>
       <path id="DejaVuSans-4b" d="M 3513 2113 
L 3513 0 
L 2938 0 
L 2938 2094 
Q 2938 2591 2744 2837 
Q 2550 3084 2163 3084 
Q 1697 3084 1428 2787 
Q 1159 2491 1159 1978 
L 1159 0 
L 581 0 
L 581 4863 
L 1159 4863 
L 1159 2956 
Q 1366 3272 1645 3428 
Q 1925 3584 2291 3584 
Q 2894 3584 3203 3211 
Q 3513 2838 3513 2113 
z
" transform="scale(0.015625)"/>
       <path id="DejaVuSans-55" d="M 2631 2963 
Q 2534 3019 2420 3045 
Q 2306 3072 2169 3072 
Q 1681 3072 1420 2755 
Q 1159 2438 1159 1844 
L 1159 0 
L 581 0 
L 581 3500 
L 1159 3500 
L 1159 2956 
Q 1341 3275 1631 3429 
Q 1922 3584 2338 3584 
Q 2397 3584 2469 3576 
Q 2541 3569 2628 3553 
L 2631 2963 
z
" transform="scale(0.015625)"/>
       <path id="DejaVuSans-4f" d="M 603 4863 
L 1178 4863 
L 1178 0 
L 603 0 
L 603 4863 
z
" transform="scale(0.015625)"/>
       <path id="DejaVuSans-47" d="M 2906 2969 
L 2906 4863 
L 3481 4863 
L 3481 0 
L 2906 0 
L 2906 525 
Q 2725 213 2448 61 
Q 2172 -91 1784 -91 
Q 1150 -91 751 415 
Q 353 922 353 1747 
Q 353 2572 751 3078 
Q 1150 3584 1784 3584 
Q 2172 3584 2448 3432 
Q 2725 3281 2906 2969 
z
M 947 1747 
Q 947 1113 1208 752 
Q 1469 391 1925 391 
Q 2381 391 2643 752 
Q 2906 1113 2906 1747 
Q 2906 2381 2643 2742 
Q 2381 3103 1925 3103 
Q 1469 3103 1208 2742 
Q 947 2381 947 1747 
z
" transform="scale(0.015625)"/>
      </defs>
      <use xlink:href="#DejaVuSans-27"/>
      <use xlink:href="#DejaVuSans-48" transform="translate(77 0)"/>
      <use xlink:href="#DejaVuSans-46" transform="translate(138.53125 0)"/>
      <use xlink:href="#DejaVuSans-4c" transform="translate(193.515625 0)"/>
      <use xlink:href="#DejaVuSans-56" transform="translate(221.296875 0)"/>
      <use xlink:href="#DejaVuSans-4c" transform="translate(273.390625 0)"/>
      <use xlink:href="#DejaVuSans-52" transform="translate(301.171875 0)"/>
      <use xlink:href="#DejaVuSans-51" transform="translate(362.359375 0)"/>
      <use xlink:href="#DejaVuSans-3" transform="translate(425.734375 0)"/>
      <use xlink:href="#DejaVuSans-57" transform="translate(457.515625 0)"/>
      <use xlink:href="#DejaVuSans-4b" transform="translate(496.71875 0)"/>
      <use xlink:href="#DejaVuSans-55" transform="translate(560.09375 0)"/>
      <use xlink:href="#DejaVuSans-48" transform="translate(599 0)"/>
      <use xlink:href="#DejaVuSans-56" transform="translate(660.53125 0)"/>
      <use xlink:href="#DejaVuSans-4b" transform="translate(712.625 0)"/>
      <use xlink:href="#DejaVuSans-52" transform="translate(776 0)"/>
      <use xlink:href="#DejaVuSans-4f" transform="translate(837.1875 0)"/>
      <use xlink:href="#DejaVuSans-47" transform="translate(864.96875 0)"/>
     </g>
    </g>
   </g>
   <g id="matplotlib.axis_2">
    <g id="ytick_1">
     <g id="line2d_13">
      <path d="M 47.962344 317.877656 
L 485.28 317.877656 
" clip-path="url(#pa089482f91)" style="fill: none; stroke: #b0b0b0; stroke-opacity: 0.25; stroke-width: 0.8; stroke-linecap: square"/>
     </g>
     <g id="line2d_14">
      <defs>
       <path id="m110f261bd1" d="M 0 0 
L -3.5 0 
" style="stroke: #000000; stroke-width: 0.8"/>
      </defs>
      <g>
       <use xlink:href="#m110f261bd1" x="47.962344" y="317.877656" style="stroke: #000000; stroke-width: 0.8"/>
      </g>
     </g>
     <g id="text_8">
      <!-- 0.0 -->
      <g transform="translate(25.059219 321.676484) scale(0.1 -0.1)">
       <use xlink:href="#DejaVuSans-13"/>
       <use xlink:href="#DejaVuSans-11" transform="translate(63.625 0)"/>
       <use xlink:href="#DejaVuSans-13" transform="translate(95.40625 0)"/>
      </g>
     </g>
    </g>
    <g id="ytick_2">
     <g id="line2d_15">
      <path d="M 47.962344 259.534125 
L 485.28 259.534125 
" clip-path="url(#pa089482f91)" style="fill: none; stroke: #b0b0b0; stroke-opacity: 0.25; stroke-width: 0.8; stroke-linecap: square"/>
     </g>
     <g id="line2d_16">
      <g>
       <use xlink:href="#m110f261bd1" x="47.962344" y="259.534125" style="stroke: #000000; stroke-width: 0.8"/>
      </g>
     </g>
     <g id="text_9">
      <!-- 0.2 -->
      <g transform="translate(25.059219 263.332953) scale(0.1 -0.1)">
       <use xlink:href="#DejaVuSans-13"/>
       <use xlink:href="#DejaVuSans-11" transform="translate(63.625 0)"/>
       <use xlink:href="#DejaVuSans-15" transform="translate(95.40625 0)"/>
      </g>
     </g>
    </g>
    <g id="ytick_3">
     <g id="line2d_17">
      <path d="M 47.962344 201.190594 
L 485.28 201.190594 
" clip-path="url(#pa089482f91)" style="fill: none; stroke: #b0b0b0; stroke-opacity: 0.25; stroke-width: 0.8; stroke-linecap: square"/>
     </g>
     <g id="line2d_18">
      <g>
       <use xlink:href="#m110f261bd1" x="47.962344" y="201.190594" style="stroke: #000000; stroke-width: 0.8"/>
      </g>
     </g>
     <g id="text_10">
      <!-- 0.4 -->
      <g transform="translate(25.059219 204.989422) scale(0.1 -0.1)">
       <use xlink:href="#DejaVuSans-13"/>
       <use xlink:href="#DejaVuSans-11" transform="translate(63.625 0)"/>
       <use xlink:href="#DejaVuSans-17" transform="translate(95.40625 0)"/>
      </g>
     </g>
    </g>
    <g id="ytick_4">
     <g id="line2d_19">
      <path d="M 47.962344 142.847062 
L 485.28 142.847062 
" clip-path="url(#pa089482f91)" style="fill: none; stroke: #b0b0b0; stroke-opacity: 0.25; stroke-width: 0.8; stroke-linecap: square"/>
     </g>
     <g id="line2d_20">
      <g>
       <use xlink:href="#m110f261bd1" x="47.962344" y="142.847062" style="stroke: #000000; stroke-width: 0.8"/>
      </g>
     </g>
     <g id="text_11">
      <!-- 0.6 -->
      <g transform="translate(25.059219 146.645891) scale(0.1 -0.1)">
       <use xlink:href="#DejaVuSans-13"/>
       <use xlink:href="#DejaVuSans-11" transform="translate(63.625 0)"/>
       <use xlink:href="#DejaVuSans-19" transform="translate(95.40625 0)"/>
      </g>
     </g>
    </g>
    <g id="ytick_5">
     <g id="line2d_21">
      <path d="M 47.962344 84.503531 
L 485.28 84.503531 
" clip-path="url(#pa089482f91)" style="fill: none; stroke: #b0b0b0; stroke-opacity: 0.25; stroke-width: 0.8; stroke-linecap: square"/>
     </g>
     <g id="line2d_22">
      <g>
       <use xlink:href="#m110f261bd1" x="47.962344" y="84.503531" style="stroke: #000000; stroke-width: 0.8"/>
      </g>
     </g>
     <g id="text_12">
      <!-- 0.8 -->
      <g transform="translate(25.059219 88.302359) scale(0.1 -0.1)">
       <use xlink:href="#DejaVuSans-13"/>
       <use xlink:href="#DejaVuSans-11" transform="translate(63.625 0)"/>
       <use xlink:href="#DejaVuSans-1b" transform="translate(95.40625 0)"/>
      </g>
     </g>
    </g>
    <g id="ytick_6">
     <g id="line2d_23">
      <path d="M 47.962344 26.16 
L 485.28 26.16 
" clip-path="url(#pa089482f91)" style="fill: none; stroke: #b0b0b0; stroke-opacity: 0.25; stroke-width: 0.8; stroke-linecap: square"/>
     </g>
     <g id="line2d_24">
      <g>
       <use xlink:href="#m110f261bd1" x="47.962344" y="26.16" style="stroke: #000000; stroke-width: 0.8"/>
      </g>
     </g>
     <g id="text_13">
      <!-- 1.0 -->
      <g transform="translate(25.059219 29.958828) scale(0.1 -0.1)">
       <use xlink:href="#DejaVuSans-14"/>
       <use xlink:href="#DejaVuSans-11" transform="translate(63.625 0)"/>
       <use xlink:href="#DejaVuSans-13" transform="translate(95.40625 0)"/>
      </g>
     </g>
    </g>
    <g id="text_14">
     <!-- False-positive rate on real benign traffic -->
     <g transform="translate(18.656875 271.606328) rotate(-90) scale(0.1 -0.1)">
      <defs>
       <path id="DejaVuSans-29" d="M 628 4666 
L 3309 4666 
L 3309 4134 
L 1259 4134 
L 1259 2759 
L 3109 2759 
L 3109 2228 
L 1259 2228 
L 1259 0 
L 628 0 
L 628 4666 
z
" transform="scale(0.015625)"/>
       <path id="DejaVuSans-44" d="M 2194 1759 
Q 1497 1759 1228 1600 
Q 959 1441 959 1056 
Q 959 750 1161 570 
Q 1363 391 1709 391 
Q 2188 391 2477 730 
Q 2766 1069 2766 1631 
L 2766 1759 
L 2194 1759 
z
M 3341 1997 
L 3341 0 
L 2766 0 
L 2766 531 
Q 2569 213 2275 61 
Q 1981 -91 1556 -91 
Q 1019 -91 701 211 
Q 384 513 384 1019 
Q 384 1609 779 1909 
Q 1175 2209 1959 2209 
L 2766 2209 
L 2766 2266 
Q 2766 2663 2505 2880 
Q 2244 3097 1772 3097 
Q 1472 3097 1187 3025 
Q 903 2953 641 2809 
L 641 3341 
Q 956 3463 1253 3523 
Q 1550 3584 1831 3584 
Q 2591 3584 2966 3190 
Q 3341 2797 3341 1997 
z
" transform="scale(0.015625)"/>
       <path id="DejaVuSans-10" d="M 313 2009 
L 1997 2009 
L 1997 1497 
L 313 1497 
L 313 2009 
z
" transform="scale(0.015625)"/>
       <path id="DejaVuSans-53" d="M 1159 525 
L 1159 -1331 
L 581 -1331 
L 581 3500 
L 1159 3500 
L 1159 2969 
Q 1341 3281 1617 3432 
Q 1894 3584 2278 3584 
Q 2916 3584 3314 3078 
Q 3713 2572 3713 1747 
Q 3713 922 3314 415 
Q 2916 -91 2278 -91 
Q 1894 -91 1617 61 
Q 1341 213 1159 525 
z
M 3116 1747 
Q 3116 2381 2855 2742 
Q 2594 3103 2138 3103 
Q 1681 3103 1420 2742 
Q 1159 2381 1159 1747 
Q 1159 1113 1420 752 
Q 1681 391 2138 391 
Q 2594 391 2855 752 
Q 3116 1113 3116 1747 
z
" transform="scale(0.015625)"/>
       <path id="DejaVuSans-59" d="M 191 3500 
L 800 3500 
L 1894 563 
L 2988 3500 
L 3597 3500 
L 2284 0 
L 1503 0 
L 191 3500 
z
" transform="scale(0.015625)"/>
       <path id="DejaVuSans-45" d="M 3116 1747 
Q 3116 2381 2855 2742 
Q 2594 3103 2138 3103 
Q 1681 3103 1420 2742 
Q 1159 2381 1159 1747 
Q 1159 1113 1420 752 
Q 1681 391 2138 391 
Q 2594 391 2855 752 
Q 3116 1113 3116 1747 
z
M 1159 2969 
Q 1341 3281 1617 3432 
Q 1894 3584 2278 3584 
Q 2916 3584 3314 3078 
Q 3713 2572 3713 1747 
Q 3713 922 3314 415 
Q 2916 -91 2278 -91 
Q 1894 -91 1617 61 
Q 1341 213 1159 525 
L 1159 0 
L 581 0 
L 581 4863 
L 1159 4863 
L 1159 2969 
z
" transform="scale(0.015625)"/>
       <path id="DejaVuSans-4a" d="M 2906 1791 
Q 2906 2416 2648 2759 
Q 2391 3103 1925 3103 
Q 1463 3103 1205 2759 
Q 947 2416 947 1791 
Q 947 1169 1205 825 
Q 1463 481 1925 481 
Q 2391 481 2648 825 
Q 2906 1169 2906 1791 
z
M 3481 434 
Q 3481 -459 3084 -895 
Q 2688 -1331 1869 -1331 
Q 1566 -1331 1297 -1286 
Q 1028 -1241 775 -1147 
L 775 -588 
Q 1028 -725 1275 -790 
Q 1522 -856 1778 -856 
Q 2344 -856 2625 -561 
Q 2906 -266 2906 331 
L 2906 616 
Q 2728 306 2450 153 
Q 2172 0 1784 0 
Q 1141 0 747 490 
Q 353 981 353 1791 
Q 353 2603 747 3093 
Q 1141 3584 1784 3584 
Q 2172 3584 2450 3431 
Q 2728 3278 2906 2969 
L 2906 3500 
L 3481 3500 
L 3481 434 
z
" transform="scale(0.015625)"/>
       <path id="DejaVuSans-13b1" d="M 2375 4863 
L 2375 4384 
L 1825 4384 
Q 1516 4384 1394 4259 
Q 1275 4134 1275 3809 
L 1275 3500 
L 2853 3500 
L 2853 3744 
Q 2853 4328 3125 4594 
Q 3213 4681 3334 4741 
Q 3578 4863 3988 4863 
L 4531 4863 
L 4531 4384 
L 3981 4384 
Q 3672 4384 3551 4259 
Q 3431 4134 3431 3809 
L 3431 3500 
L 5588 3500 
L 5588 0 
L 5009 0 
L 5009 3053 
L 3431 3053 
L 3431 0 
L 2853 0 
L 2853 3053 
L 1275 3053 
L 1275 0 
L 697 0 
L 697 3053 
L 147 3053 
L 147 3500 
L 697 3500 
L 697 3744 
Q 697 4328 969 4595 
Q 1241 4863 1831 4863 
L 2375 4863 
z
M 5009 4856 
L 5588 4856 
L 5588 4128 
L 5009 4128 
L 5009 4856 
z
" transform="scale(0.015625)"/>
      </defs>
      <use xlink:href="#DejaVuSans-29"/>
      <use xlink:href="#DejaVuSans-44" transform="translate(48.34375 0)"/>
      <use xlink:href="#DejaVuSans-4f" transform="translate(109.625 0)"/>
      <use xlink:href="#DejaVuSans-56" transform="translate(137.40625 0)"/>
      <use xlink:href="#DejaVuSans-48" transform="translate(189.5 0)"/>
      <use xlink:href="#DejaVuSans-10" transform="translate(251.03125 0)"/>
      <use xlink:href="#DejaVuSans-53" transform="translate(287.109375 0)"/>
      <use xlink:href="#DejaVuSans-52" transform="translate(350.59375 0)"/>
      <use xlink:href="#DejaVuSans-56" transform="translate(411.78125 0)"/>
      <use xlink:href="#DejaVuSans-4c" transform="translate(463.875 0)"/>
      <use xlink:href="#DejaVuSans-57" transform="translate(491.65625 0)"/>
      <use xlink:href="#DejaVuSans-4c" transform="translate(530.859375 0)"/>
      <use xlink:href="#DejaVuSans-59" transform="translate(558.640625 0)"/>
      <use xlink:href="#DejaVuSans-48" transform="translate(617.828125 0)"/>
      <use xlink:href="#DejaVuSans-3" transform="translate(679.359375 0)"/>
      <use xlink:href="#DejaVuSans-55" transform="translate(711.140625 0)"/>
      <use xlink:href="#DejaVuSans-44" transform="translate(752.25 0)"/>
      <use xlink:href="#DejaVuSans-57" transform="translate(813.53125 0)"/>
      <use xlink:href="#DejaVuSans-48" transform="translate(852.734375 0)"/>
      <use xlink:href="#DejaVuSans-3" transform="translate(914.265625 0)"/>
      <use xlink:href="#DejaVuSans-52" transform="translate(946.046875 0)"/>
      <use xlink:href="#DejaVuSans-51" transform="translate(1007.234375 0)"/>
      <use xlink:href="#DejaVuSans-3" transform="translate(1070.609375 0)"/>
      <use xlink:href="#DejaVuSans-55" transform="translate(1102.390625 0)"/>
      <use xlink:href="#DejaVuSans-48" transform="translate(1141.296875 0)"/>
      <use xlink:href="#DejaVuSans-44" transform="translate(1202.828125 0)"/>
      <use xlink:href="#DejaVuSans-4f" transform="translate(1264.109375 0)"/>
      <use xlink:href="#DejaVuSans-3" transform="translate(1291.890625 0)"/>
      <use xlink:href="#DejaVuSans-45" transform="translate(1323.671875 0)"/>
      <use xlink:href="#DejaVuSans-48" transform="translate(1387.15625 0)"/>
      <use xlink:href="#DejaVuSans-51" transform="translate(1448.6875 0)"/>
      <use xlink:href="#DejaVuSans-4c" transform="translate(1512.0625 0)"/>
      <use xlink:href="#DejaVuSans-4a" transform="translate(1539.84375 0)"/>
      <use xlink:href="#DejaVuSans-51" transform="translate(1603.328125 0)"/>
      <use xlink:href="#DejaVuSans-3" transform="translate(1666.703125 0)"/>
      <use xlink:href="#DejaVuSans-57" transform="translate(1698.484375 0)"/>
      <use xlink:href="#DejaVuSans-55" transform="translate(1737.6875 0)"/>
      <use xlink:href="#DejaVuSans-44" transform="translate(1778.796875 0)"/>
      <use xlink:href="#DejaVuSans-13b1" transform="translate(1840.078125 0)"/>
      <use xlink:href="#DejaVuSans-46" transform="translate(1936.765625 0)"/>
     </g>
    </g>
   </g>
   <g id="line2d_25">
    <path d="M 47.962344 26.16 
L 50.148932 184.76689 
L 52.33552 237.392755 
L 54.522109 256.675292 
L 58.895285 275.578596 
L 63.268462 283.07574 
L 65.45505 288.472516 
L 67.641638 292.177331 
L 69.828227 293.548404 
L 72.014815 294.452728 
L 74.201403 295.532084 
L 76.387991 296.261378 
L 78.57458 301.278922 
L 82.947756 302.795853 
L 91.694109 305.333797 
L 93.880698 305.71303 
L 96.067286 306.529839 
L 100.440463 307.20079 
L 104.813639 308.075943 
L 107.000227 308.280145 
L 111.373404 309.009439 
L 115.74658 309.388672 
L 117.933169 309.709562 
L 128.86611 310.351341 
L 131.052698 310.584715 
L 135.425875 310.759745 
L 137.612463 310.99312 
L 139.799052 311.051463 
L 141.98564 311.226494 
L 144.172228 311.255665 
L 146.358816 311.605727 
L 148.545405 311.809929 
L 159.478346 312.15999 
L 163.851523 312.597567 
L 168.224699 312.65591 
L 170.411288 313.035143 
L 174.784464 313.210174 
L 181.344229 313.297689 
L 196.650347 313.618578 
L 201.023523 313.64775 
L 203.210112 313.764437 
L 211.956465 313.822781 
L 216.329641 313.910296 
L 225.075995 313.96864 
L 227.262583 314.085327 
L 246.941877 314.172842 
L 260.061407 314.260357 
L 303.793173 314.347873 
L 323.472467 314.522903 
L 336.591997 314.581247 
L 340.965173 314.697934 
L 354.084703 314.785449 
L 371.577409 314.931308 
L 380.323762 314.989651 
L 384.696939 315.106339 
L 395.62988 315.193854 
L 400.003057 315.310541 
L 406.562822 315.427228 
L 410.935998 315.573087 
L 417.495763 315.660602 
L 432.801881 316.156522 
L 437.175058 316.302381 
L 463.414117 317.294221 
L 476.533647 317.556767 
L 483.093412 317.877656 
L 485.28 317.877656 
L 485.28 317.877656 
" clip-path="url(#pa089482f91)" style="fill: none; stroke: #1f77b4; stroke-opacity: 0.9; stroke-width: 1.6; stroke-linecap: square"/>
   </g>
   <g id="line2d_26">
    <path d="M 47.962344 26.16 
L 50.148932 84.270157 
L 52.33552 89.200186 
L 54.522109 91.91316 
L 56.708697 94.976195 
L 58.895285 96.814016 
L 61.081873 98.010059 
L 63.268462 98.564322 
L 65.45505 102.648369 
L 69.828227 104.194473 
L 72.014815 105.157141 
L 80.761168 107.257508 
L 82.947756 108.949471 
L 85.134345 110.378887 
L 93.880698 111.57493 
L 96.067286 111.691617 
L 98.253874 113.967015 
L 100.440463 114.22956 
L 102.627051 114.375419 
L 111.373404 115.688149 
L 113.559992 116.184069 
L 120.119757 116.563302 
L 122.306345 116.650817 
L 124.492934 116.855019 
L 126.679522 116.942535 
L 128.86611 117.146737 
L 150.731993 118.080233 
L 152.918581 118.576153 
L 157.291758 118.722012 
L 163.851523 118.984558 
L 166.038111 119.101245 
L 168.224699 119.363791 
L 172.597876 119.451306 
L 187.903994 119.947226 
L 192.27717 120.180601 
L 194.463759 120.209772 
L 196.650347 120.355631 
L 203.210112 120.50149 
L 207.583288 120.705692 
L 214.143053 120.939067 
L 222.889406 121.318299 
L 229.449171 121.49333 
L 238.195524 121.785048 
L 242.568701 121.98925 
L 264.434584 122.368483 
L 266.621172 125.664893 
L 275.367525 125.95661 
L 284.113878 126.073297 
L 290.673643 126.45253 
L 297.233408 126.627561 
L 323.472467 127.240168 
L 327.845644 127.386027 
L 334.405409 127.648573 
L 340.965173 127.823603 
L 358.45788 128.348695 
L 375.950586 129.340535 
L 380.323762 129.603081 
L 386.883527 129.836455 
L 395.62988 130.41989 
L 397.816469 130.449062 
L 402.189645 130.828295 
L 410.935998 131.353387 
L 413.122587 131.615933 
L 421.86894 132.111853 
L 426.242116 132.491086 
L 430.615293 132.753632 
L 432.801881 133.132865 
L 434.98847 133.337067 
L 439.361646 134.008018 
L 443.734823 134.620625 
L 452.481176 135.583293 
L 454.667764 135.933354 
L 456.854352 136.458446 
L 459.040941 136.779335 
L 465.600705 138.442126 
L 469.973882 139.929886 
L 474.347059 142.321971 
L 476.533647 144.334823 
L 478.720235 146.756079 
L 480.906823 152.036169 
L 483.093412 164.11328 
L 485.28 317.877656 
L 485.28 317.877656 
" clip-path="url(#pa089482f91)" style="fill: none; stroke: #ff7f0e; stroke-opacity: 0.9; stroke-width: 1.6; stroke-linecap: square"/>
   </g>
   <g id="line2d_27">
    <path d="M 47.962344 26.16 
L 50.148932 100.022911 
L 52.33552 105.711405 
L 54.522109 110.699777 
L 56.708697 112.420911 
L 58.895285 113.266892 
L 61.081873 114.754652 
L 63.268462 115.775664 
L 67.641638 116.971706 
L 76.387991 118.576153 
L 78.57458 118.897043 
L 85.134345 119.363791 
L 87.320933 119.801368 
L 89.507521 119.801368 
L 91.694109 120.00557 
L 93.880698 120.326459 
L 104.813639 121.259956 
L 109.186816 121.49333 
L 111.373404 121.726704 
L 120.119757 122.105937 
L 122.306345 122.368483 
L 126.679522 122.572685 
L 137.612463 123.068605 
L 139.799052 123.126949 
L 146.358816 123.652041 
L 159.478346 124.322991 
L 163.851523 124.877255 
L 166.038111 124.993942 
L 170.411288 125.052285 
L 176.971052 125.344003 
L 179.157641 125.373175 
L 181.344229 125.548205 
L 185.717405 125.635721 
L 190.090582 125.898267 
L 196.650347 126.160813 
L 216.329641 126.715076 
L 220.702818 126.919278 
L 227.262583 127.065137 
L 231.635759 127.152653 
L 236.008936 127.210996 
L 253.501642 127.76526 
L 262.247995 128.26118 
L 270.994348 128.43621 
L 275.367525 128.494554 
L 277.554113 128.786271 
L 281.92729 128.961302 
L 288.487055 129.311363 
L 292.860231 129.42805 
L 297.233408 129.457222 
L 301.606584 129.661424 
L 314.726114 130.157344 
L 319.099291 130.215688 
L 321.285879 130.478234 
L 327.845644 130.74078 
L 332.21882 130.91581 
L 336.591997 131.2367 
L 347.524938 131.440902 
L 358.45788 131.790963 
L 360.644468 131.790963 
L 369.390821 132.170196 
L 373.763998 132.286883 
L 380.323762 132.491086 
L 382.510351 132.753632 
L 391.256704 133.045349 
L 395.62988 133.191208 
L 406.562822 133.657956 
L 408.74941 134.008018 
L 413.122587 134.299735 
L 419.682352 134.766483 
L 424.055528 134.853999 
L 428.428705 135.233232 
L 432.801881 135.787495 
L 439.361646 136.400102 
L 441.548234 137.129396 
L 452.481176 138.150408 
L 454.667764 138.617156 
L 459.040941 139.404794 
L 465.600705 140.542493 
L 474.347059 142.701204 
L 476.533647 143.605528 
L 478.720235 144.801571 
L 480.906823 147.310343 
L 483.093412 151.540249 
L 485.28 317.877656 
L 485.28 317.877656 
" clip-path="url(#pa089482f91)" style="fill: none; stroke: #2ca02c; stroke-opacity: 0.9; stroke-width: 1.6; stroke-linecap: square"/>
   </g>
   <g id="line2d_28">
    <path d="M 47.962344 26.16 
L 50.148932 135.962526 
L 52.33552 143.255467 
L 54.522109 146.93111 
L 56.708697 149.614912 
L 58.895285 151.248531 
L 61.081873 153.203039 
L 63.268462 154.36991 
L 65.45505 155.099204 
L 67.641638 156.324418 
L 69.828227 156.995369 
L 72.014815 157.783006 
L 78.57458 159.358282 
L 87.320933 161.400305 
L 89.507521 161.954569 
L 91.694109 162.362974 
L 93.880698 162.654691 
L 96.067286 163.208955 
L 98.253874 163.500673 
L 107.000227 165.542696 
L 111.373404 166.563708 
L 115.74658 167.468033 
L 124.492934 168.722419 
L 126.679522 169.189167 
L 133.239287 169.889289 
L 137.612463 170.676927 
L 139.799052 170.939473 
L 141.98564 171.406221 
L 146.358816 172.018828 
L 152.918581 173.156527 
L 155.10517 173.769134 
L 157.291758 173.973336 
L 159.478346 174.469256 
L 163.851523 175.111035 
L 166.038111 175.373581 
L 179.157641 177.736494 
L 183.530817 178.669991 
L 185.717405 179.428457 
L 187.903994 179.691002 
L 192.27717 180.887045 
L 194.463759 183.541676 
L 196.650347 183.979252 
L 198.836935 184.679374 
L 201.023523 185.087779 
L 205.3967 186.75057 
L 207.583288 187.684066 
L 211.956465 190.134495 
L 214.143053 191.009648 
L 216.329641 192.526579 
L 218.51623 193.460076 
L 220.702818 194.568603 
L 222.889406 195.822989 
L 225.075995 197.369092 
L 227.262583 198.565135 
L 229.449171 199.994551 
L 231.635759 201.103078 
L 233.822348 206.879088 
L 236.008936 208.629394 
L 238.195524 210.671418 
L 240.382113 212.334208 
L 244.755289 216.476599 
L 246.941877 219.30626 
L 249.128466 221.844204 
L 251.315054 224.615522 
L 253.501642 227.591042 
L 255.68823 231.179169 
L 257.874819 234.213032 
L 260.061407 238.413767 
L 262.247995 242.351955 
L 264.434584 246.669376 
L 266.621172 254.66244 
L 270.994348 263.151424 
L 273.180937 267.235471 
L 275.367525 272.603076 
L 277.554113 276.62878 
L 279.740702 281.412949 
L 281.92729 285.438653 
L 284.113878 291.127147 
L 286.300466 296.494752 
L 288.487055 301.512296 
L 290.673643 304.808705 
L 292.860231 307.463336 
L 295.04682 309.797077 
L 297.233408 312.772597 
L 301.606584 316.710786 
L 303.793173 317.352564 
L 308.166349 317.673454 
L 310.352937 317.819313 
L 321.285879 317.877656 
L 485.28 317.877656 
L 485.28 317.877656 
" clip-path="url(#pa089482f91)" style="fill: none; stroke: #d62728; stroke-opacity: 0.9; stroke-width: 1.6; stroke-linecap: square"/>
   </g>
   <g id="line2d_29">
    <path d="M 47.962344 26.16 
L 50.148932 36.691007 
L 52.33552 43.050452 
L 54.522109 44.975789 
L 56.708697 46.580236 
L 61.081873 47.980481 
L 63.268462 48.30137 
L 65.45505 49.29321 
L 67.641638 49.555756 
L 69.828227 50.430909 
L 72.014815 50.722627 
L 74.201403 50.810142 
L 76.387991 54.310754 
L 78.57458 54.631643 
L 80.761168 54.806674 
L 85.134345 55.010876 
L 87.320933 55.273422 
L 109.186816 56.411121 
L 111.373404 56.673667 
L 117.933169 56.907041 
L 120.119757 57.490476 
L 122.306345 57.490476 
L 126.679522 57.811366 
L 133.239287 57.898881 
L 161.664934 58.569832 
L 172.597876 58.774034 
L 176.971052 58.861549 
L 185.717405 58.890721 
L 190.090582 59.03658 
L 198.836935 59.21161 
L 205.3967 59.299126 
L 236.008936 59.795046 
L 242.568701 59.911733 
L 246.941877 59.970076 
L 253.501642 60.057592 
L 260.061407 60.115935 
L 266.621172 60.290966 
L 268.80776 60.290966 
L 273.180937 60.436825 
L 303.793173 61.195291 
L 308.166349 61.253634 
L 334.405409 61.866241 
L 336.591997 61.866241 
L 338.778585 62.0121 
L 349.711527 62.099615 
L 351.898115 62.332989 
L 356.271291 62.50802 
L 362.831056 62.683051 
L 365.017645 63.00394 
L 371.577409 63.120627 
L 373.763998 63.412345 
L 378.137174 63.470688 
L 380.323762 67.000472 
L 384.696939 67.175502 
L 386.883527 67.175502 
L 389.070116 67.321361 
L 400.003057 67.554735 
L 410.935998 67.933968 
L 413.122587 67.96314 
L 419.682352 68.400717 
L 426.242116 68.575747 
L 428.428705 68.838293 
L 434.98847 69.363385 
L 437.175058 69.538415 
L 441.548234 69.684274 
L 448.107999 70.151023 
L 452.481176 70.355225 
L 454.667764 70.617771 
L 456.854352 71.201206 
L 461.227529 71.551267 
L 463.414117 71.9305 
L 465.600705 72.105531 
L 467.787294 72.543107 
L 469.973882 72.805653 
L 472.16047 73.797493 
L 474.347059 74.439272 
L 478.720235 76.422952 
L 480.906823 78.114915 
L 483.093412 83.103286 
L 485.28 317.877656 
L 485.28 317.877656 
" clip-path="url(#pa089482f91)" style="fill: none; stroke: #9467bd; stroke-opacity: 0.9; stroke-width: 1.6; stroke-linecap: square"/>
   </g>
   <g id="line2d_30">
    <path d="M 47.962344 26.16 
L 50.148932 268.781575 
L 52.33552 274.995161 
L 54.522109 277.62062 
L 56.708697 279.662643 
L 58.895285 281.09206 
L 61.081873 282.288102 
L 67.641638 284.213439 
L 72.014815 285.321966 
L 76.387991 285.701199 
L 78.57458 286.109603 
L 80.761168 286.342978 
L 82.947756 286.722211 
L 85.134345 286.926413 
L 87.320933 287.013928 
L 89.507521 287.305646 
L 93.880698 287.597364 
L 98.253874 287.859909 
L 102.627051 288.064112 
L 109.186816 288.501688 
L 113.559992 288.589204 
L 115.74658 288.793406 
L 122.306345 289.055952 
L 126.679522 289.260154 
L 170.411288 290.339509 
L 220.702818 291.068804 
L 225.075995 291.214662 
L 240.382113 291.448037 
L 249.128466 291.82727 
L 255.68823 291.914785 
L 260.061407 291.973128 
L 266.621172 292.148159 
L 279.740702 292.235674 
L 286.300466 292.352361 
L 290.673643 292.644079 
L 314.726114 293.023312 
L 319.099291 293.139999 
L 327.845644 293.344201 
L 334.405409 293.431717 
L 349.711527 293.694263 
L 356.271291 293.898465 
L 367.204233 294.131839 
L 389.070116 294.656931 
L 404.376234 294.715274 
L 424.055528 295.240366 
L 426.242116 295.415397 
L 439.361646 295.619599 
L 441.548234 295.736286 
L 443.734823 296.086347 
L 450.294587 296.261378 
L 452.481176 296.319721 
L 465.600705 297.369905 
L 474.347059 298.565947 
L 476.533647 299.032696 
L 478.720235 300.316253 
L 480.906823 301.891529 
L 483.093412 304.896221 
L 485.28 314.202014 
L 485.28 314.202014 
" clip-path="url(#pa089482f91)" style="fill: none; stroke: #8c564b; stroke-opacity: 0.9; stroke-width: 1.6; stroke-linecap: square"/>
   </g>
   <g id="line2d_31">
    <path d="M 47.962344 26.16 
L 50.148932 231.470886 
L 52.33552 238.238736 
L 54.522109 239.376435 
L 56.708697 241.564317 
L 58.895285 242.381127 
L 63.268462 243.7522 
L 65.45505 244.102261 
L 69.828227 244.598181 
L 72.014815 245.152445 
L 76.387991 245.560849 
L 78.57458 245.940082 
L 82.947756 246.348487 
L 85.134345 246.931922 
L 91.694109 247.515358 
L 93.880698 248.886431 
L 98.253874 249.324007 
L 104.813639 249.557381 
L 107.000227 249.732412 
L 113.559992 249.965786 
L 117.933169 250.228332 
L 122.306345 250.374191 
L 146.358816 251.249344 
L 152.918581 251.395202 
L 157.291758 251.570233 
L 161.664934 251.599405 
L 166.038111 251.803607 
L 172.597876 251.832779 
L 174.784464 252.328699 
L 179.157641 252.387042 
L 185.717405 252.562073 
L 190.090582 252.649588 
L 194.463759 252.853791 
L 198.836935 252.999649 
L 201.023523 253.145508 
L 207.583288 253.203852 
L 214.143053 253.378882 
L 231.635759 253.6706 
L 236.008936 253.787287 
L 314.726114 254.895814 
L 321.285879 255.15836 
L 325.659055 255.216704 
L 340.965173 255.887654 
L 345.33835 256.091857 
L 349.711527 256.208544 
L 354.084703 256.296059 
L 362.831056 256.675292 
L 380.323762 257.083697 
L 386.883527 257.171212 
L 391.256704 257.317071 
L 397.816469 257.63796 
L 404.376234 257.988021 
L 408.74941 258.192224 
L 410.935998 260.525965 
L 413.122587 260.584309 
L 417.495763 260.846854 
L 421.86894 260.93437 
L 434.98847 261.371946 
L 456.854352 262.59716 
L 459.040941 262.91805 
L 463.414117 263.122252 
L 467.787294 263.764031 
L 469.973882 264.289123 
L 472.16047 264.58084 
L 474.347059 265.222619 
L 476.533647 269.219151 
L 478.720235 270.210991 
L 480.906823 271.902954 
L 483.093412 274.236695 
L 485.28 317.877656 
L 485.28 317.877656 
" clip-path="url(#pa089482f91)" style="fill: none; stroke: #e377c2; stroke-opacity: 0.9; stroke-width: 1.6; stroke-linecap: square"/>
   </g>
   <g id="line2d_32">
    <path d="M 47.962344 26.16 
L 50.148932 210.350528 
L 52.33552 217.380924 
L 54.522109 220.823192 
L 58.895285 224.528006 
L 61.081873 226.190797 
L 65.45505 228.05779 
L 67.641638 228.991286 
L 69.828227 230.128985 
L 78.57458 232.958647 
L 82.947756 233.862971 
L 89.507521 235.234044 
L 91.694109 235.49659 
L 93.880698 235.963338 
L 96.067286 236.546774 
L 98.253874 236.780148 
L 100.440463 237.246896 
L 104.813639 237.684473 
L 107.000227 237.97619 
L 111.373404 238.151221 
L 120.119757 238.822171 
L 122.306345 239.259748 
L 128.86611 239.78484 
L 133.239287 240.047386 
L 150.731993 241.418459 
L 152.918581 242.001894 
L 155.10517 242.206096 
L 157.291758 242.206096 
L 159.478346 242.468642 
L 166.038111 242.993734 
L 170.411288 243.25628 
L 176.971052 243.664684 
L 190.090582 244.627353 
L 201.023523 245.123273 
L 203.210112 245.269132 
L 205.3967 245.531677 
L 209.769877 245.677536 
L 211.956465 245.852567 
L 214.143053 245.91091 
L 216.329641 246.085941 
L 227.262583 246.465174 
L 233.822348 247.136125 
L 238.195524 247.281983 
L 242.568701 247.369499 
L 246.941877 247.544529 
L 249.128466 247.865419 
L 253.501642 248.011278 
L 255.68823 248.244652 
L 260.061407 248.536369 
L 264.434584 248.857259 
L 266.621172 249.032289 
L 268.80776 249.061461 
L 270.994348 249.353179 
L 275.367525 249.732412 
L 277.554113 249.907442 
L 281.92729 250.024129 
L 284.113878 250.286675 
L 286.300466 250.432534 
L 288.487055 250.461706 
L 292.860231 250.724252 
L 299.419996 251.132656 
L 301.606584 251.511889 
L 305.979761 251.774435 
L 310.352937 252.095325 
L 316.912702 252.357871 
L 334.405409 253.553913 
L 336.591997 253.816459 
L 340.965173 253.903974 
L 343.151762 254.195692 
L 347.524938 254.283207 
L 351.898115 254.429066 
L 354.084703 254.66244 
L 362.831056 254.98333 
L 373.763998 255.65428 
L 378.137174 255.916826 
L 391.256704 256.850323 
L 393.443292 257.054525 
L 395.62988 257.14204 
L 397.816469 257.63796 
L 402.189645 258.075537 
L 406.562822 258.571457 
L 410.935998 258.775659 
L 421.86894 259.738327 
L 426.242116 260.030045 
L 430.615293 260.788511 
L 434.98847 261.138572 
L 437.175058 261.255259 
L 443.734823 262.159584 
L 445.921411 262.363786 
L 448.107999 262.888878 
L 450.294587 263.034737 
L 452.481176 263.297283 
L 454.667764 263.764031 
L 456.854352 264.08492 
L 461.227529 264.960073 
L 463.414117 265.222619 
L 465.600705 265.631024 
L 467.787294 266.360318 
L 469.973882 267.352158 
L 472.16047 268.139796 
L 474.347059 269.131636 
L 476.533647 269.948445 
L 480.906823 273.215683 
L 483.093412 275.81197 
L 485.28 294.044324 
L 485.28 294.044324 
" clip-path="url(#pa089482f91)" style="fill: none; stroke: #7f7f7f; stroke-opacity: 0.9; stroke-width: 1.6; stroke-linecap: square"/>
   </g>
   <g id="line2d_33">
    <path d="M 47.962344 26.16 
L 65.45505 26.16 
L 67.641638 27.793619 
L 69.828227 70.880317 
L 72.014815 171.960485 
L 74.201403 203.11593 
L 76.387991 215.455587 
L 78.57458 221.727517 
L 80.761168 225.957423 
L 85.134345 231.470886 
L 87.320933 233.104505 
L 93.880698 236.167541 
L 98.253874 237.859503 
L 104.813639 239.434778 
L 111.373404 240.630821 
L 115.74658 241.214256 
L 120.119757 241.476802 
L 124.492934 241.856035 
L 144.172228 243.343795 
L 146.358816 243.460482 
L 148.545405 243.460482 
L 152.918581 243.868887 
L 157.291758 244.073089 
L 159.478346 244.364807 
L 163.851523 244.481494 
L 170.411288 244.773212 
L 174.784464 245.094101 
L 190.090582 245.648365 
L 196.650347 245.73588 
L 207.583288 246.085941 
L 218.51623 246.319315 
L 231.635759 246.756892 
L 233.822348 246.815235 
L 236.008936 246.990266 
L 253.501642 247.311155 
L 264.434584 247.661216 
L 273.180937 248.098793 
L 281.92729 248.157136 
L 286.300466 248.332167 
L 292.860231 248.390511 
L 297.233408 248.623885 
L 336.591997 249.761584 
L 340.965173 250.024129 
L 343.151762 250.19916 
L 360.644468 250.724252 
L 365.017645 250.986798 
L 371.577409 251.249344 
L 373.763998 251.395202 
L 378.137174 251.453546 
L 404.376234 252.416214 
L 406.562822 252.416214 
L 419.682352 253.378882 
L 430.615293 254.312379 
L 432.801881 254.574925 
L 437.175058 255.362563 
L 441.548234 256.1502 
L 445.921411 257.404586 
L 448.107999 258.425598 
L 450.294587 259.300751 
L 452.481176 260.876026 
L 454.667764 263.618172 
L 456.854352 268.314826 
L 459.040941 275.987001 
L 461.227529 286.459665 
L 463.414117 305.888061 
L 465.600705 317.702626 
L 467.787294 317.848484 
L 476.533647 317.877656 
L 485.28 317.877656 
L 485.28 317.877656 
" clip-path="url(#pa089482f91)" style="fill: none; stroke: #bcbd22; stroke-opacity: 0.9; stroke-width: 1.6; stroke-linecap: square"/>
   </g>
   <g id="line2d_34">
    <path d="M 47.962344 26.16 
L 54.522109 26.247515 
L 63.268462 26.772607 
L 65.45505 27.589417 
L 67.641638 44.129808 
L 69.828227 97.835028 
L 72.014815 136.458446 
L 74.201403 159.883374 
L 76.387991 176.598795 
L 78.57458 186.283822 
L 80.761168 192.409892 
L 82.947756 196.231394 
L 85.134345 199.294429 
L 89.507521 204.457831 
L 91.694109 206.062279 
L 96.067286 208.921112 
L 98.253874 209.912952 
L 100.440463 211.517399 
L 102.627051 212.013319 
L 109.186816 214.259545 
L 113.559992 215.3389 
L 115.74658 216.009851 
L 117.933169 217.14755 
L 120.119757 217.730985 
L 128.86611 219.218745 
L 131.052698 219.656321 
L 133.239287 219.889696 
L 135.425875 220.356444 
L 146.358816 222.048406 
L 148.545405 222.398467 
L 150.731993 222.631841 
L 152.918581 222.661013 
L 157.291758 223.127761 
L 159.478346 223.506994 
L 163.851523 223.652853 
L 166.038111 223.711197 
L 174.784464 224.732209 
L 181.344229 225.169785 
L 183.530817 225.403159 
L 187.903994 225.665705 
L 190.090582 225.928251 
L 194.463759 226.307484 
L 198.836935 226.657545 
L 203.210112 226.832576 
L 209.769877 227.386839 
L 214.143053 227.56187 
L 216.329641 227.824416 
L 229.449171 228.670397 
L 231.635759 228.72874 
L 233.822348 232.054322 
L 236.008936 232.083494 
L 249.128466 232.900303 
L 253.501642 233.133677 
L 257.874819 233.483738 
L 262.247995 233.717112 
L 284.113878 234.358891 
L 290.673643 234.621437 
L 292.860231 234.708952 
L 295.04682 234.942327 
L 301.606584 235.263216 
L 308.166349 235.875823 
L 312.539526 236.138369 
L 323.472467 236.896835 
L 325.659055 237.130209 
L 332.21882 237.567785 
L 351.898115 238.793 
L 354.084703 238.822171 
L 356.271291 239.201404 
L 360.644468 239.46395 
L 365.017645 239.755668 
L 378.137174 241.301771 
L 380.323762 241.710176 
L 382.510351 241.856035 
L 384.696939 242.235268 
L 386.883527 242.322783 
L 402.189645 244.773212 
L 404.376234 245.23996 
L 408.74941 245.852567 
L 410.935998 246.436002 
L 413.122587 246.844407 
L 417.495763 248.069621 
L 421.86894 249.032289 
L 428.428705 250.024129 
L 430.615293 250.724252 
L 432.801881 251.278515 
L 434.98847 251.628577 
L 437.175058 252.124497 
L 441.548234 253.349711 
L 445.921411 254.98333 
L 448.107999 256.762807 
L 450.294587 257.95885 
L 452.481176 260.000873 
L 456.854352 263.647344 
L 459.040941 267.614704 
L 461.227529 273.449057 
L 463.414117 281.442121 
L 465.600705 293.577575 
L 467.787294 307.054931 
L 469.973882 316.273209 
L 472.16047 316.885816 
L 476.533647 317.760969 
L 478.720235 317.877656 
L 485.28 317.877656 
L 485.28 317.877656 
" clip-path="url(#pa089482f91)" style="fill: none; stroke: #17becf; stroke-opacity: 0.9; stroke-width: 1.6; stroke-linecap: square"/>
   </g>
   <g id="patch_3">
    <path d="M 47.962344 317.877656 
L 47.962344 26.16 
" style="fill: none; stroke: #000000; stroke-width: 0.8; stroke-linejoin: miter; stroke-linecap: square"/>
   </g>
   <g id="patch_4">
    <path d="M 485.28 317.877656 
L 485.28 26.16 
" style="fill: none; stroke: #000000; stroke-width: 0.8; stroke-linejoin: miter; stroke-linecap: square"/>
   </g>
   <g id="patch_5">
    <path d="M 47.962344 317.877656 
L 485.28 317.877656 
" style="fill: none; stroke: #000000; stroke-width: 0.8; stroke-linejoin: miter; stroke-linecap: square"/>
   </g>
   <g id="patch_6">
    <path d="M 47.962344 26.16 
L 485.28 26.16 
" style="fill: none; stroke: #000000; stroke-width: 0.8; stroke-linejoin: miter; stroke-linecap: square"/>
   </g>
   <g id="text_15">
    <!-- Threshold sensitivity — flat = robust, steep = brittle -->
    <g transform="translate(109.702422 20.16) scale(0.12 -0.12)">
     <defs>
      <path id="DejaVuSans-37" d="M -19 4666 
L 3928 4666 
L 3928 4134 
L 2272 4134 
L 2272 0 
L 1638 0 
L 1638 4134 
L -19 4134 
L -19 4666 
z
" transform="scale(0.015625)"/>
      <path id="DejaVuSans-5c" d="M 2059 -325 
Q 1816 -950 1584 -1140 
Q 1353 -1331 966 -1331 
L 506 -1331 
L 506 -850 
L 844 -850 
Q 1081 -850 1212 -737 
Q 1344 -625 1503 -206 
L 1606 56 
L 191 3500 
L 800 3500 
L 1894 763 
L 2988 3500 
L 3597 3500 
L 2059 -325 
z
" transform="scale(0.015625)"/>
      <path id="DejaVuSans-af6" d="M 313 1978 
L 6088 1978 
L 6088 1528 
L 313 1528 
L 313 1978 
z
" transform="scale(0.015625)"/>
      <path id="DejaVuSans-13b0" d="M 1831 4863 
L 3431 4863 
L 3431 0 
L 2853 0 
L 2853 4384 
L 1825 4384 
Q 1516 4384 1395 4259 
Q 1275 4134 1275 3809 
L 1275 3500 
L 2222 3500 
L 2222 3053 
L 1275 3053 
L 1275 0 
L 697 0 
L 697 3053 
L 147 3053 
L 147 3500 
L 697 3500 
L 697 3744 
Q 697 4328 969 4595 
Q 1241 4863 1831 4863 
z
" transform="scale(0.015625)"/>
      <path id="DejaVuSans-20" d="M 678 2906 
L 4684 2906 
L 4684 2381 
L 678 2381 
L 678 2906 
z
M 678 1631 
L 4684 1631 
L 4684 1100 
L 678 1100 
L 678 1631 
z
" transform="scale(0.015625)"/>
      <path id="DejaVuSans-58" d="M 544 1381 
L 544 3500 
L 1119 3500 
L 1119 1403 
Q 1119 906 1312 657 
Q 1506 409 1894 409 
Q 2359 409 2629 706 
Q 2900 1003 2900 1516 
L 2900 3500 
L 3475 3500 
L 3475 0 
L 2900 0 
L 2900 538 
Q 2691 219 2414 64 
Q 2138 -91 1772 -91 
Q 1169 -91 856 284 
Q 544 659 544 1381 
z
M 1991 3584 
L 1991 3584 
z
" transform="scale(0.015625)"/>
      <path id="DejaVuSans-f" d="M 750 794 
L 1409 794 
L 1409 256 
L 897 -744 
L 494 -744 
L 750 256 
L 750 794 
z
" transform="scale(0.015625)"/>
     </defs>
     <use xlink:href="#DejaVuSans-37"/>
     <use xlink:href="#DejaVuSans-4b" transform="translate(61.078125 0)"/>
     <use xlink:href="#DejaVuSans-55" transform="translate(124.453125 0)"/>
     <use xlink:href="#DejaVuSans-48" transform="translate(163.359375 0)"/>
     <use xlink:href="#DejaVuSans-56" transform="translate(224.890625 0)"/>
     <use xlink:href="#DejaVuSans-4b" transform="translate(276.984375 0)"/>
     <use xlink:href="#DejaVuSans-52" transform="translate(340.359375 0)"/>
     <use xlink:href="#DejaVuSans-4f" transform="translate(401.546875 0)"/>
     <use xlink:href="#DejaVuSans-47" transform="translate(429.328125 0)"/>
     <use xlink:href="#DejaVuSans-3" transform="translate(492.8125 0)"/>
     <use xlink:href="#DejaVuSans-56" transform="translate(524.59375 0)"/>
     <use xlink:href="#DejaVuSans-48" transform="translate(576.6875 0)"/>
     <use xlink:href="#DejaVuSans-51" transform="translate(638.21875 0)"/>
     <use xlink:href="#DejaVuSans-56" transform="translate(701.59375 0)"/>
     <use xlink:href="#DejaVuSans-4c" transform="translate(753.6875 0)"/>
     <use xlink:href="#DejaVuSans-57" transform="translate(781.46875 0)"/>
     <use xlink:href="#DejaVuSans-4c" transform="translate(820.671875 0)"/>
     <use xlink:href="#DejaVuSans-59" transform="translate(848.453125 0)"/>
     <use xlink:href="#DejaVuSans-4c" transform="translate(907.640625 0)"/>
     <use xlink:href="#DejaVuSans-57" transform="translate(935.421875 0)"/>
     <use xlink:href="#DejaVuSans-5c" transform="translate(974.625 0)"/>
     <use xlink:href="#DejaVuSans-3" transform="translate(1033.8125 0)"/>
     <use xlink:href="#DejaVuSans-af6" transform="translate(1065.59375 0)"/>
     <use xlink:href="#DejaVuSans-3" transform="translate(1165.59375 0)"/>
     <use xlink:href="#DejaVuSans-13b0" transform="translate(1197.375 0)"/>
     <use xlink:href="#DejaVuSans-44" transform="translate(1260.359375 0)"/>
     <use xlink:href="#DejaVuSans-57" transform="translate(1321.640625 0)"/>
     <use xlink:href="#DejaVuSans-3" transform="translate(1360.84375 0)"/>
     <use xlink:href="#DejaVuSans-20" transform="translate(1392.625 0)"/>
     <use xlink:href="#DejaVuSans-3" transform="translate(1476.421875 0)"/>
     <use xlink:href="#DejaVuSans-55" transform="translate(1508.203125 0)"/>
     <use xlink:href="#DejaVuSans-52" transform="translate(1547.109375 0)"/>
     <use xlink:href="#DejaVuSans-45" transform="translate(1608.296875 0)"/>
     <use xlink:href="#DejaVuSans-58" transform="translate(1671.78125 0)"/>
     <use xlink:href="#DejaVuSans-56" transform="translate(1735.15625 0)"/>
     <use xlink:href="#DejaVuSans-57" transform="translate(1787.25 0)"/>
     <use xlink:href="#DejaVuSans-f" transform="translate(1826.453125 0)"/>
     <use xlink:href="#DejaVuSans-3" transform="translate(1858.234375 0)"/>
     <use xlink:href="#DejaVuSans-56" transform="translate(1890.015625 0)"/>
     <use xlink:href="#DejaVuSans-57" transform="translate(1942.109375 0)"/>
     <use xlink:href="#DejaVuSans-48" transform="translate(1981.3125 0)"/>
     <use xlink:href="#DejaVuSans-48" transform="translate(2042.84375 0)"/>
     <use xlink:href="#DejaVuSans-53" transform="translate(2104.375 0)"/>
     <use xlink:href="#DejaVuSans-3" transform="translate(2167.859375 0)"/>
     <use xlink:href="#DejaVuSans-20" transform="translate(2199.640625 0)"/>
     <use xlink:href="#DejaVuSans-3" transform="translate(2283.4375 0)"/>
     <use xlink:href="#DejaVuSans-45" transform="translate(2315.21875 0)"/>
     <use xlink:href="#DejaVuSans-55" transform="translate(2378.703125 0)"/>
     <use xlink:href="#DejaVuSans-4c" transform="translate(2419.8125 0)"/>
     <use xlink:href="#DejaVuSans-57" transform="translate(2447.59375 0)"/>
     <use xlink:href="#DejaVuSans-57" transform="translate(2486.796875 0)"/>
     <use xlink:href="#DejaVuSans-4f" transform="translate(2526 0)"/>
     <use xlink:href="#DejaVuSans-48" transform="translate(2553.78125 0)"/>
    </g>
   </g>
   <g id="legend_1">
    <g id="patch_7">
     <path d="M 343.290469 136.765469 
L 480.38 136.765469 
Q 481.78 136.765469 481.78 135.365469 
L 481.78 31.06 
Q 481.78 29.66 480.38 29.66 
L 343.290469 29.66 
Q 341.890469 29.66 341.890469 31.06 
L 341.890469 135.365469 
Q 341.890469 136.765469 343.290469 136.765469 
z
" style="fill: #ffffff; opacity: 0.8; stroke: #cccccc; stroke-linejoin: miter"/>
    </g>
    <g id="line2d_35">
     <path d="M 344.690469 35.328906 
L 351.690469 35.328906 
L 358.690469 35.328906 
" style="fill: none; stroke: #1f77b4; stroke-opacity: 0.9; stroke-width: 1.6; stroke-linecap: square"/>
    </g>
    <g id="text_16">
     <!-- bastion-prompt-protection (70M) -->
     <g transform="translate(364.290469 37.778906) scale(0.07 -0.07)">
      <defs>
       <path id="DejaVuSans-50" d="M 3328 2828 
Q 3544 3216 3844 3400 
Q 4144 3584 4550 3584 
Q 5097 3584 5394 3201 
Q 5691 2819 5691 2113 
L 5691 0 
L 5113 0 
L 5113 2094 
Q 5113 2597 4934 2840 
Q 4756 3084 4391 3084 
Q 3944 3084 3684 2787 
Q 3425 2491 3425 1978 
L 3425 0 
L 2847 0 
L 2847 2094 
Q 2847 2600 2669 2842 
Q 2491 3084 2119 3084 
Q 1678 3084 1418 2786 
Q 1159 2488 1159 1978 
L 1159 0 
L 581 0 
L 581 3500 
L 1159 3500 
L 1159 2956 
Q 1356 3278 1631 3431 
Q 1906 3584 2284 3584 
Q 2666 3584 2933 3390 
Q 3200 3197 3328 2828 
z
" transform="scale(0.015625)"/>
       <path id="DejaVuSans-b" d="M 1984 4856 
Q 1566 4138 1362 3434 
Q 1159 2731 1159 2009 
Q 1159 1288 1364 580 
Q 1569 -128 1984 -844 
L 1484 -844 
Q 1016 -109 783 600 
Q 550 1309 550 2009 
Q 550 2706 781 3412 
Q 1013 4119 1484 4856 
L 1984 4856 
z
" transform="scale(0.015625)"/>
       <path id="DejaVuSans-1a" d="M 525 4666 
L 3525 4666 
L 3525 4397 
L 1831 0 
L 1172 0 
L 2766 4134 
L 525 4134 
L 525 4666 
z
" transform="scale(0.015625)"/>
       <path id="DejaVuSans-30" d="M 628 4666 
L 1569 4666 
L 2759 1491 
L 3956 4666 
L 4897 4666 
L 4897 0 
L 4281 0 
L 4281 4097 
L 3078 897 
L 2444 897 
L 1241 4097 
L 1241 0 
L 628 0 
L 628 4666 
z
" transform="scale(0.015625)"/>
       <path id="DejaVuSans-c" d="M 513 4856 
L 1013 4856 
Q 1481 4119 1714 3412 
Q 1947 2706 1947 2009 
Q 1947 1309 1714 600 
Q 1481 -109 1013 -844 
L 513 -844 
Q 928 -128 1133 580 
Q 1338 1288 1338 2009 
Q 1338 2731 1133 3434 
Q 928 4138 513 4856 
z
" transform="scale(0.015625)"/>
      </defs>
      <use xlink:href="#DejaVuSans-45"/>
      <use xlink:href="#DejaVuSans-44" transform="translate(63.484375 0)"/>
      <use xlink:href="#DejaVuSans-56" transform="translate(124.765625 0)"/>
      <use xlink:href="#DejaVuSans-57" transform="translate(176.859375 0)"/>
      <use xlink:href="#DejaVuSans-4c" transform="translate(216.0625 0)"/>
      <use xlink:href="#DejaVuSans-52" transform="translate(243.84375 0)"/>
      <use xlink:href="#DejaVuSans-51" transform="translate(305.03125 0)"/>
      <use xlink:href="#DejaVuSans-10" transform="translate(368.40625 0)"/>
      <use xlink:href="#DejaVuSans-53" transform="translate(404.484375 0)"/>
      <use xlink:href="#DejaVuSans-55" transform="translate(467.96875 0)"/>
      <use xlink:href="#DejaVuSans-52" transform="translate(506.875 0)"/>
      <use xlink:href="#DejaVuSans-50" transform="translate(568.0625 0)"/>
      <use xlink:href="#DejaVuSans-53" transform="translate(665.46875 0)"/>
      <use xlink:href="#DejaVuSans-57" transform="translate(728.953125 0)"/>
      <use xlink:href="#DejaVuSans-10" transform="translate(768.15625 0)"/>
      <use xlink:href="#DejaVuSans-53" transform="translate(804.234375 0)"/>
      <use xlink:href="#DejaVuSans-55" transform="translate(867.71875 0)"/>
      <use xlink:href="#DejaVuSans-52" transform="translate(906.625 0)"/>
      <use xlink:href="#DejaVuSans-57" transform="translate(967.8125 0)"/>
      <use xlink:href="#DejaVuSans-48" transform="translate(1007.015625 0)"/>
      <use xlink:href="#DejaVuSans-46" transform="translate(1068.546875 0)"/>
      <use xlink:href="#DejaVuSans-57" transform="translate(1123.53125 0)"/>
      <use xlink:href="#DejaVuSans-4c" transform="translate(1162.734375 0)"/>
      <use xlink:href="#DejaVuSans-52" transform="translate(1190.515625 0)"/>
      <use xlink:href="#DejaVuSans-51" transform="translate(1251.703125 0)"/>
      <use xlink:href="#DejaVuSans-3" transform="translate(1315.078125 0)"/>
      <use xlink:href="#DejaVuSans-b" transform="translate(1346.859375 0)"/>
      <use xlink:href="#DejaVuSans-1a" transform="translate(1385.875 0)"/>
      <use xlink:href="#DejaVuSans-13" transform="translate(1449.5 0)"/>
      <use xlink:href="#DejaVuSans-30" transform="translate(1513.125 0)"/>
      <use xlink:href="#DejaVuSans-c" transform="translate(1599.40625 0)"/>
     </g>
    </g>
    <g id="line2d_36">
     <path d="M 344.690469 45.829453 
L 351.690469 45.829453 
L 358.690469 45.829453 
" style="fill: none; stroke: #ff7f0e; stroke-opacity: 0.9; stroke-width: 1.6; stroke-linecap: square"/>
    </g>
    <g id="text_17">
     <!-- deepset injection (184M) -->
     <g transform="translate(364.290469 48.279453) scale(0.07 -0.07)">
      <defs>
       <path id="DejaVuSans-4d" d="M 603 3500 
L 1178 3500 
L 1178 -63 
Q 1178 -731 923 -1031 
Q 669 -1331 103 -1331 
L -116 -1331 
L -116 -844 
L 38 -844 
Q 366 -844 484 -692 
Q 603 -541 603 -63 
L 603 3500 
z
M 603 4863 
L 1178 4863 
L 1178 4134 
L 603 4134 
L 603 4863 
z
" transform="scale(0.015625)"/>
      </defs>
      <use xlink:href="#DejaVuSans-47"/>
      <use xlink:href="#DejaVuSans-48" transform="translate(63.484375 0)"/>
      <use xlink:href="#DejaVuSans-48" transform="translate(125.015625 0)"/>
      <use xlink:href="#DejaVuSans-53" transform="translate(186.546875 0)"/>
      <use xlink:href="#DejaVuSans-56" transform="translate(250.03125 0)"/>
      <use xlink:href="#DejaVuSans-48" transform="translate(302.125 0)"/>
      <use xlink:href="#DejaVuSans-57" transform="translate(363.65625 0)"/>
      <use xlink:href="#DejaVuSans-3" transform="translate(402.859375 0)"/>
      <use xlink:href="#DejaVuSans-4c" transform="translate(434.640625 0)"/>
      <use xlink:href="#DejaVuSans-51" transform="translate(462.421875 0)"/>
      <use xlink:href="#DejaVuSans-4d" transform="translate(525.796875 0)"/>
      <use xlink:href="#DejaVuSans-48" transform="translate(553.578125 0)"/>
      <use xlink:href="#DejaVuSans-46" transform="translate(615.109375 0)"/>
      <use xlink:href="#DejaVuSans-57" transform="translate(670.09375 0)"/>
      <use xlink:href="#DejaVuSans-4c" transform="translate(709.296875 0)"/>
      <use xlink:href="#DejaVuSans-52" transform="translate(737.078125 0)"/>
      <use xlink:href="#DejaVuSans-51" transform="translate(798.265625 0)"/>
      <use xlink:href="#DejaVuSans-3" transform="translate(861.640625 0)"/>
      <use xlink:href="#DejaVuSans-b" transform="translate(893.421875 0)"/>
      <use xlink:href="#DejaVuSans-14" transform="translate(932.4375 0)"/>
      <use xlink:href="#DejaVuSans-1b" transform="translate(996.0625 0)"/>
      <use xlink:href="#DejaVuSans-17" transform="translate(1059.6875 0)"/>
      <use xlink:href="#DejaVuSans-30" transform="translate(1123.3125 0)"/>
      <use xlink:href="#DejaVuSans-c" transform="translate(1209.59375 0)"/>
     </g>
    </g>
    <g id="line2d_37">
     <path d="M 344.690469 56.33 
L 351.690469 56.33 
L 358.690469 56.33 
" style="fill: none; stroke: #2ca02c; stroke-opacity: 0.9; stroke-width: 1.6; stroke-linecap: square"/>
    </g>
    <g id="text_18">
     <!-- fmops distilbert (67M) -->
     <g transform="translate(364.290469 58.78) scale(0.07 -0.07)">
      <defs>
       <path id="DejaVuSans-49" d="M 2375 4863 
L 2375 4384 
L 1825 4384 
Q 1516 4384 1395 4259 
Q 1275 4134 1275 3809 
L 1275 3500 
L 2222 3500 
L 2222 3053 
L 1275 3053 
L 1275 0 
L 697 0 
L 697 3053 
L 147 3053 
L 147 3500 
L 697 3500 
L 697 3744 
Q 697 4328 969 4595 
Q 1241 4863 1831 4863 
L 2375 4863 
z
" transform="scale(0.015625)"/>
      </defs>
      <use xlink:href="#DejaVuSans-49"/>
      <use xlink:href="#DejaVuSans-50" transform="translate(35.203125 0)"/>
      <use xlink:href="#DejaVuSans-52" transform="translate(132.609375 0)"/>
      <use xlink:href="#DejaVuSans-53" transform="translate(193.796875 0)"/>
      <use xlink:href="#DejaVuSans-56" transform="translate(257.28125 0)"/>
      <use xlink:href="#DejaVuSans-3" transform="translate(309.375 0)"/>
      <use xlink:href="#DejaVuSans-47" transform="translate(341.15625 0)"/>
      <use xlink:href="#DejaVuSans-4c" transform="translate(404.640625 0)"/>
      <use xlink:href="#DejaVuSans-56" transform="translate(432.421875 0)"/>
      <use xlink:href="#DejaVuSans-57" transform="translate(484.515625 0)"/>
      <use xlink:href="#DejaVuSans-4c" transform="translate(523.71875 0)"/>
      <use xlink:href="#DejaVuSans-4f" transform="translate(551.5 0)"/>
      <use xlink:href="#DejaVuSans-45" transform="translate(579.28125 0)"/>
      <use xlink:href="#DejaVuSans-48" transform="translate(642.765625 0)"/>
      <use xlink:href="#DejaVuSans-55" transform="translate(704.296875 0)"/>
      <use xlink:href="#DejaVuSans-57" transform="translate(745.40625 0)"/>
      <use xlink:href="#DejaVuSans-3" transform="translate(784.609375 0)"/>
      <use xlink:href="#DejaVuSans-b" transform="translate(816.390625 0)"/>
      <use xlink:href="#DejaVuSans-19" transform="translate(855.40625 0)"/>
      <use xlink:href="#DejaVuSans-1a" transform="translate(919.03125 0)"/>
      <use xlink:href="#DejaVuSans-30" transform="translate(982.65625 0)"/>
      <use xlink:href="#DejaVuSans-c" transform="translate(1068.9375 0)"/>
     </g>
    </g>
    <g id="line2d_38">
     <path d="M 344.690469 66.830547 
L 351.690469 66.830547 
L 358.690469 66.830547 
" style="fill: none; stroke: #d62728; stroke-opacity: 0.9; stroke-width: 1.6; stroke-linecap: square"/>
    </g>
    <g id="text_19">
     <!-- hlyn judge (70M) -->
     <g transform="translate(364.290469 69.280547) scale(0.07 -0.07)">
      <use xlink:href="#DejaVuSans-4b"/>
      <use xlink:href="#DejaVuSans-4f" transform="translate(63.375 0)"/>
      <use xlink:href="#DejaVuSans-5c" transform="translate(91.15625 0)"/>
      <use xlink:href="#DejaVuSans-51" transform="translate(150.34375 0)"/>
      <use xlink:href="#DejaVuSans-3" transform="translate(213.71875 0)"/>
      <use xlink:href="#DejaVuSans-4d" transform="translate(245.5 0)"/>
      <use xlink:href="#DejaVuSans-58" transform="translate(273.28125 0)"/>
      <use xlink:href="#DejaVuSans-47" transform="translate(336.65625 0)"/>
      <use xlink:href="#DejaVuSans-4a" transform="translate(400.140625 0)"/>
      <use xlink:href="#DejaVuSans-48" transform="translate(463.625 0)"/>
      <use xlink:href="#DejaVuSans-3" transform="translate(525.15625 0)"/>
      <use xlink:href="#DejaVuSans-b" transform="translate(556.9375 0)"/>
      <use xlink:href="#DejaVuSans-1a" transform="translate(595.953125 0)"/>
      <use xlink:href="#DejaVuSans-13" transform="translate(659.578125 0)"/>
      <use xlink:href="#DejaVuSans-30" transform="translate(723.203125 0)"/>
      <use xlink:href="#DejaVuSans-c" transform="translate(809.484375 0)"/>
     </g>
    </g>
    <g id="line2d_39">
     <path d="M 344.690469 77.331094 
L 351.690469 77.331094 
L 358.690469 77.331094 
" style="fill: none; stroke: #9467bd; stroke-opacity: 0.9; stroke-width: 1.6; stroke-linecap: square"/>
    </g>
    <g id="text_20">
     <!-- meta prompt-guard (86M) -->
     <g transform="translate(364.290469 79.781094) scale(0.07 -0.07)">
      <use xlink:href="#DejaVuSans-50"/>
      <use xlink:href="#DejaVuSans-48" transform="translate(97.40625 0)"/>
      <use xlink:href="#DejaVuSans-57" transform="translate(158.9375 0)"/>
      <use xlink:href="#DejaVuSans-44" transform="translate(198.140625 0)"/>
      <use xlink:href="#DejaVuSans-3" transform="translate(259.421875 0)"/>
      <use xlink:href="#DejaVuSans-53" transform="translate(291.203125 0)"/>
      <use xlink:href="#DejaVuSans-55" transform="translate(354.6875 0)"/>
      <use xlink:href="#DejaVuSans-52" transform="translate(393.59375 0)"/>
      <use xlink:href="#DejaVuSans-50" transform="translate(454.78125 0)"/>
      <use xlink:href="#DejaVuSans-53" transform="translate(552.1875 0)"/>
      <use xlink:href="#DejaVuSans-57" transform="translate(615.671875 0)"/>
      <use xlink:href="#DejaVuSans-10" transform="translate(654.875 0)"/>
      <use xlink:href="#DejaVuSans-4a" transform="translate(690.953125 0)"/>
      <use xlink:href="#DejaVuSans-58" transform="translate(754.4375 0)"/>
      <use xlink:href="#DejaVuSans-44" transform="translate(817.8125 0)"/>
      <use xlink:href="#DejaVuSans-55" transform="translate(879.09375 0)"/>
      <use xlink:href="#DejaVuSans-47" transform="translate(918.453125 0)"/>
      <use xlink:href="#DejaVuSans-3" transform="translate(981.9375 0)"/>
      <use xlink:href="#DejaVuSans-b" transform="translate(1013.71875 0)"/>
      <use xlink:href="#DejaVuSans-1b" transform="translate(1052.734375 0)"/>
      <use xlink:href="#DejaVuSans-19" transform="translate(1116.359375 0)"/>
      <use xlink:href="#DejaVuSans-30" transform="translate(1179.984375 0)"/>
      <use xlink:href="#DejaVuSans-c" transform="translate(1266.265625 0)"/>
     </g>
    </g>
    <g id="line2d_40">
     <path d="M 344.690469 87.831641 
L 351.690469 87.831641 
L 358.690469 87.831641 
" style="fill: none; stroke: #8c564b; stroke-opacity: 0.9; stroke-width: 1.6; stroke-linecap: square"/>
    </g>
    <g id="text_21">
     <!-- protectai v2 (184M) -->
     <g transform="translate(364.290469 90.281641) scale(0.07 -0.07)">
      <use xlink:href="#DejaVuSans-53"/>
      <use xlink:href="#DejaVuSans-55" transform="translate(63.484375 0)"/>
      <use xlink:href="#DejaVuSans-52" transform="translate(102.390625 0)"/>
      <use xlink:href="#DejaVuSans-57" transform="translate(163.578125 0)"/>
      <use xlink:href="#DejaVuSans-48" transform="translate(202.78125 0)"/>
      <use xlink:href="#DejaVuSans-46" transform="translate(264.3125 0)"/>
      <use xlink:href="#DejaVuSans-57" transform="translate(319.296875 0)"/>
      <use xlink:href="#DejaVuSans-44" transform="translate(358.5 0)"/>
      <use xlink:href="#DejaVuSans-4c" transform="translate(419.78125 0)"/>
      <use xlink:href="#DejaVuSans-3" transform="translate(447.5625 0)"/>
      <use xlink:href="#DejaVuSans-59" transform="translate(479.34375 0)"/>
      <use xlink:href="#DejaVuSans-15" transform="translate(538.53125 0)"/>
      <use xlink:href="#DejaVuSans-3" transform="translate(602.15625 0)"/>
      <use xlink:href="#DejaVuSans-b" transform="translate(633.9375 0)"/>
      <use xlink:href="#DejaVuSans-14" transform="translate(672.953125 0)"/>
      <use xlink:href="#DejaVuSans-1b" transform="translate(736.578125 0)"/>
      <use xlink:href="#DejaVuSans-17" transform="translate(800.203125 0)"/>
      <use xlink:href="#DejaVuSans-30" transform="translate(863.828125 0)"/>
      <use xlink:href="#DejaVuSans-c" transform="translate(950.109375 0)"/>
     </g>
    </g>
    <g id="line2d_41">
     <path d="M 344.690469 98.332187 
L 351.690469 98.332187 
L 358.690469 98.332187 
" style="fill: none; stroke: #e377c2; stroke-opacity: 0.9; stroke-width: 1.6; stroke-linecap: square"/>
    </g>
    <g id="text_22">
     <!-- proventra mdeberta (280M) -->
     <g transform="translate(364.290469 100.782187) scale(0.07 -0.07)">
      <use xlink:href="#DejaVuSans-53"/>
      <use xlink:href="#DejaVuSans-55" transform="translate(63.484375 0)"/>
      <use xlink:href="#DejaVuSans-52" transform="translate(102.390625 0)"/>
      <use xlink:href="#DejaVuSans-59" transform="translate(163.578125 0)"/>
      <use xlink:href="#DejaVuSans-48" transform="translate(222.765625 0)"/>
      <use xlink:href="#DejaVuSans-51" transform="translate(284.296875 0)"/>
      <use xlink:href="#DejaVuSans-57" transform="translate(347.671875 0)"/>
      <use xlink:href="#DejaVuSans-55" transform="translate(386.875 0)"/>
      <use xlink:href="#DejaVuSans-44" transform="translate(427.984375 0)"/>
      <use xlink:href="#DejaVuSans-3" transform="translate(489.265625 0)"/>
      <use xlink:href="#DejaVuSans-50" transform="translate(521.046875 0)"/>
      <use xlink:href="#DejaVuSans-47" transform="translate(618.453125 0)"/>
      <use xlink:href="#DejaVuSans-48" transform="translate(681.9375 0)"/>
      <use xlink:href="#DejaVuSans-45" transform="translate(743.46875 0)"/>
      <use xlink:href="#DejaVuSans-48" transform="translate(806.953125 0)"/>
      <use xlink:href="#DejaVuSans-55" transform="translate(868.484375 0)"/>
      <use xlink:href="#DejaVuSans-57" transform="translate(909.59375 0)"/>
      <use xlink:href="#DejaVuSans-44" transform="translate(948.796875 0)"/>
      <use xlink:href="#DejaVuSans-3" transform="translate(1010.078125 0)"/>
      <use xlink:href="#DejaVuSans-b" transform="translate(1041.859375 0)"/>
      <use xlink:href="#DejaVuSans-15" transform="translate(1080.875 0)"/>
      <use xlink:href="#DejaVuSans-1b" transform="translate(1144.5 0)"/>
      <use xlink:href="#DejaVuSans-13" transform="translate(1208.125 0)"/>
      <use xlink:href="#DejaVuSans-30" transform="translate(1271.75 0)"/>
      <use xlink:href="#DejaVuSans-c" transform="translate(1358.03125 0)"/>
     </g>
    </g>
    <g id="line2d_42">
     <path d="M 344.690469 108.832734 
L 351.690469 108.832734 
L 358.690469 108.832734 
" style="fill: none; stroke: #7f7f7f; stroke-opacity: 0.9; stroke-width: 1.6; stroke-linecap: square"/>
    </g>
    <g id="text_23">
     <!-- sentinel (qualifire, 395M) -->
     <g transform="translate(364.290469 111.282734) scale(0.07 -0.07)">
      <defs>
       <path id="DejaVuSans-54" d="M 947 1747 
Q 947 1113 1208 752 
Q 1469 391 1925 391 
Q 2381 391 2643 752 
Q 2906 1113 2906 1747 
Q 2906 2381 2643 2742 
Q 2381 3103 1925 3103 
Q 1469 3103 1208 2742 
Q 947 2381 947 1747 
z
M 2906 525 
Q 2725 213 2448 61 
Q 2172 -91 1784 -91 
Q 1150 -91 751 415 
Q 353 922 353 1747 
Q 353 2572 751 3078 
Q 1150 3584 1784 3584 
Q 2172 3584 2448 3432 
Q 2725 3281 2906 2969 
L 2906 3500 
L 3481 3500 
L 3481 -1331 
L 2906 -1331 
L 2906 525 
z
" transform="scale(0.015625)"/>
       <path id="DejaVuSans-13af" d="M 3431 3500 
L 3431 0 
L 2853 0 
L 2853 3053 
L 1275 3053 
L 1275 0 
L 697 0 
L 697 3053 
L 147 3053 
L 147 3500 
L 697 3500 
L 697 3744 
Q 697 4316 967 4589 
Q 1238 4863 1797 4863 
L 2375 4863 
L 2375 4384 
L 1825 4384 
Q 1516 4384 1395 4259 
Q 1275 4134 1275 3809 
L 1275 3500 
L 3431 3500 
z
M 2853 4856 
L 3431 4856 
L 3431 4128 
L 2853 4128 
L 2853 4856 
z
" transform="scale(0.015625)"/>
       <path id="DejaVuSans-16" d="M 2597 2516 
Q 3050 2419 3304 2112 
Q 3559 1806 3559 1356 
Q 3559 666 3084 287 
Q 2609 -91 1734 -91 
Q 1441 -91 1130 -33 
Q 819 25 488 141 
L 488 750 
Q 750 597 1062 519 
Q 1375 441 1716 441 
Q 2309 441 2620 675 
Q 2931 909 2931 1356 
Q 2931 1769 2642 2001 
Q 2353 2234 1838 2234 
L 1294 2234 
L 1294 2753 
L 1863 2753 
Q 2328 2753 2575 2939 
Q 2822 3125 2822 3475 
Q 2822 3834 2567 4026 
Q 2313 4219 1838 4219 
Q 1578 4219 1281 4162 
Q 984 4106 628 3988 
L 628 4550 
Q 988 4650 1302 4700 
Q 1616 4750 1894 4750 
Q 2613 4750 3031 4423 
Q 3450 4097 3450 3541 
Q 3450 3153 3228 2886 
Q 3006 2619 2597 2516 
z
" transform="scale(0.015625)"/>
       <path id="DejaVuSans-1c" d="M 703 97 
L 703 672 
Q 941 559 1184 500 
Q 1428 441 1663 441 
Q 2288 441 2617 861 
Q 2947 1281 2994 2138 
Q 2813 1869 2534 1725 
Q 2256 1581 1919 1581 
Q 1219 1581 811 2004 
Q 403 2428 403 3163 
Q 403 3881 828 4315 
Q 1253 4750 1959 4750 
Q 2769 4750 3195 4129 
Q 3622 3509 3622 2328 
Q 3622 1225 3098 567 
Q 2575 -91 1691 -91 
Q 1453 -91 1209 -44 
Q 966 3 703 97 
z
M 1959 2075 
Q 2384 2075 2632 2365 
Q 2881 2656 2881 3163 
Q 2881 3666 2632 3958 
Q 2384 4250 1959 4250 
Q 1534 4250 1286 3958 
Q 1038 3666 1038 3163 
Q 1038 2656 1286 2365 
Q 1534 2075 1959 2075 
z
" transform="scale(0.015625)"/>
       <path id="DejaVuSans-18" d="M 691 4666 
L 3169 4666 
L 3169 4134 
L 1269 4134 
L 1269 2991 
Q 1406 3038 1543 3061 
Q 1681 3084 1819 3084 
Q 2600 3084 3056 2656 
Q 3513 2228 3513 1497 
Q 3513 744 3044 326 
Q 2575 -91 1722 -91 
Q 1428 -91 1123 -41 
Q 819 9 494 109 
L 494 744 
Q 775 591 1075 516 
Q 1375 441 1709 441 
Q 2250 441 2565 725 
Q 2881 1009 2881 1497 
Q 2881 1984 2565 2268 
Q 2250 2553 1709 2553 
Q 1456 2553 1204 2497 
Q 953 2441 691 2322 
L 691 4666 
z
" transform="scale(0.015625)"/>
      </defs>
      <use xlink:href="#DejaVuSans-56"/>
      <use xlink:href="#DejaVuSans-48" transform="translate(52.09375 0)"/>
      <use xlink:href="#DejaVuSans-51" transform="translate(113.625 0)"/>
      <use xlink:href="#DejaVuSans-57" transform="translate(177 0)"/>
      <use xlink:href="#DejaVuSans-4c" transform="translate(216.203125 0)"/>
      <use xlink:href="#DejaVuSans-51" transform="translate(243.984375 0)"/>
      <use xlink:href="#DejaVuSans-48" transform="translate(307.359375 0)"/>
      <use xlink:href="#DejaVuSans-4f" transform="translate(368.890625 0)"/>
      <use xlink:href="#DejaVuSans-3" transform="translate(396.671875 0)"/>
      <use xlink:href="#DejaVuSans-b" transform="translate(428.453125 0)"/>
      <use xlink:href="#DejaVuSans-54" transform="translate(467.46875 0)"/>
      <use xlink:href="#DejaVuSans-58" transform="translate(530.953125 0)"/>
      <use xlink:href="#DejaVuSans-44" transform="translate(594.328125 0)"/>
      <use xlink:href="#DejaVuSans-4f" transform="translate(655.609375 0)"/>
      <use xlink:href="#DejaVuSans-4c" transform="translate(683.390625 0)"/>
      <use xlink:href="#DejaVuSans-13af" transform="translate(711.171875 0)"/>
      <use xlink:href="#DejaVuSans-55" transform="translate(774.15625 0)"/>
      <use xlink:href="#DejaVuSans-48" transform="translate(813.0625 0)"/>
      <use xlink:href="#DejaVuSans-f" transform="translate(874.59375 0)"/>
      <use xlink:href="#DejaVuSans-3" transform="translate(906.375 0)"/>
      <use xlink:href="#DejaVuSans-16" transform="translate(938.15625 0)"/>
      <use xlink:href="#DejaVuSans-1c" transform="translate(1001.78125 0)"/>
      <use xlink:href="#DejaVuSans-18" transform="translate(1065.40625 0)"/>
      <use xlink:href="#DejaVuSans-30" transform="translate(1129.03125 0)"/>
      <use xlink:href="#DejaVuSans-c" transform="translate(1215.3125 0)"/>
     </g>
    </g>
    <g id="line2d_43">
     <path d="M 344.690469 119.333281 
L 351.690469 119.333281 
L 358.690469 119.333281 
" style="fill: none; stroke: #bcbd22; stroke-opacity: 0.9; stroke-width: 1.6; stroke-linecap: square"/>
    </g>
    <g id="text_24">
     <!-- wolf-defender (0.3B) -->
     <g transform="translate(364.290469 121.783281) scale(0.07 -0.07)">
      <defs>
       <path id="DejaVuSans-5a" d="M 269 3500 
L 844 3500 
L 1563 769 
L 2278 3500 
L 2956 3500 
L 3675 769 
L 4391 3500 
L 4966 3500 
L 4050 0 
L 3372 0 
L 2619 2869 
L 1863 0 
L 1184 0 
L 269 3500 
z
" transform="scale(0.015625)"/>
       <path id="DejaVuSans-25" d="M 1259 2228 
L 1259 519 
L 2272 519 
Q 2781 519 3026 730 
Q 3272 941 3272 1375 
Q 3272 1813 3026 2020 
Q 2781 2228 2272 2228 
L 1259 2228 
z
M 1259 4147 
L 1259 2741 
L 2194 2741 
Q 2656 2741 2882 2914 
Q 3109 3088 3109 3444 
Q 3109 3797 2882 3972 
Q 2656 4147 2194 4147 
L 1259 4147 
z
M 628 4666 
L 2241 4666 
Q 2963 4666 3353 4366 
Q 3744 4066 3744 3513 
Q 3744 3084 3544 2831 
Q 3344 2578 2956 2516 
Q 3422 2416 3680 2098 
Q 3938 1781 3938 1306 
Q 3938 681 3513 340 
Q 3088 0 2303 0 
L 628 0 
L 628 4666 
z
" transform="scale(0.015625)"/>
      </defs>
      <use xlink:href="#DejaVuSans-5a"/>
      <use xlink:href="#DejaVuSans-52" transform="translate(81.78125 0)"/>
      <use xlink:href="#DejaVuSans-4f" transform="translate(142.96875 0)"/>
      <use xlink:href="#DejaVuSans-49" transform="translate(170.75 0)"/>
      <use xlink:href="#DejaVuSans-10" transform="translate(200.484375 0)"/>
      <use xlink:href="#DejaVuSans-47" transform="translate(236.5625 0)"/>
      <use xlink:href="#DejaVuSans-48" transform="translate(300.046875 0)"/>
      <use xlink:href="#DejaVuSans-49" transform="translate(361.578125 0)"/>
      <use xlink:href="#DejaVuSans-48" transform="translate(396.78125 0)"/>
      <use xlink:href="#DejaVuSans-51" transform="translate(458.3125 0)"/>
      <use xlink:href="#DejaVuSans-47" transform="translate(521.6875 0)"/>
      <use xlink:href="#DejaVuSans-48" transform="translate(585.171875 0)"/>
      <use xlink:href="#DejaVuSans-55" transform="translate(646.703125 0)"/>
      <use xlink:href="#DejaVuSans-3" transform="translate(687.8125 0)"/>
      <use xlink:href="#DejaVuSans-b" transform="translate(719.59375 0)"/>
      <use xlink:href="#DejaVuSans-13" transform="translate(758.609375 0)"/>
      <use xlink:href="#DejaVuSans-11" transform="translate(822.234375 0)"/>
      <use xlink:href="#DejaVuSans-16" transform="translate(854.015625 0)"/>
      <use xlink:href="#DejaVuSans-25" transform="translate(917.640625 0)"/>
      <use xlink:href="#DejaVuSans-c" transform="translate(986.25 0)"/>
     </g>
    </g>
    <g id="line2d_44">
     <path d="M 344.690469 129.833828 
L 351.690469 129.833828 
L 358.690469 129.833828 
" style="fill: none; stroke: #17becf; stroke-opacity: 0.9; stroke-width: 1.6; stroke-linecap: square"/>
    </g>
    <g id="text_25">
     <!-- wolf-defender-small (0.1B) -->
     <g transform="translate(364.290469 132.283828) scale(0.07 -0.07)">
      <use xlink:href="#DejaVuSans-5a"/>
      <use xlink:href="#DejaVuSans-52" transform="translate(81.78125 0)"/>
      <use xlink:href="#DejaVuSans-4f" transform="translate(142.96875 0)"/>
      <use xlink:href="#DejaVuSans-49" transform="translate(170.75 0)"/>
      <use xlink:href="#DejaVuSans-10" transform="translate(200.484375 0)"/>
      <use xlink:href="#DejaVuSans-47" transform="translate(236.5625 0)"/>
      <use xlink:href="#DejaVuSans-48" transform="translate(300.046875 0)"/>
      <use xlink:href="#DejaVuSans-49" transform="translate(361.578125 0)"/>
      <use xlink:href="#DejaVuSans-48" transform="translate(396.78125 0)"/>
      <use xlink:href="#DejaVuSans-51" transform="translate(458.3125 0)"/>
      <use xlink:href="#DejaVuSans-47" transform="translate(521.6875 0)"/>
      <use xlink:href="#DejaVuSans-48" transform="translate(585.171875 0)"/>
      <use xlink:href="#DejaVuSans-55" transform="translate(646.703125 0)"/>
      <use xlink:href="#DejaVuSans-10" transform="translate(681.421875 0)"/>
      <use xlink:href="#DejaVuSans-56" transform="translate(717.5 0)"/>
      <use xlink:href="#DejaVuSans-50" transform="translate(769.59375 0)"/>
      <use xlink:href="#DejaVuSans-44" transform="translate(867 0)"/>
      <use xlink:href="#DejaVuSans-4f" transform="translate(928.28125 0)"/>
      <use xlink:href="#DejaVuSans-4f" transform="translate(956.0625 0)"/>
      <use xlink:href="#DejaVuSans-3" transform="translate(983.84375 0)"/>
      <use xlink:href="#DejaVuSans-b" transform="translate(1015.625 0)"/>
      <use xlink:href="#DejaVuSans-13" transform="translate(1054.640625 0)"/>
      <use xlink:href="#DejaVuSans-11" transform="translate(1118.265625 0)"/>
      <use xlink:href="#DejaVuSans-14" transform="translate(1150.046875 0)"/>
      <use xlink:href="#DejaVuSans-25" transform="translate(1213.671875 0)"/>
      <use xlink:href="#DejaVuSans-c" transform="translate(1282.28125 0)"/>
     </g>
    </g>
   </g>
  </g>
 </g>
 <defs>
  <clipPath id="pa089482f91">
   <rect x="47.962344" y="26.16" width="437.317656" height="291.717656"/>
  </clipPath>
 </defs>
</svg>
