<svg height="360pt" stroke-linejoin="round" viewBox="0 0 504 360" width="504pt" xmlns="http://www.w3.org/2000/svg" xmlns:xlink="http://www.w3.org/1999/xlink"><defs stroke-linejoin="round"><clipPath id="a" stroke-linejoin="round"><path d="m47.72 26.88h437.56v291.16h-437.56z"/></clipPath><path id="b" d="m0 0v3.5" stroke="#000" stroke-linejoin="round" stroke-width=".8"/><path id="c" d="m2034 4250q-487 0-733-480-245-479-245-1442 0-959 245-1439 246-480 733-480 491 0 736 480 246 480 246 1439 0 963-246 1442-245 480-736 480zm0 500q785 0 1199-621 414-620 414-1801 0-1178-414-1799-414-620-1199-620-784 0-1198 620-414 621-414 1799 0 1181 414 1801 414 621 1198 621z" stroke-linejoin="round" transform="scale(.015625)"/><path id="d" d="m684 794h660v-794h-660z" stroke-linejoin="round" transform="scale(.015625)"/><path id="e" d="m1228 531h2203v-531h-2962v531q359 372 979 998 621 627 780 809 303 340 423 576 121 236 121 464 0 372-261 606-261 235-680 235-297 0-627-103-329-103-704-313v638q381 153 712 231 332 78 607 78 725 0 1156-363 431-362 431-968 0-288-108-546-107-257-392-607-78-91-497-524-418-433-1181-1211z" stroke-linejoin="round" transform="scale(.015625)"/><path id="f" d="m2419 4116-1594-2491h1594zm-166 550h794v-3041h666v-525h-666v-1100h-628v1100h-2106v609z" stroke-linejoin="round" transform="scale(.015625)"/><path id="g" d="m2113 2584q-425 0-674-291-248-290-248-796 0-503 248-796 249-292 674-292 425 0 673 292 248 293 248 796 0 506-248 796-248 291-673 291zm1253 1979v-575q-238 112-480 171-242 60-480 60-625 0-955-422-329-422-376-1275 184 272 462 417 279 145 613 145 703 0 1111-427 408-426 408-1160 0-719-425-1154-425-434-1131-434-810 0-1238 620-428 621-428 1799 0 1106 525 1764 525 658 1409 658 238 0 480-47 242-47 505-140z" stroke-linejoin="round" transform="scale(.015625)"/><path id="h" d="m2034 2216q-450 0-708-241-257-241-257-662 0-422 257-663 258-241 708-241 450 0 709 242 260 243 260 662 0 421-258 662-257 241-711 241zm-631 268q-406 100-633 378-226 279-226 679 0 559 398 884 399 325 1092 325 697 0 1094-325 397-325 397-884 0-400-227-679-226-278-629-378 456-106 710-416 255-309 255-755 0-679-414-1042-414-362-1186-362-771 0-1186 362-414 363-414 1042 0 446 256 755 257 310 713 416zm-231 997q0-362 226-565 227-203 636-203 407 0 636 203 230 203 230 565 0 363-230 566-229 203-636 203-409 0-636-203-226-203-226-566z" stroke-linejoin="round" transform="scale(.015625)"/><path id="i" d="m794 531h1031v3560l-1122-225v575l1116 225h631v-4135h1031v-531h-2687z" stroke-linejoin="round" transform="scale(.015625)"/><path id="j" d="m3597 1894v-281h-2644q38-594 358-905 320-311 892-311 331 0 642 81 311 81 618 244v-544q-310-131-635-200-325-69-659-69-838 0-1327 487-489 488-489 1320 0 859 464 1363 464 505 1252 505 706 0 1117-455 411-454 411-1235zm-575 169q-6 471-264 752-258 282-683 282-481 0-770-272-289-272-333-766z" stroke-linejoin="round" transform="scale(.015625)"/><path id="k" d="m3122 3366v-538q-244 135-489 202-245 67-495 67-560 0-870-355-309-354-309-995 0-641 309-996 310-354 870-354 250 0 495 67 245 67 489 202v-532q-241-112-499-168-257-57-548-57-791 0-1257 497-465 497-465 1341 0 856 470 1346 471 491 1290 491 265 0 518-55 253-54 491-163z" stroke-linejoin="round" transform="scale(.015625)"/><path id="l" d="m603 3500h575v-3500h-575zm0 1363h575v-729h-575z" stroke-linejoin="round" transform="scale(.015625)"/><path id="m" d="m2834 3397v-544q-243 125-506 187-262 63-544 63-428 0-642-131-214-131-214-394 0-200 153-314 153-114 616-217l197-44q612-131 870-370 258-239 258-667 0-488-386-773-386-284-1061-284-281 0-586 55-305 55-642 164v594q319-166 628-249 309-82 613-82 406 0 624 139 219 139 219 392 0 234-158 359-157 125-692 241l-200 47q-534 112-772 345-237 233-237 639 0 494 350 762 350 269 994 269 318 0 599-47 282-46 519-140z" stroke-linejoin="round" transform="scale(.015625)"/><path id="n" d="m1959 3097q-462 0-731-361-269-361-269-989 0-628 267-989 268-361 733-361 460 0 728 362 269 363 269 988 0 622-269 986-268 364-728 364zm0 487q750 0 1178-488 429-487 429-1349 0-859-429-1349-428-489-1178-489-753 0-1180 489-426 490-426 1349 0 862 426 1349 427 488 1180 488z" stroke-linejoin="round" transform="scale(.015625)"/><path id="o" d="m3513 2113v-2113h-575v2094q0 497-194 743-194 247-581 247-466 0-735-297-269-296-269-809v-1978h-578v3500h578v-544q207 316 486 472 280 156 646 156 603 0 912-373 310-373 310-1098z" stroke-linejoin="round" transform="scale(.015625)"/><path id="p" d="m1172 4494v-994h1184v-447h-1184v-1900q0-428 117-550 117-122 477-122h590v-481h-590q-666 0-919 248-253 249-253 905v1900h-422v447h422v994z" stroke-linejoin="round" transform="scale(.015625)"/><path id="q" d="m3513 2113v-2113h-575v2094q0 497-194 743-194 247-581 247-466 0-735-297-269-296-269-809v-1978h-578v4863h578v-1907q207 316 486 472 280 156 646 156 603 0 912-373 310-373 310-1098z" stroke-linejoin="round" transform="scale(.015625)"/><path id="r" d="m2631 2963q-97 56-211 82-114 27-251 27-488 0-749-317-261-317-261-911v-1844h-578v3500h578v-544q182 319 472 473 291 155 707 155 59 0 131-8 72-7 159-23z" stroke-linejoin="round" transform="scale(.015625)"/><path id="s" d="m603 4863h575v-4863h-575z" stroke-linejoin="round" transform="scale(.015625)"/><path id="t" d="m2906 2969v1894h575v-4863h-575v525q-181-312-458-464-276-152-664-152-634 0-1033 506-398 507-398 1332 0 825 398 1331 399 506 1033 506 388 0 664-152 277-151 458-463zm-1959-1222q0-634 261-995 261-361 717-361 456 0 718 361 263 361 263 995 0 634-263 995-262 361-718 361-456 0-717-361-261-361-261-995z" stroke-linejoin="round" transform="scale(.015625)"/><path id="u" d="m0 0h-3.5" stroke="#000" stroke-linejoin="round" stroke-width=".8"/><path id="v" d="m2194 1759q-697 0-966-159-269-159-269-544 0-306 202-486 202-179 548-179 479 0 768 339 289 339 289 901v128zm1147 238v-1997h-575v531q-197-318-491-470-294-152-719-152-537 0-855 302-317 302-317 808 0 590 395 890 396 300 1180 300h807v57q0 397-261 614-261 217-733 217-300 0-585-72-284-72-546-216v532q315 122 612 182 297 61 578 61 760 0 1135-394 375-393 375-1193z" stroke-linejoin="round" transform="scale(.015625)"/><path id="w" d="m313 2009h1684v-512h-1684z" stroke-linejoin="round" transform="scale(.015625)"/><path id="x" d="m1159 525v-1856h-578v4831h578v-531q182 312 458 463 277 152 661 152 638 0 1036-506 399-506 399-1331 0-825-399-1332-398-506-1036-506-384 0-661 152-276 152-458 464zm1957 1222q0 634-261 995-261 361-717 361-457 0-718-361-261-361-261-995 0-634 261-995 261-361 718-361 456 0 717 361 261 361 261 995z" stroke-linejoin="round" transform="scale(.015625)"/><path id="y" d="m191 3500h609l1094-2937 1094 2937h609l-1313-3500h-781z" stroke-linejoin="round" transform="scale(.015625)"/><path id="z" d="m3116 1747q0 634-261 995-261 361-717 361-457 0-718-361-261-361-261-995 0-634 261-995 261-361 718-361 456 0 717 361 261 361 261 995zm-1957 1222q182 312 458 463 277 152 661 152 638 0 1036-506 399-506 399-1331 0-825-399-1332-398-506-1036-506-384 0-661 152-276 152-458 464v-525h-578v4863h578z" stroke-linejoin="round" transform="scale(.015625)"/><path id="A" d="m2906 1791q0 625-258 968-257 344-723 344-462 0-720-344-258-343-258-968 0-622 258-966 258-344 720-344 466 0 723 344 258 344 258 966zm575-1357q0-893-397-1329-396-436-1215-436-303 0-572 45-269 45-522 139v559q253-137 500-202 247-66 503-66 566 0 847 295 281 295 281 892v285q-178-310-456-463-278-153-666-153-643 0-1037 490-394 491-394 1301 0 812 394 1302 394 491 1037 491 388 0 666-153 278-153 456-462v531h575z" stroke-linejoin="round" transform="scale(.015625)"/><path id="B" d="m2375 4863v-479h-550q-309 0-430-125-120-125-120-450v-309h947v-447h-947v-3053h-578v3053h-550v447h550v244q0 584 272 851 272 268 862 268z" stroke-linejoin="round" transform="scale(.015625)"/><path id="C" d="m2059-325q-243-625-475-815-231-191-618-191h-460v481h338q237 0 368 113 132 112 291 531l103 262-1415 3444h609l1094-2737 1094 2737h609z" stroke-linejoin="round" transform="scale(.015625)"/><path id="D" d="m678 2906h4006v-525h-4006zm0-1275h4006v-531h-4006z" stroke-linejoin="round" transform="scale(.015625)"/><path id="E" d="m544 1381v2119h575v-2097q0-497 193-746 194-248 582-248 465 0 735 297 271 297 271 810v1984h575v-3500h-575v538q-209-319-486-474-276-155-642-155-603 0-916 375-312 375-312 1097z" stroke-linejoin="round" transform="scale(.015625)"/><path id="F" d="m750 794h659v-538l-512-1000h-403l256 1000z" stroke-linejoin="round" transform="scale(.015625)"/><path id="G" d="m3328 2828q216 388 516 572 300 184 706 184 547 0 844-383 297-382 297-1088v-2113h-578v2094q0 503-179 746-178 244-543 244-447 0-707-297-259-296-259-809v-1978h-578v2094q0 506-178 748-178 242-550 242-441 0-701-298-259-298-259-808v-1978h-578v3500h578v-544q197 322 472 475 275 153 653 153 382 0 649-194 267-193 395-562z" stroke-linejoin="round" transform="scale(.015625)"/><path id="H" d="m1984 4856q-418-718-622-1422-203-703-203-1425 0-721 205-1429 205-708 620-1424h-500q-468 735-701 1444-233 709-233 1409 0 697 231 1403 232 707 703 1444z" stroke-linejoin="round" transform="scale(.015625)"/><path id="I" d="m525 4666h3000v-269l-1694-4397h-659l1594 4134h-2241z" stroke-linejoin="round" transform="scale(.015625)"/><path id="J" d="m628 4666h941l1190-3175 1197 3175h941v-4666h-616v4097l-1203-3200h-634l-1203 3200v-4097h-613z" stroke-linejoin="round" transform="scale(.015625)"/><path id="K" d="m513 4856h500q468-737 701-1444 233-706 233-1403 0-700-233-1409-233-709-701-1444h-500q415 716 620 1424 205 708 205 1429 0 722-205 1425-205 704-620 1422z" stroke-linejoin="round" transform="scale(.015625)"/><path id="L" d="m603 3500h575v-3563q0-668-255-968-254-300-820-300h-219v487h154q328 0 446 152 119 151 119 629zm0 1363h575v-729h-575z" stroke-linejoin="round" transform="scale(.015625)"/><path id="M" d="m2597 2516q453-97 707-404 255-306 255-756 0-690-475-1069-475-378-1350-378-293 0-604 58-311 58-642 174v609q262-153 574-231 313-78 654-78 593 0 904 234 311 234 311 681 0 413-289 645-289 233-804 233h-544v519h569q465 0 712 186 247 186 247 536 0 359-255 551-254 193-729 193-260 0-557-57-297-56-653-174v562q360 100 674 150 314 50 592 50 719 0 1137-327 419-326 419-882 0-388-222-655-222-267-631-370z" stroke-linejoin="round" transform="scale(.015625)"/><path id="N" d="m269 3500h575l719-2731 715 2731h678l719-2731 716 2731h575l-916-3500h-678l-753 2869-756-2869h-679z" stroke-linejoin="round" transform="scale(.015625)"/><path id="O" d="m1259 2228v-1709h1013q509 0 754 211 246 211 246 645 0 438-246 645-245 208-754 208zm0 1919v-1406h935q462 0 688 173 227 174 227 530 0 353-227 528-226 175-688 175zm-631 519h1613q722 0 1112-300 391-300 391-853 0-429-200-682-200-253-588-315 466-100 724-418 258-317 258-792 0-625-425-966-425-340-1210-340h-1675z" stroke-linejoin="round" transform="scale(.015625)"/></defs><g stroke-linejoin="round"><path d="m0 360h504v-360h-504z" fill="#fff"/><g><path d="m47.72 318.04h437.56v-291.16h-437.56z" fill="#fff" stroke-linejoin="round"/><g stroke-linejoin="round"><g><path d="m47.72 318.04v-291.16" style="fill:none;stroke:#b0b0b0;stroke-opacity:.25;stroke-width:.8;stroke-linecap:square;clip-path:url(#a)"/><use stroke="#000" stroke-width=".8" x="47.72" xlink:href="#b" y="318.04"/><g transform="matrix(.1 0 0 -.1 39.768438 332.638438)"><use xlink:href="#c"/><use transform="translate(63.623047)" xlink:href="#d"/><use transform="translate(95.410156)" xlink:href="#c"/></g></g><g><path d="m135.232 318.04v-291.16" style="fill:none;stroke:#b0b0b0;stroke-opacity:.25;stroke-width:.8;stroke-linecap:square;clip-path:url(#a)"/><use stroke="#000" stroke-width=".8" x="135.232" xlink:href="#b" y="318.04"/><g transform="matrix(.1 0 0 -.1 127.280438 332.638438)"><use xlink:href="#c"/><use transform="translate(63.623047)" xlink:href="#d"/><use transform="translate(95.410156)" xlink:href="#e"/></g></g><g><path d="m222.744 318.04v-291.16" style="fill:none;stroke:#b0b0b0;stroke-opacity:.25;stroke-width:.8;stroke-linecap:square;clip-path:url(#a)"/><use stroke="#000" stroke-width=".8" x="222.744" xlink:href="#b" y="318.04"/><g transform="matrix(.1 0 0 -.1 214.792438 332.638438)"><use xlink:href="#c"/><use transform="translate(63.623047)" xlink:href="#d"/><use transform="translate(95.410156)" xlink:href="#f"/></g></g><g><path d="m310.256 318.04v-291.16" style="fill:none;stroke:#b0b0b0;stroke-opacity:.25;stroke-width:.8;stroke-linecap:square;clip-path:url(#a)"/><use stroke="#000" stroke-width=".8" x="310.256" xlink:href="#b" y="318.04"/><g transform="matrix(.1 0 0 -.1 302.304438 332.638438)"><use xlink:href="#c"/><use transform="translate(63.623047)" xlink:href="#d"/><use transform="translate(95.410156)" xlink:href="#g"/></g></g><g><path d="m397.768 318.04v-291.16" style="fill:none;stroke:#b0b0b0;stroke-opacity:.25;stroke-width:.8;stroke-linecap:square;clip-path:url(#a)"/><use stroke="#000" stroke-width=".8" x="397.768" xlink:href="#b" y="318.04"/><g transform="matrix(.1 0 0 -.1 389.816438 332.638438)"><use xlink:href="#c"/><use transform="translate(63.623047)" xlink:href="#d"/><use transform="translate(95.410156)" xlink:href="#h"/></g></g><g><path d="m485.28 318.04v-291.16" style="fill:none;stroke:#b0b0b0;stroke-opacity:.25;stroke-width:.8;stroke-linecap:square;clip-path:url(#a)"/><use stroke="#000" stroke-width=".8" x="485.28" xlink:href="#b" y="318.04"/><g transform="matrix(.1 0 0 -.1 477.328437 332.638438)"><use xlink:href="#i"/><use transform="translate(63.623047)" xlink:href="#d"/><use transform="translate(95.410156)" xlink:href="#c"/></g></g><g transform="matrix(.1 0 0 -.1 220.079688 346.316563)"><path d="m1259 4147v-3628h763q966 0 1414 437 448 438 448 1382 0 937-448 1373-448 436-1414 436zm-631 519h1297q1356 0 1990-564 635-564 635-1764 0-1207-638-1773-637-565-1987-565h-1297z" transform="scale(.015625)"/><use transform="translate(77.001953)" xlink:href="#j"/><use transform="translate(138.525391)" xlink:href="#k"/><use transform="translate(193.505859)" xlink:href="#l"/><use transform="translate(221.289062)" xlink:href="#m"/><use transform="translate(273.388672)" xlink:href="#l"/><use transform="translate(301.171875)" xlink:href="#n"/><use transform="translate(362.353516)" xlink:href="#o"/><use transform="translate(457.519531)" xlink:href="#p"/><use transform="translate(496.728516)" xlink:href="#q"/><use transform="translate(560.107422)" xlink:href="#r"/><use transform="translate(598.970703)" xlink:href="#j"/><use transform="translate(660.494141)" xlink:href="#m"/><use transform="translate(712.59375)" xlink:href="#q"/><use transform="translate(775.972656)" xlink:href="#n"/><use transform="translate(837.154297)" xlink:href="#s"/><use transform="translate(864.9375)" xlink:href="#t"/></g></g><g stroke-linejoin="round"><g><path d="m47.72 318.04h437.56" style="fill:none;stroke:#b0b0b0;stroke-opacity:.25;stroke-width:.8;stroke-linecap:square;clip-path:url(#a)"/><use stroke="#000" stroke-width=".8" x="47.72" xlink:href="#u" y="318.04"/><g transform="matrix(.1 0 0 -.1 24.816875 321.839219)"><use xlink:href="#c"/><use transform="translate(63.623047)" xlink:href="#d"/><use transform="translate(95.410156)" xlink:href="#c"/></g></g><g><path d="m47.72 259.808h437.56" style="fill:none;stroke:#b0b0b0;stroke-opacity:.25;stroke-width:.8;stroke-linecap:square;clip-path:url(#a)"/><use stroke="#000" stroke-width=".8" x="47.72" xlink:href="#u" y="259.808"/><g transform="matrix(.1 0 0 -.1 24.816875 263.607219)"><use xlink:href="#c"/><use transform="translate(63.623047)" xlink:href="#d"/><use transform="translate(95.410156)" xlink:href="#e"/></g></g><g><path d="m47.72 201.576h437.56" style="fill:none;stroke:#b0b0b0;stroke-opacity:.25;stroke-width:.8;stroke-linecap:square;clip-path:url(#a)"/><use stroke="#000" stroke-width=".8" x="47.72" xlink:href="#u" y="201.576"/><g transform="matrix(.1 0 0 -.1 24.816875 205.375219)"><use xlink:href="#c"/><use transform="translate(63.623047)" xlink:href="#d"/><use transform="translate(95.410156)" xlink:href="#f"/></g></g><g><path d="m47.72 143.344h437.56" style="fill:none;stroke:#b0b0b0;stroke-opacity:.25;stroke-width:.8;stroke-linecap:square;clip-path:url(#a)"/><use stroke="#000" stroke-width=".8" x="47.72" xlink:href="#u" y="143.344"/><g transform="matrix(.1 0 0 -.1 24.816875 147.143219)"><use xlink:href="#c"/><use transform="translate(63.623047)" xlink:href="#d"/><use transform="translate(95.410156)" xlink:href="#g"/></g></g><g><path d="m47.72 85.112h437.56" style="fill:none;stroke:#b0b0b0;stroke-opacity:.25;stroke-width:.8;stroke-linecap:square;clip-path:url(#a)"/><use stroke="#000" stroke-width=".8" x="47.72" xlink:href="#u" y="85.112"/><g transform="matrix(.1 0 0 -.1 24.816875 88.911219)"><use xlink:href="#c"/><use transform="translate(63.623047)" xlink:href="#d"/><use transform="translate(95.410156)" xlink:href="#h"/></g></g><g><path d="m47.72 26.88h437.56" style="fill:none;stroke:#b0b0b0;stroke-opacity:.25;stroke-width:.8;stroke-linecap:square;clip-path:url(#a)"/><use stroke="#000" stroke-width=".8" x="47.72" xlink:href="#u" y="26.88"/><g transform="matrix(.1 0 0 -.1 24.816875 30.679219)"><use xlink:href="#i"/><use transform="translate(63.623047)" xlink:href="#d"/><use transform="translate(95.410156)" xlink:href="#c"/></g></g><g transform="matrix(0 -.1 -.1 -0 18.737188 272.1225)"><path d="m628 4666h2681v-532h-2050v-1375h1850v-531h-1850v-2228h-631z" transform="scale(.015625)"/><use transform="translate(48.394531)" xlink:href="#v"/><use transform="translate(109.673828)" xlink:href="#s"/><use transform="translate(137.457031)" xlink:href="#m"/><use transform="translate(189.556641)" xlink:href="#j"/><use transform="translate(251.080078)" xlink:href="#w"/><use transform="translate(287.164062)" xlink:href="#x"/><use transform="translate(350.640625)" xlink:href="#n"/><use transform="translate(411.822266)" xlink:href="#m"/><use transform="translate(463.921875)" xlink:href="#l"/><use transform="translate(491.705078)" xlink:href="#p"/><use transform="translate(530.914062)" xlink:href="#l"/><use transform="translate(558.697266)" xlink:href="#y"/><use transform="translate(617.876953)" xlink:href="#j"/><use transform="translate(711.1875)" xlink:href="#r"/><use transform="translate(752.300781)" xlink:href="#v"/><use transform="translate(813.580078)" xlink:href="#p"/><use transform="translate(852.789062)" xlink:href="#j"/><use transform="translate(946.099609)" xlink:href="#n"/><use transform="translate(1007.28125)" xlink:href="#o"/><use transform="translate(1102.447266)" xlink:href="#r"/><use transform="translate(1141.310547)" xlink:href="#j"/><use transform="translate(1202.833984)" xlink:href="#v"/><use transform="translate(1264.113281)" xlink:href="#s"/><use transform="translate(1323.683594)" xlink:href="#z"/><use transform="translate(1387.160156)" xlink:href="#j"/><use transform="translate(1448.683594)" xlink:href="#o"/><use transform="translate(1512.0625)" xlink:href="#l"/><use transform="translate(1539.845703)" xlink:href="#A"/><use transform="translate(1603.322266)" xlink:href="#o"/><use transform="translate(1698.488281)" xlink:href="#p"/><use transform="translate(1737.697266)" xlink:href="#r"/><use transform="translate(1778.810547)" xlink:href="#v"/><use transform="translate(1840.089844)" xlink:href="#B"/><use transform="translate(1875.294922)" xlink:href="#B"/><use transform="translate(1910.5)" xlink:href="#l"/><use transform="translate(1938.283203)" xlink:href="#k"/></g></g><g fill="none" stroke-linecap="square"><path clip-path="url(#a)" d="m47.72 26.88 2.1878 158.303692 2.1878 52.525264 2.1878 19.245676 4.3756 18.867168 4.3756 7.482812 2.1878 5.38646 2.1878 3.697732 2.1878 1.368452 2.1878.902596 2.1878 1.077292 2.1878.7279 2.1878 5.007952 4.3756 1.514032 8.7512 2.533092 2.1878.378508 2.1878.815248 4.3756.669668 4.3756.87348 2.1878.203812 4.3756.7279 4.3756.378508 2.1878.320276 10.939.640552 2.1878.232928 4.3756.174696 2.1878.232928 2.1878.058232 2.1878.174696 2.1878.029116 2.1878.349392 2.1878.203812 10.939.349392 4.3756.43674 4.3756.058232 2.1878.378508 4.3756.174696 6.5634.087348 15.3146.320276 4.3756.029116 2.1878.116464 8.7512.058232 4.3756.087348 8.7512.058232 2.1878.116464 19.6902.087348 13.1268.087348 43.756.087348 19.6902.174696 13.1268.058232 4.3756.116464 13.1268.087348 17.5024.14558 8.7512.058232 4.3756.116464 10.939.087348 4.3756.116464 6.5634.116464 4.3756.14558 6.5634.087348 15.3146.494972 4.3756.14558 26.2536.989944 13.1268.262044 6.5634.320276h2.1878" stroke="#1f77b4" stroke-linejoin="round" stroke-opacity=".9" stroke-width="1.6"/><path clip-path="url(#a)" d="m47.72 26.88 2.1878 57.999072 2.1878 4.920604 2.1878 2.707788 2.1878 3.05718 2.1878 1.834308 2.1878 1.193756 2.1878.553204 2.1878 4.07624 4.3756 1.543148 2.1878.960828 8.7512 2.096352 2.1878 1.688728 2.1878 1.426684 8.7512 1.193756 2.1878.116464 2.1878 2.271048 2.1878.262044 2.1878.14558 8.7512 1.31022 2.1878.494972 6.5634.378508 2.1878.087348 2.1878.203812 2.1878.087348 2.1878.203812 21.878.931712 2.1878.494972 4.3756.14558 6.5634.262044 2.1878.116464 2.1878.262044 4.3756.087348 15.3146.494972 4.3756.232928 2.1878.029116 2.1878.14558 6.5634.14558 4.3756.203812 6.5634.232928 8.7512.378508 6.5634.174696 8.7512.29116 4.3756.203812 21.878.378508 2.1878 3.290108 8.7512.29116 8.7512.116464 6.5634.378508 6.5634.174696 26.2536.611436 4.3756.14558 6.5634.262044 6.5634.174696 17.5024.524088 17.5024.989944 4.3756.262044 6.5634.232928 8.7512.58232 2.1878.029116 4.3756.378508 8.7512.524088 2.1878.262044 8.7512.494972 4.3756.378508 4.3756.262044 2.1878.378508 2.1878.203812 4.3756.669668 4.3756.611436 8.7512.960828 2.1878.349392 2.1878.524088 2.1878.320276 6.5634 1.659612 4.3756 1.484916 4.3756 2.387512 2.1878 2.009004 2.1878 2.416628 2.1878 5.269996 2.1878 12.054024 2.1878 153.470436" stroke="#ff7f0e" stroke-linejoin="round" stroke-opacity=".9" stroke-width="1.6"/><path clip-path="url(#a)" d="m47.72 26.88 2.1878 73.721712 2.1878 5.67762 2.1878 4.978836 2.1878 1.717844 2.1878.844364 2.1878 1.484916 2.1878 1.01906 4.3756 1.193756 8.7512 1.60138 2.1878.320276 6.5634.465856 2.1878.43674h2.1878l2.1878.203812 2.1878.320276 10.939.931712 4.3756.232928 2.1878.232928 8.7512.378508 2.1878.262044 4.3756.203812 10.939.494972 2.1878.058232 6.5634.524088 13.1268.669668 4.3756.553204 2.1878.116464 4.3756.058232 6.5634.29116 2.1878.029116 2.1878.174696 4.3756.087348 4.3756.262044 6.5634.262044 19.6902.553204 4.3756.203812 6.5634.14558 4.3756.087348 4.3756.058232 17.5024.553204 8.7512.494972 8.7512.174696 4.3756.058232 2.1878.29116 4.3756.174696 6.5634.349392 4.3756.116464 4.3756.029116 4.3756.203812 13.1268.494972 4.3756.058232 2.1878.262044 6.5634.262044 4.3756.174696 4.3756.320276 10.939.203812 10.939.349392h2.1878l8.7512.378508 4.3756.116464 6.5634.203812 2.1878.262044 8.7512.29116 4.3756.14558 10.939.465856 2.1878.349392 4.3756.29116 6.5634.465856 4.3756.087348 4.3756.378508 4.3756.553204 6.5634.611436 2.1878.7279 10.939 1.01906 2.1878.465856 4.3756.786132 6.5634 1.135524 8.7512 2.154584 2.1878.902596 2.1878 1.193756 2.1878 2.503976 2.1878 4.22182 2.1878 166.019432" stroke="#2ca02c" stroke-linejoin="round" stroke-opacity=".9" stroke-width="1.6"/><path clip-path="url(#a)" d="m47.72 26.88 2.1878 109.592624 2.1878 7.279 2.1878 3.668616 2.1878 2.678672 2.1878 1.630496 2.1878 1.950772 2.1878 1.16464 2.1878.7279 2.1878 1.222872 2.1878.669668 2.1878.786132 6.5634 1.572264 8.7512 2.03812 2.1878.553204 2.1878.407624 2.1878.29116 2.1878.553204 2.1878.29116 8.7512 2.03812 4.3756 1.01906 4.3756.902596 8.7512 1.251988 2.1878.465856 6.5634.698784 4.3756.786132 2.1878.262044 2.1878.465856 4.3756.611436 6.5634 1.135524 2.1878.611436 2.1878.203812 2.1878.494972 4.3756.640552 2.1878.262044 13.1268 2.358396 4.3756.931712 2.1878.757016 2.1878.262044 4.3756 1.193756 2.1878 2.649556 2.1878.43674 2.1878.698784 2.1878.407624 4.3756 1.659612 2.1878.931712 4.3756 2.445744 2.1878.87348 2.1878 1.514032 2.1878.931712 2.1878 1.106408 2.1878 1.251988 2.1878 1.543148 2.1878 1.193756 2.1878 1.426684 2.1878 1.106408 2.1878 5.764968 2.1878 1.74696 2.1878 2.03812 2.1878 1.659612 4.3756 4.134472 2.1878 2.824252 2.1878 2.533092 2.1878 2.76602 2.1878 2.969832 2.1878 3.581268 2.1878 3.028064 2.1878 4.192704 2.1878 3.93066 2.1878 4.309168 2.1878 7.977784 4.3756 8.472756 2.1878 4.07624 2.1878 5.357344 2.1878 4.018008 2.1878 4.775024 2.1878 4.018008 2.1878 5.67762 2.1878 5.357344 2.1878 5.007952 2.1878 3.290108 2.1878 2.649556 2.1878 2.32928 2.1878 2.969832 4.3756 3.93066 2.1878.640552 4.3756.320276 2.1878.14558 10.939.058232h164.085" stroke="#d62728" stroke-linejoin="round" stroke-opacity=".9" stroke-width="1.6"/><path clip-path="url(#a)" d="m47.72 26.88 2.1878 10.510876 2.1878 6.347288 2.1878 1.921656 2.1878 1.60138 4.3756 1.397568 2.1878.320276 2.1878.989944 2.1878.262044 2.1878.87348 2.1878.29116 2.1878.087348 2.1878 3.49392 2.1878.320276 2.1878.174696 4.3756.203812 2.1878.262044 21.878 1.135524 2.1878.262044 6.5634.232928 2.1878.58232h2.1878l4.3756.320276 6.5634.087348 28.4414.669668 10.939.203812 4.3756.087348 8.7512.029116 4.3756.14558 8.7512.174696 6.5634.087348 30.6292.494972 6.5634.116464 4.3756.058232 6.5634.087348 6.5634.058232 6.5634.174696h2.1878l4.3756.14558 30.6292.757016 4.3756.058232 26.2536.611436h2.1878l2.1878.14558 10.939.087348 2.1878.232928 4.3756.174696 6.5634.174696 2.1878.320276 6.5634.116464 2.1878.29116 4.3756.058232 2.1878 3.523036 4.3756.174696h2.1878l2.1878.14558 10.939.232928 10.939.378508 2.1878.029116 6.5634.43674 6.5634.174696 2.1878.262044 6.5634.524088 2.1878.174696 4.3756.14558 6.5634.465856 4.3756.203812 2.1878.262044 2.1878.58232 4.3756.349392 2.1878.378508 2.1878.174696 2.1878.43674 2.1878.262044 2.1878.989944 2.1878.640552 4.3756 1.979888 2.1878 1.688728 2.1878 4.978836 2.1878 234.325568" stroke="#9467bd" stroke-linejoin="round" stroke-opacity=".9" stroke-width="1.6"/><path clip-path="url(#a)" d="m47.72 26.88 2.1878 219.156132 2.1878 26.961416 2.1878 8.239828 2.1878 3.610384 2.1878 3.173644 2.1878 2.47486 2.1878 1.368452 6.5634 2.853368 2.1878.7279 6.5634 2.591324 4.3756 1.135524 2.1878.58232 2.1878.29116 4.3756 1.484916 2.1878.349392 2.1878.640552 4.3756.815248 2.1878.494972 6.5634.815248 2.1878.87348 6.5634.960828 2.1878.43674 2.1878.320276 2.1878.14558 2.1878.407624 6.5634.931712 2.1878.43674 4.3756.320276 8.7512 1.16464 2.1878.14558 8.7512 1.193756 4.3756.29116 2.1878.320276 6.5634.43674 6.5634.378508 2.1878.087348 2.1878.29116 6.5634.262044h2.1878l10.939.494972 30.6292.407624 2.1878.320276 6.5634.029116 8.7512.29116 6.5634.058232 4.3756.058232 8.7512.087348 13.1268.087348 28.4414.087348 4.3756.058232 6.5634.029116 4.3756.116464 24.0658.087348 10.939.058232 6.5634.029116 4.3756.087348 8.7512.14558 8.7512.029116 13.1268.087348 10.939.058232 28.4414.058232 4.3756.116464 28.4414.465856 6.5634.232928 2.1878.407624" stroke="#8c564b" stroke-linejoin="round" stroke-opacity=".9" stroke-width="1.6"/><path clip-path="url(#a)" d="m47.72 26.88 2.1878 249.495004 2.1878 8.996844 2.1878 4.454748 2.1878 2.1837 2.1878 1.193756 2.1878 1.048176 2.1878.611436 2.1878.757016 4.3756.902596 4.3756.757016 6.5634.87348 2.1878.058232 8.7512.786132 4.3756.43674 4.3756.29116 2.1878.262044 4.3756.058232 4.3756.14558 6.5634.262044 2.1878.349392 2.1878.14558 2.1878.029116 4.3756.203812 2.1878.029116 4.3756.203812 13.1268.203812 4.3756.203812 8.7512.174696 10.939.349392 24.0658.378508 2.1878.116464h2.1878l4.3756.14558 10.939.058232 8.7512.262044 8.7512.087348 4.3756.262044 19.6902.174696 26.2536.058232 6.5634.087348h4.3756l2.1878.116464 13.1268.087348 8.7512.029116 17.5024.087348 4.3756.058232 4.3756.029116 2.1878.14558 28.4414.29116 21.878.058232 13.1268.262044 13.1268.087348 4.3756.087348 13.1268.087348 13.1268.087348 8.7512.174696 4.3756.29116 4.3756.320276 2.1878.174696 2.1878.320276 2.1878.611436 2.1878 1.01906 2.1878 3.028064 2.1878 6.609332" stroke="#e377c2" stroke-linejoin="round" stroke-opacity=".9" stroke-width="1.6"/><path clip-path="url(#a)" d="m47.72 26.88 2.1878 242.157772 2.1878 6.201708 2.1878 2.62044 2.1878 2.03812 2.1878 1.426684 2.1878 1.193756 6.5634 1.921656 4.3756 1.106408 4.3756.378508 2.1878.407624 2.1878.232928 2.1878.378508 2.1878.203812 2.1878.087348 2.1878.29116 4.3756.29116 4.3756.262044 4.3756.203812 6.5634.43674 4.3756.087348 2.1878.203812 6.5634.262044 4.3756.203812 43.756 1.077292 50.3194.7279 4.3756.14558 15.3146.232928 8.7512.378508 6.5634.087348 4.3756.058232 6.5634.174696 13.1268.087348 6.5634.116464 4.3756.29116 24.0658.378508 4.3756.116464 8.7512.203812 6.5634.087348 15.3146.262044 6.5634.203812 10.939.232928 21.878.524088 15.3146.058232 19.6902.524088 2.1878.174696 13.1268.203812 2.1878.116464 2.1878.349392 6.5634.174696 2.1878.058232 13.1268 1.048176 8.7512 1.193756 2.1878.465856 2.1878 1.281104 2.1878 1.572264 2.1878 2.998948 2.1878 9.288004" stroke="#7f7f7f" stroke-linejoin="round" stroke-opacity=".9" stroke-width="1.6"/><path clip-path="url(#a)" d="m47.72 26.88 2.1878 204.918408 2.1878 6.754912 2.1878 1.135524 2.1878 2.1837 2.1878.815248 4.3756 1.368452 2.1878.349392 4.3756.494972 2.1878.553204 4.3756.407624 2.1878.378508 4.3756.407624 2.1878.58232 6.5634.58232 2.1878 1.368452 4.3756.43674 6.5634.232928 2.1878.174696 6.5634.232928 4.3756.262044 4.3756.14558 24.0658.87348 6.5634.14558 4.3756.174696 4.3756.029116 4.3756.203812 6.5634.029116 2.1878.494972 4.3756.058232 6.5634.174696 4.3756.087348 4.3756.203812 4.3756.14558 2.1878.14558 6.5634.058232 6.5634.174696 17.5024.29116 4.3756.116464 78.7608 1.106408 6.5634.262044 4.3756.058232 15.3146.669668 4.3756.203812 4.3756.116464 4.3756.087348 8.7512.378508 17.5024.407624 6.5634.087348 4.3756.14558 6.5634.320276 6.5634.349392 4.3756.203812 2.1878 2.32928 2.1878.058232 4.3756.262044 4.3756.087348 13.1268.43674 21.878 1.222872 2.1878.320276 4.3756.203812 4.3756.640552 2.1878.524088 2.1878.29116 2.1878.640552 2.1878 3.988892 2.1878.989944 2.1878 1.688728 2.1878 2.32928 2.1878 43.557536" stroke="#bcbd22" stroke-linejoin="round" stroke-opacity=".9" stroke-width="1.6"/><path clip-path="url(#a)" d="m47.72 26.88 2.1878 183.838424 2.1878 7.016956 2.1878 3.435688 4.3756 3.697732 2.1878 1.659612 4.3756 1.863424 2.1878.931712 2.1878 1.135524 8.7512 2.824252 4.3756.902596 6.5634 1.368452 2.1878.262044 2.1878.465856 2.1878.58232 2.1878.232928 2.1878.465856 4.3756.43674 2.1878.29116 4.3756.174696 8.7512.669668 2.1878.43674 6.5634.524088 4.3756.262044 17.5024 1.368452 2.1878.58232 2.1878.203812h2.1878l2.1878.262044 6.5634.524088 4.3756.262044 6.5634.407624 13.1268.960828 10.939.494972 2.1878.14558 2.1878.262044 4.3756.14558 2.1878.174696 2.1878.058232 2.1878.174696 10.939.378508 6.5634.669668 4.3756.14558 4.3756.087348 4.3756.174696 2.1878.320276 4.3756.14558 2.1878.232928 4.3756.29116 4.3756.320276 2.1878.174696 2.1878.029116 2.1878.29116 4.3756.378508 2.1878.174696 4.3756.116464 2.1878.262044 2.1878.14558 2.1878.029116 4.3756.262044 6.5634.407624 2.1878.378508 4.3756.262044 4.3756.320276 6.5634.262044 17.5024 1.193756 2.1878.262044 4.3756.087348 2.1878.29116 4.3756.087348 4.3756.14558 2.1878.232928 8.7512.320276 10.939.669668 4.3756.262044 13.1268.931712 2.1878.203812 2.1878.087348 2.1878.494972 4.3756.43674 4.3756.494972 4.3756.203812 10.939.960828 4.3756.29116 4.3756.757016 4.3756.349392 2.1878.116464 6.5634.902596 2.1878.203812 2.1878.524088 2.1878.14558 2.1878.262044 2.1878.465856 2.1878.320276 4.3756.87348 2.1878.262044 2.1878.407624 2.1878.7279 2.1878.989944 2.1878.786132 2.1878.989944 2.1878.815248 4.3756 3.260992 2.1878 2.591324 2.1878 18.1975" stroke="#17becf" stroke-linejoin="round" stroke-opacity=".9" stroke-width="1.6"/><path clip-path="url(#a)" d="m47.72 26.88h17.5024l2.1878 1.630496 2.1878 43.004332 2.1878 100.88694 2.1878 31.095888 2.1878 12.316068 2.1878 6.25994 2.1878 4.22182 4.3756 5.502924 2.1878 1.630496 6.5634 3.05718 4.3756 1.688728 6.5634 1.572264 6.5634 1.193756 4.3756.58232 4.3756.262044 4.3756.378508 19.6902 1.484916 2.1878.116464h2.1878l4.3756.407624 4.3756.203812 2.1878.29116 4.3756.116464 6.5634.29116 4.3756.320276 15.3146.553204 6.5634.087348 10.939.349392 10.939.232928 13.1268.43674 2.1878.058232 2.1878.174696 17.5024.320276 10.939.349392 8.7512.43674 8.7512.058232 4.3756.174696 6.5634.058232 4.3756.232928 39.3804 1.135524 4.3756.262044 2.1878.174696 17.5024.524088 4.3756.262044 6.5634.262044 2.1878.14558 4.3756.058232 26.2536.960828h2.1878l13.1268.960828 10.939.931712 2.1878.262044 4.3756.786132 4.3756.786132 4.3756 1.251988 2.1878 1.01906 2.1878.87348 2.1878 1.572264 2.1878 2.736904 2.1878 4.687676 2.1878 7.657508 2.1878 10.452644 2.1878 19.391256 2.1878 11.79198 2.1878.14558 8.7512.029116h8.7512" stroke="#1f77b4" stroke-linejoin="round" stroke-opacity=".9" stroke-width="1.6"/><path clip-path="url(#a)" d="m47.72 26.88 6.5634.087348 8.7512.524088 2.1878.815248 2.1878 16.508772 2.1878 53.602556 2.1878 38.549584 2.1878 23.380148 2.1878 16.683468 2.1878 9.666512 2.1878 6.11436 2.1878 3.814196 2.1878 3.05718 4.3756 5.153532 2.1878 1.60138 4.3756 2.853368 2.1878.989944 2.1878 1.60138 2.1878.494972 6.5634 2.241932 4.3756 1.077292 2.1878.669668 2.1878 1.135524 2.1878.58232 8.7512 1.484916 2.1878.43674 2.1878.232928 2.1878.465856 10.939 1.688728 2.1878.349392 2.1878.232928 2.1878.029116 4.3756.465856 2.1878.378508 4.3756.14558 2.1878.058232 8.7512 1.01906 6.5634.43674 2.1878.232928 4.3756.262044 2.1878.262044 4.3756.378508 4.3756.349392 4.3756.174696 6.5634.553204 4.3756.174696 2.1878.262044 13.1268.844364 2.1878.058232 2.1878 3.319224 2.1878.029116 13.1268.815248 4.3756.232928 4.3756.349392 4.3756.232928 21.878.640552 6.5634.262044 2.1878.087348 2.1878.232928 6.5634.320276 6.5634.611436 4.3756.262044 10.939.757016 2.1878.232928 6.5634.43674 19.6902 1.222872 2.1878.029116 2.1878.378508 4.3756.262044 4.3756.29116 13.1268 1.543148 2.1878.407624 2.1878.14558 2.1878.378508 2.1878.087348 15.3146 2.445744 2.1878.465856 4.3756.611436 2.1878.58232 2.1878.407624 4.3756 1.222872 4.3756.960828 6.5634.989944 2.1878.698784 2.1878.553204 2.1878.349392 2.1878.494972 4.3756 1.222872 4.3756 1.630496 2.1878 1.776076 2.1878 1.193756 2.1878 2.03812 4.3756 3.6395 2.1878 3.959776 2.1878 5.8232 2.1878 7.977784 2.1878 12.112256 2.1878 13.451592 2.1878 9.200656 2.1878.611436 4.3756.87348 2.1878.116464h6.5634" stroke="#ff7f0e" stroke-linejoin="round" stroke-opacity=".9" stroke-width="1.6"/><path d="m47.72 318.04v-291.16" stroke="#000" stroke-linejoin="miter" stroke-width=".8"/><path d="m485.28 318.04v-291.16" stroke="#000" stroke-linejoin="miter" stroke-width=".8"/><path d="m47.72 318.04h437.56" stroke="#000" stroke-linejoin="miter" stroke-width=".8"/><path d="m47.72 26.88h437.56" stroke="#000" stroke-linejoin="miter" stroke-width=".8"/></g><g stroke-linejoin="round" transform="matrix(.12 0 0 -.12 109.586875 20.88)"><path d="m-19 4666h3947v-532h-1656v-4134h-634v4134h-1657z" transform="scale(.015625)"/><use transform="translate(61.083984)" xlink:href="#q"/><use transform="translate(124.462891)" xlink:href="#r"/><use transform="translate(163.326172)" xlink:href="#j"/><use transform="translate(224.849609)" xlink:href="#m"/><use transform="translate(276.949219)" xlink:href="#q"/><use transform="translate(340.328125)" xlink:href="#n"/><use transform="translate(401.509766)" xlink:href="#s"/><use transform="translate(429.292969)" xlink:href="#t"/><use transform="translate(524.556641)" xlink:href="#m"/><use transform="translate(576.65625)" xlink:href="#j"/><use transform="translate(638.179688)" xlink:href="#o"/><use transform="translate(701.558594)" xlink:href="#m"/><use transform="translate(753.658203)" xlink:href="#l"/><use transform="translate(781.441406)" xlink:href="#p"/><use transform="translate(820.650391)" xlink:href="#l"/><use transform="translate(848.433594)" xlink:href="#y"/><use transform="translate(907.613281)" xlink:href="#l"/><use transform="translate(935.396484)" xlink:href="#p"/><use transform="translate(974.605469)" xlink:href="#C"/><path d="m313 1978h5775v-450h-5775z" transform="translate(1065.572266)"/><use transform="translate(1197.359375)" xlink:href="#B"/><use transform="translate(1232.564453)" xlink:href="#s"/><use transform="translate(1260.347656)" xlink:href="#v"/><use transform="translate(1321.626953)" xlink:href="#p"/><use transform="translate(1392.623047)" xlink:href="#D"/><use transform="translate(1508.199219)" xlink:href="#r"/><use transform="translate(1547.0625)" xlink:href="#n"/><use transform="translate(1608.244141)" xlink:href="#z"/><use transform="translate(1671.720703)" xlink:href="#E"/><use transform="translate(1735.099609)" xlink:href="#m"/><use transform="translate(1787.199219)" xlink:href="#p"/><use transform="translate(1826.408203)" xlink:href="#F"/><use transform="translate(1889.982422)" xlink:href="#m"/><use transform="translate(1942.082031)" xlink:href="#p"/><use transform="translate(1981.291016)" xlink:href="#j"/><use transform="translate(2042.814453)" xlink:href="#j"/><use transform="translate(2104.337891)" xlink:href="#x"/><use transform="translate(2199.601562)" xlink:href="#D"/><use transform="translate(2315.177734)" xlink:href="#z"/><use transform="translate(2378.654297)" xlink:href="#r"/><use transform="translate(2419.767578)" xlink:href="#l"/><use transform="translate(2447.550781)" xlink:href="#p"/><use transform="translate(2486.759766)" xlink:href="#p"/><use transform="translate(2525.96875)" xlink:href="#s"/><use transform="translate(2553.751953)" xlink:href="#j"/></g><g stroke-linejoin="round"><path d="m311.486406 155.77625h168.893594q1.4 0 1.4-1.4v-122.59625q0-1.4-1.4-1.4h-168.893594q-1.4 0-1.4 1.4v122.59625q0 1.4 1.4 1.4z" fill="#fff" opacity=".8" stroke="#ccc" stroke-linejoin="miter"/><g stroke-linejoin="round"><path d="m312.886406 36.048906h7 7" fill="none" stroke="#1f77b4" stroke-linecap="square" stroke-opacity=".9" stroke-width="1.6"/><g transform="matrix(.07 0 0 -.07 332.486406 38.498906)"><use xlink:href="#z"/><use transform="translate(63.476562)" xlink:href="#v"/><use transform="translate(124.755859)" xlink:href="#m"/><use transform="translate(176.855469)" xlink:href="#p"/><use transform="translate(216.064453)" xlink:href="#l"/><use transform="translate(243.847656)" xlink:href="#n"/><use transform="translate(305.029297)" xlink:href="#o"/><use transform="translate(368.408203)" xlink:href="#w"/><use transform="translate(404.492188)" xlink:href="#x"/><use transform="translate(467.96875)" xlink:href="#r"/><use transform="translate(506.832031)" xlink:href="#n"/><use transform="translate(568.013672)" xlink:href="#G"/><use transform="translate(665.425781)" xlink:href="#x"/><use transform="translate(728.902344)" xlink:href="#p"/><use transform="translate(768.111328)" xlink:href="#w"/><use transform="translate(804.195312)" xlink:href="#x"/><use transform="translate(867.671875)" xlink:href="#r"/><use transform="translate(906.535156)" xlink:href="#n"/><use transform="translate(967.716797)" xlink:href="#p"/><use transform="translate(1006.925781)" xlink:href="#j"/><use transform="translate(1068.449219)" xlink:href="#k"/><use transform="translate(1123.429688)" xlink:href="#p"/><use transform="translate(1162.638672)" xlink:href="#l"/><use transform="translate(1190.421875)" xlink:href="#n"/><use transform="translate(1251.603516)" xlink:href="#o"/><use transform="translate(1346.769531)" xlink:href="#H"/><use transform="translate(1385.783203)" xlink:href="#I"/><use transform="translate(1449.40625)" xlink:href="#c"/><use transform="translate(1513.029297)" xlink:href="#J"/><use transform="translate(1599.308594)" xlink:href="#K"/></g><path d="m312.886406 46.323594h7 7" fill="none" stroke="#ff7f0e" stroke-linecap="square" stroke-opacity=".9" stroke-width="1.6"/><g transform="matrix(.07 0 0 -.07 332.486406 48.773594)"><use xlink:href="#t"/><use transform="translate(63.476562)" xlink:href="#j"/><use transform="translate(125)" xlink:href="#j"/><use transform="translate(186.523438)" xlink:href="#x"/><use transform="translate(250)" xlink:href="#m"/><use transform="translate(302.099609)" xlink:href="#j"/><use transform="translate(363.623047)" xlink:href="#p"/><use transform="translate(434.619141)" xlink:href="#l"/><use transform="translate(462.402344)" xlink:href="#o"/><use transform="translate(525.78125)" xlink:href="#L"/><use transform="translate(553.564453)" xlink:href="#j"/><use transform="translate(615.087891)" xlink:href="#k"/><use transform="translate(670.068359)" xlink:href="#p"/><use transform="translate(709.277344)" xlink:href="#l"/><use transform="translate(737.060547)" xlink:href="#n"/><use transform="translate(798.242188)" xlink:href="#o"/><use transform="translate(893.408203)" xlink:href="#H"/><use transform="translate(932.421875)" xlink:href="#i"/><use transform="translate(996.044922)" xlink:href="#h"/><use transform="translate(1059.667969)" xlink:href="#f"/><use transform="translate(1123.291016)" xlink:href="#J"/><use transform="translate(1209.570312)" xlink:href="#K"/></g><path d="m312.886406 56.598281h7 7" fill="none" stroke="#2ca02c" stroke-linecap="square" stroke-opacity=".9" stroke-width="1.6"/><g transform="matrix(.07 0 0 -.07 332.486406 59.048281)"><use xlink:href="#B"/><use transform="translate(35.205078)" xlink:href="#G"/><use transform="translate(132.617188)" xlink:href="#n"/><use transform="translate(193.798828)" xlink:href="#x"/><use transform="translate(257.275391)" xlink:href="#m"/><use transform="translate(341.162109)" xlink:href="#t"/><use transform="translate(404.638672)" xlink:href="#l"/><use transform="translate(432.421875)" xlink:href="#m"/><use transform="translate(484.521484)" xlink:href="#p"/><use transform="translate(523.730469)" xlink:href="#l"/><use transform="translate(551.513672)" xlink:href="#s"/><use transform="translate(579.296875)" xlink:href="#z"/><use transform="translate(642.773438)" xlink:href="#j"/><use transform="translate(704.296875)" xlink:href="#r"/><use transform="translate(745.410156)" xlink:href="#p"/><use transform="translate(816.40625)" xlink:href="#H"/><use transform="translate(855.419922)" xlink:href="#g"/><use transform="translate(919.042969)" xlink:href="#I"/><use transform="translate(982.666016)" xlink:href="#J"/><use transform="translate(1068.945312)" xlink:href="#K"/></g><path d="m312.886406 66.872969h7 7" fill="none" stroke="#d62728" stroke-linecap="square" stroke-opacity=".9" stroke-width="1.6"/><g transform="matrix(.07 0 0 -.07 332.486406 69.322969)"><use xlink:href="#q"/><use transform="translate(63.378906)" xlink:href="#s"/><use transform="translate(91.162109)" xlink:href="#C"/><use transform="translate(150.341797)" xlink:href="#o"/><use transform="translate(245.507812)" xlink:href="#L"/><use transform="translate(273.291016)" xlink:href="#E"/><use transform="translate(336.669922)" xlink:href="#t"/><use transform="translate(400.146484)" xlink:href="#A"/><use transform="translate(463.623047)" xlink:href="#j"/><use transform="translate(556.933594)" xlink:href="#H"/><use transform="translate(595.947266)" xlink:href="#I"/><use transform="translate(659.570312)" xlink:href="#c"/><use transform="translate(723.193359)" xlink:href="#J"/><use transform="translate(809.472656)" xlink:href="#K"/></g><path d="m312.886406 77.147656h7 7" fill="none" stroke="#9467bd" stroke-linecap="square" stroke-opacity=".9" stroke-width="1.6"/><g transform="matrix(.07 0 0 -.07 332.486406 79.597656)"><use xlink:href="#G"/><use transform="translate(97.412109)" xlink:href="#j"/><use transform="translate(158.935547)" xlink:href="#p"/><use transform="translate(198.144531)" xlink:href="#v"/><use transform="translate(291.210938)" xlink:href="#x"/><use transform="translate(354.6875)" xlink:href="#r"/><use transform="translate(393.550781)" xlink:href="#n"/><use transform="translate(454.732422)" xlink:href="#G"/><use transform="translate(552.144531)" xlink:href="#x"/><use transform="translate(615.621094)" xlink:href="#p"/><use transform="translate(654.830078)" xlink:href="#w"/><use transform="translate(690.914062)" xlink:href="#A"/><use transform="translate(754.390625)" xlink:href="#E"/><use transform="translate(817.769531)" xlink:href="#v"/><use transform="translate(879.048828)" xlink:href="#r"/><use transform="translate(918.412109)" xlink:href="#t"/><use transform="translate(1013.675781)" xlink:href="#y"/><use transform="translate(1072.855469)" xlink:href="#i"/><use transform="translate(1168.265625)" xlink:href="#H"/><use transform="translate(1207.279297)" xlink:href="#h"/><use transform="translate(1270.902344)" xlink:href="#g"/><use transform="translate(1334.525391)" xlink:href="#J"/><use transform="translate(1420.804688)" xlink:href="#F"/><use transform="translate(1484.378906)" xlink:href="#t"/><use transform="translate(1547.855469)" xlink:href="#j"/><use transform="translate(1609.378906)" xlink:href="#x"/><use transform="translate(1672.855469)" xlink:href="#r"/><use transform="translate(1711.71875)" xlink:href="#j"/><use transform="translate(1773.242188)" xlink:href="#k"/><use transform="translate(1828.222656)" xlink:href="#v"/><use transform="translate(1889.501953)" xlink:href="#p"/><use transform="translate(1928.710938)" xlink:href="#j"/><use transform="translate(1990.234375)" xlink:href="#t"/><use transform="translate(2053.710938)" xlink:href="#K"/></g><path d="m312.886406 87.422344h7 7" fill="none" stroke="#8c564b" stroke-linecap="square" stroke-opacity=".9" stroke-width="1.6"/><g transform="matrix(.07 0 0 -.07 332.486406 89.872344)"><use xlink:href="#G"/><use transform="translate(97.412109)" xlink:href="#j"/><use transform="translate(158.935547)" xlink:href="#p"/><use transform="translate(198.144531)" xlink:href="#v"/><use transform="translate(291.210938)" xlink:href="#x"/><use transform="translate(354.6875)" xlink:href="#r"/><use transform="translate(393.550781)" xlink:href="#n"/><use transform="translate(454.732422)" xlink:href="#G"/><use transform="translate(552.144531)" xlink:href="#x"/><use transform="translate(615.621094)" xlink:href="#p"/><use transform="translate(654.830078)" xlink:href="#w"/><use transform="translate(690.914062)" xlink:href="#A"/><use transform="translate(754.390625)" xlink:href="#E"/><use transform="translate(817.769531)" xlink:href="#v"/><use transform="translate(879.048828)" xlink:href="#r"/><use transform="translate(918.412109)" xlink:href="#t"/><use transform="translate(1013.675781)" xlink:href="#y"/><use transform="translate(1072.855469)" xlink:href="#e"/><use transform="translate(1168.265625)" xlink:href="#H"/><use transform="translate(1207.279297)" xlink:href="#e"/><use transform="translate(1270.902344)" xlink:href="#e"/><use transform="translate(1334.525391)" xlink:href="#J"/><use transform="translate(1420.804688)" xlink:href="#K"/></g><path d="m312.886406 97.697031h7 7" fill="none" stroke="#e377c2" stroke-linecap="square" stroke-opacity=".9" stroke-width="1.6"/><g transform="matrix(.07 0 0 -.07 332.486406 100.147031)"><use xlink:href="#G"/><use transform="translate(97.412109)" xlink:href="#j"/><use transform="translate(158.935547)" xlink:href="#p"/><use transform="translate(198.144531)" xlink:href="#v"/><use transform="translate(291.210938)" xlink:href="#x"/><use transform="translate(354.6875)" xlink:href="#r"/><use transform="translate(393.550781)" xlink:href="#n"/><use transform="translate(454.732422)" xlink:href="#G"/><use transform="translate(552.144531)" xlink:href="#x"/><use transform="translate(615.621094)" xlink:href="#p"/><use transform="translate(654.830078)" xlink:href="#w"/><use transform="translate(690.914062)" xlink:href="#A"/><use transform="translate(754.390625)" xlink:href="#E"/><use transform="translate(817.769531)" xlink:href="#v"/><use transform="translate(879.048828)" xlink:href="#r"/><use transform="translate(918.412109)" xlink:href="#t"/><use transform="translate(1013.675781)" xlink:href="#y"/><use transform="translate(1072.855469)" xlink:href="#e"/><use transform="translate(1168.265625)" xlink:href="#H"/><use transform="translate(1207.279297)" xlink:href="#h"/><use transform="translate(1270.902344)" xlink:href="#g"/><use transform="translate(1334.525391)" xlink:href="#J"/><use transform="translate(1420.804688)" xlink:href="#K"/></g><path d="m312.886406 107.971719h7 7" fill="none" stroke="#7f7f7f" stroke-linecap="square" stroke-opacity=".9" stroke-width="1.6"/><g transform="matrix(.07 0 0 -.07 332.486406 110.421719)"><use xlink:href="#x"/><use transform="translate(63.476562)" xlink:href="#r"/><use transform="translate(102.339844)" xlink:href="#n"/><use transform="translate(163.521484)" xlink:href="#p"/><use transform="translate(202.730469)" xlink:href="#j"/><use transform="translate(264.253906)" xlink:href="#k"/><use transform="translate(319.234375)" xlink:href="#p"/><use transform="translate(358.443359)" xlink:href="#v"/><use transform="translate(419.722656)" xlink:href="#l"/><use transform="translate(479.292969)" xlink:href="#y"/><use transform="translate(538.472656)" xlink:href="#e"/><use transform="translate(633.882812)" xlink:href="#H"/><use transform="translate(672.896484)" xlink:href="#i"/><use transform="translate(736.519531)" xlink:href="#h"/><use transform="translate(800.142578)" xlink:href="#f"/><use transform="translate(863.765625)" xlink:href="#J"/><use transform="translate(950.044922)" xlink:href="#K"/></g><path d="m312.886406 118.246406h7 7" fill="none" stroke="#bcbd22" stroke-linecap="square" stroke-opacity=".9" stroke-width="1.6"/><g transform="matrix(.07 0 0 -.07 332.486406 120.696406)"><use xlink:href="#x"/><use transform="translate(63.476562)" xlink:href="#r"/><use transform="translate(102.339844)" xlink:href="#n"/><use transform="translate(163.521484)" xlink:href="#y"/><use transform="translate(222.701172)" xlink:href="#j"/><use transform="translate(284.224609)" xlink:href="#o"/><use transform="translate(347.603516)" xlink:href="#p"/><use transform="translate(386.8125)" xlink:href="#r"/><use transform="translate(427.925781)" xlink:href="#v"/><use transform="translate(520.992188)" xlink:href="#G"/><use transform="translate(618.404297)" xlink:href="#t"/><use transform="translate(681.880859)" xlink:href="#j"/><use transform="translate(743.404297)" xlink:href="#z"/><use transform="translate(806.880859)" xlink:href="#j"/><use transform="translate(868.404297)" xlink:href="#r"/><use transform="translate(909.517578)" xlink:href="#p"/><use transform="translate(948.726562)" xlink:href="#v"/><use transform="translate(1041.792969)" xlink:href="#H"/><use transform="translate(1080.806641)" xlink:href="#e"/><use transform="translate(1144.429688)" xlink:href="#h"/><use transform="translate(1208.052734)" xlink:href="#c"/><use transform="translate(1271.675781)" xlink:href="#J"/><use transform="translate(1357.955078)" xlink:href="#K"/></g><path d="m312.886406 128.521094h7 7" fill="none" stroke="#17becf" stroke-linecap="square" stroke-opacity=".9" stroke-width="1.6"/><g transform="matrix(.07 0 0 -.07 332.486406 130.971094)"><use xlink:href="#m"/><use transform="translate(52.099609)" xlink:href="#j"/><use transform="translate(113.623047)" xlink:href="#o"/><use transform="translate(177.001953)" xlink:href="#p"/><use transform="translate(216.210938)" xlink:href="#l"/><use transform="translate(243.994141)" xlink:href="#o"/><use transform="translate(307.373047)" xlink:href="#j"/><use transform="translate(368.896484)" xlink:href="#s"/><use transform="translate(428.466797)" xlink:href="#H"/><path d="m947 1747q0-634 261-995 261-361 717-361 456 0 718 361 263 361 263 995 0 634-263 995-262 361-718 361-456 0-717-361-261-361-261-995zm1959-1222q-181-312-458-464-276-152-664-152-634 0-1033 506-398 507-398 1332 0 825 398 1331 399 506 1033 506 388 0 664-152 277-151 458-463v531h575v-4831h-575z" transform="translate(467.480469)"/><use transform="translate(530.957031)" xlink:href="#E"/><use transform="translate(594.335938)" xlink:href="#v"/><use transform="translate(655.615234)" xlink:href="#s"/><use transform="translate(683.398438)" xlink:href="#l"/><use transform="translate(711.181641)" xlink:href="#B"/><use transform="translate(746.386719)" xlink:href="#l"/><use transform="translate(774.169922)" xlink:href="#r"/><use transform="translate(813.033203)" xlink:href="#j"/><use transform="translate(874.556641)" xlink:href="#F"/><use transform="translate(938.130859)" xlink:href="#M"/><path d="m703 97v575q238-113 481-172 244-59 479-59 625 0 954 420 330 420 377 1277-181-269-460-413-278-144-615-144-700 0-1108 423-408 424-408 1159 0 718 425 1152 425 435 1131 435 810 0 1236-621 427-620 427-1801 0-1103-524-1761-523-658-1407-658-238 0-482 47-243 47-506 141zm1256 1978q425 0 673 290 249 291 249 798 0 503-249 795-248 292-673 292-425 0-673-292-248-292-248-795 0-507 248-798 248-290 673-290z" transform="translate(1001.753906)"/><path d="m691 4666h2478v-532h-1900v-1143q137 47 274 70 138 23 276 23 781 0 1237-428 457-428 457-1159 0-753-469-1171-469-417-1322-417-294 0-599 50-304 50-629 150v635q281-153 581-228 300-75 634-75 541 0 856 284 316 284 316 772 0 487-316 771-315 285-856 285-253 0-505-56-251-56-513-175z" transform="translate(1065.376953)"/><use transform="translate(1129)" xlink:href="#J"/><use transform="translate(1215.279297)" xlink:href="#K"/></g><path d="m312.886406 138.795781h7 7" fill="none" stroke="#1f77b4" stroke-linecap="square" stroke-opacity=".9" stroke-width="1.6"/><g transform="matrix(.07 0 0 -.07 332.486406 141.245781)"><use xlink:href="#N"/><use transform="translate(81.787109)" xlink:href="#n"/><use transform="translate(142.96875)" xlink:href="#s"/><use transform="translate(170.751953)" xlink:href="#B"/><use transform="translate(200.457031)" xlink:href="#w"/><use transform="translate(236.541016)" xlink:href="#t"/><use transform="translate(300.017578)" xlink:href="#j"/><use transform="translate(361.541016)" xlink:href="#B"/><use transform="translate(396.746094)" xlink:href="#j"/><use transform="translate(458.269531)" xlink:href="#o"/><use transform="translate(521.648438)" xlink:href="#t"/><use transform="translate(585.125)" xlink:href="#j"/><use transform="translate(646.648438)" xlink:href="#r"/><use transform="translate(719.548828)" xlink:href="#H"/><use transform="translate(758.5625)" xlink:href="#c"/><use transform="translate(822.185547)" xlink:href="#d"/><use transform="translate(853.972656)" xlink:href="#M"/><use transform="translate(917.595703)" xlink:href="#O"/><use transform="translate(986.199219)" xlink:href="#K"/></g><path d="m312.886406 149.070469h7 7" fill="none" stroke="#ff7f0e" stroke-linecap="square" stroke-opacity=".9" stroke-width="1.6"/><g transform="matrix(.07 0 0 -.07 332.486406 151.520469)"><use xlink:href="#N"/><use transform="translate(81.787109)" xlink:href="#n"/><use transform="translate(142.96875)" xlink:href="#s"/><use transform="translate(170.751953)" xlink:href="#B"/><use transform="translate(200.457031)" xlink:href="#w"/><use transform="translate(236.541016)" xlink:href="#t"/><use transform="translate(300.017578)" xlink:href="#j"/><use transform="translate(361.541016)" xlink:href="#B"/><use transform="translate(396.746094)" xlink:href="#j"/><use transform="translate(458.269531)" xlink:href="#o"/><use transform="translate(521.648438)" xlink:href="#t"/><use transform="translate(585.125)" xlink:href="#j"/><use transform="translate(646.648438)" xlink:href="#r"/><use transform="translate(681.386719)" xlink:href="#w"/><use transform="translate(717.470703)" xlink:href="#m"/><use transform="translate(769.570312)" xlink:href="#G"/><use transform="translate(866.982422)" xlink:href="#v"/><use transform="translate(928.261719)" xlink:href="#s"/><use transform="translate(956.044922)" xlink:href="#s"/><use transform="translate(1015.615234)" xlink:href="#H"/><use transform="translate(1054.628906)" xlink:href="#c"/><use transform="translate(1118.251953)" xlink:href="#d"/><use transform="translate(1150.039062)" xlink:href="#i"/><use transform="translate(1213.662109)" xlink:href="#O"/><use transform="translate(1282.265625)" xlink:href="#K"/></g></g></g></g></g></svg>