<?xml version="1.0" encoding="utf-8" standalone="no"?>
<!DOCTYPE svg PUBLIC "-//W3C//DTD SVG 1.1//EN"
  "http://www.w3.org/Graphics/SVG/1.1/DTD/svg11.dtd">
<svg xmlns:xlink="http://www.w3.org/1999/xlink" width="648pt" height="396pt" viewBox="0 0 648 396" xmlns="http://www.w3.org/2000/svg" version="1.1">
 <metadata>
  <rdf:RDF xmlns:dc="http://purl.org/dc/elements/1.1/" xmlns:cc="http://creativecommons.org/ns#" xmlns:rdf="http://www.w3.org/1999/02/22-rdf-syntax-ns#">
   <cc:Work>
    <dc:type rdf:resource="http://purl.org/dc/dcmitype/StillImage"/>
    <dc:date>2026-07-03T15:23:53.612853</dc:date>
    <dc:format>image/svg+xml</dc:format>
    <dc:creator>
     <cc:Agent>
      <dc:title>Matplotlib v3.10.0, https://matplotlib.org/</dc:title>
     </cc:Agent>
    </dc:creator>
   </cc:Work>
  </rdf:RDF>
 </metadata>
 <defs>
  <style type="text/css">*{stroke-linejoin: round; stroke-linecap: butt}</style>
 </defs>
 <g id="figure_1">
  <g id="patch_1">
   <path d="M 0 396 
L 648 396 
L 648 0 
L 0 0 
z
" style="fill: #ffffff"/>
  </g>
  <g id="axes_1">
   <g id="patch_2">
    <path d="M 47.72 337.77698 
L 637.2 337.77698 
L 637.2 50.64 
L 47.72 50.64 
z
" style="fill: #ffffff"/>
   </g>
   <g id="matplotlib.axis_1">
    <g id="xtick_1">
     <g id="line2d_1">
      <path d="M 74.514545 337.77698 
L 74.514545 50.64 
" clip-path="url(#p713f8ce3a2)" style="fill: none; stroke: #b0b0b0; stroke-opacity: 0.25; stroke-width: 0.8; stroke-linecap: square"/>
     </g>
     <g id="line2d_2">
      <defs>
       <path id="m7dddbfd41e" d="M 0 0 
L 0 3.5 
" style="stroke: #000000; stroke-width: 0.8"/>
      </defs>
      <g>
       <use xlink:href="#m7dddbfd41e" x="74.514545" y="337.77698" style="stroke: #000000; stroke-width: 0.8"/>
      </g>
     </g>
     <g id="text_1">
      <!-- 0 (last turn) -->
      <g transform="translate(29.525065 366.656856) rotate(-20) scale(0.08 -0.08)">
       <defs>
        <path id="DejaVuSans-30" d="M 2034 4250 
Q 1547 4250 1301 3770 
Q 1056 3291 1056 2328 
Q 1056 1369 1301 889 
Q 1547 409 2034 409 
Q 2525 409 2770 889 
Q 3016 1369 3016 2328 
Q 3016 3291 2770 3770 
Q 2525 4250 2034 4250 
z
M 2034 4750 
Q 2819 4750 3233 4129 
Q 3647 3509 3647 2328 
Q 3647 1150 3233 529 
Q 2819 -91 2034 -91 
Q 1250 -91 836 529 
Q 422 1150 422 2328 
Q 422 3509 836 4129 
Q 1250 4750 2034 4750 
z
" transform="scale(0.015625)"/>
        <path id="DejaVuSans-20" transform="scale(0.015625)"/>
        <path id="DejaVuSans-28" d="M 1984 4856 
Q 1566 4138 1362 3434 
Q 1159 2731 1159 2009 
Q 1159 1288 1364 580 
Q 1569 -128 1984 -844 
L 1484 -844 
Q 1016 -109 783 600 
Q 550 1309 550 2009 
Q 550 2706 781 3412 
Q 1013 4119 1484 4856 
L 1984 4856 
z
" transform="scale(0.015625)"/>
        <path id="DejaVuSans-6c" d="M 603 4863 
L 1178 4863 
L 1178 0 
L 603 0 
L 603 4863 
z
" transform="scale(0.015625)"/>
        <path id="DejaVuSans-61" d="M 2194 1759 
Q 1497 1759 1228 1600 
Q 959 1441 959 1056 
Q 959 750 1161 570 
Q 1363 391 1709 391 
Q 2188 391 2477 730 
Q 2766 1069 2766 1631 
L 2766 1759 
L 2194 1759 
z
M 3341 1997 
L 3341 0 
L 2766 0 
L 2766 531 
Q 2569 213 2275 61 
Q 1981 -91 1556 -91 
Q 1019 -91 701 211 
Q 384 513 384 1019 
Q 384 1609 779 1909 
Q 1175 2209 1959 2209 
L 2766 2209 
L 2766 2266 
Q 2766 2663 2505 2880 
Q 2244 3097 1772 3097 
Q 1472 3097 1187 3025 
Q 903 2953 641 2809 
L 641 3341 
Q 956 3463 1253 3523 
Q 1550 3584 1831 3584 
Q 2591 3584 2966 3190 
Q 3341 2797 3341 1997 
z
" transform="scale(0.015625)"/>
        <path id="DejaVuSans-73" d="M 2834 3397 
L 2834 2853 
Q 2591 2978 2328 3040 
Q 2066 3103 1784 3103 
Q 1356 3103 1142 2972 
Q 928 2841 928 2578 
Q 928 2378 1081 2264 
Q 1234 2150 1697 2047 
L 1894 2003 
Q 2506 1872 2764 1633 
Q 3022 1394 3022 966 
Q 3022 478 2636 193 
Q 2250 -91 1575 -91 
Q 1294 -91 989 -36 
Q 684 19 347 128 
L 347 722 
Q 666 556 975 473 
Q 1284 391 1588 391 
Q 1994 391 2212 530 
Q 2431 669 2431 922 
Q 2431 1156 2273 1281 
Q 2116 1406 1581 1522 
L 1381 1569 
Q 847 1681 609 1914 
Q 372 2147 372 2553 
Q 372 3047 722 3315 
Q 1072 3584 1716 3584 
Q 2034 3584 2315 3537 
Q 2597 3491 2834 3397 
z
" transform="scale(0.015625)"/>
        <path id="DejaVuSans-74" d="M 1172 4494 
L 1172 3500 
L 2356 3500 
L 2356 3053 
L 1172 3053 
L 1172 1153 
Q 1172 725 1289 603 
Q 1406 481 1766 481 
L 2356 481 
L 2356 0 
L 1766 0 
Q 1100 0 847 248 
Q 594 497 594 1153 
L 594 3053 
L 172 3053 
L 172 3500 
L 594 3500 
L 594 4494 
L 1172 4494 
z
" transform="scale(0.015625)"/>
        <path id="DejaVuSans-75" d="M 544 1381 
L 544 3500 
L 1119 3500 
L 1119 1403 
Q 1119 906 1312 657 
Q 1506 409 1894 409 
Q 2359 409 2629 706 
Q 2900 1003 2900 1516 
L 2900 3500 
L 3475 3500 
L 3475 0 
L 2900 0 
L 2900 538 
Q 2691 219 2414 64 
Q 2138 -91 1772 -91 
Q 1169 -91 856 284 
Q 544 659 544 1381 
z
M 1991 3584 
L 1991 3584 
z
" transform="scale(0.015625)"/>
        <path id="DejaVuSans-72" d="M 2631 2963 
Q 2534 3019 2420 3045 
Q 2306 3072 2169 3072 
Q 1681 3072 1420 2755 
Q 1159 2438 1159 1844 
L 1159 0 
L 581 0 
L 581 3500 
L 1159 3500 
L 1159 2956 
Q 1341 3275 1631 3429 
Q 1922 3584 2338 3584 
Q 2397 3584 2469 3576 
Q 2541 3569 2628 3553 
L 2631 2963 
z
" transform="scale(0.015625)"/>
        <path id="DejaVuSans-6e" d="M 3513 2113 
L 3513 0 
L 2938 0 
L 2938 2094 
Q 2938 2591 2744 2837 
Q 2550 3084 2163 3084 
Q 1697 3084 1428 2787 
Q 1159 2491 1159 1978 
L 1159 0 
L 581 0 
L 581 3500 
L 1159 3500 
L 1159 2956 
Q 1366 3272 1645 3428 
Q 1925 3584 2291 3584 
Q 2894 3584 3203 3211 
Q 3513 2838 3513 2113 
z
" transform="scale(0.015625)"/>
        <path id="DejaVuSans-29" d="M 513 4856 
L 1013 4856 
Q 1481 4119 1714 3412 
Q 1947 2706 1947 2009 
Q 1947 1309 1714 600 
Q 1481 -109 1013 -844 
L 513 -844 
Q 928 -128 1133 580 
Q 1338 1288 1338 2009 
Q 1338 2731 1133 3434 
Q 928 4138 513 4856 
z
" transform="scale(0.015625)"/>
       </defs>
       <use xlink:href="#DejaVuSans-30"/>
       <use xlink:href="#DejaVuSans-20" transform="translate(63.623047 0)"/>
       <use xlink:href="#DejaVuSans-28" transform="translate(95.410156 0)"/>
       <use xlink:href="#DejaVuSans-6c" transform="translate(134.423828 0)"/>
       <use xlink:href="#DejaVuSans-61" transform="translate(162.207031 0)"/>
       <use xlink:href="#DejaVuSans-73" transform="translate(223.486328 0)"/>
       <use xlink:href="#DejaVuSans-74" transform="translate(275.585938 0)"/>
       <use xlink:href="#DejaVuSans-20" transform="translate(314.794922 0)"/>
       <use xlink:href="#DejaVuSans-74" transform="translate(346.582031 0)"/>
       <use xlink:href="#DejaVuSans-75" transform="translate(385.791016 0)"/>
       <use xlink:href="#DejaVuSans-72" transform="translate(449.169922 0)"/>
       <use xlink:href="#DejaVuSans-6e" transform="translate(488.533203 0)"/>
       <use xlink:href="#DejaVuSans-29" transform="translate(551.912109 0)"/>
      </g>
     </g>
    </g>
    <g id="xtick_2">
     <g id="line2d_3">
      <path d="M 208.487273 337.77698 
L 208.487273 50.64 
" clip-path="url(#p713f8ce3a2)" style="fill: none; stroke: #b0b0b0; stroke-opacity: 0.25; stroke-width: 0.8; stroke-linecap: square"/>
     </g>
     <g id="line2d_4">
      <g>
       <use xlink:href="#m7dddbfd41e" x="208.487273" y="337.77698" style="stroke: #000000; stroke-width: 0.8"/>
      </g>
     </g>
     <g id="text_2">
      <!-- ≤256tok deep -->
      <g transform="translate(154.184263 370.046703) rotate(-20) scale(0.08 -0.08)">
       <defs>
        <path id="DejaVuSans-2264" d="M 4684 3175 
L 1684 2309 
L 4684 1453 
L 4684 897 
L 678 2047 
L 678 2578 
L 4684 3725 
L 4684 3175 
z
M 678 531 
L 4684 531 
L 4684 0 
L 678 0 
L 678 531 
z
" transform="scale(0.015625)"/>
        <path id="DejaVuSans-32" d="M 1228 531 
L 3431 531 
L 3431 0 
L 469 0 
L 469 531 
Q 828 903 1448 1529 
Q 2069 2156 2228 2338 
Q 2531 2678 2651 2914 
Q 2772 3150 2772 3378 
Q 2772 3750 2511 3984 
Q 2250 4219 1831 4219 
Q 1534 4219 1204 4116 
Q 875 4013 500 3803 
L 500 4441 
Q 881 4594 1212 4672 
Q 1544 4750 1819 4750 
Q 2544 4750 2975 4387 
Q 3406 4025 3406 3419 
Q 3406 3131 3298 2873 
Q 3191 2616 2906 2266 
Q 2828 2175 2409 1742 
Q 1991 1309 1228 531 
z
" transform="scale(0.015625)"/>
        <path id="DejaVuSans-35" d="M 691 4666 
L 3169 4666 
L 3169 4134 
L 1269 4134 
L 1269 2991 
Q 1406 3038 1543 3061 
Q 1681 3084 1819 3084 
Q 2600 3084 3056 2656 
Q 3513 2228 3513 1497 
Q 3513 744 3044 326 
Q 2575 -91 1722 -91 
Q 1428 -91 1123 -41 
Q 819 9 494 109 
L 494 744 
Q 775 591 1075 516 
Q 1375 441 1709 441 
Q 2250 441 2565 725 
Q 2881 1009 2881 1497 
Q 2881 1984 2565 2268 
Q 2250 2553 1709 2553 
Q 1456 2553 1204 2497 
Q 953 2441 691 2322 
L 691 4666 
z
" transform="scale(0.015625)"/>
        <path id="DejaVuSans-36" d="M 2113 2584 
Q 1688 2584 1439 2293 
Q 1191 2003 1191 1497 
Q 1191 994 1439 701 
Q 1688 409 2113 409 
Q 2538 409 2786 701 
Q 3034 994 3034 1497 
Q 3034 2003 2786 2293 
Q 2538 2584 2113 2584 
z
M 3366 4563 
L 3366 3988 
Q 3128 4100 2886 4159 
Q 2644 4219 2406 4219 
Q 1781 4219 1451 3797 
Q 1122 3375 1075 2522 
Q 1259 2794 1537 2939 
Q 1816 3084 2150 3084 
Q 2853 3084 3261 2657 
Q 3669 2231 3669 1497 
Q 3669 778 3244 343 
Q 2819 -91 2113 -91 
Q 1303 -91 875 529 
Q 447 1150 447 2328 
Q 447 3434 972 4092 
Q 1497 4750 2381 4750 
Q 2619 4750 2861 4703 
Q 3103 4656 3366 4563 
z
" transform="scale(0.015625)"/>
        <path id="DejaVuSans-6f" d="M 1959 3097 
Q 1497 3097 1228 2736 
Q 959 2375 959 1747 
Q 959 1119 1226 758 
Q 1494 397 1959 397 
Q 2419 397 2687 759 
Q 2956 1122 2956 1747 
Q 2956 2369 2687 2733 
Q 2419 3097 1959 3097 
z
M 1959 3584 
Q 2709 3584 3137 3096 
Q 3566 2609 3566 1747 
Q 3566 888 3137 398 
Q 2709 -91 1959 -91 
Q 1206 -91 779 398 
Q 353 888 353 1747 
Q 353 2609 779 3096 
Q 1206 3584 1959 3584 
z
" transform="scale(0.015625)"/>
        <path id="DejaVuSans-6b" d="M 581 4863 
L 1159 4863 
L 1159 1991 
L 2875 3500 
L 3609 3500 
L 1753 1863 
L 3688 0 
L 2938 0 
L 1159 1709 
L 1159 0 
L 581 0 
L 581 4863 
z
" transform="scale(0.015625)"/>
        <path id="DejaVuSans-64" d="M 2906 2969 
L 2906 4863 
L 3481 4863 
L 3481 0 
L 2906 0 
L 2906 525 
Q 2725 213 2448 61 
Q 2172 -91 1784 -91 
Q 1150 -91 751 415 
Q 353 922 353 1747 
Q 353 2572 751 3078 
Q 1150 3584 1784 3584 
Q 2172 3584 2448 3432 
Q 2725 3281 2906 2969 
z
M 947 1747 
Q 947 1113 1208 752 
Q 1469 391 1925 391 
Q 2381 391 2643 752 
Q 2906 1113 2906 1747 
Q 2906 2381 2643 2742 
Q 2381 3103 1925 3103 
Q 1469 3103 1208 2742 
Q 947 2381 947 1747 
z
" transform="scale(0.015625)"/>
        <path id="DejaVuSans-65" d="M 3597 1894 
L 3597 1613 
L 953 1613 
Q 991 1019 1311 708 
Q 1631 397 2203 397 
Q 2534 397 2845 478 
Q 3156 559 3463 722 
L 3463 178 
Q 3153 47 2828 -22 
Q 2503 -91 2169 -91 
Q 1331 -91 842 396 
Q 353 884 353 1716 
Q 353 2575 817 3079 
Q 1281 3584 2069 3584 
Q 2775 3584 3186 3129 
Q 3597 2675 3597 1894 
z
M 3022 2063 
Q 3016 2534 2758 2815 
Q 2500 3097 2075 3097 
Q 1594 3097 1305 2825 
Q 1016 2553 972 2059 
L 3022 2063 
z
" transform="scale(0.015625)"/>
        <path id="DejaVuSans-70" d="M 1159 525 
L 1159 -1331 
L 581 -1331 
L 581 3500 
L 1159 3500 
L 1159 2969 
Q 1341 3281 1617 3432 
Q 1894 3584 2278 3584 
Q 2916 3584 3314 3078 
Q 3713 2572 3713 1747 
Q 3713 922 3314 415 
Q 2916 -91 2278 -91 
Q 1894 -91 1617 61 
Q 1341 213 1159 525 
z
M 3116 1747 
Q 3116 2381 2855 2742 
Q 2594 3103 2138 3103 
Q 1681 3103 1420 2742 
Q 1159 2381 1159 1747 
Q 1159 1113 1420 752 
Q 1681 391 2138 391 
Q 2594 391 2855 752 
Q 3116 1113 3116 1747 
z
" transform="scale(0.015625)"/>
       </defs>
       <use xlink:href="#DejaVuSans-2264"/>
       <use xlink:href="#DejaVuSans-32" transform="translate(83.789062 0)"/>
       <use xlink:href="#DejaVuSans-35" transform="translate(147.412109 0)"/>
       <use xlink:href="#DejaVuSans-36" transform="translate(211.035156 0)"/>
       <use xlink:href="#DejaVuSans-74" transform="translate(274.658203 0)"/>
       <use xlink:href="#DejaVuSans-6f" transform="translate(313.867188 0)"/>
       <use xlink:href="#DejaVuSans-6b" transform="translate(375.048828 0)"/>
       <use xlink:href="#DejaVuSans-20" transform="translate(432.958984 0)"/>
       <use xlink:href="#DejaVuSans-64" transform="translate(464.746094 0)"/>
       <use xlink:href="#DejaVuSans-65" transform="translate(528.222656 0)"/>
       <use xlink:href="#DejaVuSans-65" transform="translate(589.746094 0)"/>
       <use xlink:href="#DejaVuSans-70" transform="translate(651.269531 0)"/>
      </g>
     </g>
    </g>
    <g id="xtick_3">
     <g id="line2d_5">
      <path d="M 342.46 337.77698 
L 342.46 50.64 
" clip-path="url(#p713f8ce3a2)" style="fill: none; stroke: #b0b0b0; stroke-opacity: 0.25; stroke-width: 0.8; stroke-linecap: square"/>
     </g>
     <g id="line2d_6">
      <g>
       <use xlink:href="#m7dddbfd41e" x="342.46" y="337.77698" style="stroke: #000000; stroke-width: 0.8"/>
      </g>
     </g>
     <g id="text_3">
      <!-- 256–512tok -->
      <g transform="translate(297.533948 366.63377) rotate(-20) scale(0.08 -0.08)">
       <defs>
        <path id="DejaVuSans-2013" d="M 313 1978 
L 2888 1978 
L 2888 1528 
L 313 1528 
L 313 1978 
z
" transform="scale(0.015625)"/>
        <path id="DejaVuSans-31" d="M 794 531 
L 1825 531 
L 1825 4091 
L 703 3866 
L 703 4441 
L 1819 4666 
L 2450 4666 
L 2450 531 
L 3481 531 
L 3481 0 
L 794 0 
L 794 531 
z
" transform="scale(0.015625)"/>
       </defs>
       <use xlink:href="#DejaVuSans-32"/>
       <use xlink:href="#DejaVuSans-35" transform="translate(63.623047 0)"/>
       <use xlink:href="#DejaVuSans-36" transform="translate(127.246094 0)"/>
       <use xlink:href="#DejaVuSans-2013" transform="translate(190.869141 0)"/>
       <use xlink:href="#DejaVuSans-35" transform="translate(240.869141 0)"/>
       <use xlink:href="#DejaVuSans-31" transform="translate(304.492188 0)"/>
       <use xlink:href="#DejaVuSans-32" transform="translate(368.115234 0)"/>
       <use xlink:href="#DejaVuSans-74" transform="translate(431.738281 0)"/>
       <use xlink:href="#DejaVuSans-6f" transform="translate(470.947266 0)"/>
       <use xlink:href="#DejaVuSans-6b" transform="translate(532.128906 0)"/>
      </g>
     </g>
    </g>
    <g id="xtick_4">
     <g id="line2d_7">
      <path d="M 476.432727 337.77698 
L 476.432727 50.64 
" clip-path="url(#p713f8ce3a2)" style="fill: none; stroke: #b0b0b0; stroke-opacity: 0.25; stroke-width: 0.8; stroke-linecap: square"/>
     </g>
     <g id="line2d_8">
      <g>
       <use xlink:href="#m7dddbfd41e" x="476.432727" y="337.77698" style="stroke: #000000; stroke-width: 0.8"/>
      </g>
     </g>
     <g id="text_4">
      <!-- 512–1k tok -->
      <g transform="translate(434.330452 365.605999) rotate(-20) scale(0.08 -0.08)">
       <use xlink:href="#DejaVuSans-35"/>
       <use xlink:href="#DejaVuSans-31" transform="translate(63.623047 0)"/>
       <use xlink:href="#DejaVuSans-32" transform="translate(127.246094 0)"/>
       <use xlink:href="#DejaVuSans-2013" transform="translate(190.869141 0)"/>
       <use xlink:href="#DejaVuSans-31" transform="translate(240.869141 0)"/>
       <use xlink:href="#DejaVuSans-6b" transform="translate(304.492188 0)"/>
       <use xlink:href="#DejaVuSans-20" transform="translate(362.402344 0)"/>
       <use xlink:href="#DejaVuSans-74" transform="translate(394.189453 0)"/>
       <use xlink:href="#DejaVuSans-6f" transform="translate(433.398438 0)"/>
       <use xlink:href="#DejaVuSans-6b" transform="translate(494.580078 0)"/>
      </g>
     </g>
    </g>
    <g id="xtick_5">
     <g id="line2d_9">
      <path d="M 610.405455 337.77698 
L 610.405455 50.64 
" clip-path="url(#p713f8ce3a2)" style="fill: none; stroke: #b0b0b0; stroke-opacity: 0.25; stroke-width: 0.8; stroke-linecap: square"/>
     </g>
     <g id="line2d_10">
      <g>
       <use xlink:href="#m7dddbfd41e" x="610.405455" y="337.77698" style="stroke: #000000; stroke-width: 0.8"/>
      </g>
     </g>
     <g id="text_5">
      <!-- &gt;1k tok deep -->
      <g transform="translate(558.926222 369.018933) rotate(-20) scale(0.08 -0.08)">
       <defs>
        <path id="DejaVuSans-3e" d="M 678 3150 
L 678 3719 
L 4684 2266 
L 4684 1747 
L 678 294 
L 678 863 
L 3897 2003 
L 678 3150 
z
" transform="scale(0.015625)"/>
       </defs>
       <use xlink:href="#DejaVuSans-3e"/>
       <use xlink:href="#DejaVuSans-31" transform="translate(83.789062 0)"/>
       <use xlink:href="#DejaVuSans-6b" transform="translate(147.412109 0)"/>
       <use xlink:href="#DejaVuSans-20" transform="translate(205.322266 0)"/>
       <use xlink:href="#DejaVuSans-74" transform="translate(237.109375 0)"/>
       <use xlink:href="#DejaVuSans-6f" transform="translate(276.318359 0)"/>
       <use xlink:href="#DejaVuSans-6b" transform="translate(337.5 0)"/>
       <use xlink:href="#DejaVuSans-20" transform="translate(395.410156 0)"/>
       <use xlink:href="#DejaVuSans-64" transform="translate(427.197266 0)"/>
       <use xlink:href="#DejaVuSans-65" transform="translate(490.673828 0)"/>
       <use xlink:href="#DejaVuSans-65" transform="translate(552.197266 0)"/>
       <use xlink:href="#DejaVuSans-70" transform="translate(613.720703 0)"/>
      </g>
     </g>
    </g>
    <g id="text_6">
     <!-- Injection depth — context after the poison (→ deeper / older) -->
     <g transform="translate(190.079531 383.208555) scale(0.1 -0.1)">
      <defs>
       <path id="DejaVuSans-49" d="M 628 4666 
L 1259 4666 
L 1259 0 
L 628 0 
L 628 4666 
z
" transform="scale(0.015625)"/>
       <path id="DejaVuSans-6a" d="M 603 3500 
L 1178 3500 
L 1178 -63 
Q 1178 -731 923 -1031 
Q 669 -1331 103 -1331 
L -116 -1331 
L -116 -844 
L 38 -844 
Q 366 -844 484 -692 
Q 603 -541 603 -63 
L 603 3500 
z
M 603 4863 
L 1178 4863 
L 1178 4134 
L 603 4134 
L 603 4863 
z
" transform="scale(0.015625)"/>
       <path id="DejaVuSans-63" d="M 3122 3366 
L 3122 2828 
Q 2878 2963 2633 3030 
Q 2388 3097 2138 3097 
Q 1578 3097 1268 2742 
Q 959 2388 959 1747 
Q 959 1106 1268 751 
Q 1578 397 2138 397 
Q 2388 397 2633 464 
Q 2878 531 3122 666 
L 3122 134 
Q 2881 22 2623 -34 
Q 2366 -91 2075 -91 
Q 1284 -91 818 406 
Q 353 903 353 1747 
Q 353 2603 823 3093 
Q 1294 3584 2113 3584 
Q 2378 3584 2631 3529 
Q 2884 3475 3122 3366 
z
" transform="scale(0.015625)"/>
       <path id="DejaVuSans-69" d="M 603 3500 
L 1178 3500 
L 1178 0 
L 603 0 
L 603 3500 
z
M 603 4863 
L 1178 4863 
L 1178 4134 
L 603 4134 
L 603 4863 
z
" transform="scale(0.015625)"/>
       <path id="DejaVuSans-68" d="M 3513 2113 
L 3513 0 
L 2938 0 
L 2938 2094 
Q 2938 2591 2744 2837 
Q 2550 3084 2163 3084 
Q 1697 3084 1428 2787 
Q 1159 2491 1159 1978 
L 1159 0 
L 581 0 
L 581 4863 
L 1159 4863 
L 1159 2956 
Q 1366 3272 1645 3428 
Q 1925 3584 2291 3584 
Q 2894 3584 3203 3211 
Q 3513 2838 3513 2113 
z
" transform="scale(0.015625)"/>
       <path id="DejaVuSans-2014" d="M 313 1978 
L 6088 1978 
L 6088 1528 
L 313 1528 
L 313 1978 
z
" transform="scale(0.015625)"/>
       <path id="DejaVuSans-78" d="M 3513 3500 
L 2247 1797 
L 3578 0 
L 2900 0 
L 1881 1375 
L 863 0 
L 184 0 
L 1544 1831 
L 300 3500 
L 978 3500 
L 1906 2253 
L 2834 3500 
L 3513 3500 
z
" transform="scale(0.015625)"/>
       <path id="DejaVuSans-66" d="M 2375 4863 
L 2375 4384 
L 1825 4384 
Q 1516 4384 1395 4259 
Q 1275 4134 1275 3809 
L 1275 3500 
L 2222 3500 
L 2222 3053 
L 1275 3053 
L 1275 0 
L 697 0 
L 697 3053 
L 147 3053 
L 147 3500 
L 697 3500 
L 697 3744 
Q 697 4328 969 4595 
Q 1241 4863 1831 4863 
L 2375 4863 
z
" transform="scale(0.015625)"/>
       <path id="DejaVuSans-2192" d="M 5050 2147 
L 5050 1866 
L 3822 638 
L 3447 1013 
L 4175 1741 
L 366 1741 
L 366 2272 
L 4175 2272 
L 3447 3000 
L 3822 3375 
L 5050 2147 
z
" transform="scale(0.015625)"/>
       <path id="DejaVuSans-2f" d="M 1625 4666 
L 2156 4666 
L 531 -594 
L 0 -594 
L 1625 4666 
z
" transform="scale(0.015625)"/>
      </defs>
      <use xlink:href="#DejaVuSans-49"/>
      <use xlink:href="#DejaVuSans-6e" transform="translate(29.492188 0)"/>
      <use xlink:href="#DejaVuSans-6a" transform="translate(92.871094 0)"/>
      <use xlink:href="#DejaVuSans-65" transform="translate(120.654297 0)"/>
      <use xlink:href="#DejaVuSans-63" transform="translate(182.177734 0)"/>
      <use xlink:href="#DejaVuSans-74" transform="translate(237.158203 0)"/>
      <use xlink:href="#DejaVuSans-69" transform="translate(276.367188 0)"/>
      <use xlink:href="#DejaVuSans-6f" transform="translate(304.150391 0)"/>
      <use xlink:href="#DejaVuSans-6e" transform="translate(365.332031 0)"/>
      <use xlink:href="#DejaVuSans-20" transform="translate(428.710938 0)"/>
      <use xlink:href="#DejaVuSans-64" transform="translate(460.498047 0)"/>
      <use xlink:href="#DejaVuSans-65" transform="translate(523.974609 0)"/>
      <use xlink:href="#DejaVuSans-70" transform="translate(585.498047 0)"/>
      <use xlink:href="#DejaVuSans-74" transform="translate(648.974609 0)"/>
      <use xlink:href="#DejaVuSans-68" transform="translate(688.183594 0)"/>
      <use xlink:href="#DejaVuSans-20" transform="translate(751.5625 0)"/>
      <use xlink:href="#DejaVuSans-2014" transform="translate(783.349609 0)"/>
      <use xlink:href="#DejaVuSans-20" transform="translate(883.349609 0)"/>
      <use xlink:href="#DejaVuSans-63" transform="translate(915.136719 0)"/>
      <use xlink:href="#DejaVuSans-6f" transform="translate(970.117188 0)"/>
      <use xlink:href="#DejaVuSans-6e" transform="translate(1031.298828 0)"/>
      <use xlink:href="#DejaVuSans-74" transform="translate(1094.677734 0)"/>
      <use xlink:href="#DejaVuSans-65" transform="translate(1133.886719 0)"/>
      <use xlink:href="#DejaVuSans-78" transform="translate(1193.660156 0)"/>
      <use xlink:href="#DejaVuSans-74" transform="translate(1252.839844 0)"/>
      <use xlink:href="#DejaVuSans-20" transform="translate(1292.048828 0)"/>
      <use xlink:href="#DejaVuSans-61" transform="translate(1323.835938 0)"/>
      <use xlink:href="#DejaVuSans-66" transform="translate(1385.115234 0)"/>
      <use xlink:href="#DejaVuSans-74" transform="translate(1418.570312 0)"/>
      <use xlink:href="#DejaVuSans-65" transform="translate(1457.779297 0)"/>
      <use xlink:href="#DejaVuSans-72" transform="translate(1519.302734 0)"/>
      <use xlink:href="#DejaVuSans-20" transform="translate(1560.416016 0)"/>
      <use xlink:href="#DejaVuSans-74" transform="translate(1592.203125 0)"/>
      <use xlink:href="#DejaVuSans-68" transform="translate(1631.412109 0)"/>
      <use xlink:href="#DejaVuSans-65" transform="translate(1694.791016 0)"/>
      <use xlink:href="#DejaVuSans-20" transform="translate(1756.314453 0)"/>
      <use xlink:href="#DejaVuSans-70" transform="translate(1788.101562 0)"/>
      <use xlink:href="#DejaVuSans-6f" transform="translate(1851.578125 0)"/>
      <use xlink:href="#DejaVuSans-69" transform="translate(1912.759766 0)"/>
      <use xlink:href="#DejaVuSans-73" transform="translate(1940.542969 0)"/>
      <use xlink:href="#DejaVuSans-6f" transform="translate(1992.642578 0)"/>
      <use xlink:href="#DejaVuSans-6e" transform="translate(2053.824219 0)"/>
      <use xlink:href="#DejaVuSans-20" transform="translate(2117.203125 0)"/>
      <use xlink:href="#DejaVuSans-28" transform="translate(2148.990234 0)"/>
      <use xlink:href="#DejaVuSans-2192" transform="translate(2188.003906 0)"/>
      <use xlink:href="#DejaVuSans-20" transform="translate(2271.792969 0)"/>
      <use xlink:href="#DejaVuSans-64" transform="translate(2303.580078 0)"/>
      <use xlink:href="#DejaVuSans-65" transform="translate(2367.056641 0)"/>
      <use xlink:href="#DejaVuSans-65" transform="translate(2428.580078 0)"/>
      <use xlink:href="#DejaVuSans-70" transform="translate(2490.103516 0)"/>
      <use xlink:href="#DejaVuSans-65" transform="translate(2553.580078 0)"/>
      <use xlink:href="#DejaVuSans-72" transform="translate(2615.103516 0)"/>
      <use xlink:href="#DejaVuSans-20" transform="translate(2656.216797 0)"/>
      <use xlink:href="#DejaVuSans-2f" transform="translate(2688.003906 0)"/>
      <use xlink:href="#DejaVuSans-20" transform="translate(2721.695312 0)"/>
      <use xlink:href="#DejaVuSans-6f" transform="translate(2753.482422 0)"/>
      <use xlink:href="#DejaVuSans-6c" transform="translate(2814.664062 0)"/>
      <use xlink:href="#DejaVuSans-64" transform="translate(2842.447266 0)"/>
      <use xlink:href="#DejaVuSans-65" transform="translate(2905.923828 0)"/>
      <use xlink:href="#DejaVuSans-72" transform="translate(2967.447266 0)"/>
      <use xlink:href="#DejaVuSans-29" transform="translate(3008.560547 0)"/>
     </g>
    </g>
   </g>
   <g id="matplotlib.axis_2">
    <g id="ytick_1">
     <g id="line2d_11">
      <path d="M 47.72 337.77698 
L 637.2 337.77698 
" clip-path="url(#p713f8ce3a2)" style="fill: none; stroke: #b0b0b0; stroke-opacity: 0.25; stroke-width: 0.8; stroke-linecap: square"/>
     </g>
     <g id="line2d_12">
      <defs>
       <path id="mfa920bf166" d="M 0 0 
L -3.5 0 
" style="stroke: #000000; stroke-width: 0.8"/>
      </defs>
      <g>
       <use xlink:href="#mfa920bf166" x="47.72" y="337.77698" style="stroke: #000000; stroke-width: 0.8"/>
      </g>
     </g>
     <g id="text_7">
      <!-- 0.0 -->
      <g transform="translate(24.816875 341.576199) scale(0.1 -0.1)">
       <defs>
        <path id="DejaVuSans-2e" d="M 684 794 
L 1344 794 
L 1344 0 
L 684 0 
L 684 794 
z
" transform="scale(0.015625)"/>
       </defs>
       <use xlink:href="#DejaVuSans-30"/>
       <use xlink:href="#DejaVuSans-2e" transform="translate(63.623047 0)"/>
       <use xlink:href="#DejaVuSans-30" transform="translate(95.410156 0)"/>
      </g>
     </g>
    </g>
    <g id="ytick_2">
     <g id="line2d_13">
      <path d="M 47.72 280.349584 
L 637.2 280.349584 
" clip-path="url(#p713f8ce3a2)" style="fill: none; stroke: #b0b0b0; stroke-opacity: 0.25; stroke-width: 0.8; stroke-linecap: square"/>
     </g>
     <g id="line2d_14">
      <g>
       <use xlink:href="#mfa920bf166" x="47.72" y="280.349584" style="stroke: #000000; stroke-width: 0.8"/>
      </g>
     </g>
     <g id="text_8">
      <!-- 0.2 -->
      <g transform="translate(24.816875 284.148803) scale(0.1 -0.1)">
       <use xlink:href="#DejaVuSans-30"/>
       <use xlink:href="#DejaVuSans-2e" transform="translate(63.623047 0)"/>
       <use xlink:href="#DejaVuSans-32" transform="translate(95.410156 0)"/>
      </g>
     </g>
    </g>
    <g id="ytick_3">
     <g id="line2d_15">
      <path d="M 47.72 222.922188 
L 637.2 222.922188 
" clip-path="url(#p713f8ce3a2)" style="fill: none; stroke: #b0b0b0; stroke-opacity: 0.25; stroke-width: 0.8; stroke-linecap: square"/>
     </g>
     <g id="line2d_16">
      <g>
       <use xlink:href="#mfa920bf166" x="47.72" y="222.922188" style="stroke: #000000; stroke-width: 0.8"/>
      </g>
     </g>
     <g id="text_9">
      <!-- 0.4 -->
      <g transform="translate(24.816875 226.721407) scale(0.1 -0.1)">
       <defs>
        <path id="DejaVuSans-34" d="M 2419 4116 
L 825 1625 
L 2419 1625 
L 2419 4116 
z
M 2253 4666 
L 3047 4666 
L 3047 1625 
L 3713 1625 
L 3713 1100 
L 3047 1100 
L 3047 0 
L 2419 0 
L 2419 1100 
L 313 1100 
L 313 1709 
L 2253 4666 
z
" transform="scale(0.015625)"/>
       </defs>
       <use xlink:href="#DejaVuSans-30"/>
       <use xlink:href="#DejaVuSans-2e" transform="translate(63.623047 0)"/>
       <use xlink:href="#DejaVuSans-34" transform="translate(95.410156 0)"/>
      </g>
     </g>
    </g>
    <g id="ytick_4">
     <g id="line2d_17">
      <path d="M 47.72 165.494792 
L 637.2 165.494792 
" clip-path="url(#p713f8ce3a2)" style="fill: none; stroke: #b0b0b0; stroke-opacity: 0.25; stroke-width: 0.8; stroke-linecap: square"/>
     </g>
     <g id="line2d_18">
      <g>
       <use xlink:href="#mfa920bf166" x="47.72" y="165.494792" style="stroke: #000000; stroke-width: 0.8"/>
      </g>
     </g>
     <g id="text_10">
      <!-- 0.6 -->
      <g transform="translate(24.816875 169.294011) scale(0.1 -0.1)">
       <use xlink:href="#DejaVuSans-30"/>
       <use xlink:href="#DejaVuSans-2e" transform="translate(63.623047 0)"/>
       <use xlink:href="#DejaVuSans-36" transform="translate(95.410156 0)"/>
      </g>
     </g>
    </g>
    <g id="ytick_5">
     <g id="line2d_19">
      <path d="M 47.72 108.067396 
L 637.2 108.067396 
" clip-path="url(#p713f8ce3a2)" style="fill: none; stroke: #b0b0b0; stroke-opacity: 0.25; stroke-width: 0.8; stroke-linecap: square"/>
     </g>
     <g id="line2d_20">
      <g>
       <use xlink:href="#mfa920bf166" x="47.72" y="108.067396" style="stroke: #000000; stroke-width: 0.8"/>
      </g>
     </g>
     <g id="text_11">
      <!-- 0.8 -->
      <g transform="translate(24.816875 111.866615) scale(0.1 -0.1)">
       <defs>
        <path id="DejaVuSans-38" d="M 2034 2216 
Q 1584 2216 1326 1975 
Q 1069 1734 1069 1313 
Q 1069 891 1326 650 
Q 1584 409 2034 409 
Q 2484 409 2743 651 
Q 3003 894 3003 1313 
Q 3003 1734 2745 1975 
Q 2488 2216 2034 2216 
z
M 1403 2484 
Q 997 2584 770 2862 
Q 544 3141 544 3541 
Q 544 4100 942 4425 
Q 1341 4750 2034 4750 
Q 2731 4750 3128 4425 
Q 3525 4100 3525 3541 
Q 3525 3141 3298 2862 
Q 3072 2584 2669 2484 
Q 3125 2378 3379 2068 
Q 3634 1759 3634 1313 
Q 3634 634 3220 271 
Q 2806 -91 2034 -91 
Q 1263 -91 848 271 
Q 434 634 434 1313 
Q 434 1759 690 2068 
Q 947 2378 1403 2484 
z
M 1172 3481 
Q 1172 3119 1398 2916 
Q 1625 2713 2034 2713 
Q 2441 2713 2670 2916 
Q 2900 3119 2900 3481 
Q 2900 3844 2670 4047 
Q 2441 4250 2034 4250 
Q 1625 4250 1398 4047 
Q 1172 3844 1172 3481 
z
" transform="scale(0.015625)"/>
       </defs>
       <use xlink:href="#DejaVuSans-30"/>
       <use xlink:href="#DejaVuSans-2e" transform="translate(63.623047 0)"/>
       <use xlink:href="#DejaVuSans-38" transform="translate(95.410156 0)"/>
      </g>
     </g>
    </g>
    <g id="ytick_6">
     <g id="line2d_21">
      <path d="M 47.72 50.64 
L 637.2 50.64 
" clip-path="url(#p713f8ce3a2)" style="fill: none; stroke: #b0b0b0; stroke-opacity: 0.25; stroke-width: 0.8; stroke-linecap: square"/>
     </g>
     <g id="line2d_22">
      <g>
       <use xlink:href="#mfa920bf166" x="47.72" y="50.64" style="stroke: #000000; stroke-width: 0.8"/>
      </g>
     </g>
     <g id="text_12">
      <!-- 1.0 -->
      <g transform="translate(24.816875 54.439219) scale(0.1 -0.1)">
       <use xlink:href="#DejaVuSans-31"/>
       <use xlink:href="#DejaVuSans-2e" transform="translate(63.623047 0)"/>
       <use xlink:href="#DejaVuSans-30" transform="translate(95.410156 0)"/>
      </g>
     </g>
    </g>
    <g id="text_13">
     <!-- Detection rate (recall @0.5) -->
     <g transform="translate(18.737188 263.885834) rotate(-90) scale(0.1 -0.1)">
      <defs>
       <path id="DejaVuSans-44" d="M 1259 4147 
L 1259 519 
L 2022 519 
Q 2988 519 3436 956 
Q 3884 1394 3884 2338 
Q 3884 3275 3436 3711 
Q 2988 4147 2022 4147 
L 1259 4147 
z
M 628 4666 
L 1925 4666 
Q 3281 4666 3915 4102 
Q 4550 3538 4550 2338 
Q 4550 1131 3912 565 
Q 3275 0 1925 0 
L 628 0 
L 628 4666 
z
" transform="scale(0.015625)"/>
       <path id="DejaVuSans-40" d="M 2381 1678 
Q 2381 1231 2603 976 
Q 2825 722 3213 722 
Q 3597 722 3817 978 
Q 4038 1234 4038 1678 
Q 4038 2116 3813 2373 
Q 3588 2631 3206 2631 
Q 2828 2631 2604 2375 
Q 2381 2119 2381 1678 
z
M 4084 744 
Q 3897 503 3655 389 
Q 3413 275 3091 275 
Q 2553 275 2217 664 
Q 1881 1053 1881 1678 
Q 1881 2303 2218 2693 
Q 2556 3084 3091 3084 
Q 3413 3084 3656 2967 
Q 3900 2850 4084 2613 
L 4084 3022 
L 4531 3022 
L 4531 722 
Q 4988 791 5245 1139 
Q 5503 1488 5503 2041 
Q 5503 2375 5404 2669 
Q 5306 2963 5106 3213 
Q 4781 3622 4314 3839 
Q 3847 4056 3297 4056 
Q 2913 4056 2559 3954 
Q 2206 3853 1906 3653 
Q 1416 3334 1139 2817 
Q 863 2300 863 1697 
Q 863 1200 1042 765 
Q 1222 331 1563 0 
Q 1891 -325 2322 -495 
Q 2753 -666 3244 -666 
Q 3647 -666 4036 -530 
Q 4425 -394 4750 -141 
L 5031 -488 
Q 4641 -791 4180 -952 
Q 3719 -1113 3244 -1113 
Q 2666 -1113 2153 -908 
Q 1641 -703 1241 -313 
Q 841 78 631 592 
Q 422 1106 422 1697 
Q 422 2266 634 2781 
Q 847 3297 1241 3688 
Q 1644 4084 2172 4295 
Q 2700 4506 3291 4506 
Q 3953 4506 4520 4234 
Q 5088 3963 5472 3463 
Q 5706 3156 5829 2797 
Q 5953 2438 5953 2053 
Q 5953 1231 5456 756 
Q 4959 281 4084 263 
L 4084 744 
z
" transform="scale(0.015625)"/>
      </defs>
      <use xlink:href="#DejaVuSans-44"/>
      <use xlink:href="#DejaVuSans-65" transform="translate(77.001953 0)"/>
      <use xlink:href="#DejaVuSans-74" transform="translate(138.525391 0)"/>
      <use xlink:href="#DejaVuSans-65" transform="translate(177.734375 0)"/>
      <use xlink:href="#DejaVuSans-63" transform="translate(239.257812 0)"/>
      <use xlink:href="#DejaVuSans-74" transform="translate(294.238281 0)"/>
      <use xlink:href="#DejaVuSans-69" transform="translate(333.447266 0)"/>
      <use xlink:href="#DejaVuSans-6f" transform="translate(361.230469 0)"/>
      <use xlink:href="#DejaVuSans-6e" transform="translate(422.412109 0)"/>
      <use xlink:href="#DejaVuSans-20" transform="translate(485.791016 0)"/>
      <use xlink:href="#DejaVuSans-72" transform="translate(517.578125 0)"/>
      <use xlink:href="#DejaVuSans-61" transform="translate(558.691406 0)"/>
      <use xlink:href="#DejaVuSans-74" transform="translate(619.970703 0)"/>
      <use xlink:href="#DejaVuSans-65" transform="translate(659.179688 0)"/>
      <use xlink:href="#DejaVuSans-20" transform="translate(720.703125 0)"/>
      <use xlink:href="#DejaVuSans-28" transform="translate(752.490234 0)"/>
      <use xlink:href="#DejaVuSans-72" transform="translate(791.503906 0)"/>
      <use xlink:href="#DejaVuSans-65" transform="translate(830.367188 0)"/>
      <use xlink:href="#DejaVuSans-63" transform="translate(891.890625 0)"/>
      <use xlink:href="#DejaVuSans-61" transform="translate(946.871094 0)"/>
      <use xlink:href="#DejaVuSans-6c" transform="translate(1008.150391 0)"/>
      <use xlink:href="#DejaVuSans-6c" transform="translate(1035.933594 0)"/>
      <use xlink:href="#DejaVuSans-20" transform="translate(1063.716797 0)"/>
      <use xlink:href="#DejaVuSans-40" transform="translate(1095.503906 0)"/>
      <use xlink:href="#DejaVuSans-30" transform="translate(1195.503906 0)"/>
      <use xlink:href="#DejaVuSans-2e" transform="translate(1259.126953 0)"/>
      <use xlink:href="#DejaVuSans-35" transform="translate(1290.914062 0)"/>
      <use xlink:href="#DejaVuSans-29" transform="translate(1354.537109 0)"/>
     </g>
    </g>
   </g>
   <g id="line2d_23">
    <path d="M 74.514545 73.842988 
L 208.487273 50.64 
L 342.46 99.39911 
L 476.432727 101.603706 
L 610.405455 107.053226 
" clip-path="url(#p713f8ce3a2)" style="fill: none; stroke: #1f77b4; stroke-opacity: 0.9; stroke-width: 1.8; stroke-linecap: square"/>
    <defs>
     <path id="m9c0fcdbb5e" d="M 0 3 
C 0.795609 3 1.55874 2.683901 2.12132 2.12132 
C 2.683901 1.55874 3 0.795609 3 0 
C 3 -0.795609 2.683901 -1.55874 2.12132 -2.12132 
C 1.55874 -2.683901 0.795609 -3 0 -3 
C -0.795609 -3 -1.55874 -2.683901 -2.12132 -2.12132 
C -2.683901 -1.55874 -3 -0.795609 -3 0 
C -3 0.795609 -2.683901 1.55874 -2.12132 2.12132 
C -1.55874 2.683901 -0.795609 3 0 3 
z
" style="stroke: #1f77b4; stroke-opacity: 0.9"/>
    </defs>
    <g clip-path="url(#p713f8ce3a2)">
     <use xlink:href="#m9c0fcdbb5e" x="74.514545" y="73.842988" style="fill: #1f77b4; fill-opacity: 0.9; stroke: #1f77b4; stroke-opacity: 0.9"/>
     <use xlink:href="#m9c0fcdbb5e" x="208.487273" y="50.64" style="fill: #1f77b4; fill-opacity: 0.9; stroke: #1f77b4; stroke-opacity: 0.9"/>
     <use xlink:href="#m9c0fcdbb5e" x="342.46" y="99.39911" style="fill: #1f77b4; fill-opacity: 0.9; stroke: #1f77b4; stroke-opacity: 0.9"/>
     <use xlink:href="#m9c0fcdbb5e" x="476.432727" y="101.603706" style="fill: #1f77b4; fill-opacity: 0.9; stroke: #1f77b4; stroke-opacity: 0.9"/>
     <use xlink:href="#m9c0fcdbb5e" x="610.405455" y="107.053226" style="fill: #1f77b4; fill-opacity: 0.9; stroke: #1f77b4; stroke-opacity: 0.9"/>
    </g>
   </g>
   <g id="line2d_24">
    <path d="M 74.514545 104.29691 
L 208.487273 50.64 
L 342.46 115.652146 
L 476.432727 116.519913 
L 610.405455 123.533494 
" clip-path="url(#p713f8ce3a2)" style="fill: none; stroke: #ff7f0e; stroke-opacity: 0.9; stroke-width: 1.8; stroke-linecap: square"/>
    <defs>
     <path id="m3c0ee99697" d="M 0 3 
C 0.795609 3 1.55874 2.683901 2.12132 2.12132 
C 2.683901 1.55874 3 0.795609 3 0 
C 3 -0.795609 2.683901 -1.55874 2.12132 -2.12132 
C 1.55874 -2.683901 0.795609 -3 0 -3 
C -0.795609 -3 -1.55874 -2.683901 -2.12132 -2.12132 
C -2.683901 -1.55874 -3 -0.795609 -3 0 
C -3 0.795609 -2.683901 1.55874 -2.12132 2.12132 
C -1.55874 2.683901 -0.795609 3 0 3 
z
" style="stroke: #ff7f0e; stroke-opacity: 0.9"/>
    </defs>
    <g clip-path="url(#p713f8ce3a2)">
     <use xlink:href="#m3c0ee99697" x="74.514545" y="104.29691" style="fill: #ff7f0e; fill-opacity: 0.9; stroke: #ff7f0e; stroke-opacity: 0.9"/>
     <use xlink:href="#m3c0ee99697" x="208.487273" y="50.64" style="fill: #ff7f0e; fill-opacity: 0.9; stroke: #ff7f0e; stroke-opacity: 0.9"/>
     <use xlink:href="#m3c0ee99697" x="342.46" y="115.652146" style="fill: #ff7f0e; fill-opacity: 0.9; stroke: #ff7f0e; stroke-opacity: 0.9"/>
     <use xlink:href="#m3c0ee99697" x="476.432727" y="116.519913" style="fill: #ff7f0e; fill-opacity: 0.9; stroke: #ff7f0e; stroke-opacity: 0.9"/>
     <use xlink:href="#m3c0ee99697" x="610.405455" y="123.533494" style="fill: #ff7f0e; fill-opacity: 0.9; stroke: #ff7f0e; stroke-opacity: 0.9"/>
    </g>
   </g>
   <g id="line2d_25">
    <path d="M 74.514545 107.197284 
L 208.487273 50.64 
L 342.46 213.170366 
L 476.432727 252.008791 
L 610.405455 271.222051 
" clip-path="url(#p713f8ce3a2)" style="fill: none; stroke: #2ca02c; stroke-opacity: 0.9; stroke-width: 1.8; stroke-linecap: square"/>
    <defs>
     <path id="m85d56fb3a9" d="M 0 3 
C 0.795609 3 1.55874 2.683901 2.12132 2.12132 
C 2.683901 1.55874 3 0.795609 3 0 
C 3 -0.795609 2.683901 -1.55874 2.12132 -2.12132 
C 1.55874 -2.683901 0.795609 -3 0 -3 
C -0.795609 -3 -1.55874 -2.683901 -2.12132 -2.12132 
C -2.683901 -1.55874 -3 -0.795609 -3 0 
C -3 0.795609 -2.683901 1.55874 -2.12132 2.12132 
C -1.55874 2.683901 -0.795609 3 0 3 
z
" style="stroke: #2ca02c; stroke-opacity: 0.9"/>
    </defs>
    <g clip-path="url(#p713f8ce3a2)">
     <use xlink:href="#m85d56fb3a9" x="74.514545" y="107.197284" style="fill: #2ca02c; fill-opacity: 0.9; stroke: #2ca02c; stroke-opacity: 0.9"/>
     <use xlink:href="#m85d56fb3a9" x="208.487273" y="50.64" style="fill: #2ca02c; fill-opacity: 0.9; stroke: #2ca02c; stroke-opacity: 0.9"/>
     <use xlink:href="#m85d56fb3a9" x="342.46" y="213.170366" style="fill: #2ca02c; fill-opacity: 0.9; stroke: #2ca02c; stroke-opacity: 0.9"/>
     <use xlink:href="#m85d56fb3a9" x="476.432727" y="252.008791" style="fill: #2ca02c; fill-opacity: 0.9; stroke: #2ca02c; stroke-opacity: 0.9"/>
     <use xlink:href="#m85d56fb3a9" x="610.405455" y="271.222051" style="fill: #2ca02c; fill-opacity: 0.9; stroke: #2ca02c; stroke-opacity: 0.9"/>
    </g>
   </g>
   <g id="line2d_26">
    <path d="M 74.514545 162.304381 
L 208.487273 194.20849 
L 342.46 177.955453 
L 476.432727 213.475257 
L 610.405455 213.541112 
" clip-path="url(#p713f8ce3a2)" style="fill: none; stroke: #d62728; stroke-opacity: 0.9; stroke-width: 1.8; stroke-linecap: square"/>
    <defs>
     <path id="m8890eef772" d="M 0 3 
C 0.795609 3 1.55874 2.683901 2.12132 2.12132 
C 2.683901 1.55874 3 0.795609 3 0 
C 3 -0.795609 2.683901 -1.55874 2.12132 -2.12132 
C 1.55874 -2.683901 0.795609 -3 0 -3 
C -0.795609 -3 -1.55874 -2.683901 -2.12132 -2.12132 
C -2.683901 -1.55874 -3 -0.795609 -3 0 
C -3 0.795609 -2.683901 1.55874 -2.12132 2.12132 
C -1.55874 2.683901 -0.795609 3 0 3 
z
" style="stroke: #d62728; stroke-opacity: 0.9"/>
    </defs>
    <g clip-path="url(#p713f8ce3a2)">
     <use xlink:href="#m8890eef772" x="74.514545" y="162.304381" style="fill: #d62728; fill-opacity: 0.9; stroke: #d62728; stroke-opacity: 0.9"/>
     <use xlink:href="#m8890eef772" x="208.487273" y="194.20849" style="fill: #d62728; fill-opacity: 0.9; stroke: #d62728; stroke-opacity: 0.9"/>
     <use xlink:href="#m8890eef772" x="342.46" y="177.955453" style="fill: #d62728; fill-opacity: 0.9; stroke: #d62728; stroke-opacity: 0.9"/>
     <use xlink:href="#m8890eef772" x="476.432727" y="213.475257" style="fill: #d62728; fill-opacity: 0.9; stroke: #d62728; stroke-opacity: 0.9"/>
     <use xlink:href="#m8890eef772" x="610.405455" y="213.541112" style="fill: #d62728; fill-opacity: 0.9; stroke: #d62728; stroke-opacity: 0.9"/>
    </g>
   </g>
   <g id="line2d_27">
    <path d="M 74.514545 218.861665 
L 208.487273 337.77698 
L 342.46 289.01787 
L 476.432727 320.374739 
L 610.405455 301.647161 
" clip-path="url(#p713f8ce3a2)" style="fill: none; stroke: #9467bd; stroke-opacity: 0.9; stroke-width: 1.8; stroke-linecap: square"/>
    <defs>
     <path id="m00d5970e11" d="M 0 3 
C 0.795609 3 1.55874 2.683901 2.12132 2.12132 
C 2.683901 1.55874 3 0.795609 3 0 
C 3 -0.795609 2.683901 -1.55874 2.12132 -2.12132 
C 1.55874 -2.683901 0.795609 -3 0 -3 
C -0.795609 -3 -1.55874 -2.683901 -2.12132 -2.12132 
C -2.683901 -1.55874 -3 -0.795609 -3 0 
C -3 0.795609 -2.683901 1.55874 -2.12132 2.12132 
C -1.55874 2.683901 -0.795609 3 0 3 
z
" style="stroke: #9467bd; stroke-opacity: 0.9"/>
    </defs>
    <g clip-path="url(#p713f8ce3a2)">
     <use xlink:href="#m00d5970e11" x="74.514545" y="218.861665" style="fill: #9467bd; fill-opacity: 0.9; stroke: #9467bd; stroke-opacity: 0.9"/>
     <use xlink:href="#m00d5970e11" x="208.487273" y="337.77698" style="fill: #9467bd; fill-opacity: 0.9; stroke: #9467bd; stroke-opacity: 0.9"/>
     <use xlink:href="#m00d5970e11" x="342.46" y="289.01787" style="fill: #9467bd; fill-opacity: 0.9; stroke: #9467bd; stroke-opacity: 0.9"/>
     <use xlink:href="#m00d5970e11" x="476.432727" y="320.374739" style="fill: #9467bd; fill-opacity: 0.9; stroke: #9467bd; stroke-opacity: 0.9"/>
     <use xlink:href="#m00d5970e11" x="610.405455" y="301.647161" style="fill: #9467bd; fill-opacity: 0.9; stroke: #9467bd; stroke-opacity: 0.9"/>
    </g>
   </g>
   <g id="line2d_28">
    <path d="M 74.514545 226.112599 
L 208.487273 337.77698 
L 342.46 261.929476 
L 476.432727 304.215515 
L 610.405455 299.745592 
" clip-path="url(#p713f8ce3a2)" style="fill: none; stroke: #8c564b; stroke-opacity: 0.9; stroke-width: 1.8; stroke-linecap: square"/>
    <defs>
     <path id="m260af1b85c" d="M 0 3 
C 0.795609 3 1.55874 2.683901 2.12132 2.12132 
C 2.683901 1.55874 3 0.795609 3 0 
C 3 -0.795609 2.683901 -1.55874 2.12132 -2.12132 
C 1.55874 -2.683901 0.795609 -3 0 -3 
C -0.795609 -3 -1.55874 -2.683901 -2.12132 -2.12132 
C -2.683901 -1.55874 -3 -0.795609 -3 0 
C -3 0.795609 -2.683901 1.55874 -2.12132 2.12132 
C -1.55874 2.683901 -0.795609 3 0 3 
z
" style="stroke: #8c564b; stroke-opacity: 0.9"/>
    </defs>
    <g clip-path="url(#p713f8ce3a2)">
     <use xlink:href="#m260af1b85c" x="74.514545" y="226.112599" style="fill: #8c564b; fill-opacity: 0.9; stroke: #8c564b; stroke-opacity: 0.9"/>
     <use xlink:href="#m260af1b85c" x="208.487273" y="337.77698" style="fill: #8c564b; fill-opacity: 0.9; stroke: #8c564b; stroke-opacity: 0.9"/>
     <use xlink:href="#m260af1b85c" x="342.46" y="261.929476" style="fill: #8c564b; fill-opacity: 0.9; stroke: #8c564b; stroke-opacity: 0.9"/>
     <use xlink:href="#m260af1b85c" x="476.432727" y="304.215515" style="fill: #8c564b; fill-opacity: 0.9; stroke: #8c564b; stroke-opacity: 0.9"/>
     <use xlink:href="#m260af1b85c" x="610.405455" y="299.745592" style="fill: #8c564b; fill-opacity: 0.9; stroke: #8c564b; stroke-opacity: 0.9"/>
    </g>
   </g>
   <g id="line2d_29">
    <path d="M 74.514545 152.153074 
L 208.487273 50.64 
L 342.46 169.828935 
L 476.432727 314.159653 
L 610.405455 293.407027 
" clip-path="url(#p713f8ce3a2)" style="fill: none; stroke: #e377c2; stroke-opacity: 0.9; stroke-width: 1.8; stroke-linecap: square"/>
    <defs>
     <path id="mad4ee766ab" d="M 0 3 
C 0.795609 3 1.55874 2.683901 2.12132 2.12132 
C 2.683901 1.55874 3 0.795609 3 0 
C 3 -0.795609 2.683901 -1.55874 2.12132 -2.12132 
C 1.55874 -2.683901 0.795609 -3 0 -3 
C -0.795609 -3 -1.55874 -2.683901 -2.12132 -2.12132 
C -2.683901 -1.55874 -3 -0.795609 -3 0 
C -3 0.795609 -2.683901 1.55874 -2.12132 2.12132 
C -1.55874 2.683901 -0.795609 3 0 3 
z
" style="stroke: #e377c2; stroke-opacity: 0.9"/>
    </defs>
    <g clip-path="url(#p713f8ce3a2)">
     <use xlink:href="#mad4ee766ab" x="74.514545" y="152.153074" style="fill: #e377c2; fill-opacity: 0.9; stroke: #e377c2; stroke-opacity: 0.9"/>
     <use xlink:href="#mad4ee766ab" x="208.487273" y="50.64" style="fill: #e377c2; fill-opacity: 0.9; stroke: #e377c2; stroke-opacity: 0.9"/>
     <use xlink:href="#mad4ee766ab" x="342.46" y="169.828935" style="fill: #e377c2; fill-opacity: 0.9; stroke: #e377c2; stroke-opacity: 0.9"/>
     <use xlink:href="#mad4ee766ab" x="476.432727" y="314.159653" style="fill: #e377c2; fill-opacity: 0.9; stroke: #e377c2; stroke-opacity: 0.9"/>
     <use xlink:href="#mad4ee766ab" x="610.405455" y="293.407027" style="fill: #e377c2; fill-opacity: 0.9; stroke: #e377c2; stroke-opacity: 0.9"/>
    </g>
   </g>
   <g id="line2d_30">
    <path d="M 74.514545 57.890934 
L 208.487273 50.64 
L 342.46 202.335008 
L 476.432727 291.785343 
L 610.405455 315.592004 
" clip-path="url(#p713f8ce3a2)" style="fill: none; stroke: #7f7f7f; stroke-opacity: 0.9; stroke-width: 1.8; stroke-linecap: square"/>
    <defs>
     <path id="m21eeb203e8" d="M 0 3 
C 0.795609 3 1.55874 2.683901 2.12132 2.12132 
C 2.683901 1.55874 3 0.795609 3 0 
C 3 -0.795609 2.683901 -1.55874 2.12132 -2.12132 
C 1.55874 -2.683901 0.795609 -3 0 -3 
C -0.795609 -3 -1.55874 -2.683901 -2.12132 -2.12132 
C -2.683901 -1.55874 -3 -0.795609 -3 0 
C -3 0.795609 -2.683901 1.55874 -2.12132 2.12132 
C -1.55874 2.683901 -0.795609 3 0 3 
z
" style="stroke: #7f7f7f; stroke-opacity: 0.9"/>
    </defs>
    <g clip-path="url(#p713f8ce3a2)">
     <use xlink:href="#m21eeb203e8" x="74.514545" y="57.890934" style="fill: #7f7f7f; fill-opacity: 0.9; stroke: #7f7f7f; stroke-opacity: 0.9"/>
     <use xlink:href="#m21eeb203e8" x="208.487273" y="50.64" style="fill: #7f7f7f; fill-opacity: 0.9; stroke: #7f7f7f; stroke-opacity: 0.9"/>
     <use xlink:href="#m21eeb203e8" x="342.46" y="202.335008" style="fill: #7f7f7f; fill-opacity: 0.9; stroke: #7f7f7f; stroke-opacity: 0.9"/>
     <use xlink:href="#m21eeb203e8" x="476.432727" y="291.785343" style="fill: #7f7f7f; fill-opacity: 0.9; stroke: #7f7f7f; stroke-opacity: 0.9"/>
     <use xlink:href="#m21eeb203e8" x="610.405455" y="315.592004" style="fill: #7f7f7f; fill-opacity: 0.9; stroke: #7f7f7f; stroke-opacity: 0.9"/>
    </g>
   </g>
   <g id="line2d_31">
    <path d="M 74.514545 331.976233 
L 208.487273 337.77698 
L 342.46 321.523944 
L 476.432727 331.561894 
L 610.405455 317.493573 
" clip-path="url(#p713f8ce3a2)" style="fill: none; stroke: #bcbd22; stroke-opacity: 0.9; stroke-width: 1.8; stroke-linecap: square"/>
    <defs>
     <path id="m604160ec7d" d="M 0 3 
C 0.795609 3 1.55874 2.683901 2.12132 2.12132 
C 2.683901 1.55874 3 0.795609 3 0 
C 3 -0.795609 2.683901 -1.55874 2.12132 -2.12132 
C 1.55874 -2.683901 0.795609 -3 0 -3 
C -0.795609 -3 -1.55874 -2.683901 -2.12132 -2.12132 
C -2.683901 -1.55874 -3 -0.795609 -3 0 
C -3 0.795609 -2.683901 1.55874 -2.12132 2.12132 
C -1.55874 2.683901 -0.795609 3 0 3 
z
" style="stroke: #bcbd22; stroke-opacity: 0.9"/>
    </defs>
    <g clip-path="url(#p713f8ce3a2)">
     <use xlink:href="#m604160ec7d" x="74.514545" y="331.976233" style="fill: #bcbd22; fill-opacity: 0.9; stroke: #bcbd22; stroke-opacity: 0.9"/>
     <use xlink:href="#m604160ec7d" x="208.487273" y="337.77698" style="fill: #bcbd22; fill-opacity: 0.9; stroke: #bcbd22; stroke-opacity: 0.9"/>
     <use xlink:href="#m604160ec7d" x="342.46" y="321.523944" style="fill: #bcbd22; fill-opacity: 0.9; stroke: #bcbd22; stroke-opacity: 0.9"/>
     <use xlink:href="#m604160ec7d" x="476.432727" y="331.561894" style="fill: #bcbd22; fill-opacity: 0.9; stroke: #bcbd22; stroke-opacity: 0.9"/>
     <use xlink:href="#m604160ec7d" x="610.405455" y="317.493573" style="fill: #bcbd22; fill-opacity: 0.9; stroke: #bcbd22; stroke-opacity: 0.9"/>
    </g>
   </g>
   <g id="line2d_32">
    <path d="M 74.514545 50.64 
L 208.487273 50.64 
L 342.46 50.64 
L 476.432727 50.64 
L 610.405455 50.64 
" clip-path="url(#p713f8ce3a2)" style="fill: none; stroke: #17becf; stroke-opacity: 0.9; stroke-width: 1.8; stroke-linecap: square"/>
    <defs>
     <path id="m8db8eba73c" d="M 0 3 
C 0.795609 3 1.55874 2.683901 2.12132 2.12132 
C 2.683901 1.55874 3 0.795609 3 0 
C 3 -0.795609 2.683901 -1.55874 2.12132 -2.12132 
C 1.55874 -2.683901 0.795609 -3 0 -3 
C -0.795609 -3 -1.55874 -2.683901 -2.12132 -2.12132 
C -2.683901 -1.55874 -3 -0.795609 -3 0 
C -3 0.795609 -2.683901 1.55874 -2.12132 2.12132 
C -1.55874 2.683901 -0.795609 3 0 3 
z
" style="stroke: #17becf; stroke-opacity: 0.9"/>
    </defs>
    <g clip-path="url(#p713f8ce3a2)">
     <use xlink:href="#m8db8eba73c" x="74.514545" y="50.64" style="fill: #17becf; fill-opacity: 0.9; stroke: #17becf; stroke-opacity: 0.9"/>
     <use xlink:href="#m8db8eba73c" x="208.487273" y="50.64" style="fill: #17becf; fill-opacity: 0.9; stroke: #17becf; stroke-opacity: 0.9"/>
     <use xlink:href="#m8db8eba73c" x="342.46" y="50.64" style="fill: #17becf; fill-opacity: 0.9; stroke: #17becf; stroke-opacity: 0.9"/>
     <use xlink:href="#m8db8eba73c" x="476.432727" y="50.64" style="fill: #17becf; fill-opacity: 0.9; stroke: #17becf; stroke-opacity: 0.9"/>
     <use xlink:href="#m8db8eba73c" x="610.405455" y="50.64" style="fill: #17becf; fill-opacity: 0.9; stroke: #17becf; stroke-opacity: 0.9"/>
    </g>
   </g>
   <g id="line2d_33">
    <path d="M 74.514545 50.64 
L 208.487273 50.64 
L 342.46 156.284738 
L 476.432727 319.131722 
L 610.405455 270.588194 
" clip-path="url(#p713f8ce3a2)" style="fill: none; stroke: #1f77b4; stroke-opacity: 0.9; stroke-width: 1.8; stroke-linecap: square"/>
    <g clip-path="url(#p713f8ce3a2)">
     <use xlink:href="#m9c0fcdbb5e" x="74.514545" y="50.64" style="fill: #1f77b4; fill-opacity: 0.9; stroke: #1f77b4; stroke-opacity: 0.9"/>
     <use xlink:href="#m9c0fcdbb5e" x="208.487273" y="50.64" style="fill: #1f77b4; fill-opacity: 0.9; stroke: #1f77b4; stroke-opacity: 0.9"/>
     <use xlink:href="#m9c0fcdbb5e" x="342.46" y="156.284738" style="fill: #1f77b4; fill-opacity: 0.9; stroke: #1f77b4; stroke-opacity: 0.9"/>
     <use xlink:href="#m9c0fcdbb5e" x="476.432727" y="319.131722" style="fill: #1f77b4; fill-opacity: 0.9; stroke: #1f77b4; stroke-opacity: 0.9"/>
     <use xlink:href="#m9c0fcdbb5e" x="610.405455" y="270.588194" style="fill: #1f77b4; fill-opacity: 0.9; stroke: #1f77b4; stroke-opacity: 0.9"/>
    </g>
   </g>
   <g id="line2d_34">
    <path d="M 74.514545 50.64 
L 208.487273 50.64 
L 342.46 50.64 
L 476.432727 50.64 
L 610.405455 50.64 
" clip-path="url(#p713f8ce3a2)" style="fill: none; stroke: #ff7f0e; stroke-opacity: 0.9; stroke-width: 1.8; stroke-linecap: square"/>
    <g clip-path="url(#p713f8ce3a2)">
     <use xlink:href="#m3c0ee99697" x="74.514545" y="50.64" style="fill: #ff7f0e; fill-opacity: 0.9; stroke: #ff7f0e; stroke-opacity: 0.9"/>
     <use xlink:href="#m3c0ee99697" x="208.487273" y="50.64" style="fill: #ff7f0e; fill-opacity: 0.9; stroke: #ff7f0e; stroke-opacity: 0.9"/>
     <use xlink:href="#m3c0ee99697" x="342.46" y="50.64" style="fill: #ff7f0e; fill-opacity: 0.9; stroke: #ff7f0e; stroke-opacity: 0.9"/>
     <use xlink:href="#m3c0ee99697" x="476.432727" y="50.64" style="fill: #ff7f0e; fill-opacity: 0.9; stroke: #ff7f0e; stroke-opacity: 0.9"/>
     <use xlink:href="#m3c0ee99697" x="610.405455" y="50.64" style="fill: #ff7f0e; fill-opacity: 0.9; stroke: #ff7f0e; stroke-opacity: 0.9"/>
    </g>
   </g>
   <g id="patch_3">
    <path d="M 47.72 337.77698 
L 47.72 50.64 
" style="fill: none; stroke: #000000; stroke-width: 0.8; stroke-linejoin: miter; stroke-linecap: square"/>
   </g>
   <g id="patch_4">
    <path d="M 637.2 337.77698 
L 637.2 50.64 
" style="fill: none; stroke: #000000; stroke-width: 0.8; stroke-linejoin: miter; stroke-linecap: square"/>
   </g>
   <g id="patch_5">
    <path d="M 47.72 337.77698 
L 637.2 337.77698 
" style="fill: none; stroke: #000000; stroke-width: 0.8; stroke-linejoin: miter; stroke-linecap: square"/>
   </g>
   <g id="patch_6">
    <path d="M 47.72 50.64 
L 637.2 50.64 
" style="fill: none; stroke: #000000; stroke-width: 0.8; stroke-linejoin: miter; stroke-linecap: square"/>
   </g>
   <g id="text_14">
    <!-- Detection vs injection depth — flat = window reaches the poison -->
    <g transform="translate(147.67 44.64) scale(0.12 -0.12)">
     <defs>
      <path id="DejaVuSans-76" d="M 191 3500 
L 800 3500 
L 1894 563 
L 2988 3500 
L 3597 3500 
L 2284 0 
L 1503 0 
L 191 3500 
z
" transform="scale(0.015625)"/>
      <path id="DejaVuSans-3d" d="M 678 2906 
L 4684 2906 
L 4684 2381 
L 678 2381 
L 678 2906 
z
M 678 1631 
L 4684 1631 
L 4684 1100 
L 678 1100 
L 678 1631 
z
" transform="scale(0.015625)"/>
      <path id="DejaVuSans-77" d="M 269 3500 
L 844 3500 
L 1563 769 
L 2278 3500 
L 2956 3500 
L 3675 769 
L 4391 3500 
L 4966 3500 
L 4050 0 
L 3372 0 
L 2619 2869 
L 1863 0 
L 1184 0 
L 269 3500 
z
" transform="scale(0.015625)"/>
     </defs>
     <use xlink:href="#DejaVuSans-44"/>
     <use xlink:href="#DejaVuSans-65" transform="translate(77.001953 0)"/>
     <use xlink:href="#DejaVuSans-74" transform="translate(138.525391 0)"/>
     <use xlink:href="#DejaVuSans-65" transform="translate(177.734375 0)"/>
     <use xlink:href="#DejaVuSans-63" transform="translate(239.257812 0)"/>
     <use xlink:href="#DejaVuSans-74" transform="translate(294.238281 0)"/>
     <use xlink:href="#DejaVuSans-69" transform="translate(333.447266 0)"/>
     <use xlink:href="#DejaVuSans-6f" transform="translate(361.230469 0)"/>
     <use xlink:href="#DejaVuSans-6e" transform="translate(422.412109 0)"/>
     <use xlink:href="#DejaVuSans-20" transform="translate(485.791016 0)"/>
     <use xlink:href="#DejaVuSans-76" transform="translate(517.578125 0)"/>
     <use xlink:href="#DejaVuSans-73" transform="translate(576.757812 0)"/>
     <use xlink:href="#DejaVuSans-20" transform="translate(628.857422 0)"/>
     <use xlink:href="#DejaVuSans-69" transform="translate(660.644531 0)"/>
     <use xlink:href="#DejaVuSans-6e" transform="translate(688.427734 0)"/>
     <use xlink:href="#DejaVuSans-6a" transform="translate(751.806641 0)"/>
     <use xlink:href="#DejaVuSans-65" transform="translate(779.589844 0)"/>
     <use xlink:href="#DejaVuSans-63" transform="translate(841.113281 0)"/>
     <use xlink:href="#DejaVuSans-74" transform="translate(896.09375 0)"/>
     <use xlink:href="#DejaVuSans-69" transform="translate(935.302734 0)"/>
     <use xlink:href="#DejaVuSans-6f" transform="translate(963.085938 0)"/>
     <use xlink:href="#DejaVuSans-6e" transform="translate(1024.267578 0)"/>
     <use xlink:href="#DejaVuSans-20" transform="translate(1087.646484 0)"/>
     <use xlink:href="#DejaVuSans-64" transform="translate(1119.433594 0)"/>
     <use xlink:href="#DejaVuSans-65" transform="translate(1182.910156 0)"/>
     <use xlink:href="#DejaVuSans-70" transform="translate(1244.433594 0)"/>
     <use xlink:href="#DejaVuSans-74" transform="translate(1307.910156 0)"/>
     <use xlink:href="#DejaVuSans-68" transform="translate(1347.119141 0)"/>
     <use xlink:href="#DejaVuSans-20" transform="translate(1410.498047 0)"/>
     <use xlink:href="#DejaVuSans-2014" transform="translate(1442.285156 0)"/>
     <use xlink:href="#DejaVuSans-20" transform="translate(1542.285156 0)"/>
     <use xlink:href="#DejaVuSans-66" transform="translate(1574.072266 0)"/>
     <use xlink:href="#DejaVuSans-6c" transform="translate(1609.277344 0)"/>
     <use xlink:href="#DejaVuSans-61" transform="translate(1637.060547 0)"/>
     <use xlink:href="#DejaVuSans-74" transform="translate(1698.339844 0)"/>
     <use xlink:href="#DejaVuSans-20" transform="translate(1737.548828 0)"/>
     <use xlink:href="#DejaVuSans-3d" transform="translate(1769.335938 0)"/>
     <use xlink:href="#DejaVuSans-20" transform="translate(1853.125 0)"/>
     <use xlink:href="#DejaVuSans-77" transform="translate(1884.912109 0)"/>
     <use xlink:href="#DejaVuSans-69" transform="translate(1966.699219 0)"/>
     <use xlink:href="#DejaVuSans-6e" transform="translate(1994.482422 0)"/>
     <use xlink:href="#DejaVuSans-64" transform="translate(2057.861328 0)"/>
     <use xlink:href="#DejaVuSans-6f" transform="translate(2121.337891 0)"/>
     <use xlink:href="#DejaVuSans-77" transform="translate(2182.519531 0)"/>
     <use xlink:href="#DejaVuSans-20" transform="translate(2264.306641 0)"/>
     <use xlink:href="#DejaVuSans-72" transform="translate(2296.09375 0)"/>
     <use xlink:href="#DejaVuSans-65" transform="translate(2334.957031 0)"/>
     <use xlink:href="#DejaVuSans-61" transform="translate(2396.480469 0)"/>
     <use xlink:href="#DejaVuSans-63" transform="translate(2457.759766 0)"/>
     <use xlink:href="#DejaVuSans-68" transform="translate(2512.740234 0)"/>
     <use xlink:href="#DejaVuSans-65" transform="translate(2576.119141 0)"/>
     <use xlink:href="#DejaVuSans-73" transform="translate(2637.642578 0)"/>
     <use xlink:href="#DejaVuSans-20" transform="translate(2689.742188 0)"/>
     <use xlink:href="#DejaVuSans-74" transform="translate(2721.529297 0)"/>
     <use xlink:href="#DejaVuSans-68" transform="translate(2760.738281 0)"/>
     <use xlink:href="#DejaVuSans-65" transform="translate(2824.117188 0)"/>
     <use xlink:href="#DejaVuSans-20" transform="translate(2885.640625 0)"/>
     <use xlink:href="#DejaVuSans-70" transform="translate(2917.427734 0)"/>
     <use xlink:href="#DejaVuSans-6f" transform="translate(2980.904297 0)"/>
     <use xlink:href="#DejaVuSans-69" transform="translate(3042.085938 0)"/>
     <use xlink:href="#DejaVuSans-73" transform="translate(3069.869141 0)"/>
     <use xlink:href="#DejaVuSans-6f" transform="translate(3121.96875 0)"/>
     <use xlink:href="#DejaVuSans-6e" transform="translate(3183.150391 0)"/>
    </g>
   </g>
   <g id="legend_1">
    <g id="patch_7">
     <path d="M 52.62 334.27698 
L 189.702969 334.27698 
Q 191.102969 334.27698 191.102969 332.87698 
L 191.102969 210.28073 
Q 191.102969 208.88073 189.702969 208.88073 
L 52.62 208.88073 
Q 51.22 208.88073 51.22 210.28073 
L 51.22 332.87698 
Q 51.22 334.27698 52.62 334.27698 
z
" style="fill: #ffffff; opacity: 0.8; stroke: #cccccc; stroke-linejoin: miter"/>
    </g>
    <g id="line2d_35">
     <path d="M 54.02 214.549636 
L 61.02 214.549636 
L 68.02 214.549636 
" style="fill: none; stroke: #1f77b4; stroke-opacity: 0.9; stroke-width: 1.8; stroke-linecap: square"/>
     <g>
      <use xlink:href="#m9c0fcdbb5e" x="61.02" y="214.549636" style="fill: #1f77b4; fill-opacity: 0.9; stroke: #1f77b4; stroke-opacity: 0.9"/>
     </g>
    </g>
    <g id="text_15">
     <!-- wolf-defender (0.3B) -->
     <g transform="translate(73.62 216.999636) scale(0.07 -0.07)">
      <defs>
       <path id="DejaVuSans-2d" d="M 313 2009 
L 1997 2009 
L 1997 1497 
L 313 1497 
L 313 2009 
z
" transform="scale(0.015625)"/>
       <path id="DejaVuSans-33" d="M 2597 2516 
Q 3050 2419 3304 2112 
Q 3559 1806 3559 1356 
Q 3559 666 3084 287 
Q 2609 -91 1734 -91 
Q 1441 -91 1130 -33 
Q 819 25 488 141 
L 488 750 
Q 750 597 1062 519 
Q 1375 441 1716 441 
Q 2309 441 2620 675 
Q 2931 909 2931 1356 
Q 2931 1769 2642 2001 
Q 2353 2234 1838 2234 
L 1294 2234 
L 1294 2753 
L 1863 2753 
Q 2328 2753 2575 2939 
Q 2822 3125 2822 3475 
Q 2822 3834 2567 4026 
Q 2313 4219 1838 4219 
Q 1578 4219 1281 4162 
Q 984 4106 628 3988 
L 628 4550 
Q 988 4650 1302 4700 
Q 1616 4750 1894 4750 
Q 2613 4750 3031 4423 
Q 3450 4097 3450 3541 
Q 3450 3153 3228 2886 
Q 3006 2619 2597 2516 
z
" transform="scale(0.015625)"/>
       <path id="DejaVuSans-42" d="M 1259 2228 
L 1259 519 
L 2272 519 
Q 2781 519 3026 730 
Q 3272 941 3272 1375 
Q 3272 1813 3026 2020 
Q 2781 2228 2272 2228 
L 1259 2228 
z
M 1259 4147 
L 1259 2741 
L 2194 2741 
Q 2656 2741 2882 2914 
Q 3109 3088 3109 3444 
Q 3109 3797 2882 3972 
Q 2656 4147 2194 4147 
L 1259 4147 
z
M 628 4666 
L 2241 4666 
Q 2963 4666 3353 4366 
Q 3744 4066 3744 3513 
Q 3744 3084 3544 2831 
Q 3344 2578 2956 2516 
Q 3422 2416 3680 2098 
Q 3938 1781 3938 1306 
Q 3938 681 3513 340 
Q 3088 0 2303 0 
L 628 0 
L 628 4666 
z
" transform="scale(0.015625)"/>
      </defs>
      <use xlink:href="#DejaVuSans-77"/>
      <use xlink:href="#DejaVuSans-6f" transform="translate(81.787109 0)"/>
      <use xlink:href="#DejaVuSans-6c" transform="translate(142.96875 0)"/>
      <use xlink:href="#DejaVuSans-66" transform="translate(170.751953 0)"/>
      <use xlink:href="#DejaVuSans-2d" transform="translate(200.457031 0)"/>
      <use xlink:href="#DejaVuSans-64" transform="translate(236.541016 0)"/>
      <use xlink:href="#DejaVuSans-65" transform="translate(300.017578 0)"/>
      <use xlink:href="#DejaVuSans-66" transform="translate(361.541016 0)"/>
      <use xlink:href="#DejaVuSans-65" transform="translate(396.746094 0)"/>
      <use xlink:href="#DejaVuSans-6e" transform="translate(458.269531 0)"/>
      <use xlink:href="#DejaVuSans-64" transform="translate(521.648438 0)"/>
      <use xlink:href="#DejaVuSans-65" transform="translate(585.125 0)"/>
      <use xlink:href="#DejaVuSans-72" transform="translate(646.648438 0)"/>
      <use xlink:href="#DejaVuSans-20" transform="translate(687.761719 0)"/>
      <use xlink:href="#DejaVuSans-28" transform="translate(719.548828 0)"/>
      <use xlink:href="#DejaVuSans-30" transform="translate(758.5625 0)"/>
      <use xlink:href="#DejaVuSans-2e" transform="translate(822.185547 0)"/>
      <use xlink:href="#DejaVuSans-33" transform="translate(853.972656 0)"/>
      <use xlink:href="#DejaVuSans-42" transform="translate(917.595703 0)"/>
      <use xlink:href="#DejaVuSans-29" transform="translate(986.199219 0)"/>
     </g>
    </g>
    <g id="line2d_36">
     <path d="M 54.02 224.824324 
L 61.02 224.824324 
L 68.02 224.824324 
" style="fill: none; stroke: #ff7f0e; stroke-opacity: 0.9; stroke-width: 1.8; stroke-linecap: square"/>
     <g>
      <use xlink:href="#m3c0ee99697" x="61.02" y="224.824324" style="fill: #ff7f0e; fill-opacity: 0.9; stroke: #ff7f0e; stroke-opacity: 0.9"/>
     </g>
    </g>
    <g id="text_16">
     <!-- wolf-defender-small (0.1B) -->
     <g transform="translate(73.62 227.274324) scale(0.07 -0.07)">
      <defs>
       <path id="DejaVuSans-6d" d="M 3328 2828 
Q 3544 3216 3844 3400 
Q 4144 3584 4550 3584 
Q 5097 3584 5394 3201 
Q 5691 2819 5691 2113 
L 5691 0 
L 5113 0 
L 5113 2094 
Q 5113 2597 4934 2840 
Q 4756 3084 4391 3084 
Q 3944 3084 3684 2787 
Q 3425 2491 3425 1978 
L 3425 0 
L 2847 0 
L 2847 2094 
Q 2847 2600 2669 2842 
Q 2491 3084 2119 3084 
Q 1678 3084 1418 2786 
Q 1159 2488 1159 1978 
L 1159 0 
L 581 0 
L 581 3500 
L 1159 3500 
L 1159 2956 
Q 1356 3278 1631 3431 
Q 1906 3584 2284 3584 
Q 2666 3584 2933 3390 
Q 3200 3197 3328 2828 
z
" transform="scale(0.015625)"/>
      </defs>
      <use xlink:href="#DejaVuSans-77"/>
      <use xlink:href="#DejaVuSans-6f" transform="translate(81.787109 0)"/>
      <use xlink:href="#DejaVuSans-6c" transform="translate(142.96875 0)"/>
      <use xlink:href="#DejaVuSans-66" transform="translate(170.751953 0)"/>
      <use xlink:href="#DejaVuSans-2d" transform="translate(200.457031 0)"/>
      <use xlink:href="#DejaVuSans-64" transform="translate(236.541016 0)"/>
      <use xlink:href="#DejaVuSans-65" transform="translate(300.017578 0)"/>
      <use xlink:href="#DejaVuSans-66" transform="translate(361.541016 0)"/>
      <use xlink:href="#DejaVuSans-65" transform="translate(396.746094 0)"/>
      <use xlink:href="#DejaVuSans-6e" transform="translate(458.269531 0)"/>
      <use xlink:href="#DejaVuSans-64" transform="translate(521.648438 0)"/>
      <use xlink:href="#DejaVuSans-65" transform="translate(585.125 0)"/>
      <use xlink:href="#DejaVuSans-72" transform="translate(646.648438 0)"/>
      <use xlink:href="#DejaVuSans-2d" transform="translate(681.386719 0)"/>
      <use xlink:href="#DejaVuSans-73" transform="translate(717.470703 0)"/>
      <use xlink:href="#DejaVuSans-6d" transform="translate(769.570312 0)"/>
      <use xlink:href="#DejaVuSans-61" transform="translate(866.982422 0)"/>
      <use xlink:href="#DejaVuSans-6c" transform="translate(928.261719 0)"/>
      <use xlink:href="#DejaVuSans-6c" transform="translate(956.044922 0)"/>
      <use xlink:href="#DejaVuSans-20" transform="translate(983.828125 0)"/>
      <use xlink:href="#DejaVuSans-28" transform="translate(1015.615234 0)"/>
      <use xlink:href="#DejaVuSans-30" transform="translate(1054.628906 0)"/>
      <use xlink:href="#DejaVuSans-2e" transform="translate(1118.251953 0)"/>
      <use xlink:href="#DejaVuSans-31" transform="translate(1150.039062 0)"/>
      <use xlink:href="#DejaVuSans-42" transform="translate(1213.662109 0)"/>
      <use xlink:href="#DejaVuSans-29" transform="translate(1282.265625 0)"/>
     </g>
    </g>
    <g id="line2d_37">
     <path d="M 54.02 235.099011 
L 61.02 235.099011 
L 68.02 235.099011 
" style="fill: none; stroke: #2ca02c; stroke-opacity: 0.9; stroke-width: 1.8; stroke-linecap: square"/>
     <g>
      <use xlink:href="#m85d56fb3a9" x="61.02" y="235.099011" style="fill: #2ca02c; fill-opacity: 0.9; stroke: #2ca02c; stroke-opacity: 0.9"/>
     </g>
    </g>
    <g id="text_17">
     <!-- sentinel (qualifire, 395M) -->
     <g transform="translate(73.62 237.549011) scale(0.07 -0.07)">
      <defs>
       <path id="DejaVuSans-71" d="M 947 1747 
Q 947 1113 1208 752 
Q 1469 391 1925 391 
Q 2381 391 2643 752 
Q 2906 1113 2906 1747 
Q 2906 2381 2643 2742 
Q 2381 3103 1925 3103 
Q 1469 3103 1208 2742 
Q 947 2381 947 1747 
z
M 2906 525 
Q 2725 213 2448 61 
Q 2172 -91 1784 -91 
Q 1150 -91 751 415 
Q 353 922 353 1747 
Q 353 2572 751 3078 
Q 1150 3584 1784 3584 
Q 2172 3584 2448 3432 
Q 2725 3281 2906 2969 
L 2906 3500 
L 3481 3500 
L 3481 -1331 
L 2906 -1331 
L 2906 525 
z
" transform="scale(0.015625)"/>
       <path id="DejaVuSans-2c" d="M 750 794 
L 1409 794 
L 1409 256 
L 897 -744 
L 494 -744 
L 750 256 
L 750 794 
z
" transform="scale(0.015625)"/>
       <path id="DejaVuSans-39" d="M 703 97 
L 703 672 
Q 941 559 1184 500 
Q 1428 441 1663 441 
Q 2288 441 2617 861 
Q 2947 1281 2994 2138 
Q 2813 1869 2534 1725 
Q 2256 1581 1919 1581 
Q 1219 1581 811 2004 
Q 403 2428 403 3163 
Q 403 3881 828 4315 
Q 1253 4750 1959 4750 
Q 2769 4750 3195 4129 
Q 3622 3509 3622 2328 
Q 3622 1225 3098 567 
Q 2575 -91 1691 -91 
Q 1453 -91 1209 -44 
Q 966 3 703 97 
z
M 1959 2075 
Q 2384 2075 2632 2365 
Q 2881 2656 2881 3163 
Q 2881 3666 2632 3958 
Q 2384 4250 1959 4250 
Q 1534 4250 1286 3958 
Q 1038 3666 1038 3163 
Q 1038 2656 1286 2365 
Q 1534 2075 1959 2075 
z
" transform="scale(0.015625)"/>
       <path id="DejaVuSans-4d" d="M 628 4666 
L 1569 4666 
L 2759 1491 
L 3956 4666 
L 4897 4666 
L 4897 0 
L 4281 0 
L 4281 4097 
L 3078 897 
L 2444 897 
L 1241 4097 
L 1241 0 
L 628 0 
L 628 4666 
z
" transform="scale(0.015625)"/>
      </defs>
      <use xlink:href="#DejaVuSans-73"/>
      <use xlink:href="#DejaVuSans-65" transform="translate(52.099609 0)"/>
      <use xlink:href="#DejaVuSans-6e" transform="translate(113.623047 0)"/>
      <use xlink:href="#DejaVuSans-74" transform="translate(177.001953 0)"/>
      <use xlink:href="#DejaVuSans-69" transform="translate(216.210938 0)"/>
      <use xlink:href="#DejaVuSans-6e" transform="translate(243.994141 0)"/>
      <use xlink:href="#DejaVuSans-65" transform="translate(307.373047 0)"/>
      <use xlink:href="#DejaVuSans-6c" transform="translate(368.896484 0)"/>
      <use xlink:href="#DejaVuSans-20" transform="translate(396.679688 0)"/>
      <use xlink:href="#DejaVuSans-28" transform="translate(428.466797 0)"/>
      <use xlink:href="#DejaVuSans-71" transform="translate(467.480469 0)"/>
      <use xlink:href="#DejaVuSans-75" transform="translate(530.957031 0)"/>
      <use xlink:href="#DejaVuSans-61" transform="translate(594.335938 0)"/>
      <use xlink:href="#DejaVuSans-6c" transform="translate(655.615234 0)"/>
      <use xlink:href="#DejaVuSans-69" transform="translate(683.398438 0)"/>
      <use xlink:href="#DejaVuSans-66" transform="translate(711.181641 0)"/>
      <use xlink:href="#DejaVuSans-69" transform="translate(746.386719 0)"/>
      <use xlink:href="#DejaVuSans-72" transform="translate(774.169922 0)"/>
      <use xlink:href="#DejaVuSans-65" transform="translate(813.033203 0)"/>
      <use xlink:href="#DejaVuSans-2c" transform="translate(874.556641 0)"/>
      <use xlink:href="#DejaVuSans-20" transform="translate(906.34375 0)"/>
      <use xlink:href="#DejaVuSans-33" transform="translate(938.130859 0)"/>
      <use xlink:href="#DejaVuSans-39" transform="translate(1001.753906 0)"/>
      <use xlink:href="#DejaVuSans-35" transform="translate(1065.376953 0)"/>
      <use xlink:href="#DejaVuSans-4d" transform="translate(1129 0)"/>
      <use xlink:href="#DejaVuSans-29" transform="translate(1215.279297 0)"/>
     </g>
    </g>
    <g id="line2d_38">
     <path d="M 54.02 245.373699 
L 61.02 245.373699 
L 68.02 245.373699 
" style="fill: none; stroke: #d62728; stroke-opacity: 0.9; stroke-width: 1.8; stroke-linecap: square"/>
     <g>
      <use xlink:href="#m8890eef772" x="61.02" y="245.373699" style="fill: #d62728; fill-opacity: 0.9; stroke: #d62728; stroke-opacity: 0.9"/>
     </g>
    </g>
    <g id="text_18">
     <!-- meta prompt-guard (86M) -->
     <g transform="translate(73.62 247.823699) scale(0.07 -0.07)">
      <defs>
       <path id="DejaVuSans-67" d="M 2906 1791 
Q 2906 2416 2648 2759 
Q 2391 3103 1925 3103 
Q 1463 3103 1205 2759 
Q 947 2416 947 1791 
Q 947 1169 1205 825 
Q 1463 481 1925 481 
Q 2391 481 2648 825 
Q 2906 1169 2906 1791 
z
M 3481 434 
Q 3481 -459 3084 -895 
Q 2688 -1331 1869 -1331 
Q 1566 -1331 1297 -1286 
Q 1028 -1241 775 -1147 
L 775 -588 
Q 1028 -725 1275 -790 
Q 1522 -856 1778 -856 
Q 2344 -856 2625 -561 
Q 2906 -266 2906 331 
L 2906 616 
Q 2728 306 2450 153 
Q 2172 0 1784 0 
Q 1141 0 747 490 
Q 353 981 353 1791 
Q 353 2603 747 3093 
Q 1141 3584 1784 3584 
Q 2172 3584 2450 3431 
Q 2728 3278 2906 2969 
L 2906 3500 
L 3481 3500 
L 3481 434 
z
" transform="scale(0.015625)"/>
      </defs>
      <use xlink:href="#DejaVuSans-6d"/>
      <use xlink:href="#DejaVuSans-65" transform="translate(97.412109 0)"/>
      <use xlink:href="#DejaVuSans-74" transform="translate(158.935547 0)"/>
      <use xlink:href="#DejaVuSans-61" transform="translate(198.144531 0)"/>
      <use xlink:href="#DejaVuSans-20" transform="translate(259.423828 0)"/>
      <use xlink:href="#DejaVuSans-70" transform="translate(291.210938 0)"/>
      <use xlink:href="#DejaVuSans-72" transform="translate(354.6875 0)"/>
      <use xlink:href="#DejaVuSans-6f" transform="translate(393.550781 0)"/>
      <use xlink:href="#DejaVuSans-6d" transform="translate(454.732422 0)"/>
      <use xlink:href="#DejaVuSans-70" transform="translate(552.144531 0)"/>
      <use xlink:href="#DejaVuSans-74" transform="translate(615.621094 0)"/>
      <use xlink:href="#DejaVuSans-2d" transform="translate(654.830078 0)"/>
      <use xlink:href="#DejaVuSans-67" transform="translate(690.914062 0)"/>
      <use xlink:href="#DejaVuSans-75" transform="translate(754.390625 0)"/>
      <use xlink:href="#DejaVuSans-61" transform="translate(817.769531 0)"/>
      <use xlink:href="#DejaVuSans-72" transform="translate(879.048828 0)"/>
      <use xlink:href="#DejaVuSans-64" transform="translate(918.412109 0)"/>
      <use xlink:href="#DejaVuSans-20" transform="translate(981.888672 0)"/>
      <use xlink:href="#DejaVuSans-28" transform="translate(1013.675781 0)"/>
      <use xlink:href="#DejaVuSans-38" transform="translate(1052.689453 0)"/>
      <use xlink:href="#DejaVuSans-36" transform="translate(1116.3125 0)"/>
      <use xlink:href="#DejaVuSans-4d" transform="translate(1179.935547 0)"/>
      <use xlink:href="#DejaVuSans-29" transform="translate(1266.214844 0)"/>
     </g>
    </g>
    <g id="line2d_39">
     <path d="M 54.02 255.648386 
L 61.02 255.648386 
L 68.02 255.648386 
" style="fill: none; stroke: #9467bd; stroke-opacity: 0.9; stroke-width: 1.8; stroke-linecap: square"/>
     <g>
      <use xlink:href="#m00d5970e11" x="61.02" y="255.648386" style="fill: #9467bd; fill-opacity: 0.9; stroke: #9467bd; stroke-opacity: 0.9"/>
     </g>
    </g>
    <g id="text_19">
     <!-- hlyn judge (70M) -->
     <g transform="translate(73.62 258.098386) scale(0.07 -0.07)">
      <defs>
       <path id="DejaVuSans-79" d="M 2059 -325 
Q 1816 -950 1584 -1140 
Q 1353 -1331 966 -1331 
L 506 -1331 
L 506 -850 
L 844 -850 
Q 1081 -850 1212 -737 
Q 1344 -625 1503 -206 
L 1606 56 
L 191 3500 
L 800 3500 
L 1894 763 
L 2988 3500 
L 3597 3500 
L 2059 -325 
z
" transform="scale(0.015625)"/>
       <path id="DejaVuSans-37" d="M 525 4666 
L 3525 4666 
L 3525 4397 
L 1831 0 
L 1172 0 
L 2766 4134 
L 525 4134 
L 525 4666 
z
" transform="scale(0.015625)"/>
      </defs>
      <use xlink:href="#DejaVuSans-68"/>
      <use xlink:href="#DejaVuSans-6c" transform="translate(63.378906 0)"/>
      <use xlink:href="#DejaVuSans-79" transform="translate(91.162109 0)"/>
      <use xlink:href="#DejaVuSans-6e" transform="translate(150.341797 0)"/>
      <use xlink:href="#DejaVuSans-20" transform="translate(213.720703 0)"/>
      <use xlink:href="#DejaVuSans-6a" transform="translate(245.507812 0)"/>
      <use xlink:href="#DejaVuSans-75" transform="translate(273.291016 0)"/>
      <use xlink:href="#DejaVuSans-64" transform="translate(336.669922 0)"/>
      <use xlink:href="#DejaVuSans-67" transform="translate(400.146484 0)"/>
      <use xlink:href="#DejaVuSans-65" transform="translate(463.623047 0)"/>
      <use xlink:href="#DejaVuSans-20" transform="translate(525.146484 0)"/>
      <use xlink:href="#DejaVuSans-28" transform="translate(556.933594 0)"/>
      <use xlink:href="#DejaVuSans-37" transform="translate(595.947266 0)"/>
      <use xlink:href="#DejaVuSans-30" transform="translate(659.570312 0)"/>
      <use xlink:href="#DejaVuSans-4d" transform="translate(723.193359 0)"/>
      <use xlink:href="#DejaVuSans-29" transform="translate(809.472656 0)"/>
     </g>
    </g>
    <g id="line2d_40">
     <path d="M 54.02 265.923074 
L 61.02 265.923074 
L 68.02 265.923074 
" style="fill: none; stroke: #8c564b; stroke-opacity: 0.9; stroke-width: 1.8; stroke-linecap: square"/>
     <g>
      <use xlink:href="#m260af1b85c" x="61.02" y="265.923074" style="fill: #8c564b; fill-opacity: 0.9; stroke: #8c564b; stroke-opacity: 0.9"/>
     </g>
    </g>
    <g id="text_20">
     <!-- protectai v2 (184M) -->
     <g transform="translate(73.62 268.373074) scale(0.07 -0.07)">
      <use xlink:href="#DejaVuSans-70"/>
      <use xlink:href="#DejaVuSans-72" transform="translate(63.476562 0)"/>
      <use xlink:href="#DejaVuSans-6f" transform="translate(102.339844 0)"/>
      <use xlink:href="#DejaVuSans-74" transform="translate(163.521484 0)"/>
      <use xlink:href="#DejaVuSans-65" transform="translate(202.730469 0)"/>
      <use xlink:href="#DejaVuSans-63" transform="translate(264.253906 0)"/>
      <use xlink:href="#DejaVuSans-74" transform="translate(319.234375 0)"/>
      <use xlink:href="#DejaVuSans-61" transform="translate(358.443359 0)"/>
      <use xlink:href="#DejaVuSans-69" transform="translate(419.722656 0)"/>
      <use xlink:href="#DejaVuSans-20" transform="translate(447.505859 0)"/>
      <use xlink:href="#DejaVuSans-76" transform="translate(479.292969 0)"/>
      <use xlink:href="#DejaVuSans-32" transform="translate(538.472656 0)"/>
      <use xlink:href="#DejaVuSans-20" transform="translate(602.095703 0)"/>
      <use xlink:href="#DejaVuSans-28" transform="translate(633.882812 0)"/>
      <use xlink:href="#DejaVuSans-31" transform="translate(672.896484 0)"/>
      <use xlink:href="#DejaVuSans-38" transform="translate(736.519531 0)"/>
      <use xlink:href="#DejaVuSans-34" transform="translate(800.142578 0)"/>
      <use xlink:href="#DejaVuSans-4d" transform="translate(863.765625 0)"/>
      <use xlink:href="#DejaVuSans-29" transform="translate(950.044922 0)"/>
     </g>
    </g>
    <g id="line2d_41">
     <path d="M 54.02 276.197761 
L 61.02 276.197761 
L 68.02 276.197761 
" style="fill: none; stroke: #e377c2; stroke-opacity: 0.9; stroke-width: 1.8; stroke-linecap: square"/>
     <g>
      <use xlink:href="#mad4ee766ab" x="61.02" y="276.197761" style="fill: #e377c2; fill-opacity: 0.9; stroke: #e377c2; stroke-opacity: 0.9"/>
     </g>
    </g>
    <g id="text_21">
     <!-- meta prompt-guard v2 (86M) -->
     <g transform="translate(73.62 278.647761) scale(0.07 -0.07)">
      <use xlink:href="#DejaVuSans-6d"/>
      <use xlink:href="#DejaVuSans-65" transform="translate(97.412109 0)"/>
      <use xlink:href="#DejaVuSans-74" transform="translate(158.935547 0)"/>
      <use xlink:href="#DejaVuSans-61" transform="translate(198.144531 0)"/>
      <use xlink:href="#DejaVuSans-20" transform="translate(259.423828 0)"/>
      <use xlink:href="#DejaVuSans-70" transform="translate(291.210938 0)"/>
      <use xlink:href="#DejaVuSans-72" transform="translate(354.6875 0)"/>
      <use xlink:href="#DejaVuSans-6f" transform="translate(393.550781 0)"/>
      <use xlink:href="#DejaVuSans-6d" transform="translate(454.732422 0)"/>
      <use xlink:href="#DejaVuSans-70" transform="translate(552.144531 0)"/>
      <use xlink:href="#DejaVuSans-74" transform="translate(615.621094 0)"/>
      <use xlink:href="#DejaVuSans-2d" transform="translate(654.830078 0)"/>
      <use xlink:href="#DejaVuSans-67" transform="translate(690.914062 0)"/>
      <use xlink:href="#DejaVuSans-75" transform="translate(754.390625 0)"/>
      <use xlink:href="#DejaVuSans-61" transform="translate(817.769531 0)"/>
      <use xlink:href="#DejaVuSans-72" transform="translate(879.048828 0)"/>
      <use xlink:href="#DejaVuSans-64" transform="translate(918.412109 0)"/>
      <use xlink:href="#DejaVuSans-20" transform="translate(981.888672 0)"/>
      <use xlink:href="#DejaVuSans-76" transform="translate(1013.675781 0)"/>
      <use xlink:href="#DejaVuSans-32" transform="translate(1072.855469 0)"/>
      <use xlink:href="#DejaVuSans-20" transform="translate(1136.478516 0)"/>
      <use xlink:href="#DejaVuSans-28" transform="translate(1168.265625 0)"/>
      <use xlink:href="#DejaVuSans-38" transform="translate(1207.279297 0)"/>
      <use xlink:href="#DejaVuSans-36" transform="translate(1270.902344 0)"/>
      <use xlink:href="#DejaVuSans-4d" transform="translate(1334.525391 0)"/>
      <use xlink:href="#DejaVuSans-29" transform="translate(1420.804688 0)"/>
     </g>
    </g>
    <g id="line2d_42">
     <path d="M 54.02 286.472449 
L 61.02 286.472449 
L 68.02 286.472449 
" style="fill: none; stroke: #7f7f7f; stroke-opacity: 0.9; stroke-width: 1.8; stroke-linecap: square"/>
     <g>
      <use xlink:href="#m21eeb203e8" x="61.02" y="286.472449" style="fill: #7f7f7f; fill-opacity: 0.9; stroke: #7f7f7f; stroke-opacity: 0.9"/>
     </g>
    </g>
    <g id="text_22">
     <!-- bastion-prompt-protection (70M) -->
     <g transform="translate(73.62 288.922449) scale(0.07 -0.07)">
      <defs>
       <path id="DejaVuSans-62" d="M 3116 1747 
Q 3116 2381 2855 2742 
Q 2594 3103 2138 3103 
Q 1681 3103 1420 2742 
Q 1159 2381 1159 1747 
Q 1159 1113 1420 752 
Q 1681 391 2138 391 
Q 2594 391 2855 752 
Q 3116 1113 3116 1747 
z
M 1159 2969 
Q 1341 3281 1617 3432 
Q 1894 3584 2278 3584 
Q 2916 3584 3314 3078 
Q 3713 2572 3713 1747 
Q 3713 922 3314 415 
Q 2916 -91 2278 -91 
Q 1894 -91 1617 61 
Q 1341 213 1159 525 
L 1159 0 
L 581 0 
L 581 4863 
L 1159 4863 
L 1159 2969 
z
" transform="scale(0.015625)"/>
      </defs>
      <use xlink:href="#DejaVuSans-62"/>
      <use xlink:href="#DejaVuSans-61" transform="translate(63.476562 0)"/>
      <use xlink:href="#DejaVuSans-73" transform="translate(124.755859 0)"/>
      <use xlink:href="#DejaVuSans-74" transform="translate(176.855469 0)"/>
      <use xlink:href="#DejaVuSans-69" transform="translate(216.064453 0)"/>
      <use xlink:href="#DejaVuSans-6f" transform="translate(243.847656 0)"/>
      <use xlink:href="#DejaVuSans-6e" transform="translate(305.029297 0)"/>
      <use xlink:href="#DejaVuSans-2d" transform="translate(368.408203 0)"/>
      <use xlink:href="#DejaVuSans-70" transform="translate(404.492188 0)"/>
      <use xlink:href="#DejaVuSans-72" transform="translate(467.96875 0)"/>
      <use xlink:href="#DejaVuSans-6f" transform="translate(506.832031 0)"/>
      <use xlink:href="#DejaVuSans-6d" transform="translate(568.013672 0)"/>
      <use xlink:href="#DejaVuSans-70" transform="translate(665.425781 0)"/>
      <use xlink:href="#DejaVuSans-74" transform="translate(728.902344 0)"/>
      <use xlink:href="#DejaVuSans-2d" transform="translate(768.111328 0)"/>
      <use xlink:href="#DejaVuSans-70" transform="translate(804.195312 0)"/>
      <use xlink:href="#DejaVuSans-72" transform="translate(867.671875 0)"/>
      <use xlink:href="#DejaVuSans-6f" transform="translate(906.535156 0)"/>
      <use xlink:href="#DejaVuSans-74" transform="translate(967.716797 0)"/>
      <use xlink:href="#DejaVuSans-65" transform="translate(1006.925781 0)"/>
      <use xlink:href="#DejaVuSans-63" transform="translate(1068.449219 0)"/>
      <use xlink:href="#DejaVuSans-74" transform="translate(1123.429688 0)"/>
      <use xlink:href="#DejaVuSans-69" transform="translate(1162.638672 0)"/>
      <use xlink:href="#DejaVuSans-6f" transform="translate(1190.421875 0)"/>
      <use xlink:href="#DejaVuSans-6e" transform="translate(1251.603516 0)"/>
      <use xlink:href="#DejaVuSans-20" transform="translate(1314.982422 0)"/>
      <use xlink:href="#DejaVuSans-28" transform="translate(1346.769531 0)"/>
      <use xlink:href="#DejaVuSans-37" transform="translate(1385.783203 0)"/>
      <use xlink:href="#DejaVuSans-30" transform="translate(1449.40625 0)"/>
      <use xlink:href="#DejaVuSans-4d" transform="translate(1513.029297 0)"/>
      <use xlink:href="#DejaVuSans-29" transform="translate(1599.308594 0)"/>
     </g>
    </g>
    <g id="line2d_43">
     <path d="M 54.02 296.747136 
L 61.02 296.747136 
L 68.02 296.747136 
" style="fill: none; stroke: #bcbd22; stroke-opacity: 0.9; stroke-width: 1.8; stroke-linecap: square"/>
     <g>
      <use xlink:href="#m604160ec7d" x="61.02" y="296.747136" style="fill: #bcbd22; fill-opacity: 0.9; stroke: #bcbd22; stroke-opacity: 0.9"/>
     </g>
    </g>
    <g id="text_23">
     <!-- meta prompt-guard v2 (22M) -->
     <g transform="translate(73.62 299.197136) scale(0.07 -0.07)">
      <use xlink:href="#DejaVuSans-6d"/>
      <use xlink:href="#DejaVuSans-65" transform="translate(97.412109 0)"/>
      <use xlink:href="#DejaVuSans-74" transform="translate(158.935547 0)"/>
      <use xlink:href="#DejaVuSans-61" transform="translate(198.144531 0)"/>
      <use xlink:href="#DejaVuSans-20" transform="translate(259.423828 0)"/>
      <use xlink:href="#DejaVuSans-70" transform="translate(291.210938 0)"/>
      <use xlink:href="#DejaVuSans-72" transform="translate(354.6875 0)"/>
      <use xlink:href="#DejaVuSans-6f" transform="translate(393.550781 0)"/>
      <use xlink:href="#DejaVuSans-6d" transform="translate(454.732422 0)"/>
      <use xlink:href="#DejaVuSans-70" transform="translate(552.144531 0)"/>
      <use xlink:href="#DejaVuSans-74" transform="translate(615.621094 0)"/>
      <use xlink:href="#DejaVuSans-2d" transform="translate(654.830078 0)"/>
      <use xlink:href="#DejaVuSans-67" transform="translate(690.914062 0)"/>
      <use xlink:href="#DejaVuSans-75" transform="translate(754.390625 0)"/>
      <use xlink:href="#DejaVuSans-61" transform="translate(817.769531 0)"/>
      <use xlink:href="#DejaVuSans-72" transform="translate(879.048828 0)"/>
      <use xlink:href="#DejaVuSans-64" transform="translate(918.412109 0)"/>
      <use xlink:href="#DejaVuSans-20" transform="translate(981.888672 0)"/>
      <use xlink:href="#DejaVuSans-76" transform="translate(1013.675781 0)"/>
      <use xlink:href="#DejaVuSans-32" transform="translate(1072.855469 0)"/>
      <use xlink:href="#DejaVuSans-20" transform="translate(1136.478516 0)"/>
      <use xlink:href="#DejaVuSans-28" transform="translate(1168.265625 0)"/>
      <use xlink:href="#DejaVuSans-32" transform="translate(1207.279297 0)"/>
      <use xlink:href="#DejaVuSans-32" transform="translate(1270.902344 0)"/>
      <use xlink:href="#DejaVuSans-4d" transform="translate(1334.525391 0)"/>
      <use xlink:href="#DejaVuSans-29" transform="translate(1420.804688 0)"/>
     </g>
    </g>
    <g id="line2d_44">
     <path d="M 54.02 307.021824 
L 61.02 307.021824 
L 68.02 307.021824 
" style="fill: none; stroke: #17becf; stroke-opacity: 0.9; stroke-width: 1.8; stroke-linecap: square"/>
     <g>
      <use xlink:href="#m8db8eba73c" x="61.02" y="307.021824" style="fill: #17becf; fill-opacity: 0.9; stroke: #17becf; stroke-opacity: 0.9"/>
     </g>
    </g>
    <g id="text_24">
     <!-- deepset injection (184M) -->
     <g transform="translate(73.62 309.471824) scale(0.07 -0.07)">
      <use xlink:href="#DejaVuSans-64"/>
      <use xlink:href="#DejaVuSans-65" transform="translate(63.476562 0)"/>
      <use xlink:href="#DejaVuSans-65" transform="translate(125 0)"/>
      <use xlink:href="#DejaVuSans-70" transform="translate(186.523438 0)"/>
      <use xlink:href="#DejaVuSans-73" transform="translate(250 0)"/>
      <use xlink:href="#DejaVuSans-65" transform="translate(302.099609 0)"/>
      <use xlink:href="#DejaVuSans-74" transform="translate(363.623047 0)"/>
      <use xlink:href="#DejaVuSans-20" transform="translate(402.832031 0)"/>
      <use xlink:href="#DejaVuSans-69" transform="translate(434.619141 0)"/>
      <use xlink:href="#DejaVuSans-6e" transform="translate(462.402344 0)"/>
      <use xlink:href="#DejaVuSans-6a" transform="translate(525.78125 0)"/>
      <use xlink:href="#DejaVuSans-65" transform="translate(553.564453 0)"/>
      <use xlink:href="#DejaVuSans-63" transform="translate(615.087891 0)"/>
      <use xlink:href="#DejaVuSans-74" transform="translate(670.068359 0)"/>
      <use xlink:href="#DejaVuSans-69" transform="translate(709.277344 0)"/>
      <use xlink:href="#DejaVuSans-6f" transform="translate(737.060547 0)"/>
      <use xlink:href="#DejaVuSans-6e" transform="translate(798.242188 0)"/>
      <use xlink:href="#DejaVuSans-20" transform="translate(861.621094 0)"/>
      <use xlink:href="#DejaVuSans-28" transform="translate(893.408203 0)"/>
      <use xlink:href="#DejaVuSans-31" transform="translate(932.421875 0)"/>
      <use xlink:href="#DejaVuSans-38" transform="translate(996.044922 0)"/>
      <use xlink:href="#DejaVuSans-34" transform="translate(1059.667969 0)"/>
      <use xlink:href="#DejaVuSans-4d" transform="translate(1123.291016 0)"/>
      <use xlink:href="#DejaVuSans-29" transform="translate(1209.570312 0)"/>
     </g>
    </g>
    <g id="line2d_45">
     <path d="M 54.02 317.296511 
L 61.02 317.296511 
L 68.02 317.296511 
" style="fill: none; stroke: #1f77b4; stroke-opacity: 0.9; stroke-width: 1.8; stroke-linecap: square"/>
     <g>
      <use xlink:href="#m9c0fcdbb5e" x="61.02" y="317.296511" style="fill: #1f77b4; fill-opacity: 0.9; stroke: #1f77b4; stroke-opacity: 0.9"/>
     </g>
    </g>
    <g id="text_25">
     <!-- proventra mdeberta (280M) -->
     <g transform="translate(73.62 319.746511) scale(0.07 -0.07)">
      <use xlink:href="#DejaVuSans-70"/>
      <use xlink:href="#DejaVuSans-72" transform="translate(63.476562 0)"/>
      <use xlink:href="#DejaVuSans-6f" transform="translate(102.339844 0)"/>
      <use xlink:href="#DejaVuSans-76" transform="translate(163.521484 0)"/>
      <use xlink:href="#DejaVuSans-65" transform="translate(222.701172 0)"/>
      <use xlink:href="#DejaVuSans-6e" transform="translate(284.224609 0)"/>
      <use xlink:href="#DejaVuSans-74" transform="translate(347.603516 0)"/>
      <use xlink:href="#DejaVuSans-72" transform="translate(386.8125 0)"/>
      <use xlink:href="#DejaVuSans-61" transform="translate(427.925781 0)"/>
      <use xlink:href="#DejaVuSans-20" transform="translate(489.205078 0)"/>
      <use xlink:href="#DejaVuSans-6d" transform="translate(520.992188 0)"/>
      <use xlink:href="#DejaVuSans-64" transform="translate(618.404297 0)"/>
      <use xlink:href="#DejaVuSans-65" transform="translate(681.880859 0)"/>
      <use xlink:href="#DejaVuSans-62" transform="translate(743.404297 0)"/>
      <use xlink:href="#DejaVuSans-65" transform="translate(806.880859 0)"/>
      <use xlink:href="#DejaVuSans-72" transform="translate(868.404297 0)"/>
      <use xlink:href="#DejaVuSans-74" transform="translate(909.517578 0)"/>
      <use xlink:href="#DejaVuSans-61" transform="translate(948.726562 0)"/>
      <use xlink:href="#DejaVuSans-20" transform="translate(1010.005859 0)"/>
      <use xlink:href="#DejaVuSans-28" transform="translate(1041.792969 0)"/>
      <use xlink:href="#DejaVuSans-32" transform="translate(1080.806641 0)"/>
      <use xlink:href="#DejaVuSans-38" transform="translate(1144.429688 0)"/>
      <use xlink:href="#DejaVuSans-30" transform="translate(1208.052734 0)"/>
      <use xlink:href="#DejaVuSans-4d" transform="translate(1271.675781 0)"/>
      <use xlink:href="#DejaVuSans-29" transform="translate(1357.955078 0)"/>
     </g>
    </g>
    <g id="line2d_46">
     <path d="M 54.02 327.571199 
L 61.02 327.571199 
L 68.02 327.571199 
" style="fill: none; stroke: #ff7f0e; stroke-opacity: 0.9; stroke-width: 1.8; stroke-linecap: square"/>
     <g>
      <use xlink:href="#m3c0ee99697" x="61.02" y="327.571199" style="fill: #ff7f0e; fill-opacity: 0.9; stroke: #ff7f0e; stroke-opacity: 0.9"/>
     </g>
    </g>
    <g id="text_26">
     <!-- fmops distilbert (67M) -->
     <g transform="translate(73.62 330.021199) scale(0.07 -0.07)">
      <use xlink:href="#DejaVuSans-66"/>
      <use xlink:href="#DejaVuSans-6d" transform="translate(35.205078 0)"/>
      <use xlink:href="#DejaVuSans-6f" transform="translate(132.617188 0)"/>
      <use xlink:href="#DejaVuSans-70" transform="translate(193.798828 0)"/>
      <use xlink:href="#DejaVuSans-73" transform="translate(257.275391 0)"/>
      <use xlink:href="#DejaVuSans-20" transform="translate(309.375 0)"/>
      <use xlink:href="#DejaVuSans-64" transform="translate(341.162109 0)"/>
      <use xlink:href="#DejaVuSans-69" transform="translate(404.638672 0)"/>
      <use xlink:href="#DejaVuSans-73" transform="translate(432.421875 0)"/>
      <use xlink:href="#DejaVuSans-74" transform="translate(484.521484 0)"/>
      <use xlink:href="#DejaVuSans-69" transform="translate(523.730469 0)"/>
      <use xlink:href="#DejaVuSans-6c" transform="translate(551.513672 0)"/>
      <use xlink:href="#DejaVuSans-62" transform="translate(579.296875 0)"/>
      <use xlink:href="#DejaVuSans-65" transform="translate(642.773438 0)"/>
      <use xlink:href="#DejaVuSans-72" transform="translate(704.296875 0)"/>
      <use xlink:href="#DejaVuSans-74" transform="translate(745.410156 0)"/>
      <use xlink:href="#DejaVuSans-20" transform="translate(784.619141 0)"/>
      <use xlink:href="#DejaVuSans-28" transform="translate(816.40625 0)"/>
      <use xlink:href="#DejaVuSans-36" transform="translate(855.419922 0)"/>
      <use xlink:href="#DejaVuSans-37" transform="translate(919.042969 0)"/>
      <use xlink:href="#DejaVuSans-4d" transform="translate(982.666016 0)"/>
      <use xlink:href="#DejaVuSans-29" transform="translate(1068.945312 0)"/>
     </g>
    </g>
   </g>
  </g>
  <g id="text_27">
   <!-- Cross-step agent injection — multi-turn detection -->
   <g transform="translate(163.420547 17.797969) scale(0.13 -0.13)">
    <defs>
     <path id="DejaVuSans-43" d="M 4122 4306 
L 4122 3641 
Q 3803 3938 3442 4084 
Q 3081 4231 2675 4231 
Q 1875 4231 1450 3742 
Q 1025 3253 1025 2328 
Q 1025 1406 1450 917 
Q 1875 428 2675 428 
Q 3081 428 3442 575 
Q 3803 722 4122 1019 
L 4122 359 
Q 3791 134 3420 21 
Q 3050 -91 2638 -91 
Q 1578 -91 968 557 
Q 359 1206 359 2328 
Q 359 3453 968 4101 
Q 1578 4750 2638 4750 
Q 3056 4750 3426 4639 
Q 3797 4528 4122 4306 
z
" transform="scale(0.015625)"/>
    </defs>
    <use xlink:href="#DejaVuSans-43"/>
    <use xlink:href="#DejaVuSans-72" transform="translate(69.824219 0)"/>
    <use xlink:href="#DejaVuSans-6f" transform="translate(108.6875 0)"/>
    <use xlink:href="#DejaVuSans-73" transform="translate(169.869141 0)"/>
    <use xlink:href="#DejaVuSans-73" transform="translate(221.96875 0)"/>
    <use xlink:href="#DejaVuSans-2d" transform="translate(274.068359 0)"/>
    <use xlink:href="#DejaVuSans-73" transform="translate(310.152344 0)"/>
    <use xlink:href="#DejaVuSans-74" transform="translate(362.251953 0)"/>
    <use xlink:href="#DejaVuSans-65" transform="translate(401.460938 0)"/>
    <use xlink:href="#DejaVuSans-70" transform="translate(462.984375 0)"/>
    <use xlink:href="#DejaVuSans-20" transform="translate(526.460938 0)"/>
    <use xlink:href="#DejaVuSans-61" transform="translate(558.248047 0)"/>
    <use xlink:href="#DejaVuSans-67" transform="translate(619.527344 0)"/>
    <use xlink:href="#DejaVuSans-65" transform="translate(683.003906 0)"/>
    <use xlink:href="#DejaVuSans-6e" transform="translate(744.527344 0)"/>
    <use xlink:href="#DejaVuSans-74" transform="translate(807.90625 0)"/>
    <use xlink:href="#DejaVuSans-20" transform="translate(847.115234 0)"/>
    <use xlink:href="#DejaVuSans-69" transform="translate(878.902344 0)"/>
    <use xlink:href="#DejaVuSans-6e" transform="translate(906.685547 0)"/>
    <use xlink:href="#DejaVuSans-6a" transform="translate(970.064453 0)"/>
    <use xlink:href="#DejaVuSans-65" transform="translate(997.847656 0)"/>
    <use xlink:href="#DejaVuSans-63" transform="translate(1059.371094 0)"/>
    <use xlink:href="#DejaVuSans-74" transform="translate(1114.351562 0)"/>
    <use xlink:href="#DejaVuSans-69" transform="translate(1153.560547 0)"/>
    <use xlink:href="#DejaVuSans-6f" transform="translate(1181.34375 0)"/>
    <use xlink:href="#DejaVuSans-6e" transform="translate(1242.525391 0)"/>
    <use xlink:href="#DejaVuSans-20" transform="translate(1305.904297 0)"/>
    <use xlink:href="#DejaVuSans-2014" transform="translate(1337.691406 0)"/>
    <use xlink:href="#DejaVuSans-20" transform="translate(1437.691406 0)"/>
    <use xlink:href="#DejaVuSans-6d" transform="translate(1469.478516 0)"/>
    <use xlink:href="#DejaVuSans-75" transform="translate(1566.890625 0)"/>
    <use xlink:href="#DejaVuSans-6c" transform="translate(1630.269531 0)"/>
    <use xlink:href="#DejaVuSans-74" transform="translate(1658.052734 0)"/>
    <use xlink:href="#DejaVuSans-69" transform="translate(1697.261719 0)"/>
    <use xlink:href="#DejaVuSans-2d" transform="translate(1725.044922 0)"/>
    <use xlink:href="#DejaVuSans-74" transform="translate(1761.128906 0)"/>
    <use xlink:href="#DejaVuSans-75" transform="translate(1800.337891 0)"/>
    <use xlink:href="#DejaVuSans-72" transform="translate(1863.716797 0)"/>
    <use xlink:href="#DejaVuSans-6e" transform="translate(1903.080078 0)"/>
    <use xlink:href="#DejaVuSans-20" transform="translate(1966.458984 0)"/>
    <use xlink:href="#DejaVuSans-64" transform="translate(1998.246094 0)"/>
    <use xlink:href="#DejaVuSans-65" transform="translate(2061.722656 0)"/>
    <use xlink:href="#DejaVuSans-74" transform="translate(2123.246094 0)"/>
    <use xlink:href="#DejaVuSans-65" transform="translate(2162.455078 0)"/>
    <use xlink:href="#DejaVuSans-63" transform="translate(2223.978516 0)"/>
    <use xlink:href="#DejaVuSans-74" transform="translate(2278.958984 0)"/>
    <use xlink:href="#DejaVuSans-69" transform="translate(2318.167969 0)"/>
    <use xlink:href="#DejaVuSans-6f" transform="translate(2345.951172 0)"/>
    <use xlink:href="#DejaVuSans-6e" transform="translate(2407.132812 0)"/>
   </g>
  </g>
 </g>
 <defs>
  <clipPath id="p713f8ce3a2">
   <rect x="47.72" y="50.64" width="589.48" height="287.13698"/>
  </clipPath>
 </defs>
</svg>
