<?xml version="1.0" encoding="utf-8" standalone="no"?>
<!DOCTYPE svg PUBLIC "-//W3C//DTD SVG 1.1//EN"
  "http://www.w3.org/Graphics/SVG/1.1/DTD/svg11.dtd">
<svg xmlns:xlink="http://www.w3.org/1999/xlink" width="504pt" height="360pt" viewBox="0 0 504 360" xmlns="http://www.w3.org/2000/svg" version="1.1">
 <metadata>
  <rdf:RDF xmlns:dc="http://purl.org/dc/elements/1.1/" xmlns:cc="http://creativecommons.org/ns#" xmlns:rdf="http://www.w3.org/1999/02/22-rdf-syntax-ns#">
   <cc:Work>
    <dc:type rdf:resource="http://purl.org/dc/dcmitype/StillImage"/>
    <dc:date>2026-07-02T13:23:44.376990</dc:date>
    <dc:format>image/svg+xml</dc:format>
    <dc:creator>
     <cc:Agent>
      <dc:title>Matplotlib v3.9.4, https://matplotlib.org/</dc:title>
     </cc:Agent>
    </dc:creator>
   </cc:Work>
  </rdf:RDF>
 </metadata>
 <defs>
  <style type="text/css">*{stroke-linejoin: round; stroke-linecap: butt}</style>
 </defs>
 <g id="figure_1">
  <g id="patch_1">
   <path d="M 0 360 
L 504 360 
L 504 0 
L 0 0 
z
" style="fill: #ffffff"/>
  </g>
  <g id="axes_1">
   <g id="patch_2">
    <path d="M 47.72 318.04 
L 485.28 318.04 
L 485.28 26.88 
L 47.72 26.88 
z
" style="fill: #ffffff"/>
   </g>
   <g id="matplotlib.axis_1">
    <g id="xtick_1">
     <g id="line2d_1">
      <path d="M 47.72 318.04 
L 47.72 26.88 
" clip-path="url(#pe2d1b80121)" style="fill: none; stroke: #b0b0b0; stroke-opacity: 0.25; stroke-width: 0.8; stroke-linecap: square"/>
     </g>
     <g id="line2d_2">
      <defs>
       <path id="m10ea35a49a" d="M 0 0 
L 0 3.5 
" style="stroke: #000000; stroke-width: 0.8"/>
      </defs>
      <g>
       <use xlink:href="#m10ea35a49a" x="47.72" y="318.04" style="stroke: #000000; stroke-width: 0.8"/>
      </g>
     </g>
     <g id="text_1">
      <!-- 0.0 -->
      <g transform="translate(39.768438 332.638438) scale(0.1 -0.1)">
       <defs>
        <path id="DejaVuSans-30" d="M 2034 4250 
Q 1547 4250 1301 3770 
Q 1056 3291 1056 2328 
Q 1056 1369 1301 889 
Q 1547 409 2034 409 
Q 2525 409 2770 889 
Q 3016 1369 3016 2328 
Q 3016 3291 2770 3770 
Q 2525 4250 2034 4250 
z
M 2034 4750 
Q 2819 4750 3233 4129 
Q 3647 3509 3647 2328 
Q 3647 1150 3233 529 
Q 2819 -91 2034 -91 
Q 1250 -91 836 529 
Q 422 1150 422 2328 
Q 422 3509 836 4129 
Q 1250 4750 2034 4750 
z
" transform="scale(0.015625)"/>
        <path id="DejaVuSans-2e" d="M 684 794 
L 1344 794 
L 1344 0 
L 684 0 
L 684 794 
z
" transform="scale(0.015625)"/>
       </defs>
       <use xlink:href="#DejaVuSans-30"/>
       <use xlink:href="#DejaVuSans-2e" x="63.623047"/>
       <use xlink:href="#DejaVuSans-30" x="95.410156"/>
      </g>
     </g>
    </g>
    <g id="xtick_2">
     <g id="line2d_3">
      <path d="M 135.232 318.04 
L 135.232 26.88 
" clip-path="url(#pe2d1b80121)" style="fill: none; stroke: #b0b0b0; stroke-opacity: 0.25; stroke-width: 0.8; stroke-linecap: square"/>
     </g>
     <g id="line2d_4">
      <g>
       <use xlink:href="#m10ea35a49a" x="135.232" y="318.04" style="stroke: #000000; stroke-width: 0.8"/>
      </g>
     </g>
     <g id="text_2">
      <!-- 0.2 -->
      <g transform="translate(127.280438 332.638438) scale(0.1 -0.1)">
       <defs>
        <path id="DejaVuSans-32" d="M 1228 531 
L 3431 531 
L 3431 0 
L 469 0 
L 469 531 
Q 828 903 1448 1529 
Q 2069 2156 2228 2338 
Q 2531 2678 2651 2914 
Q 2772 3150 2772 3378 
Q 2772 3750 2511 3984 
Q 2250 4219 1831 4219 
Q 1534 4219 1204 4116 
Q 875 4013 500 3803 
L 500 4441 
Q 881 4594 1212 4672 
Q 1544 4750 1819 4750 
Q 2544 4750 2975 4387 
Q 3406 4025 3406 3419 
Q 3406 3131 3298 2873 
Q 3191 2616 2906 2266 
Q 2828 2175 2409 1742 
Q 1991 1309 1228 531 
z
" transform="scale(0.015625)"/>
       </defs>
       <use xlink:href="#DejaVuSans-30"/>
       <use xlink:href="#DejaVuSans-2e" x="63.623047"/>
       <use xlink:href="#DejaVuSans-32" x="95.410156"/>
      </g>
     </g>
    </g>
    <g id="xtick_3">
     <g id="line2d_5">
      <path d="M 222.744 318.04 
L 222.744 26.88 
" clip-path="url(#pe2d1b80121)" style="fill: none; stroke: #b0b0b0; stroke-opacity: 0.25; stroke-width: 0.8; stroke-linecap: square"/>
     </g>
     <g id="line2d_6">
      <g>
       <use xlink:href="#m10ea35a49a" x="222.744" y="318.04" style="stroke: #000000; stroke-width: 0.8"/>
      </g>
     </g>
     <g id="text_3">
      <!-- 0.4 -->
      <g transform="translate(214.792438 332.638438) scale(0.1 -0.1)">
       <defs>
        <path id="DejaVuSans-34" d="M 2419 4116 
L 825 1625 
L 2419 1625 
L 2419 4116 
z
M 2253 4666 
L 3047 4666 
L 3047 1625 
L 3713 1625 
L 3713 1100 
L 3047 1100 
L 3047 0 
L 2419 0 
L 2419 1100 
L 313 1100 
L 313 1709 
L 2253 4666 
z
" transform="scale(0.015625)"/>
       </defs>
       <use xlink:href="#DejaVuSans-30"/>
       <use xlink:href="#DejaVuSans-2e" x="63.623047"/>
       <use xlink:href="#DejaVuSans-34" x="95.410156"/>
      </g>
     </g>
    </g>
    <g id="xtick_4">
     <g id="line2d_7">
      <path d="M 310.256 318.04 
L 310.256 26.88 
" clip-path="url(#pe2d1b80121)" style="fill: none; stroke: #b0b0b0; stroke-opacity: 0.25; stroke-width: 0.8; stroke-linecap: square"/>
     </g>
     <g id="line2d_8">
      <g>
       <use xlink:href="#m10ea35a49a" x="310.256" y="318.04" style="stroke: #000000; stroke-width: 0.8"/>
      </g>
     </g>
     <g id="text_4">
      <!-- 0.6 -->
      <g transform="translate(302.304438 332.638438) scale(0.1 -0.1)">
       <defs>
        <path id="DejaVuSans-36" d="M 2113 2584 
Q 1688 2584 1439 2293 
Q 1191 2003 1191 1497 
Q 1191 994 1439 701 
Q 1688 409 2113 409 
Q 2538 409 2786 701 
Q 3034 994 3034 1497 
Q 3034 2003 2786 2293 
Q 2538 2584 2113 2584 
z
M 3366 4563 
L 3366 3988 
Q 3128 4100 2886 4159 
Q 2644 4219 2406 4219 
Q 1781 4219 1451 3797 
Q 1122 3375 1075 2522 
Q 1259 2794 1537 2939 
Q 1816 3084 2150 3084 
Q 2853 3084 3261 2657 
Q 3669 2231 3669 1497 
Q 3669 778 3244 343 
Q 2819 -91 2113 -91 
Q 1303 -91 875 529 
Q 447 1150 447 2328 
Q 447 3434 972 4092 
Q 1497 4750 2381 4750 
Q 2619 4750 2861 4703 
Q 3103 4656 3366 4563 
z
" transform="scale(0.015625)"/>
       </defs>
       <use xlink:href="#DejaVuSans-30"/>
       <use xlink:href="#DejaVuSans-2e" x="63.623047"/>
       <use xlink:href="#DejaVuSans-36" x="95.410156"/>
      </g>
     </g>
    </g>
    <g id="xtick_5">
     <g id="line2d_9">
      <path d="M 397.768 318.04 
L 397.768 26.88 
" clip-path="url(#pe2d1b80121)" style="fill: none; stroke: #b0b0b0; stroke-opacity: 0.25; stroke-width: 0.8; stroke-linecap: square"/>
     </g>
     <g id="line2d_10">
      <g>
       <use xlink:href="#m10ea35a49a" x="397.768" y="318.04" style="stroke: #000000; stroke-width: 0.8"/>
      </g>
     </g>
     <g id="text_5">
      <!-- 0.8 -->
      <g transform="translate(389.816438 332.638438) scale(0.1 -0.1)">
       <defs>
        <path id="DejaVuSans-38" d="M 2034 2216 
Q 1584 2216 1326 1975 
Q 1069 1734 1069 1313 
Q 1069 891 1326 650 
Q 1584 409 2034 409 
Q 2484 409 2743 651 
Q 3003 894 3003 1313 
Q 3003 1734 2745 1975 
Q 2488 2216 2034 2216 
z
M 1403 2484 
Q 997 2584 770 2862 
Q 544 3141 544 3541 
Q 544 4100 942 4425 
Q 1341 4750 2034 4750 
Q 2731 4750 3128 4425 
Q 3525 4100 3525 3541 
Q 3525 3141 3298 2862 
Q 3072 2584 2669 2484 
Q 3125 2378 3379 2068 
Q 3634 1759 3634 1313 
Q 3634 634 3220 271 
Q 2806 -91 2034 -91 
Q 1263 -91 848 271 
Q 434 634 434 1313 
Q 434 1759 690 2068 
Q 947 2378 1403 2484 
z
M 1172 3481 
Q 1172 3119 1398 2916 
Q 1625 2713 2034 2713 
Q 2441 2713 2670 2916 
Q 2900 3119 2900 3481 
Q 2900 3844 2670 4047 
Q 2441 4250 2034 4250 
Q 1625 4250 1398 4047 
Q 1172 3844 1172 3481 
z
" transform="scale(0.015625)"/>
       </defs>
       <use xlink:href="#DejaVuSans-30"/>
       <use xlink:href="#DejaVuSans-2e" x="63.623047"/>
       <use xlink:href="#DejaVuSans-38" x="95.410156"/>
      </g>
     </g>
    </g>
    <g id="xtick_6">
     <g id="line2d_11">
      <path d="M 485.28 318.04 
L 485.28 26.88 
" clip-path="url(#pe2d1b80121)" style="fill: none; stroke: #b0b0b0; stroke-opacity: 0.25; stroke-width: 0.8; stroke-linecap: square"/>
     </g>
     <g id="line2d_12">
      <g>
       <use xlink:href="#m10ea35a49a" x="485.28" y="318.04" style="stroke: #000000; stroke-width: 0.8"/>
      </g>
     </g>
     <g id="text_6">
      <!-- 1.0 -->
      <g transform="translate(477.328437 332.638438) scale(0.1 -0.1)">
       <defs>
        <path id="DejaVuSans-31" d="M 794 531 
L 1825 531 
L 1825 4091 
L 703 3866 
L 703 4441 
L 1819 4666 
L 2450 4666 
L 2450 531 
L 3481 531 
L 3481 0 
L 794 0 
L 794 531 
z
" transform="scale(0.015625)"/>
       </defs>
       <use xlink:href="#DejaVuSans-31"/>
       <use xlink:href="#DejaVuSans-2e" x="63.623047"/>
       <use xlink:href="#DejaVuSans-30" x="95.410156"/>
      </g>
     </g>
    </g>
    <g id="text_7">
     <!-- False-positive rate on real benign traffic -->
     <g transform="translate(166.8375 346.316563) scale(0.1 -0.1)">
      <defs>
       <path id="DejaVuSans-46" d="M 628 4666 
L 3309 4666 
L 3309 4134 
L 1259 4134 
L 1259 2759 
L 3109 2759 
L 3109 2228 
L 1259 2228 
L 1259 0 
L 628 0 
L 628 4666 
z
" transform="scale(0.015625)"/>
       <path id="DejaVuSans-61" d="M 2194 1759 
Q 1497 1759 1228 1600 
Q 959 1441 959 1056 
Q 959 750 1161 570 
Q 1363 391 1709 391 
Q 2188 391 2477 730 
Q 2766 1069 2766 1631 
L 2766 1759 
L 2194 1759 
z
M 3341 1997 
L 3341 0 
L 2766 0 
L 2766 531 
Q 2569 213 2275 61 
Q 1981 -91 1556 -91 
Q 1019 -91 701 211 
Q 384 513 384 1019 
Q 384 1609 779 1909 
Q 1175 2209 1959 2209 
L 2766 2209 
L 2766 2266 
Q 2766 2663 2505 2880 
Q 2244 3097 1772 3097 
Q 1472 3097 1187 3025 
Q 903 2953 641 2809 
L 641 3341 
Q 956 3463 1253 3523 
Q 1550 3584 1831 3584 
Q 2591 3584 2966 3190 
Q 3341 2797 3341 1997 
z
" transform="scale(0.015625)"/>
       <path id="DejaVuSans-6c" d="M 603 4863 
L 1178 4863 
L 1178 0 
L 603 0 
L 603 4863 
z
" transform="scale(0.015625)"/>
       <path id="DejaVuSans-73" d="M 2834 3397 
L 2834 2853 
Q 2591 2978 2328 3040 
Q 2066 3103 1784 3103 
Q 1356 3103 1142 2972 
Q 928 2841 928 2578 
Q 928 2378 1081 2264 
Q 1234 2150 1697 2047 
L 1894 2003 
Q 2506 1872 2764 1633 
Q 3022 1394 3022 966 
Q 3022 478 2636 193 
Q 2250 -91 1575 -91 
Q 1294 -91 989 -36 
Q 684 19 347 128 
L 347 722 
Q 666 556 975 473 
Q 1284 391 1588 391 
Q 1994 391 2212 530 
Q 2431 669 2431 922 
Q 2431 1156 2273 1281 
Q 2116 1406 1581 1522 
L 1381 1569 
Q 847 1681 609 1914 
Q 372 2147 372 2553 
Q 372 3047 722 3315 
Q 1072 3584 1716 3584 
Q 2034 3584 2315 3537 
Q 2597 3491 2834 3397 
z
" transform="scale(0.015625)"/>
       <path id="DejaVuSans-65" d="M 3597 1894 
L 3597 1613 
L 953 1613 
Q 991 1019 1311 708 
Q 1631 397 2203 397 
Q 2534 397 2845 478 
Q 3156 559 3463 722 
L 3463 178 
Q 3153 47 2828 -22 
Q 2503 -91 2169 -91 
Q 1331 -91 842 396 
Q 353 884 353 1716 
Q 353 2575 817 3079 
Q 1281 3584 2069 3584 
Q 2775 3584 3186 3129 
Q 3597 2675 3597 1894 
z
M 3022 2063 
Q 3016 2534 2758 2815 
Q 2500 3097 2075 3097 
Q 1594 3097 1305 2825 
Q 1016 2553 972 2059 
L 3022 2063 
z
" transform="scale(0.015625)"/>
       <path id="DejaVuSans-2d" d="M 313 2009 
L 1997 2009 
L 1997 1497 
L 313 1497 
L 313 2009 
z
" transform="scale(0.015625)"/>
       <path id="DejaVuSans-70" d="M 1159 525 
L 1159 -1331 
L 581 -1331 
L 581 3500 
L 1159 3500 
L 1159 2969 
Q 1341 3281 1617 3432 
Q 1894 3584 2278 3584 
Q 2916 3584 3314 3078 
Q 3713 2572 3713 1747 
Q 3713 922 3314 415 
Q 2916 -91 2278 -91 
Q 1894 -91 1617 61 
Q 1341 213 1159 525 
z
M 3116 1747 
Q 3116 2381 2855 2742 
Q 2594 3103 2138 3103 
Q 1681 3103 1420 2742 
Q 1159 2381 1159 1747 
Q 1159 1113 1420 752 
Q 1681 391 2138 391 
Q 2594 391 2855 752 
Q 3116 1113 3116 1747 
z
" transform="scale(0.015625)"/>
       <path id="DejaVuSans-6f" d="M 1959 3097 
Q 1497 3097 1228 2736 
Q 959 2375 959 1747 
Q 959 1119 1226 758 
Q 1494 397 1959 397 
Q 2419 397 2687 759 
Q 2956 1122 2956 1747 
Q 2956 2369 2687 2733 
Q 2419 3097 1959 3097 
z
M 1959 3584 
Q 2709 3584 3137 3096 
Q 3566 2609 3566 1747 
Q 3566 888 3137 398 
Q 2709 -91 1959 -91 
Q 1206 -91 779 398 
Q 353 888 353 1747 
Q 353 2609 779 3096 
Q 1206 3584 1959 3584 
z
" transform="scale(0.015625)"/>
       <path id="DejaVuSans-69" d="M 603 3500 
L 1178 3500 
L 1178 0 
L 603 0 
L 603 3500 
z
M 603 4863 
L 1178 4863 
L 1178 4134 
L 603 4134 
L 603 4863 
z
" transform="scale(0.015625)"/>
       <path id="DejaVuSans-74" d="M 1172 4494 
L 1172 3500 
L 2356 3500 
L 2356 3053 
L 1172 3053 
L 1172 1153 
Q 1172 725 1289 603 
Q 1406 481 1766 481 
L 2356 481 
L 2356 0 
L 1766 0 
Q 1100 0 847 248 
Q 594 497 594 1153 
L 594 3053 
L 172 3053 
L 172 3500 
L 594 3500 
L 594 4494 
L 1172 4494 
z
" transform="scale(0.015625)"/>
       <path id="DejaVuSans-76" d="M 191 3500 
L 800 3500 
L 1894 563 
L 2988 3500 
L 3597 3500 
L 2284 0 
L 1503 0 
L 191 3500 
z
" transform="scale(0.015625)"/>
       <path id="DejaVuSans-20" transform="scale(0.015625)"/>
       <path id="DejaVuSans-72" d="M 2631 2963 
Q 2534 3019 2420 3045 
Q 2306 3072 2169 3072 
Q 1681 3072 1420 2755 
Q 1159 2438 1159 1844 
L 1159 0 
L 581 0 
L 581 3500 
L 1159 3500 
L 1159 2956 
Q 1341 3275 1631 3429 
Q 1922 3584 2338 3584 
Q 2397 3584 2469 3576 
Q 2541 3569 2628 3553 
L 2631 2963 
z
" transform="scale(0.015625)"/>
       <path id="DejaVuSans-6e" d="M 3513 2113 
L 3513 0 
L 2938 0 
L 2938 2094 
Q 2938 2591 2744 2837 
Q 2550 3084 2163 3084 
Q 1697 3084 1428 2787 
Q 1159 2491 1159 1978 
L 1159 0 
L 581 0 
L 581 3500 
L 1159 3500 
L 1159 2956 
Q 1366 3272 1645 3428 
Q 1925 3584 2291 3584 
Q 2894 3584 3203 3211 
Q 3513 2838 3513 2113 
z
" transform="scale(0.015625)"/>
       <path id="DejaVuSans-62" d="M 3116 1747 
Q 3116 2381 2855 2742 
Q 2594 3103 2138 3103 
Q 1681 3103 1420 2742 
Q 1159 2381 1159 1747 
Q 1159 1113 1420 752 
Q 1681 391 2138 391 
Q 2594 391 2855 752 
Q 3116 1113 3116 1747 
z
M 1159 2969 
Q 1341 3281 1617 3432 
Q 1894 3584 2278 3584 
Q 2916 3584 3314 3078 
Q 3713 2572 3713 1747 
Q 3713 922 3314 415 
Q 2916 -91 2278 -91 
Q 1894 -91 1617 61 
Q 1341 213 1159 525 
L 1159 0 
L 581 0 
L 581 4863 
L 1159 4863 
L 1159 2969 
z
" transform="scale(0.015625)"/>
       <path id="DejaVuSans-67" d="M 2906 1791 
Q 2906 2416 2648 2759 
Q 2391 3103 1925 3103 
Q 1463 3103 1205 2759 
Q 947 2416 947 1791 
Q 947 1169 1205 825 
Q 1463 481 1925 481 
Q 2391 481 2648 825 
Q 2906 1169 2906 1791 
z
M 3481 434 
Q 3481 -459 3084 -895 
Q 2688 -1331 1869 -1331 
Q 1566 -1331 1297 -1286 
Q 1028 -1241 775 -1147 
L 775 -588 
Q 1028 -725 1275 -790 
Q 1522 -856 1778 -856 
Q 2344 -856 2625 -561 
Q 2906 -266 2906 331 
L 2906 616 
Q 2728 306 2450 153 
Q 2172 0 1784 0 
Q 1141 0 747 490 
Q 353 981 353 1791 
Q 353 2603 747 3093 
Q 1141 3584 1784 3584 
Q 2172 3584 2450 3431 
Q 2728 3278 2906 2969 
L 2906 3500 
L 3481 3500 
L 3481 434 
z
" transform="scale(0.015625)"/>
       <path id="DejaVuSans-66" d="M 2375 4863 
L 2375 4384 
L 1825 4384 
Q 1516 4384 1395 4259 
Q 1275 4134 1275 3809 
L 1275 3500 
L 2222 3500 
L 2222 3053 
L 1275 3053 
L 1275 0 
L 697 0 
L 697 3053 
L 147 3053 
L 147 3500 
L 697 3500 
L 697 3744 
Q 697 4328 969 4595 
Q 1241 4863 1831 4863 
L 2375 4863 
z
" transform="scale(0.015625)"/>
       <path id="DejaVuSans-63" d="M 3122 3366 
L 3122 2828 
Q 2878 2963 2633 3030 
Q 2388 3097 2138 3097 
Q 1578 3097 1268 2742 
Q 959 2388 959 1747 
Q 959 1106 1268 751 
Q 1578 397 2138 397 
Q 2388 397 2633 464 
Q 2878 531 3122 666 
L 3122 134 
Q 2881 22 2623 -34 
Q 2366 -91 2075 -91 
Q 1284 -91 818 406 
Q 353 903 353 1747 
Q 353 2603 823 3093 
Q 1294 3584 2113 3584 
Q 2378 3584 2631 3529 
Q 2884 3475 3122 3366 
z
" transform="scale(0.015625)"/>
      </defs>
      <use xlink:href="#DejaVuSans-46"/>
      <use xlink:href="#DejaVuSans-61" x="48.394531"/>
      <use xlink:href="#DejaVuSans-6c" x="109.673828"/>
      <use xlink:href="#DejaVuSans-73" x="137.457031"/>
      <use xlink:href="#DejaVuSans-65" x="189.556641"/>
      <use xlink:href="#DejaVuSans-2d" x="251.080078"/>
      <use xlink:href="#DejaVuSans-70" x="287.164062"/>
      <use xlink:href="#DejaVuSans-6f" x="350.640625"/>
      <use xlink:href="#DejaVuSans-73" x="411.822266"/>
      <use xlink:href="#DejaVuSans-69" x="463.921875"/>
      <use xlink:href="#DejaVuSans-74" x="491.705078"/>
      <use xlink:href="#DejaVuSans-69" x="530.914062"/>
      <use xlink:href="#DejaVuSans-76" x="558.697266"/>
      <use xlink:href="#DejaVuSans-65" x="617.876953"/>
      <use xlink:href="#DejaVuSans-20" x="679.400391"/>
      <use xlink:href="#DejaVuSans-72" x="711.1875"/>
      <use xlink:href="#DejaVuSans-61" x="752.300781"/>
      <use xlink:href="#DejaVuSans-74" x="813.580078"/>
      <use xlink:href="#DejaVuSans-65" x="852.789062"/>
      <use xlink:href="#DejaVuSans-20" x="914.3125"/>
      <use xlink:href="#DejaVuSans-6f" x="946.099609"/>
      <use xlink:href="#DejaVuSans-6e" x="1007.28125"/>
      <use xlink:href="#DejaVuSans-20" x="1070.660156"/>
      <use xlink:href="#DejaVuSans-72" x="1102.447266"/>
      <use xlink:href="#DejaVuSans-65" x="1141.310547"/>
      <use xlink:href="#DejaVuSans-61" x="1202.833984"/>
      <use xlink:href="#DejaVuSans-6c" x="1264.113281"/>
      <use xlink:href="#DejaVuSans-20" x="1291.896484"/>
      <use xlink:href="#DejaVuSans-62" x="1323.683594"/>
      <use xlink:href="#DejaVuSans-65" x="1387.160156"/>
      <use xlink:href="#DejaVuSans-6e" x="1448.683594"/>
      <use xlink:href="#DejaVuSans-69" x="1512.0625"/>
      <use xlink:href="#DejaVuSans-67" x="1539.845703"/>
      <use xlink:href="#DejaVuSans-6e" x="1603.322266"/>
      <use xlink:href="#DejaVuSans-20" x="1666.701172"/>
      <use xlink:href="#DejaVuSans-74" x="1698.488281"/>
      <use xlink:href="#DejaVuSans-72" x="1737.697266"/>
      <use xlink:href="#DejaVuSans-61" x="1778.810547"/>
      <use xlink:href="#DejaVuSans-66" x="1840.089844"/>
      <use xlink:href="#DejaVuSans-66" x="1875.294922"/>
      <use xlink:href="#DejaVuSans-69" x="1910.5"/>
      <use xlink:href="#DejaVuSans-63" x="1938.283203"/>
     </g>
    </g>
   </g>
   <g id="matplotlib.axis_2">
    <g id="ytick_1">
     <g id="line2d_13">
      <path d="M 47.72 318.04 
L 485.28 318.04 
" clip-path="url(#pe2d1b80121)" style="fill: none; stroke: #b0b0b0; stroke-opacity: 0.25; stroke-width: 0.8; stroke-linecap: square"/>
     </g>
     <g id="line2d_14">
      <defs>
       <path id="mdf4fc92ef2" d="M 0 0 
L -3.5 0 
" style="stroke: #000000; stroke-width: 0.8"/>
      </defs>
      <g>
       <use xlink:href="#mdf4fc92ef2" x="47.72" y="318.04" style="stroke: #000000; stroke-width: 0.8"/>
      </g>
     </g>
     <g id="text_8">
      <!-- 0.0 -->
      <g transform="translate(24.816875 321.839219) scale(0.1 -0.1)">
       <use xlink:href="#DejaVuSans-30"/>
       <use xlink:href="#DejaVuSans-2e" x="63.623047"/>
       <use xlink:href="#DejaVuSans-30" x="95.410156"/>
      </g>
     </g>
    </g>
    <g id="ytick_2">
     <g id="line2d_15">
      <path d="M 47.72 259.808 
L 485.28 259.808 
" clip-path="url(#pe2d1b80121)" style="fill: none; stroke: #b0b0b0; stroke-opacity: 0.25; stroke-width: 0.8; stroke-linecap: square"/>
     </g>
     <g id="line2d_16">
      <g>
       <use xlink:href="#mdf4fc92ef2" x="47.72" y="259.808" style="stroke: #000000; stroke-width: 0.8"/>
      </g>
     </g>
     <g id="text_9">
      <!-- 0.2 -->
      <g transform="translate(24.816875 263.607219) scale(0.1 -0.1)">
       <use xlink:href="#DejaVuSans-30"/>
       <use xlink:href="#DejaVuSans-2e" x="63.623047"/>
       <use xlink:href="#DejaVuSans-32" x="95.410156"/>
      </g>
     </g>
    </g>
    <g id="ytick_3">
     <g id="line2d_17">
      <path d="M 47.72 201.576 
L 485.28 201.576 
" clip-path="url(#pe2d1b80121)" style="fill: none; stroke: #b0b0b0; stroke-opacity: 0.25; stroke-width: 0.8; stroke-linecap: square"/>
     </g>
     <g id="line2d_18">
      <g>
       <use xlink:href="#mdf4fc92ef2" x="47.72" y="201.576" style="stroke: #000000; stroke-width: 0.8"/>
      </g>
     </g>
     <g id="text_10">
      <!-- 0.4 -->
      <g transform="translate(24.816875 205.375219) scale(0.1 -0.1)">
       <use xlink:href="#DejaVuSans-30"/>
       <use xlink:href="#DejaVuSans-2e" x="63.623047"/>
       <use xlink:href="#DejaVuSans-34" x="95.410156"/>
      </g>
     </g>
    </g>
    <g id="ytick_4">
     <g id="line2d_19">
      <path d="M 47.72 143.344 
L 485.28 143.344 
" clip-path="url(#pe2d1b80121)" style="fill: none; stroke: #b0b0b0; stroke-opacity: 0.25; stroke-width: 0.8; stroke-linecap: square"/>
     </g>
     <g id="line2d_20">
      <g>
       <use xlink:href="#mdf4fc92ef2" x="47.72" y="143.344" style="stroke: #000000; stroke-width: 0.8"/>
      </g>
     </g>
     <g id="text_11">
      <!-- 0.6 -->
      <g transform="translate(24.816875 147.143219) scale(0.1 -0.1)">
       <use xlink:href="#DejaVuSans-30"/>
       <use xlink:href="#DejaVuSans-2e" x="63.623047"/>
       <use xlink:href="#DejaVuSans-36" x="95.410156"/>
      </g>
     </g>
    </g>
    <g id="ytick_5">
     <g id="line2d_21">
      <path d="M 47.72 85.112 
L 485.28 85.112 
" clip-path="url(#pe2d1b80121)" style="fill: none; stroke: #b0b0b0; stroke-opacity: 0.25; stroke-width: 0.8; stroke-linecap: square"/>
     </g>
     <g id="line2d_22">
      <g>
       <use xlink:href="#mdf4fc92ef2" x="47.72" y="85.112" style="stroke: #000000; stroke-width: 0.8"/>
      </g>
     </g>
     <g id="text_12">
      <!-- 0.8 -->
      <g transform="translate(24.816875 88.911219) scale(0.1 -0.1)">
       <use xlink:href="#DejaVuSans-30"/>
       <use xlink:href="#DejaVuSans-2e" x="63.623047"/>
       <use xlink:href="#DejaVuSans-38" x="95.410156"/>
      </g>
     </g>
    </g>
    <g id="ytick_6">
     <g id="line2d_23">
      <path d="M 47.72 26.88 
L 485.28 26.88 
" clip-path="url(#pe2d1b80121)" style="fill: none; stroke: #b0b0b0; stroke-opacity: 0.25; stroke-width: 0.8; stroke-linecap: square"/>
     </g>
     <g id="line2d_24">
      <g>
       <use xlink:href="#mdf4fc92ef2" x="47.72" y="26.88" style="stroke: #000000; stroke-width: 0.8"/>
      </g>
     </g>
     <g id="text_13">
      <!-- 1.0 -->
      <g transform="translate(24.816875 30.679219) scale(0.1 -0.1)">
       <use xlink:href="#DejaVuSans-31"/>
       <use xlink:href="#DejaVuSans-2e" x="63.623047"/>
       <use xlink:href="#DejaVuSans-30" x="95.410156"/>
      </g>
     </g>
    </g>
    <g id="text_14">
     <!-- Detection rate on attacks (TPR) -->
     <g transform="translate(18.737188 251.232656) rotate(-90) scale(0.1 -0.1)">
      <defs>
       <path id="DejaVuSans-44" d="M 1259 4147 
L 1259 519 
L 2022 519 
Q 2988 519 3436 956 
Q 3884 1394 3884 2338 
Q 3884 3275 3436 3711 
Q 2988 4147 2022 4147 
L 1259 4147 
z
M 628 4666 
L 1925 4666 
Q 3281 4666 3915 4102 
Q 4550 3538 4550 2338 
Q 4550 1131 3912 565 
Q 3275 0 1925 0 
L 628 0 
L 628 4666 
z
" transform="scale(0.015625)"/>
       <path id="DejaVuSans-6b" d="M 581 4863 
L 1159 4863 
L 1159 1991 
L 2875 3500 
L 3609 3500 
L 1753 1863 
L 3688 0 
L 2938 0 
L 1159 1709 
L 1159 0 
L 581 0 
L 581 4863 
z
" transform="scale(0.015625)"/>
       <path id="DejaVuSans-28" d="M 1984 4856 
Q 1566 4138 1362 3434 
Q 1159 2731 1159 2009 
Q 1159 1288 1364 580 
Q 1569 -128 1984 -844 
L 1484 -844 
Q 1016 -109 783 600 
Q 550 1309 550 2009 
Q 550 2706 781 3412 
Q 1013 4119 1484 4856 
L 1984 4856 
z
" transform="scale(0.015625)"/>
       <path id="DejaVuSans-54" d="M -19 4666 
L 3928 4666 
L 3928 4134 
L 2272 4134 
L 2272 0 
L 1638 0 
L 1638 4134 
L -19 4134 
L -19 4666 
z
" transform="scale(0.015625)"/>
       <path id="DejaVuSans-50" d="M 1259 4147 
L 1259 2394 
L 2053 2394 
Q 2494 2394 2734 2622 
Q 2975 2850 2975 3272 
Q 2975 3691 2734 3919 
Q 2494 4147 2053 4147 
L 1259 4147 
z
M 628 4666 
L 2053 4666 
Q 2838 4666 3239 4311 
Q 3641 3956 3641 3272 
Q 3641 2581 3239 2228 
Q 2838 1875 2053 1875 
L 1259 1875 
L 1259 0 
L 628 0 
L 628 4666 
z
" transform="scale(0.015625)"/>
       <path id="DejaVuSans-52" d="M 2841 2188 
Q 3044 2119 3236 1894 
Q 3428 1669 3622 1275 
L 4263 0 
L 3584 0 
L 2988 1197 
Q 2756 1666 2539 1819 
Q 2322 1972 1947 1972 
L 1259 1972 
L 1259 0 
L 628 0 
L 628 4666 
L 2053 4666 
Q 2853 4666 3247 4331 
Q 3641 3997 3641 3322 
Q 3641 2881 3436 2590 
Q 3231 2300 2841 2188 
z
M 1259 4147 
L 1259 2491 
L 2053 2491 
Q 2509 2491 2742 2702 
Q 2975 2913 2975 3322 
Q 2975 3731 2742 3939 
Q 2509 4147 2053 4147 
L 1259 4147 
z
" transform="scale(0.015625)"/>
       <path id="DejaVuSans-29" d="M 513 4856 
L 1013 4856 
Q 1481 4119 1714 3412 
Q 1947 2706 1947 2009 
Q 1947 1309 1714 600 
Q 1481 -109 1013 -844 
L 513 -844 
Q 928 -128 1133 580 
Q 1338 1288 1338 2009 
Q 1338 2731 1133 3434 
Q 928 4138 513 4856 
z
" transform="scale(0.015625)"/>
      </defs>
      <use xlink:href="#DejaVuSans-44"/>
      <use xlink:href="#DejaVuSans-65" x="77.001953"/>
      <use xlink:href="#DejaVuSans-74" x="138.525391"/>
      <use xlink:href="#DejaVuSans-65" x="177.734375"/>
      <use xlink:href="#DejaVuSans-63" x="239.257812"/>
      <use xlink:href="#DejaVuSans-74" x="294.238281"/>
      <use xlink:href="#DejaVuSans-69" x="333.447266"/>
      <use xlink:href="#DejaVuSans-6f" x="361.230469"/>
      <use xlink:href="#DejaVuSans-6e" x="422.412109"/>
      <use xlink:href="#DejaVuSans-20" x="485.791016"/>
      <use xlink:href="#DejaVuSans-72" x="517.578125"/>
      <use xlink:href="#DejaVuSans-61" x="558.691406"/>
      <use xlink:href="#DejaVuSans-74" x="619.970703"/>
      <use xlink:href="#DejaVuSans-65" x="659.179688"/>
      <use xlink:href="#DejaVuSans-20" x="720.703125"/>
      <use xlink:href="#DejaVuSans-6f" x="752.490234"/>
      <use xlink:href="#DejaVuSans-6e" x="813.671875"/>
      <use xlink:href="#DejaVuSans-20" x="877.050781"/>
      <use xlink:href="#DejaVuSans-61" x="908.837891"/>
      <use xlink:href="#DejaVuSans-74" x="970.117188"/>
      <use xlink:href="#DejaVuSans-74" x="1009.326172"/>
      <use xlink:href="#DejaVuSans-61" x="1048.535156"/>
      <use xlink:href="#DejaVuSans-63" x="1109.814453"/>
      <use xlink:href="#DejaVuSans-6b" x="1164.794922"/>
      <use xlink:href="#DejaVuSans-73" x="1222.705078"/>
      <use xlink:href="#DejaVuSans-20" x="1274.804688"/>
      <use xlink:href="#DejaVuSans-28" x="1306.591797"/>
      <use xlink:href="#DejaVuSans-54" x="1345.605469"/>
      <use xlink:href="#DejaVuSans-50" x="1406.689453"/>
      <use xlink:href="#DejaVuSans-52" x="1466.992188"/>
      <use xlink:href="#DejaVuSans-29" x="1536.474609"/>
     </g>
    </g>
   </g>
   <g id="line2d_25">
    <path d="M 485.28 26.88 
L 247.378628 27.415734 
L 168.442804 28.792921 
L 139.520088 30.630141 
L 125.211876 32.237344 
L 111.1662 33.693144 
L 105.565432 35.221734 
L 99.920908 36.601832 
L 91.826048 38.054721 
L 86.269036 39.280504 
L 84.212504 40.046255 
L 81.237096 41.653458 
L 80.143196 42.494911 
L 72.617164 43.490678 
L 71.479508 43.872098 
L 69.422976 45.324986 
L 68.547856 46.16935 
L 66.53508 47.240819 
L 65.966252 47.927956 
L 64.303524 48.387989 
L 63.734696 48.999425 
L 63.078356 49.15374 
L 62.115724 49.995192 
L 61.021824 50.455225 
L 59.97168 51.448081 
L 59.665388 52.062428 
L 58.659 53.209599 
L 58.396464 53.59393 
L 57.696368 53.97535 
L 57.652612 54.205366 
L 56.821248 54.511084 
L 56.733736 54.586786 
L 56.514956 55.201133 
L 55.989884 55.428238 
L 55.552324 55.812569 
L 55.552324 56.118287 
L 54.983496 56.272602 
L 54.06462 57.419772 
L 53.670816 57.649789 
L 53.670816 57.649789 
L 53.670816 57.879805 
L 53.583304 57.879805 
L 53.277012 58.109822 
L 53.1895 58.645556 
L 53.101988 58.721258 
L 53.014476 59.408395 
L 53.014476 59.408395 
L 52.926964 59.487008 
L 52.926964 59.487008 
L 52.708184 59.94413 
L 52.664428 60.404162 
L 52.401892 60.70988 
L 52.139356 62.471398 
L 52.051844 63.772884 
L 51.87682 64.154303 
L 51.789308 64.920054 
L 51.395504 66.527257 
L 51.22048 67.062992 
L 50.957944 70.201696 
L 50.826676 71.197464 
L 50.651652 71.578883 
L 50.520384 72.804667 
L 50.082824 76.019073 
L 49.163948 85.280873 
L 48.945168 89.031014 
L 48.8139 90.4082 
L 48.770144 92.169718 
L 48.59512 94.388358 
L 48.026292 129.979756 
L 47.807512 147.353273 
L 47.72 196.340943 
L 47.72 318.04 
L 47.72 318.04 
" clip-path="url(#pe2d1b80121)" style="fill: none; stroke: #1f77b4; stroke-opacity: 0.9; stroke-width: 1.6; stroke-linecap: square"/>
   </g>
   <g id="line2d_26">
    <path d="M 485.28 26.88 
L 398.118048 32.621675 
L 390.723284 34.30458 
L 386.653976 35.070331 
L 382.059596 36.217501 
L 379.302968 36.447518 
L 377.508972 36.983252 
L 376.677608 37.443285 
L 370.551768 38.054721 
L 368.2327 38.590455 
L 366.001144 38.896173 
L 364.338416 39.280504 
L 363.63832 39.661924 
L 358.475112 40.197658 
L 357.51248 40.503376 
L 357.162432 40.503376 
L 356.987408 40.733393 
L 353.180636 40.887708 
L 352.961856 40.963409 
L 352.48054 40.963409 
L 351.561664 41.499144 
L 350.992836 41.653458 
L 349.85518 41.72916 
L 349.548888 41.804862 
L 348.805036 41.880563 
L 348.673768 42.11058 
L 347.842404 42.189193 
L 347.842404 42.264894 
L 346.660992 42.264894 
L 346.617236 42.416298 
L 346.048408 42.724927 
L 345.873384 42.87633 
L 345.47958 42.87633 
L 345.47958 43.106347 
L 345.217044 43.182048 
L 345.129532 43.336363 
L 343.554316 44.026412 
L 342.897976 44.026412 
L 342.722952 44.177816 
L 342.372904 44.177816 
L 342.154124 44.407832 
L 341.847832 44.483534 
L 341.454028 44.637848 
L 341.279004 45.173583 
L 340.972712 45.324986 
L 335.721992 45.324986 
L 335.4157 45.939334 
L 335.19692 45.939334 
L 334.234288 46.475068 
L 333.752972 46.55077 
L 333.621704 46.705084 
L 333.271656 46.705084 
L 332.877852 47.010802 
L 332.702828 47.086504 
L 332.702828 47.086504 
L 332.440292 47.162206 
L 332.002732 47.240819 
L 331.69644 47.392222 
L 331.25888 47.927956 
L 330.996344 48.00657 
L 330.908832 48.233674 
L 330.515028 48.312288 
L 329.858688 48.542304 
L 329.771176 48.769409 
L 328.896056 48.769409 
L 328.8523 48.999425 
L 328.546008 48.999425 
L 328.108448 49.383756 
L 327.10206 49.995192 
L 326.752012 50.606628 
L 326.358208 50.836645 
L 325.526844 51.142363 
L 325.395576 51.448081 
L 324.826748 51.526694 
L 324.520456 51.832412 
L 323.514068 51.908114 
L 322.595192 52.062428 
L 321.151244 53.2853 
L 320.626172 53.97535 
L 319.357248 54.586786 
L 318.525884 55.201133 
L 316.863156 55.658254 
L 315.681744 56.042586 
L 314.6316 57.189756 
L 312.837604 58.491241 
L 311.043608 59.94413 
L 308.024444 61.935664 
L 296.47286 71.273165 
L 278.357876 86.352342 
L 47.72 318.04 
L 47.72 318.04 
" clip-path="url(#pe2d1b80121)" style="fill: none; stroke: #ff7f0e; stroke-opacity: 0.9; stroke-width: 1.6; stroke-linecap: square"/>
   </g>
   <g id="line2d_27">
    <path d="M 485.28 26.88 
L 374.489808 41.423442 
L 365.957388 43.947799 
L 358.475112 45.019268 
L 355.893508 45.555002 
L 354.624584 46.015035 
L 349.067572 47.622238 
L 348.454988 48.082271 
L 347.142308 48.542304 
L 346.179676 49.078038 
L 344.82324 49.53516 
L 344.035632 49.613773 
L 342.63544 50.070894 
L 342.285392 50.30091 
L 341.804076 50.455225 
L 341.585296 50.455225 
L 341.366516 50.606628 
L 340.66642 50.836645 
L 339.922568 51.220976 
L 339.835056 51.372379 
L 338.04106 52.292445 
L 337.034672 52.443848 
L 336.94716 52.749566 
L 335.678236 52.828179 
L 335.065652 53.2853 
L 334.146776 53.669632 
L 334.015508 53.821035 
L 333.927996 53.821035 
L 332.877852 54.892504 
L 332.396536 55.201133 
L 332.046488 55.352536 
L 332.046488 55.428238 
L 331.958976 55.428238 
L 331.871464 55.428238 
L 331.871464 55.506851 
L 331.783952 55.658254 
L 331.346392 55.736868 
L 331.083856 56.042586 
L 330.558784 56.118287 
L 330.38376 56.272602 
L 330.340004 56.424005 
L 329.28986 56.884038 
L 329.202348 57.038353 
L 328.546008 57.344071 
L 328.41474 57.344071 
L 328.152204 57.574087 
L 327.452108 57.801192 
L 327.364596 58.031208 
L 327.233328 58.109822 
L 326.927036 58.185523 
L 326.927036 58.185523 
L 326.839524 58.261225 
L 326.839524 58.41554 
L 326.620744 58.721258 
L 326.095672 59.102677 
L 325.833136 59.256992 
L 325.395576 59.332694 
L 325.089284 59.56271 
L 324.4767 60.252759 
L 324.03914 60.328461 
L 323.514068 60.404162 
L 323.076508 60.70988 
L 322.376412 60.939897 
L 322.245144 61.324228 
L 321.982608 61.629946 
L 321.676316 61.705648 
L 321.238756 62.089979 
L 320.232368 62.241382 
L 319.926076 62.471398 
L 318.832176 62.852818 
L 318.525884 63.161448 
L 316.075548 64.232916 
L 315.419208 64.308618 
L 314.41282 64.995756 
L 313.712724 65.610103 
L 311.13112 67.062992 
L 310.47478 68.213074 
L 309.118344 69.054526 
L 307.324348 70.586028 
L 303.561332 73.951837 
L 297.216712 78.467729 
L 47.72 318.04 
L 47.72 318.04 
" clip-path="url(#pe2d1b80121)" style="fill: none; stroke: #2ca02c; stroke-opacity: 0.9; stroke-width: 1.6; stroke-linecap: square"/>
   </g>
   <g id="line2d_28">
    <path d="M 485.28 26.88 
L 320.582416 61.094212 
L 309.643416 63.542867 
L 304.13016 64.995756 
L 300.104608 65.84012 
L 297.654272 66.527257 
L 292.97238 67.062992 
L 291.87848 67.447323 
L 286.146444 68.364477 
L 283.214792 69.741664 
L 282.427184 69.895978 
L 281.59582 70.277398 
L 280.545676 70.507414 
L 279.714312 70.586028 
L 279.276752 70.891746 
L 272.275792 72.344634 
L 271.881988 72.650352 
L 270.394284 72.95607 
L 270.175504 73.186086 
L 269.694188 73.186086 
L 267.418876 73.800434 
L 265.887416 74.257555 
L 265.362344 74.717588 
L 264.793516 74.871903 
L 263.568348 75.023306 
L 261.46806 75.55904 
L 260.899232 76.094775 
L 260.37416 76.094775 
L 259.805332 76.324791 
L 258.492652 76.554808 
L 257.923824 76.860526 
L 257.223728 77.01484 
L 253.198176 78.85206 
L 249.21638 79.539198 
L 248.56004 79.99923 
L 247.509896 80.459263 
L 246.897312 80.994998 
L 245.7159 81.760748 
L 244.40322 82.066466 
L 243.003028 82.21787 
L 239.327524 83.137935 
L 238.014844 83.749371 
L 235.739532 84.360807 
L 232.676612 84.975155 
L 228.476036 86.122325 
L 226.68204 86.888076 
L 224.537996 87.348109 
L 222.875268 88.725296 
L 214.21158 90.026781 
L 211.58622 91.09825 
L 208.5233 92.475436 
L 206.029208 94.388358 
L 202.922532 95.614141 
L 199.815856 97.451361 
L 191.764752 101.277203 
L 187.607932 104.415908 
L 183.14482 107.476 
L 177.762832 110.920422 
L 173.212208 116.126363 
L 166.911344 121.789425 
L 161.004284 127.991133 
L 154.528396 137.480038 
L 142.539252 147.047555 
L 129.806256 168.555544 
L 123.680416 179.424547 
L 115.629312 187.996298 
L 109.590984 196.340943 
L 102.415 204.301258 
L 96.376672 212.261572 
L 87.844252 217.543214 
L 79.793148 225.197811 
L 72.267116 231.932342 
L 67.322688 238.821187 
L 63.340892 243.642797 
L 59.840412 252.520265 
L 55.3773 262.853534 
L 52.401892 296.532011 
L 49.47024 317.044233 
L 48.507608 318.04 
L 47.72 318.04 
L 47.72 318.04 
" clip-path="url(#pe2d1b80121)" style="fill: none; stroke: #d62728; stroke-opacity: 0.9; stroke-width: 1.6; stroke-linecap: square"/>
   </g>
   <g id="line2d_29">
    <path d="M 485.28 26.88 
L 469.484084 31.014472 
L 454.6508 32.927393 
L 453.600656 33.384514 
L 452.069196 33.92316 
L 448.437448 34.458895 
L 448.30618 34.686 
L 443.05546 35.070331 
L 441.611512 35.45175 
L 441.173952 35.45175 
L 441.042684 35.606065 
L 440.21132 35.681767 
L 439.905028 35.757468 
L 439.379956 35.836082 
L 439.204932 35.911783 
L 439.161176 36.066098 
L 438.067276 36.293203 
L 437.673472 36.523219 
L 437.498448 36.828937 
L 437.060888 36.90755 
L 436.885864 37.058954 
L 436.667084 37.137567 
L 436.535816 37.28897 
L 436.229524 37.673301 
L 436.185768 37.824704 
L 435.61694 37.900406 
L 435.529428 37.979019 
L 435.529428 37.979019 
L 435.17938 38.054721 
L 434.216748 38.820472 
L 433.42914 38.896173 
L 433.297872 38.974786 
L 432.947824 38.974786 
L 432.947824 38.974786 
L 432.860312 39.12619 
L 432.55402 39.201891 
L 432.422752 39.280504 
L 431.941436 39.356206 
L 431.722656 39.510521 
L 431.722656 39.510521 
L 431.503876 39.510521 
L 431.416364 39.816239 
L 430.760024 39.89194 
L 430.716268 40.046255 
L 430.497488 40.121957 
L 429.316076 40.197658 
L 423.759064 40.351973 
L 423.759064 40.427675 
L 423.540284 40.58199 
L 423.409016 40.963409 
L 423.321504 40.963409 
L 423.190236 41.269127 
L 423.058968 41.269127 
L 423.015212 41.499144 
L 422.796432 41.653458 
L 422.358872 42.034878 
L 422.008824 42.11058 
L 421.877556 42.340596 
L 419.996048 43.260662 
L 419.295952 43.717783 
L 418.98966 44.253517 
L 418.595856 44.483534 
L 417.720736 44.637848 
L 417.4582 45.249284 
L 416.626836 45.479301 
L 416.3643 45.785019 
L 415.70796 46.320753 
L 415.314156 46.932189 
L 411.463628 49.840878 
L 409.888412 52.13813 
L 407.350564 54.586786 
L 399.868288 61.094212 
L 47.72 318.04 
L 47.72 318.04 
" clip-path="url(#pe2d1b80121)" style="fill: none; stroke: #9467bd; stroke-opacity: 0.9; stroke-width: 1.6; stroke-linecap: square"/>
   </g>
   <g id="line2d_30">
    <path d="M 485.28 26.88 
L 121.361348 96.991328 
L 112.04132 101.582921 
L 108.10328 104.185892 
L 105.04036 105.333062 
L 102.896316 106.558846 
L 99.1333 108.24175 
L 98.214424 109.237518 
L 96.245404 110.308986 
L 95.982868 110.539003 
L 94.451408 111.53477 
L 94.013848 111.991891 
L 90.557124 114.443458 
L 89.988296 115.206298 
L 89.769516 115.206298 
L 89.72576 115.360612 
L 89.463224 115.360612 
L 89.463224 115.360612 
L 89.025664 115.744944 
L 88.938152 116.202065 
L 88.938152 116.202065 
L 88.894396 116.202065 
L 88.719372 116.432081 
L 88.456836 116.507783 
L 88.238056 116.816412 
L 87.75674 116.892114 
L 87.187912 117.733566 
L 86.66284 117.963583 
L 86.575328 118.193599 
L 86.44406 118.269301 
L 86.269036 118.65072 
L 86.181524 118.729334 
L 86.137768 119.110753 
L 86.0065 119.186455 
L 85.56894 119.265068 
L 85.35016 119.876504 
L 85.35016 119.876504 
L 85.175136 119.876504 
L 85.000112 120.182222 
L 84.825088 120.260835 
L 84.737576 120.336537 
L 84.431284 120.412238 
L 84.343772 120.872271 
L 84.212504 121.023674 
L 83.862456 121.177989 
L 83.687432 121.177989 
L 83.512408 121.559409 
L 82.94358 121.94374 
L 82.768556 122.173756 
L 82.549776 122.709491 
L 82.549776 122.709491 
L 82.50602 122.939507 
L 82.462264 122.939507 
L 82.330996 123.166612 
L 82.28724 123.396628 
L 82.112216 123.550943 
L 81.893436 123.856661 
L 81.762168 123.856661 
L 81.674656 124.010976 
L 81.41212 124.238081 
L 81.105828 125.769582 
L 80.930804 126.0753 
L 80.31822 126.459632 
L 80.055684 126.919664 
L 79.399344 127.606802 
L 78.480468 128.983989 
L 78.042908 129.214005 
L 77.167788 131.20554 
L 76.686472 131.97129 
L 75.986376 133.729897 
L 74.061112 137.022916 
L 71.698288 140.237323 
L 67.19142 149.269106 
L 53.233256 216.928867 
L 53.233256 216.928867 
" clip-path="url(#pe2d1b80121)" style="fill: none; stroke: #8c564b; stroke-opacity: 0.9; stroke-width: 1.6; stroke-linecap: square"/>
   </g>
   <g id="line2d_31">
    <path d="M 485.28 26.88 
L 177.325272 99.594298 
L 167.17388 102.348672 
L 165.467396 104.415908 
L 162.185696 105.94741 
L 159.997896 107.324596 
L 158.903996 107.860331 
L 158.378924 108.471767 
L 157.635072 109.69755 
L 156.803708 110.003268 
L 156.191124 110.769019 
L 155.622296 110.999036 
L 155.009712 111.991891 
L 153.8283 112.376222 
L 153.259472 112.606239 
L 151.20294 112.757642 
L 149.934016 113.37199 
L 149.715236 114.134829 
L 149.190164 114.213442 
L 148.971384 114.594862 
L 148.840116 114.594862 
L 148.752604 114.749176 
L 148.402556 114.824878 
L 148.315044 114.90058 
L 148.052508 114.90058 
L 147.658704 115.206298 
L 147.439924 115.896347 
L 147.2649 115.972048 
L 147.133632 116.35638 
L 146.958608 116.432081 
L 146.783584 117.043517 
L 146.783584 117.12213 
L 146.039732 117.197832 
L 146.039732 117.352147 
L 145.95222 117.352147 
L 145.339636 117.579252 
L 145.252124 117.579252 
L 145.033344 117.887881 
L 144.814564 117.963583 
L 144.814564 118.114986 
L 144.727052 118.114986 
L 144.464516 118.193599 
L 144.245736 118.499317 
L 144.158224 118.499317 
L 144.158224 118.65072 
L 143.808176 118.95935 
L 143.808176 119.186455 
L 143.589396 119.416471 
L 143.54564 119.570786 
L 143.54564 119.570786 
L 143.283104 119.952206 
L 143.064324 120.566553 
L 142.801788 120.642255 
L 142.539252 120.947973 
L 142.45174 120.947973 
L 142.45174 121.023674 
L 142.45174 121.177989 
L 142.320472 121.332304 
L 142.189204 121.638022 
L 141.839156 121.713724 
L 141.707888 122.173756 
L 141.13906 122.555176 
L 141.051548 122.709491 
L 140.7015 122.860894 
L 140.26394 123.015209 
L 140.088916 123.320927 
L 139.738868 123.396628 
L 139.651356 123.626645 
L 139.432576 123.702346 
L 139.213796 124.316694 
L 138.95126 124.468097 
L 138.73248 125.082445 
L 138.557456 125.158146 
L 138.251164 125.618179 
L 137.682336 125.999599 
L 137.551068 125.999599 
L 137.244776 126.229615 
L 133.744296 126.459632 
L 133.656784 126.611035 
L 133.394248 126.611035 
L 133.26298 126.919664 
L 133.0442 127.225382 
L 132.956688 127.225382 
L 132.956688 127.5311 
L 132.694152 127.991133 
L 132.475372 128.066835 
L 131.337716 129.444022 
L 130.943912 129.904054 
L 130.63762 130.591192 
L 130.156304 131.126926 
L 129.850012 132.35271 
L 129.368696 132.658428 
L 127.662212 134.801366 
L 126.69958 135.721431 
L 120.705008 137.404336 
L 119.217304 138.935838 
L 116.679456 141.920228 
L 113.178976 147.507588 
L 47.72 318.04 
L 47.72 318.04 
" clip-path="url(#pe2d1b80121)" style="fill: none; stroke: #e377c2; stroke-opacity: 0.9; stroke-width: 1.6; stroke-linecap: square"/>
   </g>
   <g id="line2d_32">
    <path d="M 485.28 26.88 
L 209.004616 46.932189 
L 198.45942 48.387989 
L 193.296212 49.53516 
L 190.452072 50.530927 
L 187.7392 50.912346 
L 185.245108 51.602396 
L 183.757404 52.292445 
L 182.444724 52.749566 
L 181.044532 52.828179 
L 176.231372 54.281068 
L 175.093716 54.511084 
L 174.349864 55.046818 
L 173.73728 55.046818 
L 172.249576 55.582553 
L 170.586848 56.193989 
L 169.711728 56.193989 
L 169.36168 56.348304 
L 168.661584 56.348304 
L 168.355292 56.654022 
L 167.567684 56.808336 
L 167.480172 56.95974 
L 166.780076 57.038353 
L 166.29876 57.574087 
L 165.117348 57.879805 
L 164.723544 58.031208 
L 163.542132 58.109822 
L 162.404476 58.336926 
L 161.223064 58.566943 
L 161.223064 58.721258 
L 160.61048 59.026976 
L 160.3917 59.026976 
L 159.472824 59.487008 
L 159.035264 59.792726 
L 157.591316 60.252759 
L 157.241268 60.939897 
L 156.628684 61.094212 
L 155.666052 61.094212 
L 154.9222 61.629946 
L 154.528396 61.859962 
L 153.478252 62.16568 
L 153.39074 62.395697 
L 152.7344 62.471398 
L 152.51562 62.625713 
L 151.990548 62.777116 
L 151.728012 63.161448 
L 150.98416 63.237149 
L 150.940404 63.312851 
L 150.284064 63.772884 
L 148.840116 64.078602 
L 148.446312 64.38432 
L 148.227532 64.38432 
L 147.833728 64.690038 
L 147.089876 64.690038 
L 146.871096 64.844352 
L 146.564804 64.844352 
L 146.127244 65.15007 
L 145.51466 65.15007 
L 144.683296 65.455788 
L 144.42076 65.455788 
L 144.20198 65.610103 
L 143.808176 65.610103 
L 143.676908 65.915821 
L 143.239348 65.915821 
L 143.239348 65.991523 
L 142.45174 66.451556 
L 142.057936 66.527257 
L 141.839156 66.757274 
L 141.57662 66.757274 
L 141.489108 66.98729 
L 141.270328 67.141605 
L 141.051548 67.141605 
L 140.92028 67.447323 
L 140.657744 67.523024 
L 140.438964 67.753041 
L 139.738868 67.904444 
L 138.819992 68.670195 
L 137.4198 69.054526 
L 136.369656 69.435946 
L 136.063364 69.435946 
L 135.538292 69.820277 
L 135.275756 70.047382 
L 134.925708 70.047382 
L 134.706928 70.356011 
L 133.91932 70.661729 
L 132.82542 71.348867 
L 132.650396 71.657496 
L 132.16908 71.733198 
L 131.73152 71.963214 
L 131.29396 72.038916 
L 130.987668 72.268932 
L 130.20006 72.650352 
L 129.98128 73.034683 
L 129.587476 73.340401 
L 128.88738 73.491804 
L 128.406064 73.721821 
L 127.093384 74.563273 
L 126.69958 75.023306 
L 126.086996 75.253322 
L 124.993096 75.943372 
L 123.505392 76.479106 
L 122.32398 77.090542 
L 120.836276 77.39626 
L 119.611108 78.54343 
L 117.160772 79.769214 
L 114.710436 81.530732 
L 110.816152 83.749371 
L 83.468652 118.193599 
L 83.468652 118.193599 
" clip-path="url(#pe2d1b80121)" style="fill: none; stroke: #7f7f7f; stroke-opacity: 0.9; stroke-width: 1.6; stroke-linecap: square"/>
   </g>
   <g id="line2d_33">
    <path d="M 485.28 26.88 
L 482.829664 26.88 
L 418.202052 27.26142 
L 266.587512 31.625908 
L 219.856104 36.753236 
L 201.347316 40.503376 
L 191.939776 43.490678 
L 185.595156 45.173583 
L 181.39458 46.856488 
L 171.593236 49.995192 
L 170.280556 50.530927 
L 168.92412 50.760943 
L 167.742708 51.220976 
L 166.9551 51.678097 
L 164.7673 52.292445 
L 163.148328 52.598163 
L 162.710768 52.828179 
L 162.316964 53.133897 
L 162.098184 53.363914 
L 161.179308 53.669632 
L 160.522968 54.511084 
L 158.728972 54.892504 
L 158.42268 55.276835 
L 157.98512 55.428238 
L 157.810096 55.658254 
L 157.372536 55.812569 
L 156.541172 55.963972 
L 156.409904 55.963972 
L 156.322392 56.193989 
L 155.972344 56.272602 
L 155.928588 56.348304 
L 155.709808 56.424005 
L 155.403516 56.729723 
L 155.14098 57.038353 
L 154.70342 57.344071 
L 154.003324 57.419772 
L 153.915812 57.649789 
L 153.740788 57.72549 
L 153.60952 57.801192 
L 153.478252 57.955507 
L 153.215716 58.031208 
L 153.17196 58.109822 
L 152.29684 58.185523 
L 152.29684 58.261225 
L 151.509232 58.336926 
L 151.071672 58.721258 
L 150.634112 58.796959 
L 150.502844 58.951274 
L 148.708848 59.026976 
L 148.621336 59.102677 
L 147.964996 59.18129 
L 147.352412 59.408395 
L 147.133632 59.94413 
L 146.739828 59.94413 
L 146.696072 60.098444 
L 146.258512 60.174146 
L 145.689684 60.479864 
L 145.120856 60.558477 
L 143.808176 60.939897 
L 143.370616 60.939897 
L 142.67052 61.245615 
L 141.489108 61.475631 
L 138.426188 62.852818 
L 136.894728 63.082834 
L 135.582048 63.772884 
L 133.219224 65.304385 
L 129.10616 67.141605 
L 122.061444 71.273165 
L 110.553616 79.003463 
L 94.845212 99.364282 
L 65.703716 208.741448 
L 47.982536 317.274249 
L 47.72 318.04 
L 47.72 318.04 
" clip-path="url(#pe2d1b80121)" style="fill: none; stroke: #bcbd22; stroke-opacity: 0.9; stroke-width: 1.6; stroke-linecap: square"/>
   </g>
   <g id="line2d_34">
    <path d="M 485.28 26.88 
L 483.135956 26.88 
L 458.326304 27.110016 
L 377.771508 28.868623 
L 319.838564 32.621675 
L 284.702496 37.213268 
L 259.630308 39.431908 
L 245.103316 40.887708 
L 235.914556 42.189193 
L 230.18252 43.796396 
L 221.606344 45.555002 
L 215.436748 47.240819 
L 211.14866 48.082271 
L 209.660956 48.848022 
L 207.254376 49.53516 
L 206.510524 50.225209 
L 204.191456 50.836645 
L 203.141312 51.220976 
L 202.39746 51.372379 
L 200.515952 52.062428 
L 198.809468 52.13813 
L 195.702792 52.903881 
L 195.046452 52.903881 
L 193.514992 53.59393 
L 193.033676 53.59393 
L 191.45846 54.129664 
L 190.933388 54.281068 
L 190.58334 54.511084 
L 190.539584 54.7411 
L 189.839488 55.046818 
L 189.226904 55.12252 
L 188.964368 55.428238 
L 188.308028 55.658254 
L 187.7392 55.658254 
L 187.257884 55.963972 
L 186.251496 56.118287 
L 185.420132 56.118287 
L 184.282476 56.57832 
L 183.451112 56.654022 
L 183.188576 56.729723 
L 182.794772 56.729723 
L 182.575992 56.884038 
L 182.357212 56.884038 
L 182.05092 57.038353 
L 181.438336 57.114054 
L 176.450152 57.114054 
L 176.406396 57.344071 
L 176.187616 57.419772 
L 175.531276 57.419772 
L 174.83118 57.801192 
L 174.306108 57.955507 
L 174.087328 57.955507 
L 173.868548 58.185523 
L 173.430988 58.261225 
L 173.343476 58.336926 
L 172.993428 58.41554 
L 172.599624 58.491241 
L 172.118308 58.566943 
L 171.899528 58.721258 
L 170.586848 58.796959 
L 169.842996 59.102677 
L 169.449192 59.18129 
L 168.180268 59.256992 
L 167.961488 59.487008 
L 167.567684 59.638412 
L 167.39266 59.868428 
L 166.998856 59.868428 
L 166.73632 60.022743 
L 165.467396 60.098444 
L 165.336128 60.252759 
L 164.898568 60.404162 
L 164.154716 60.404162 
L 163.323352 60.634179 
L 162.842036 60.70988 
L 162.5795 60.864195 
L 161.748136 61.094212 
L 159.95414 61.169913 
L 154.878444 61.935664 
L 154.26586 62.011366 
L 153.346984 62.011366 
L 152.428108 62.241382 
L 151.684256 62.241382 
L 150.502844 62.777116 
L 148.446312 63.542867 
L 147.089876 63.848585 
L 146.346024 64.232916 
L 145.427148 64.460021 
L 143.283104 65.304385 
L 142.057936 66.221539 
L 139.38882 67.062992 
L 137.594824 67.904444 
L 134.531904 68.82451 
L 123.111588 75.864758 
L 114.360388 82.753604 
L 102.371244 102.65439 
L 84.168748 148.503355 
L 63.953476 220.297588 
L 50.12658 308.396781 
L 49.207704 318.04 
L 47.72 318.04 
L 47.72 318.04 
" clip-path="url(#pe2d1b80121)" style="fill: none; stroke: #17becf; stroke-opacity: 0.9; stroke-width: 1.6; stroke-linecap: square"/>
   </g>
   <g id="patch_3">
    <path d="M 47.72 318.04 
L 47.72 26.88 
" style="fill: none; stroke: #000000; stroke-width: 0.8; stroke-linejoin: miter; stroke-linecap: square"/>
   </g>
   <g id="patch_4">
    <path d="M 485.28 318.04 
L 485.28 26.88 
" style="fill: none; stroke: #000000; stroke-width: 0.8; stroke-linejoin: miter; stroke-linecap: square"/>
   </g>
   <g id="patch_5">
    <path d="M 47.72 318.04 
L 485.28 318.04 
" style="fill: none; stroke: #000000; stroke-width: 0.8; stroke-linejoin: miter; stroke-linecap: square"/>
   </g>
   <g id="patch_6">
    <path d="M 47.72 26.88 
L 485.28 26.88 
" style="fill: none; stroke: #000000; stroke-width: 0.8; stroke-linejoin: miter; stroke-linecap: square"/>
   </g>
   <g id="text_15">
    <!-- Operating curve — catch rate vs false alarms on real traffic -->
    <g transform="translate(88.175313 20.88) scale(0.12 -0.12)">
     <defs>
      <path id="DejaVuSans-4f" d="M 2522 4238 
Q 1834 4238 1429 3725 
Q 1025 3213 1025 2328 
Q 1025 1447 1429 934 
Q 1834 422 2522 422 
Q 3209 422 3611 934 
Q 4013 1447 4013 2328 
Q 4013 3213 3611 3725 
Q 3209 4238 2522 4238 
z
M 2522 4750 
Q 3503 4750 4090 4092 
Q 4678 3434 4678 2328 
Q 4678 1225 4090 567 
Q 3503 -91 2522 -91 
Q 1538 -91 948 565 
Q 359 1222 359 2328 
Q 359 3434 948 4092 
Q 1538 4750 2522 4750 
z
" transform="scale(0.015625)"/>
      <path id="DejaVuSans-75" d="M 544 1381 
L 544 3500 
L 1119 3500 
L 1119 1403 
Q 1119 906 1312 657 
Q 1506 409 1894 409 
Q 2359 409 2629 706 
Q 2900 1003 2900 1516 
L 2900 3500 
L 3475 3500 
L 3475 0 
L 2900 0 
L 2900 538 
Q 2691 219 2414 64 
Q 2138 -91 1772 -91 
Q 1169 -91 856 284 
Q 544 659 544 1381 
z
M 1991 3584 
L 1991 3584 
z
" transform="scale(0.015625)"/>
      <path id="DejaVuSans-2014" d="M 313 1978 
L 6088 1978 
L 6088 1528 
L 313 1528 
L 313 1978 
z
" transform="scale(0.015625)"/>
      <path id="DejaVuSans-68" d="M 3513 2113 
L 3513 0 
L 2938 0 
L 2938 2094 
Q 2938 2591 2744 2837 
Q 2550 3084 2163 3084 
Q 1697 3084 1428 2787 
Q 1159 2491 1159 1978 
L 1159 0 
L 581 0 
L 581 4863 
L 1159 4863 
L 1159 2956 
Q 1366 3272 1645 3428 
Q 1925 3584 2291 3584 
Q 2894 3584 3203 3211 
Q 3513 2838 3513 2113 
z
" transform="scale(0.015625)"/>
      <path id="DejaVuSans-6d" d="M 3328 2828 
Q 3544 3216 3844 3400 
Q 4144 3584 4550 3584 
Q 5097 3584 5394 3201 
Q 5691 2819 5691 2113 
L 5691 0 
L 5113 0 
L 5113 2094 
Q 5113 2597 4934 2840 
Q 4756 3084 4391 3084 
Q 3944 3084 3684 2787 
Q 3425 2491 3425 1978 
L 3425 0 
L 2847 0 
L 2847 2094 
Q 2847 2600 2669 2842 
Q 2491 3084 2119 3084 
Q 1678 3084 1418 2786 
Q 1159 2488 1159 1978 
L 1159 0 
L 581 0 
L 581 3500 
L 1159 3500 
L 1159 2956 
Q 1356 3278 1631 3431 
Q 1906 3584 2284 3584 
Q 2666 3584 2933 3390 
Q 3200 3197 3328 2828 
z
" transform="scale(0.015625)"/>
     </defs>
     <use xlink:href="#DejaVuSans-4f"/>
     <use xlink:href="#DejaVuSans-70" x="78.710938"/>
     <use xlink:href="#DejaVuSans-65" x="142.1875"/>
     <use xlink:href="#DejaVuSans-72" x="203.710938"/>
     <use xlink:href="#DejaVuSans-61" x="244.824219"/>
     <use xlink:href="#DejaVuSans-74" x="306.103516"/>
     <use xlink:href="#DejaVuSans-69" x="345.3125"/>
     <use xlink:href="#DejaVuSans-6e" x="373.095703"/>
     <use xlink:href="#DejaVuSans-67" x="436.474609"/>
     <use xlink:href="#DejaVuSans-20" x="499.951172"/>
     <use xlink:href="#DejaVuSans-63" x="531.738281"/>
     <use xlink:href="#DejaVuSans-75" x="586.71875"/>
     <use xlink:href="#DejaVuSans-72" x="650.097656"/>
     <use xlink:href="#DejaVuSans-76" x="691.210938"/>
     <use xlink:href="#DejaVuSans-65" x="750.390625"/>
     <use xlink:href="#DejaVuSans-20" x="811.914062"/>
     <use xlink:href="#DejaVuSans-2014" x="843.701172"/>
     <use xlink:href="#DejaVuSans-20" x="943.701172"/>
     <use xlink:href="#DejaVuSans-63" x="975.488281"/>
     <use xlink:href="#DejaVuSans-61" x="1030.46875"/>
     <use xlink:href="#DejaVuSans-74" x="1091.748047"/>
     <use xlink:href="#DejaVuSans-63" x="1130.957031"/>
     <use xlink:href="#DejaVuSans-68" x="1185.9375"/>
     <use xlink:href="#DejaVuSans-20" x="1249.316406"/>
     <use xlink:href="#DejaVuSans-72" x="1281.103516"/>
     <use xlink:href="#DejaVuSans-61" x="1322.216797"/>
     <use xlink:href="#DejaVuSans-74" x="1383.496094"/>
     <use xlink:href="#DejaVuSans-65" x="1422.705078"/>
     <use xlink:href="#DejaVuSans-20" x="1484.228516"/>
     <use xlink:href="#DejaVuSans-76" x="1516.015625"/>
     <use xlink:href="#DejaVuSans-73" x="1575.195312"/>
     <use xlink:href="#DejaVuSans-20" x="1627.294922"/>
     <use xlink:href="#DejaVuSans-66" x="1659.082031"/>
     <use xlink:href="#DejaVuSans-61" x="1694.287109"/>
     <use xlink:href="#DejaVuSans-6c" x="1755.566406"/>
     <use xlink:href="#DejaVuSans-73" x="1783.349609"/>
     <use xlink:href="#DejaVuSans-65" x="1835.449219"/>
     <use xlink:href="#DejaVuSans-20" x="1896.972656"/>
     <use xlink:href="#DejaVuSans-61" x="1928.759766"/>
     <use xlink:href="#DejaVuSans-6c" x="1990.039062"/>
     <use xlink:href="#DejaVuSans-61" x="2017.822266"/>
     <use xlink:href="#DejaVuSans-72" x="2079.101562"/>
     <use xlink:href="#DejaVuSans-6d" x="2118.464844"/>
     <use xlink:href="#DejaVuSans-73" x="2215.876953"/>
     <use xlink:href="#DejaVuSans-20" x="2267.976562"/>
     <use xlink:href="#DejaVuSans-6f" x="2299.763672"/>
     <use xlink:href="#DejaVuSans-6e" x="2360.945312"/>
     <use xlink:href="#DejaVuSans-20" x="2424.324219"/>
     <use xlink:href="#DejaVuSans-72" x="2456.111328"/>
     <use xlink:href="#DejaVuSans-65" x="2494.974609"/>
     <use xlink:href="#DejaVuSans-61" x="2556.498047"/>
     <use xlink:href="#DejaVuSans-6c" x="2617.777344"/>
     <use xlink:href="#DejaVuSans-20" x="2645.560547"/>
     <use xlink:href="#DejaVuSans-74" x="2677.347656"/>
     <use xlink:href="#DejaVuSans-72" x="2716.556641"/>
     <use xlink:href="#DejaVuSans-61" x="2757.669922"/>
     <use xlink:href="#DejaVuSans-66" x="2818.949219"/>
     <use xlink:href="#DejaVuSans-66" x="2854.154297"/>
     <use xlink:href="#DejaVuSans-69" x="2889.359375"/>
     <use xlink:href="#DejaVuSans-63" x="2917.142578"/>
    </g>
   </g>
   <g id="legend_1">
    <g id="patch_7">
     <path d="M 311.486406 314.54 
L 480.38 314.54 
Q 481.78 314.54 481.78 313.14 
L 481.78 211.093125 
Q 481.78 209.693125 480.38 209.693125 
L 311.486406 209.693125 
Q 310.086406 209.693125 310.086406 211.093125 
L 310.086406 313.14 
Q 310.086406 314.54 311.486406 314.54 
z
" style="fill: #ffffff; opacity: 0.8; stroke: #cccccc; stroke-linejoin: miter"/>
    </g>
    <g id="line2d_35">
     <path d="M 312.886406 215.362031 
L 319.886406 215.362031 
L 326.886406 215.362031 
" style="fill: none; stroke: #1f77b4; stroke-opacity: 0.9; stroke-width: 1.6; stroke-linecap: square"/>
    </g>
    <g id="text_16">
     <!-- bastion-prompt-protection (70M) -->
     <g transform="translate(332.486406 217.812031) scale(0.07 -0.07)">
      <defs>
       <path id="DejaVuSans-37" d="M 525 4666 
L 3525 4666 
L 3525 4397 
L 1831 0 
L 1172 0 
L 2766 4134 
L 525 4134 
L 525 4666 
z
" transform="scale(0.015625)"/>
       <path id="DejaVuSans-4d" d="M 628 4666 
L 1569 4666 
L 2759 1491 
L 3956 4666 
L 4897 4666 
L 4897 0 
L 4281 0 
L 4281 4097 
L 3078 897 
L 2444 897 
L 1241 4097 
L 1241 0 
L 628 0 
L 628 4666 
z
" transform="scale(0.015625)"/>
      </defs>
      <use xlink:href="#DejaVuSans-62"/>
      <use xlink:href="#DejaVuSans-61" x="63.476562"/>
      <use xlink:href="#DejaVuSans-73" x="124.755859"/>
      <use xlink:href="#DejaVuSans-74" x="176.855469"/>
      <use xlink:href="#DejaVuSans-69" x="216.064453"/>
      <use xlink:href="#DejaVuSans-6f" x="243.847656"/>
      <use xlink:href="#DejaVuSans-6e" x="305.029297"/>
      <use xlink:href="#DejaVuSans-2d" x="368.408203"/>
      <use xlink:href="#DejaVuSans-70" x="404.492188"/>
      <use xlink:href="#DejaVuSans-72" x="467.96875"/>
      <use xlink:href="#DejaVuSans-6f" x="506.832031"/>
      <use xlink:href="#DejaVuSans-6d" x="568.013672"/>
      <use xlink:href="#DejaVuSans-70" x="665.425781"/>
      <use xlink:href="#DejaVuSans-74" x="728.902344"/>
      <use xlink:href="#DejaVuSans-2d" x="768.111328"/>
      <use xlink:href="#DejaVuSans-70" x="804.195312"/>
      <use xlink:href="#DejaVuSans-72" x="867.671875"/>
      <use xlink:href="#DejaVuSans-6f" x="906.535156"/>
      <use xlink:href="#DejaVuSans-74" x="967.716797"/>
      <use xlink:href="#DejaVuSans-65" x="1006.925781"/>
      <use xlink:href="#DejaVuSans-63" x="1068.449219"/>
      <use xlink:href="#DejaVuSans-74" x="1123.429688"/>
      <use xlink:href="#DejaVuSans-69" x="1162.638672"/>
      <use xlink:href="#DejaVuSans-6f" x="1190.421875"/>
      <use xlink:href="#DejaVuSans-6e" x="1251.603516"/>
      <use xlink:href="#DejaVuSans-20" x="1314.982422"/>
      <use xlink:href="#DejaVuSans-28" x="1346.769531"/>
      <use xlink:href="#DejaVuSans-37" x="1385.783203"/>
      <use xlink:href="#DejaVuSans-30" x="1449.40625"/>
      <use xlink:href="#DejaVuSans-4d" x="1513.029297"/>
      <use xlink:href="#DejaVuSans-29" x="1599.308594"/>
     </g>
    </g>
    <g id="line2d_36">
     <path d="M 312.886406 225.636719 
L 319.886406 225.636719 
L 326.886406 225.636719 
" style="fill: none; stroke: #ff7f0e; stroke-opacity: 0.9; stroke-width: 1.6; stroke-linecap: square"/>
    </g>
    <g id="text_17">
     <!-- deepset injection (184M) -->
     <g transform="translate(332.486406 228.086719) scale(0.07 -0.07)">
      <defs>
       <path id="DejaVuSans-64" d="M 2906 2969 
L 2906 4863 
L 3481 4863 
L 3481 0 
L 2906 0 
L 2906 525 
Q 2725 213 2448 61 
Q 2172 -91 1784 -91 
Q 1150 -91 751 415 
Q 353 922 353 1747 
Q 353 2572 751 3078 
Q 1150 3584 1784 3584 
Q 2172 3584 2448 3432 
Q 2725 3281 2906 2969 
z
M 947 1747 
Q 947 1113 1208 752 
Q 1469 391 1925 391 
Q 2381 391 2643 752 
Q 2906 1113 2906 1747 
Q 2906 2381 2643 2742 
Q 2381 3103 1925 3103 
Q 1469 3103 1208 2742 
Q 947 2381 947 1747 
z
" transform="scale(0.015625)"/>
       <path id="DejaVuSans-6a" d="M 603 3500 
L 1178 3500 
L 1178 -63 
Q 1178 -731 923 -1031 
Q 669 -1331 103 -1331 
L -116 -1331 
L -116 -844 
L 38 -844 
Q 366 -844 484 -692 
Q 603 -541 603 -63 
L 603 3500 
z
M 603 4863 
L 1178 4863 
L 1178 4134 
L 603 4134 
L 603 4863 
z
" transform="scale(0.015625)"/>
      </defs>
      <use xlink:href="#DejaVuSans-64"/>
      <use xlink:href="#DejaVuSans-65" x="63.476562"/>
      <use xlink:href="#DejaVuSans-65" x="125"/>
      <use xlink:href="#DejaVuSans-70" x="186.523438"/>
      <use xlink:href="#DejaVuSans-73" x="250"/>
      <use xlink:href="#DejaVuSans-65" x="302.099609"/>
      <use xlink:href="#DejaVuSans-74" x="363.623047"/>
      <use xlink:href="#DejaVuSans-20" x="402.832031"/>
      <use xlink:href="#DejaVuSans-69" x="434.619141"/>
      <use xlink:href="#DejaVuSans-6e" x="462.402344"/>
      <use xlink:href="#DejaVuSans-6a" x="525.78125"/>
      <use xlink:href="#DejaVuSans-65" x="553.564453"/>
      <use xlink:href="#DejaVuSans-63" x="615.087891"/>
      <use xlink:href="#DejaVuSans-74" x="670.068359"/>
      <use xlink:href="#DejaVuSans-69" x="709.277344"/>
      <use xlink:href="#DejaVuSans-6f" x="737.060547"/>
      <use xlink:href="#DejaVuSans-6e" x="798.242188"/>
      <use xlink:href="#DejaVuSans-20" x="861.621094"/>
      <use xlink:href="#DejaVuSans-28" x="893.408203"/>
      <use xlink:href="#DejaVuSans-31" x="932.421875"/>
      <use xlink:href="#DejaVuSans-38" x="996.044922"/>
      <use xlink:href="#DejaVuSans-34" x="1059.667969"/>
      <use xlink:href="#DejaVuSans-4d" x="1123.291016"/>
      <use xlink:href="#DejaVuSans-29" x="1209.570312"/>
     </g>
    </g>
    <g id="line2d_37">
     <path d="M 312.886406 235.911406 
L 319.886406 235.911406 
L 326.886406 235.911406 
" style="fill: none; stroke: #2ca02c; stroke-opacity: 0.9; stroke-width: 1.6; stroke-linecap: square"/>
    </g>
    <g id="text_18">
     <!-- fmops distilbert (67M) -->
     <g transform="translate(332.486406 238.361406) scale(0.07 -0.07)">
      <use xlink:href="#DejaVuSans-66"/>
      <use xlink:href="#DejaVuSans-6d" x="35.205078"/>
      <use xlink:href="#DejaVuSans-6f" x="132.617188"/>
      <use xlink:href="#DejaVuSans-70" x="193.798828"/>
      <use xlink:href="#DejaVuSans-73" x="257.275391"/>
      <use xlink:href="#DejaVuSans-20" x="309.375"/>
      <use xlink:href="#DejaVuSans-64" x="341.162109"/>
      <use xlink:href="#DejaVuSans-69" x="404.638672"/>
      <use xlink:href="#DejaVuSans-73" x="432.421875"/>
      <use xlink:href="#DejaVuSans-74" x="484.521484"/>
      <use xlink:href="#DejaVuSans-69" x="523.730469"/>
      <use xlink:href="#DejaVuSans-6c" x="551.513672"/>
      <use xlink:href="#DejaVuSans-62" x="579.296875"/>
      <use xlink:href="#DejaVuSans-65" x="642.773438"/>
      <use xlink:href="#DejaVuSans-72" x="704.296875"/>
      <use xlink:href="#DejaVuSans-74" x="745.410156"/>
      <use xlink:href="#DejaVuSans-20" x="784.619141"/>
      <use xlink:href="#DejaVuSans-28" x="816.40625"/>
      <use xlink:href="#DejaVuSans-36" x="855.419922"/>
      <use xlink:href="#DejaVuSans-37" x="919.042969"/>
      <use xlink:href="#DejaVuSans-4d" x="982.666016"/>
      <use xlink:href="#DejaVuSans-29" x="1068.945312"/>
     </g>
    </g>
    <g id="line2d_38">
     <path d="M 312.886406 246.186094 
L 319.886406 246.186094 
L 326.886406 246.186094 
" style="fill: none; stroke: #d62728; stroke-opacity: 0.9; stroke-width: 1.6; stroke-linecap: square"/>
    </g>
    <g id="text_19">
     <!-- hlyn judge (70M) -->
     <g transform="translate(332.486406 248.636094) scale(0.07 -0.07)">
      <defs>
       <path id="DejaVuSans-79" d="M 2059 -325 
Q 1816 -950 1584 -1140 
Q 1353 -1331 966 -1331 
L 506 -1331 
L 506 -850 
L 844 -850 
Q 1081 -850 1212 -737 
Q 1344 -625 1503 -206 
L 1606 56 
L 191 3500 
L 800 3500 
L 1894 763 
L 2988 3500 
L 3597 3500 
L 2059 -325 
z
" transform="scale(0.015625)"/>
      </defs>
      <use xlink:href="#DejaVuSans-68"/>
      <use xlink:href="#DejaVuSans-6c" x="63.378906"/>
      <use xlink:href="#DejaVuSans-79" x="91.162109"/>
      <use xlink:href="#DejaVuSans-6e" x="150.341797"/>
      <use xlink:href="#DejaVuSans-20" x="213.720703"/>
      <use xlink:href="#DejaVuSans-6a" x="245.507812"/>
      <use xlink:href="#DejaVuSans-75" x="273.291016"/>
      <use xlink:href="#DejaVuSans-64" x="336.669922"/>
      <use xlink:href="#DejaVuSans-67" x="400.146484"/>
      <use xlink:href="#DejaVuSans-65" x="463.623047"/>
      <use xlink:href="#DejaVuSans-20" x="525.146484"/>
      <use xlink:href="#DejaVuSans-28" x="556.933594"/>
      <use xlink:href="#DejaVuSans-37" x="595.947266"/>
      <use xlink:href="#DejaVuSans-30" x="659.570312"/>
      <use xlink:href="#DejaVuSans-4d" x="723.193359"/>
      <use xlink:href="#DejaVuSans-29" x="809.472656"/>
     </g>
    </g>
    <g id="line2d_39">
     <path d="M 312.886406 256.460781 
L 319.886406 256.460781 
L 326.886406 256.460781 
" style="fill: none; stroke: #9467bd; stroke-opacity: 0.9; stroke-width: 1.6; stroke-linecap: square"/>
    </g>
    <g id="text_20">
     <!-- meta prompt-guard v1 (86M, deprecated) -->
     <g transform="translate(332.486406 258.910781) scale(0.07 -0.07)">
      <defs>
       <path id="DejaVuSans-2c" d="M 750 794 
L 1409 794 
L 1409 256 
L 897 -744 
L 494 -744 
L 750 256 
L 750 794 
z
" transform="scale(0.015625)"/>
      </defs>
      <use xlink:href="#DejaVuSans-6d"/>
      <use xlink:href="#DejaVuSans-65" x="97.412109"/>
      <use xlink:href="#DejaVuSans-74" x="158.935547"/>
      <use xlink:href="#DejaVuSans-61" x="198.144531"/>
      <use xlink:href="#DejaVuSans-20" x="259.423828"/>
      <use xlink:href="#DejaVuSans-70" x="291.210938"/>
      <use xlink:href="#DejaVuSans-72" x="354.6875"/>
      <use xlink:href="#DejaVuSans-6f" x="393.550781"/>
      <use xlink:href="#DejaVuSans-6d" x="454.732422"/>
      <use xlink:href="#DejaVuSans-70" x="552.144531"/>
      <use xlink:href="#DejaVuSans-74" x="615.621094"/>
      <use xlink:href="#DejaVuSans-2d" x="654.830078"/>
      <use xlink:href="#DejaVuSans-67" x="690.914062"/>
      <use xlink:href="#DejaVuSans-75" x="754.390625"/>
      <use xlink:href="#DejaVuSans-61" x="817.769531"/>
      <use xlink:href="#DejaVuSans-72" x="879.048828"/>
      <use xlink:href="#DejaVuSans-64" x="918.412109"/>
      <use xlink:href="#DejaVuSans-20" x="981.888672"/>
      <use xlink:href="#DejaVuSans-76" x="1013.675781"/>
      <use xlink:href="#DejaVuSans-31" x="1072.855469"/>
      <use xlink:href="#DejaVuSans-20" x="1136.478516"/>
      <use xlink:href="#DejaVuSans-28" x="1168.265625"/>
      <use xlink:href="#DejaVuSans-38" x="1207.279297"/>
      <use xlink:href="#DejaVuSans-36" x="1270.902344"/>
      <use xlink:href="#DejaVuSans-4d" x="1334.525391"/>
      <use xlink:href="#DejaVuSans-2c" x="1420.804688"/>
      <use xlink:href="#DejaVuSans-20" x="1452.591797"/>
      <use xlink:href="#DejaVuSans-64" x="1484.378906"/>
      <use xlink:href="#DejaVuSans-65" x="1547.855469"/>
      <use xlink:href="#DejaVuSans-70" x="1609.378906"/>
      <use xlink:href="#DejaVuSans-72" x="1672.855469"/>
      <use xlink:href="#DejaVuSans-65" x="1711.71875"/>
      <use xlink:href="#DejaVuSans-63" x="1773.242188"/>
      <use xlink:href="#DejaVuSans-61" x="1828.222656"/>
      <use xlink:href="#DejaVuSans-74" x="1889.501953"/>
      <use xlink:href="#DejaVuSans-65" x="1928.710938"/>
      <use xlink:href="#DejaVuSans-64" x="1990.234375"/>
      <use xlink:href="#DejaVuSans-29" x="2053.710938"/>
     </g>
    </g>
    <g id="line2d_40">
     <path d="M 312.886406 266.735469 
L 319.886406 266.735469 
L 326.886406 266.735469 
" style="fill: none; stroke: #8c564b; stroke-opacity: 0.9; stroke-width: 1.6; stroke-linecap: square"/>
    </g>
    <g id="text_21">
     <!-- protectai v2 (184M) -->
     <g transform="translate(332.486406 269.185469) scale(0.07 -0.07)">
      <use xlink:href="#DejaVuSans-70"/>
      <use xlink:href="#DejaVuSans-72" x="63.476562"/>
      <use xlink:href="#DejaVuSans-6f" x="102.339844"/>
      <use xlink:href="#DejaVuSans-74" x="163.521484"/>
      <use xlink:href="#DejaVuSans-65" x="202.730469"/>
      <use xlink:href="#DejaVuSans-63" x="264.253906"/>
      <use xlink:href="#DejaVuSans-74" x="319.234375"/>
      <use xlink:href="#DejaVuSans-61" x="358.443359"/>
      <use xlink:href="#DejaVuSans-69" x="419.722656"/>
      <use xlink:href="#DejaVuSans-20" x="447.505859"/>
      <use xlink:href="#DejaVuSans-76" x="479.292969"/>
      <use xlink:href="#DejaVuSans-32" x="538.472656"/>
      <use xlink:href="#DejaVuSans-20" x="602.095703"/>
      <use xlink:href="#DejaVuSans-28" x="633.882812"/>
      <use xlink:href="#DejaVuSans-31" x="672.896484"/>
      <use xlink:href="#DejaVuSans-38" x="736.519531"/>
      <use xlink:href="#DejaVuSans-34" x="800.142578"/>
      <use xlink:href="#DejaVuSans-4d" x="863.765625"/>
      <use xlink:href="#DejaVuSans-29" x="950.044922"/>
     </g>
    </g>
    <g id="line2d_41">
     <path d="M 312.886406 277.010156 
L 319.886406 277.010156 
L 326.886406 277.010156 
" style="fill: none; stroke: #e377c2; stroke-opacity: 0.9; stroke-width: 1.6; stroke-linecap: square"/>
    </g>
    <g id="text_22">
     <!-- proventra mdeberta (280M) -->
     <g transform="translate(332.486406 279.460156) scale(0.07 -0.07)">
      <use xlink:href="#DejaVuSans-70"/>
      <use xlink:href="#DejaVuSans-72" x="63.476562"/>
      <use xlink:href="#DejaVuSans-6f" x="102.339844"/>
      <use xlink:href="#DejaVuSans-76" x="163.521484"/>
      <use xlink:href="#DejaVuSans-65" x="222.701172"/>
      <use xlink:href="#DejaVuSans-6e" x="284.224609"/>
      <use xlink:href="#DejaVuSans-74" x="347.603516"/>
      <use xlink:href="#DejaVuSans-72" x="386.8125"/>
      <use xlink:href="#DejaVuSans-61" x="427.925781"/>
      <use xlink:href="#DejaVuSans-20" x="489.205078"/>
      <use xlink:href="#DejaVuSans-6d" x="520.992188"/>
      <use xlink:href="#DejaVuSans-64" x="618.404297"/>
      <use xlink:href="#DejaVuSans-65" x="681.880859"/>
      <use xlink:href="#DejaVuSans-62" x="743.404297"/>
      <use xlink:href="#DejaVuSans-65" x="806.880859"/>
      <use xlink:href="#DejaVuSans-72" x="868.404297"/>
      <use xlink:href="#DejaVuSans-74" x="909.517578"/>
      <use xlink:href="#DejaVuSans-61" x="948.726562"/>
      <use xlink:href="#DejaVuSans-20" x="1010.005859"/>
      <use xlink:href="#DejaVuSans-28" x="1041.792969"/>
      <use xlink:href="#DejaVuSans-32" x="1080.806641"/>
      <use xlink:href="#DejaVuSans-38" x="1144.429688"/>
      <use xlink:href="#DejaVuSans-30" x="1208.052734"/>
      <use xlink:href="#DejaVuSans-4d" x="1271.675781"/>
      <use xlink:href="#DejaVuSans-29" x="1357.955078"/>
     </g>
    </g>
    <g id="line2d_42">
     <path d="M 312.886406 287.284844 
L 319.886406 287.284844 
L 326.886406 287.284844 
" style="fill: none; stroke: #7f7f7f; stroke-opacity: 0.9; stroke-width: 1.6; stroke-linecap: square"/>
    </g>
    <g id="text_23">
     <!-- sentinel (qualifire, 395M) -->
     <g transform="translate(332.486406 289.734844) scale(0.07 -0.07)">
      <defs>
       <path id="DejaVuSans-71" d="M 947 1747 
Q 947 1113 1208 752 
Q 1469 391 1925 391 
Q 2381 391 2643 752 
Q 2906 1113 2906 1747 
Q 2906 2381 2643 2742 
Q 2381 3103 1925 3103 
Q 1469 3103 1208 2742 
Q 947 2381 947 1747 
z
M 2906 525 
Q 2725 213 2448 61 
Q 2172 -91 1784 -91 
Q 1150 -91 751 415 
Q 353 922 353 1747 
Q 353 2572 751 3078 
Q 1150 3584 1784 3584 
Q 2172 3584 2448 3432 
Q 2725 3281 2906 2969 
L 2906 3500 
L 3481 3500 
L 3481 -1331 
L 2906 -1331 
L 2906 525 
z
" transform="scale(0.015625)"/>
       <path id="DejaVuSans-33" d="M 2597 2516 
Q 3050 2419 3304 2112 
Q 3559 1806 3559 1356 
Q 3559 666 3084 287 
Q 2609 -91 1734 -91 
Q 1441 -91 1130 -33 
Q 819 25 488 141 
L 488 750 
Q 750 597 1062 519 
Q 1375 441 1716 441 
Q 2309 441 2620 675 
Q 2931 909 2931 1356 
Q 2931 1769 2642 2001 
Q 2353 2234 1838 2234 
L 1294 2234 
L 1294 2753 
L 1863 2753 
Q 2328 2753 2575 2939 
Q 2822 3125 2822 3475 
Q 2822 3834 2567 4026 
Q 2313 4219 1838 4219 
Q 1578 4219 1281 4162 
Q 984 4106 628 3988 
L 628 4550 
Q 988 4650 1302 4700 
Q 1616 4750 1894 4750 
Q 2613 4750 3031 4423 
Q 3450 4097 3450 3541 
Q 3450 3153 3228 2886 
Q 3006 2619 2597 2516 
z
" transform="scale(0.015625)"/>
       <path id="DejaVuSans-39" d="M 703 97 
L 703 672 
Q 941 559 1184 500 
Q 1428 441 1663 441 
Q 2288 441 2617 861 
Q 2947 1281 2994 2138 
Q 2813 1869 2534 1725 
Q 2256 1581 1919 1581 
Q 1219 1581 811 2004 
Q 403 2428 403 3163 
Q 403 3881 828 4315 
Q 1253 4750 1959 4750 
Q 2769 4750 3195 4129 
Q 3622 3509 3622 2328 
Q 3622 1225 3098 567 
Q 2575 -91 1691 -91 
Q 1453 -91 1209 -44 
Q 966 3 703 97 
z
M 1959 2075 
Q 2384 2075 2632 2365 
Q 2881 2656 2881 3163 
Q 2881 3666 2632 3958 
Q 2384 4250 1959 4250 
Q 1534 4250 1286 3958 
Q 1038 3666 1038 3163 
Q 1038 2656 1286 2365 
Q 1534 2075 1959 2075 
z
" transform="scale(0.015625)"/>
       <path id="DejaVuSans-35" d="M 691 4666 
L 3169 4666 
L 3169 4134 
L 1269 4134 
L 1269 2991 
Q 1406 3038 1543 3061 
Q 1681 3084 1819 3084 
Q 2600 3084 3056 2656 
Q 3513 2228 3513 1497 
Q 3513 744 3044 326 
Q 2575 -91 1722 -91 
Q 1428 -91 1123 -41 
Q 819 9 494 109 
L 494 744 
Q 775 591 1075 516 
Q 1375 441 1709 441 
Q 2250 441 2565 725 
Q 2881 1009 2881 1497 
Q 2881 1984 2565 2268 
Q 2250 2553 1709 2553 
Q 1456 2553 1204 2497 
Q 953 2441 691 2322 
L 691 4666 
z
" transform="scale(0.015625)"/>
      </defs>
      <use xlink:href="#DejaVuSans-73"/>
      <use xlink:href="#DejaVuSans-65" x="52.099609"/>
      <use xlink:href="#DejaVuSans-6e" x="113.623047"/>
      <use xlink:href="#DejaVuSans-74" x="177.001953"/>
      <use xlink:href="#DejaVuSans-69" x="216.210938"/>
      <use xlink:href="#DejaVuSans-6e" x="243.994141"/>
      <use xlink:href="#DejaVuSans-65" x="307.373047"/>
      <use xlink:href="#DejaVuSans-6c" x="368.896484"/>
      <use xlink:href="#DejaVuSans-20" x="396.679688"/>
      <use xlink:href="#DejaVuSans-28" x="428.466797"/>
      <use xlink:href="#DejaVuSans-71" x="467.480469"/>
      <use xlink:href="#DejaVuSans-75" x="530.957031"/>
      <use xlink:href="#DejaVuSans-61" x="594.335938"/>
      <use xlink:href="#DejaVuSans-6c" x="655.615234"/>
      <use xlink:href="#DejaVuSans-69" x="683.398438"/>
      <use xlink:href="#DejaVuSans-66" x="711.181641"/>
      <use xlink:href="#DejaVuSans-69" x="746.386719"/>
      <use xlink:href="#DejaVuSans-72" x="774.169922"/>
      <use xlink:href="#DejaVuSans-65" x="813.033203"/>
      <use xlink:href="#DejaVuSans-2c" x="874.556641"/>
      <use xlink:href="#DejaVuSans-20" x="906.34375"/>
      <use xlink:href="#DejaVuSans-33" x="938.130859"/>
      <use xlink:href="#DejaVuSans-39" x="1001.753906"/>
      <use xlink:href="#DejaVuSans-35" x="1065.376953"/>
      <use xlink:href="#DejaVuSans-4d" x="1129"/>
      <use xlink:href="#DejaVuSans-29" x="1215.279297"/>
     </g>
    </g>
    <g id="line2d_43">
     <path d="M 312.886406 297.559531 
L 319.886406 297.559531 
L 326.886406 297.559531 
" style="fill: none; stroke: #bcbd22; stroke-opacity: 0.9; stroke-width: 1.6; stroke-linecap: square"/>
    </g>
    <g id="text_24">
     <!-- wolf-defender (0.3B) -->
     <g transform="translate(332.486406 300.009531) scale(0.07 -0.07)">
      <defs>
       <path id="DejaVuSans-77" d="M 269 3500 
L 844 3500 
L 1563 769 
L 2278 3500 
L 2956 3500 
L 3675 769 
L 4391 3500 
L 4966 3500 
L 4050 0 
L 3372 0 
L 2619 2869 
L 1863 0 
L 1184 0 
L 269 3500 
z
" transform="scale(0.015625)"/>
       <path id="DejaVuSans-42" d="M 1259 2228 
L 1259 519 
L 2272 519 
Q 2781 519 3026 730 
Q 3272 941 3272 1375 
Q 3272 1813 3026 2020 
Q 2781 2228 2272 2228 
L 1259 2228 
z
M 1259 4147 
L 1259 2741 
L 2194 2741 
Q 2656 2741 2882 2914 
Q 3109 3088 3109 3444 
Q 3109 3797 2882 3972 
Q 2656 4147 2194 4147 
L 1259 4147 
z
M 628 4666 
L 2241 4666 
Q 2963 4666 3353 4366 
Q 3744 4066 3744 3513 
Q 3744 3084 3544 2831 
Q 3344 2578 2956 2516 
Q 3422 2416 3680 2098 
Q 3938 1781 3938 1306 
Q 3938 681 3513 340 
Q 3088 0 2303 0 
L 628 0 
L 628 4666 
z
" transform="scale(0.015625)"/>
      </defs>
      <use xlink:href="#DejaVuSans-77"/>
      <use xlink:href="#DejaVuSans-6f" x="81.787109"/>
      <use xlink:href="#DejaVuSans-6c" x="142.96875"/>
      <use xlink:href="#DejaVuSans-66" x="170.751953"/>
      <use xlink:href="#DejaVuSans-2d" x="200.457031"/>
      <use xlink:href="#DejaVuSans-64" x="236.541016"/>
      <use xlink:href="#DejaVuSans-65" x="300.017578"/>
      <use xlink:href="#DejaVuSans-66" x="361.541016"/>
      <use xlink:href="#DejaVuSans-65" x="396.746094"/>
      <use xlink:href="#DejaVuSans-6e" x="458.269531"/>
      <use xlink:href="#DejaVuSans-64" x="521.648438"/>
      <use xlink:href="#DejaVuSans-65" x="585.125"/>
      <use xlink:href="#DejaVuSans-72" x="646.648438"/>
      <use xlink:href="#DejaVuSans-20" x="687.761719"/>
      <use xlink:href="#DejaVuSans-28" x="719.548828"/>
      <use xlink:href="#DejaVuSans-30" x="758.5625"/>
      <use xlink:href="#DejaVuSans-2e" x="822.185547"/>
      <use xlink:href="#DejaVuSans-33" x="853.972656"/>
      <use xlink:href="#DejaVuSans-42" x="917.595703"/>
      <use xlink:href="#DejaVuSans-29" x="986.199219"/>
     </g>
    </g>
    <g id="line2d_44">
     <path d="M 312.886406 307.834219 
L 319.886406 307.834219 
L 326.886406 307.834219 
" style="fill: none; stroke: #17becf; stroke-opacity: 0.9; stroke-width: 1.6; stroke-linecap: square"/>
    </g>
    <g id="text_25">
     <!-- wolf-defender-small (0.1B) -->
     <g transform="translate(332.486406 310.284219) scale(0.07 -0.07)">
      <use xlink:href="#DejaVuSans-77"/>
      <use xlink:href="#DejaVuSans-6f" x="81.787109"/>
      <use xlink:href="#DejaVuSans-6c" x="142.96875"/>
      <use xlink:href="#DejaVuSans-66" x="170.751953"/>
      <use xlink:href="#DejaVuSans-2d" x="200.457031"/>
      <use xlink:href="#DejaVuSans-64" x="236.541016"/>
      <use xlink:href="#DejaVuSans-65" x="300.017578"/>
      <use xlink:href="#DejaVuSans-66" x="361.541016"/>
      <use xlink:href="#DejaVuSans-65" x="396.746094"/>
      <use xlink:href="#DejaVuSans-6e" x="458.269531"/>
      <use xlink:href="#DejaVuSans-64" x="521.648438"/>
      <use xlink:href="#DejaVuSans-65" x="585.125"/>
      <use xlink:href="#DejaVuSans-72" x="646.648438"/>
      <use xlink:href="#DejaVuSans-2d" x="681.386719"/>
      <use xlink:href="#DejaVuSans-73" x="717.470703"/>
      <use xlink:href="#DejaVuSans-6d" x="769.570312"/>
      <use xlink:href="#DejaVuSans-61" x="866.982422"/>
      <use xlink:href="#DejaVuSans-6c" x="928.261719"/>
      <use xlink:href="#DejaVuSans-6c" x="956.044922"/>
      <use xlink:href="#DejaVuSans-20" x="983.828125"/>
      <use xlink:href="#DejaVuSans-28" x="1015.615234"/>
      <use xlink:href="#DejaVuSans-30" x="1054.628906"/>
      <use xlink:href="#DejaVuSans-2e" x="1118.251953"/>
      <use xlink:href="#DejaVuSans-31" x="1150.039062"/>
      <use xlink:href="#DejaVuSans-42" x="1213.662109"/>
      <use xlink:href="#DejaVuSans-29" x="1282.265625"/>
     </g>
    </g>
   </g>
  </g>
 </g>
 <defs>
  <clipPath id="pe2d1b80121">
   <rect x="47.72" y="26.88" width="437.56" height="291.16"/>
  </clipPath>
 </defs>
</svg>
