<svg height="360pt" stroke-linejoin="round" viewBox="0 0 504 360" width="504pt" xmlns="http://www.w3.org/2000/svg" xmlns:xlink="http://www.w3.org/1999/xlink"><defs stroke-linejoin="round"><clipPath id="a" stroke-linejoin="round"><path d="m47.72 26.88h437.56v291.16h-437.56z"/></clipPath><path id="b" d="m0 0v3.5" stroke="#000" stroke-linejoin="round" stroke-width=".8"/><path id="c" d="m2034 4250q-487 0-733-480-245-479-245-1442 0-959 245-1439 246-480 733-480 491 0 736 480 246 480 246 1439 0 963-246 1442-245 480-736 480zm0 500q785 0 1199-621 414-620 414-1801 0-1178-414-1799-414-620-1199-620-784 0-1198 620-414 621-414 1799 0 1181 414 1801 414 621 1198 621z" stroke-linejoin="round" transform="scale(.015625)"/><path id="d" d="m684 794h660v-794h-660z" stroke-linejoin="round" transform="scale(.015625)"/><path id="e" d="m1228 531h2203v-531h-2962v531q359 372 979 998 621 627 780 809 303 340 423 576 121 236 121 464 0 372-261 606-261 235-680 235-297 0-627-103-329-103-704-313v638q381 153 712 231 332 78 607 78 725 0 1156-363 431-362 431-968 0-288-108-546-107-257-392-607-78-91-497-524-418-433-1181-1211z" stroke-linejoin="round" transform="scale(.015625)"/><path id="f" d="m2419 4116-1594-2491h1594zm-166 550h794v-3041h666v-525h-666v-1100h-628v1100h-2106v609z" stroke-linejoin="round" transform="scale(.015625)"/><path id="g" d="m2113 2584q-425 0-674-291-248-290-248-796 0-503 248-796 249-292 674-292 425 0 673 292 248 293 248 796 0 506-248 796-248 291-673 291zm1253 1979v-575q-238 112-480 171-242 60-480 60-625 0-955-422-329-422-376-1275 184 272 462 417 279 145 613 145 703 0 1111-427 408-426 408-1160 0-719-425-1154-425-434-1131-434-810 0-1238 620-428 621-428 1799 0 1106 525 1764 525 658 1409 658 238 0 480-47 242-47 505-140z" stroke-linejoin="round" transform="scale(.015625)"/><path id="h" d="m2034 2216q-450 0-708-241-257-241-257-662 0-422 257-663 258-241 708-241 450 0 709 242 260 243 260 662 0 421-258 662-257 241-711 241zm-631 268q-406 100-633 378-226 279-226 679 0 559 398 884 399 325 1092 325 697 0 1094-325 397-325 397-884 0-400-227-679-226-278-629-378 456-106 710-416 255-309 255-755 0-679-414-1042-414-362-1186-362-771 0-1186 362-414 363-414 1042 0 446 256 755 257 310 713 416zm-231 997q0-362 226-565 227-203 636-203 407 0 636 203 230 203 230 565 0 363-230 566-229 203-636 203-409 0-636-203-226-203-226-566z" stroke-linejoin="round" transform="scale(.015625)"/><path id="i" d="m794 531h1031v3560l-1122-225v575l1116 225h631v-4135h1031v-531h-2687z" stroke-linejoin="round" transform="scale(.015625)"/><path id="j" d="m2194 1759q-697 0-966-159-269-159-269-544 0-306 202-486 202-179 548-179 479 0 768 339 289 339 289 901v128zm1147 238v-1997h-575v531q-197-318-491-470-294-152-719-152-537 0-855 302-317 302-317 808 0 590 395 890 396 300 1180 300h807v57q0 397-261 614-261 217-733 217-300 0-585-72-284-72-546-216v532q315 122 612 182 297 61 578 61 760 0 1135-394 375-393 375-1193z" stroke-linejoin="round" transform="scale(.015625)"/><path id="k" d="m603 4863h575v-4863h-575z" stroke-linejoin="round" transform="scale(.015625)"/><path id="l" d="m2834 3397v-544q-243 125-506 187-262 63-544 63-428 0-642-131-214-131-214-394 0-200 153-314 153-114 616-217l197-44q612-131 870-370 258-239 258-667 0-488-386-773-386-284-1061-284-281 0-586 55-305 55-642 164v594q319-166 628-249 309-82 613-82 406 0 624 139 219 139 219 392 0 234-158 359-157 125-692 241l-200 47q-534 112-772 345-237 233-237 639 0 494 350 762 350 269 994 269 318 0 599-47 282-46 519-140z" stroke-linejoin="round" transform="scale(.015625)"/><path id="m" d="m3597 1894v-281h-2644q38-594 358-905 320-311 892-311 331 0 642 81 311 81 618 244v-544q-310-131-635-200-325-69-659-69-838 0-1327 487-489 488-489 1320 0 859 464 1363 464 505 1252 505 706 0 1117-455 411-454 411-1235zm-575 169q-6 471-264 752-258 282-683 282-481 0-770-272-289-272-333-766z" stroke-linejoin="round" transform="scale(.015625)"/><path id="n" d="m313 2009h1684v-512h-1684z" stroke-linejoin="round" transform="scale(.015625)"/><path id="o" d="m1159 525v-1856h-578v4831h578v-531q182 312 458 463 277 152 661 152 638 0 1036-506 399-506 399-1331 0-825-399-1332-398-506-1036-506-384 0-661 152-276 152-458 464zm1957 1222q0 634-261 995-261 361-717 361-457 0-718-361-261-361-261-995 0-634 261-995 261-361 718-361 456 0 717 361 261 361 261 995z" stroke-linejoin="round" transform="scale(.015625)"/><path id="p" d="m1959 3097q-462 0-731-361-269-361-269-989 0-628 267-989 268-361 733-361 460 0 728 362 269 363 269 988 0 622-269 986-268 364-728 364zm0 487q750 0 1178-488 429-487 429-1349 0-859-429-1349-428-489-1178-489-753 0-1180 489-426 490-426 1349 0 862 426 1349 427 488 1180 488z" stroke-linejoin="round" transform="scale(.015625)"/><path id="q" d="m603 3500h575v-3500h-575zm0 1363h575v-729h-575z" stroke-linejoin="round" transform="scale(.015625)"/><path id="r" d="m1172 4494v-994h1184v-447h-1184v-1900q0-428 117-550 117-122 477-122h590v-481h-590q-666 0-919 248-253 249-253 905v1900h-422v447h422v994z" stroke-linejoin="round" transform="scale(.015625)"/><path id="s" d="m191 3500h609l1094-2937 1094 2937h609l-1313-3500h-781z" stroke-linejoin="round" transform="scale(.015625)"/><path id="t" d="m2631 2963q-97 56-211 82-114 27-251 27-488 0-749-317-261-317-261-911v-1844h-578v3500h578v-544q182 319 472 473 291 155 707 155 59 0 131-8 72-7 159-23z" stroke-linejoin="round" transform="scale(.015625)"/><path id="u" d="m3513 2113v-2113h-575v2094q0 497-194 743-194 247-581 247-466 0-735-297-269-296-269-809v-1978h-578v3500h578v-544q207 316 486 472 280 156 646 156 603 0 912-373 310-373 310-1098z" stroke-linejoin="round" transform="scale(.015625)"/><path id="v" d="m3116 1747q0 634-261 995-261 361-717 361-457 0-718-361-261-361-261-995 0-634 261-995 261-361 718-361 456 0 717 361 261 361 261 995zm-1957 1222q182 312 458 463 277 152 661 152 638 0 1036-506 399-506 399-1331 0-825-399-1332-398-506-1036-506-384 0-661 152-276 152-458 464v-525h-578v4863h578z" stroke-linejoin="round" transform="scale(.015625)"/><path id="w" d="m2906 1791q0 625-258 968-257 344-723 344-462 0-720-344-258-343-258-968 0-622 258-966 258-344 720-344 466 0 723 344 258 344 258 966zm575-1357q0-893-397-1329-396-436-1215-436-303 0-572 45-269 45-522 139v559q253-137 500-202 247-66 503-66 566 0 847 295 281 295 281 892v285q-178-310-456-463-278-153-666-153-643 0-1037 490-394 491-394 1301 0 812 394 1302 394 491 1037 491 388 0 666-153 278-153 456-462v531h575z" stroke-linejoin="round" transform="scale(.015625)"/><path id="x" d="m2375 4863v-479h-550q-309 0-430-125-120-125-120-450v-309h947v-447h-947v-3053h-578v3053h-550v447h550v244q0 584 272 851 272 268 862 268z" stroke-linejoin="round" transform="scale(.015625)"/><path id="y" d="m3122 3366v-538q-244 135-489 202-245 67-495 67-560 0-870-355-309-354-309-995 0-641 309-996 310-354 870-354 250 0 495 67 245 67 489 202v-532q-241-112-499-168-257-57-548-57-791 0-1257 497-465 497-465 1341 0 856 470 1346 471 491 1290 491 265 0 518-55 253-54 491-163z" stroke-linejoin="round" transform="scale(.015625)"/><path id="z" d="m0 0h-3.5" stroke="#000" stroke-linejoin="round" stroke-width=".8"/><path id="A" d="m1984 4856q-418-718-622-1422-203-703-203-1425 0-721 205-1429 205-708 620-1424h-500q-468 735-701 1444-233 709-233 1409 0 697 231 1403 232 707 703 1444z" stroke-linejoin="round" transform="scale(.015625)"/><path id="B" d="m513 4856h500q468-737 701-1444 233-706 233-1403 0-700-233-1409-233-709-701-1444h-500q415 716 620 1424 205 708 205 1429 0 722-205 1425-205 704-620 1422z" stroke-linejoin="round" transform="scale(.015625)"/><path id="C" d="m544 1381v2119h575v-2097q0-497 193-746 194-248 582-248 465 0 735 297 271 297 271 810v1984h575v-3500h-575v538q-209-319-486-474-276-155-642-155-603 0-916 375-312 375-312 1097z" stroke-linejoin="round" transform="scale(.015625)"/><path id="D" d="m3513 2113v-2113h-575v2094q0 497-194 743-194 247-581 247-466 0-735-297-269-296-269-809v-1978h-578v4863h578v-1907q207 316 486 472 280 156 646 156 603 0 912-373 310-373 310-1098z" stroke-linejoin="round" transform="scale(.015625)"/><path id="E" d="m3328 2828q216 388 516 572 300 184 706 184 547 0 844-383 297-382 297-1088v-2113h-578v2094q0 503-179 746-178 244-543 244-447 0-707-297-259-296-259-809v-1978h-578v2094q0 506-178 748-178 242-550 242-441 0-701-298-259-298-259-808v-1978h-578v3500h578v-544q197 322 472 475 275 153 653 153 382 0 649-194 267-193 395-562z" stroke-linejoin="round" transform="scale(.015625)"/><path id="F" d="m525 4666h3000v-269l-1694-4397h-659l1594 4134h-2241z" stroke-linejoin="round" transform="scale(.015625)"/><path id="G" d="m628 4666h941l1190-3175 1197 3175h941v-4666h-616v4097l-1203-3200h-634l-1203 3200v-4097h-613z" stroke-linejoin="round" transform="scale(.015625)"/><path id="H" d="m2906 2969v1894h575v-4863h-575v525q-181-312-458-464-276-152-664-152-634 0-1033 506-398 507-398 1332 0 825 398 1331 399 506 1033 506 388 0 664-152 277-151 458-463zm-1959-1222q0-634 261-995 261-361 717-361 456 0 718 361 263 361 263 995 0 634-263 995-262 361-718 361-456 0-717-361-261-361-261-995z" stroke-linejoin="round" transform="scale(.015625)"/><path id="I" d="m603 3500h575v-3563q0-668-255-968-254-300-820-300h-219v487h154q328 0 446 152 119 151 119 629zm0 1363h575v-729h-575z" stroke-linejoin="round" transform="scale(.015625)"/><path id="J" d="m750 794h659v-538l-512-1000h-403l256 1000z" stroke-linejoin="round" transform="scale(.015625)"/><path id="K" d="m2597 2516q453-97 707-404 255-306 255-756 0-690-475-1069-475-378-1350-378-293 0-604 58-311 58-642 174v609q262-153 574-231 313-78 654-78 593 0 904 234 311 234 311 681 0 413-289 645-289 233-804 233h-544v519h569q465 0 712 186 247 186 247 536 0 359-255 551-254 193-729 193-260 0-557-57-297-56-653-174v562q360 100 674 150 314 50 592 50 719 0 1137-327 419-326 419-882 0-388-222-655-222-267-631-370z" stroke-linejoin="round" transform="scale(.015625)"/><path id="L" d="m269 3500h575l719-2731 715 2731h678l719-2731 716 2731h575l-916-3500h-678l-753 2869-756-2869h-679z" stroke-linejoin="round" transform="scale(.015625)"/><path id="M" d="m1259 2228v-1709h1013q509 0 754 211 246 211 246 645 0 438-246 645-245 208-754 208zm0 1919v-1406h935q462 0 688 173 227 174 227 530 0 353-227 528-226 175-688 175zm-631 519h1613q722 0 1112-300 391-300 391-853 0-429-200-682-200-253-588-315 466-100 724-418 258-317 258-792 0-625-425-966-425-340-1210-340h-1675z" stroke-linejoin="round" transform="scale(.015625)"/></defs><g stroke-linejoin="round"><path d="m0 360h504v-360h-504z" fill="#fff"/><g><path d="m47.72 318.04h437.56v-291.16h-437.56z" fill="#fff" stroke-linejoin="round"/><g stroke-linejoin="round"><g><path d="m47.72 318.04v-291.16" style="fill:none;stroke:#b0b0b0;stroke-opacity:.25;stroke-width:.8;stroke-linecap:square;clip-path:url(#a)"/><use stroke="#000" stroke-width=".8" x="47.72" xlink:href="#b" y="318.04"/><g transform="matrix(.1 0 0 -.1 39.768438 332.638438)"><use xlink:href="#c"/><use transform="translate(63.623047)" xlink:href="#d"/><use transform="translate(95.410156)" xlink:href="#c"/></g></g><g><path d="m135.232 318.04v-291.16" style="fill:none;stroke:#b0b0b0;stroke-opacity:.25;stroke-width:.8;stroke-linecap:square;clip-path:url(#a)"/><use stroke="#000" stroke-width=".8" x="135.232" xlink:href="#b" y="318.04"/><g transform="matrix(.1 0 0 -.1 127.280438 332.638438)"><use xlink:href="#c"/><use transform="translate(63.623047)" xlink:href="#d"/><use transform="translate(95.410156)" xlink:href="#e"/></g></g><g><path d="m222.744 318.04v-291.16" style="fill:none;stroke:#b0b0b0;stroke-opacity:.25;stroke-width:.8;stroke-linecap:square;clip-path:url(#a)"/><use stroke="#000" stroke-width=".8" x="222.744" xlink:href="#b" y="318.04"/><g transform="matrix(.1 0 0 -.1 214.792438 332.638438)"><use xlink:href="#c"/><use transform="translate(63.623047)" xlink:href="#d"/><use transform="translate(95.410156)" xlink:href="#f"/></g></g><g><path d="m310.256 318.04v-291.16" style="fill:none;stroke:#b0b0b0;stroke-opacity:.25;stroke-width:.8;stroke-linecap:square;clip-path:url(#a)"/><use stroke="#000" stroke-width=".8" x="310.256" xlink:href="#b" y="318.04"/><g transform="matrix(.1 0 0 -.1 302.304438 332.638438)"><use xlink:href="#c"/><use transform="translate(63.623047)" xlink:href="#d"/><use transform="translate(95.410156)" xlink:href="#g"/></g></g><g><path d="m397.768 318.04v-291.16" style="fill:none;stroke:#b0b0b0;stroke-opacity:.25;stroke-width:.8;stroke-linecap:square;clip-path:url(#a)"/><use stroke="#000" stroke-width=".8" x="397.768" xlink:href="#b" y="318.04"/><g transform="matrix(.1 0 0 -.1 389.816438 332.638438)"><use xlink:href="#c"/><use transform="translate(63.623047)" xlink:href="#d"/><use transform="translate(95.410156)" xlink:href="#h"/></g></g><g><path d="m485.28 318.04v-291.16" style="fill:none;stroke:#b0b0b0;stroke-opacity:.25;stroke-width:.8;stroke-linecap:square;clip-path:url(#a)"/><use stroke="#000" stroke-width=".8" x="485.28" xlink:href="#b" y="318.04"/><g transform="matrix(.1 0 0 -.1 477.328437 332.638438)"><use xlink:href="#i"/><use transform="translate(63.623047)" xlink:href="#d"/><use transform="translate(95.410156)" xlink:href="#c"/></g></g><g transform="matrix(.1 0 0 -.1 166.8375 346.316563)"><path d="m628 4666h2681v-532h-2050v-1375h1850v-531h-1850v-2228h-631z" transform="scale(.015625)"/><use transform="translate(48.394531)" xlink:href="#j"/><use transform="translate(109.673828)" xlink:href="#k"/><use transform="translate(137.457031)" xlink:href="#l"/><use transform="translate(189.556641)" xlink:href="#m"/><use transform="translate(251.080078)" xlink:href="#n"/><use transform="translate(287.164062)" xlink:href="#o"/><use transform="translate(350.640625)" xlink:href="#p"/><use transform="translate(411.822266)" xlink:href="#l"/><use transform="translate(463.921875)" xlink:href="#q"/><use transform="translate(491.705078)" xlink:href="#r"/><use transform="translate(530.914062)" xlink:href="#q"/><use transform="translate(558.697266)" xlink:href="#s"/><use transform="translate(617.876953)" xlink:href="#m"/><use transform="translate(711.1875)" xlink:href="#t"/><use transform="translate(752.300781)" xlink:href="#j"/><use transform="translate(813.580078)" xlink:href="#r"/><use transform="translate(852.789062)" xlink:href="#m"/><use transform="translate(946.099609)" xlink:href="#p"/><use transform="translate(1007.28125)" xlink:href="#u"/><use transform="translate(1102.447266)" xlink:href="#t"/><use transform="translate(1141.310547)" xlink:href="#m"/><use transform="translate(1202.833984)" xlink:href="#j"/><use transform="translate(1264.113281)" xlink:href="#k"/><use transform="translate(1323.683594)" xlink:href="#v"/><use transform="translate(1387.160156)" xlink:href="#m"/><use transform="translate(1448.683594)" xlink:href="#u"/><use transform="translate(1512.0625)" xlink:href="#q"/><use transform="translate(1539.845703)" xlink:href="#w"/><use transform="translate(1603.322266)" xlink:href="#u"/><use transform="translate(1698.488281)" xlink:href="#r"/><use transform="translate(1737.697266)" xlink:href="#t"/><use transform="translate(1778.810547)" xlink:href="#j"/><use transform="translate(1840.089844)" xlink:href="#x"/><use transform="translate(1875.294922)" xlink:href="#x"/><use transform="translate(1910.5)" xlink:href="#q"/><use transform="translate(1938.283203)" xlink:href="#y"/></g></g><g stroke-linejoin="round"><g><path d="m47.72 318.04h437.56" style="fill:none;stroke:#b0b0b0;stroke-opacity:.25;stroke-width:.8;stroke-linecap:square;clip-path:url(#a)"/><use stroke="#000" stroke-width=".8" x="47.72" xlink:href="#z" y="318.04"/><g transform="matrix(.1 0 0 -.1 24.816875 321.839219)"><use xlink:href="#c"/><use transform="translate(63.623047)" xlink:href="#d"/><use transform="translate(95.410156)" xlink:href="#c"/></g></g><g><path d="m47.72 259.808h437.56" style="fill:none;stroke:#b0b0b0;stroke-opacity:.25;stroke-width:.8;stroke-linecap:square;clip-path:url(#a)"/><use stroke="#000" stroke-width=".8" x="47.72" xlink:href="#z" y="259.808"/><g transform="matrix(.1 0 0 -.1 24.816875 263.607219)"><use xlink:href="#c"/><use transform="translate(63.623047)" xlink:href="#d"/><use transform="translate(95.410156)" xlink:href="#e"/></g></g><g><path d="m47.72 201.576h437.56" style="fill:none;stroke:#b0b0b0;stroke-opacity:.25;stroke-width:.8;stroke-linecap:square;clip-path:url(#a)"/><use stroke="#000" stroke-width=".8" x="47.72" xlink:href="#z" y="201.576"/><g transform="matrix(.1 0 0 -.1 24.816875 205.375219)"><use xlink:href="#c"/><use transform="translate(63.623047)" xlink:href="#d"/><use transform="translate(95.410156)" xlink:href="#f"/></g></g><g><path d="m47.72 143.344h437.56" style="fill:none;stroke:#b0b0b0;stroke-opacity:.25;stroke-width:.8;stroke-linecap:square;clip-path:url(#a)"/><use stroke="#000" stroke-width=".8" x="47.72" xlink:href="#z" y="143.344"/><g transform="matrix(.1 0 0 -.1 24.816875 147.143219)"><use xlink:href="#c"/><use transform="translate(63.623047)" xlink:href="#d"/><use transform="translate(95.410156)" xlink:href="#g"/></g></g><g><path d="m47.72 85.112h437.56" style="fill:none;stroke:#b0b0b0;stroke-opacity:.25;stroke-width:.8;stroke-linecap:square;clip-path:url(#a)"/><use stroke="#000" stroke-width=".8" x="47.72" xlink:href="#z" y="85.112"/><g transform="matrix(.1 0 0 -.1 24.816875 88.911219)"><use xlink:href="#c"/><use transform="translate(63.623047)" xlink:href="#d"/><use transform="translate(95.410156)" xlink:href="#h"/></g></g><g><path d="m47.72 26.88h437.56" style="fill:none;stroke:#b0b0b0;stroke-opacity:.25;stroke-width:.8;stroke-linecap:square;clip-path:url(#a)"/><use stroke="#000" stroke-width=".8" x="47.72" xlink:href="#z" y="26.88"/><g transform="matrix(.1 0 0 -.1 24.816875 30.679219)"><use xlink:href="#i"/><use transform="translate(63.623047)" xlink:href="#d"/><use transform="translate(95.410156)" xlink:href="#c"/></g></g><g transform="matrix(0 -.1 -.1 -0 18.737188 251.232656)"><path d="m1259 4147v-3628h763q966 0 1414 437 448 438 448 1382 0 937-448 1373-448 436-1414 436zm-631 519h1297q1356 0 1990-564 635-564 635-1764 0-1207-638-1773-637-565-1987-565h-1297z" transform="scale(.015625)"/><use transform="translate(77.001953)" xlink:href="#m"/><use transform="translate(138.525391)" xlink:href="#r"/><use transform="translate(177.734375)" xlink:href="#m"/><use transform="translate(239.257812)" xlink:href="#y"/><use transform="translate(294.238281)" xlink:href="#r"/><use transform="translate(333.447266)" xlink:href="#q"/><use transform="translate(361.230469)" xlink:href="#p"/><use transform="translate(422.412109)" xlink:href="#u"/><use transform="translate(517.578125)" xlink:href="#t"/><use transform="translate(558.691406)" xlink:href="#j"/><use transform="translate(619.970703)" xlink:href="#r"/><use transform="translate(659.179688)" xlink:href="#m"/><use transform="translate(752.490234)" xlink:href="#p"/><use transform="translate(813.671875)" xlink:href="#u"/><use transform="translate(908.837891)" xlink:href="#j"/><use transform="translate(970.117188)" xlink:href="#r"/><use transform="translate(1009.326172)" xlink:href="#r"/><use transform="translate(1048.535156)" xlink:href="#j"/><use transform="translate(1109.814453)" xlink:href="#y"/><path d="m581 4863h578v-2872l1716 1509h734l-1856-1637 1935-1863h-750l-1779 1709v-1709h-578z" transform="translate(1164.794922)"/><use transform="translate(1222.705078)" xlink:href="#l"/><use transform="translate(1306.591797)" xlink:href="#A"/><path d="m-19 4666h3947v-532h-1656v-4134h-634v4134h-1657z" transform="translate(1345.605469)"/><path d="m1259 4147v-1753h794q441 0 681 228 241 228 241 650 0 419-241 647-240 228-681 228zm-631 519h1425q785 0 1186-355 402-355 402-1039 0-691-402-1044-401-353-1186-353h-794v-1875h-631z" transform="translate(1406.689453)"/><path d="m2841 2188q203-69 395-294 192-225 386-619l641-1275h-679l-596 1197q-232 469-449 622-217 153-592 153h-688v-1972h-631v4666h1425q800 0 1194-335 394-334 394-1009 0-441-205-732-205-290-595-402zm-1582 1959v-1656h794q456 0 689 211 233 211 233 620 0 409-233 617-233 208-689 208z" transform="translate(1466.992188)"/><use transform="translate(1536.474609)" xlink:href="#B"/></g></g><g fill="none" stroke-linecap="square"><path clip-path="url(#a)" d="m485.28 26.88-237.901372.535734-78.935824 1.377187-28.922716 1.83722-14.308212 1.607203-14.045676 1.4558-5.600768 1.52859-5.644524 1.380098-8.09486 1.452889-5.557012 1.225783-2.056532.765751-2.975408 1.607203-1.0939.841453-7.526032.995767-1.137656.38142-2.056532 1.452888-.87512.844364-2.012776 1.071469-.568828.687137-1.662728.460033-.568828.611436-.65634.154315-.962632.841452-1.0939.460033-1.050144.992856-.306292.614347-1.006388 1.147171-.262536.384331-.700096.38142-.043756.230016-.831364.305718-.087512.075702-.21878.614347-.525072.227105-.43756.384331v.305718l-.568828.154315-.918876 1.14717-.393804.230017v.230016h-.087512l-.306292.230017-.087512.535734-.087512.075702-.087512.687137-.087512.078613-.21878.457122-.043756.460032-.262536.305718-.262536 1.761518-.087512 1.301486-.175024.381419-.087512.765751-.393804 1.607203-.175024.535735-.262536 3.138704-.131268.995768-.175024.381419-.131268 1.225784-.43756 3.214406-.918876 9.2618-.21878 3.750141-.131268 1.377186-.043756 1.761518-.175024 2.21864-.568828 35.591398-.21878 17.373517-.087512 48.98767v121.699057" stroke="#1f77b4" stroke-linejoin="round" stroke-opacity=".9" stroke-width="1.6"/><path clip-path="url(#a)" d="m485.28 26.88-87.161952 5.741675-7.394764 1.682905-4.069308.765751-4.59438 1.14717-2.756628.230017-1.793996.535734-.831364.460033-6.12584.611436-2.319068.535734-2.231556.305718-1.662728.384331-.700096.38142-5.163208.535734-.962632.305718h-.350048l-.175024.230017-3.806772.154315-.21878.075701h-.481316l-.918876.535735-.568828.154314-1.137656.075702-.306292.075702-.743852.075701-.131268.230017-.831364.078613v.075701h-1.181412l-.043756.151404-.568828.308629-.175024.151403h-.393804v.230017l-.262536.075701-.087512.154315-1.575216.690049h-.65634l-.175024.151404h-.350048l-.21878.230016-.306292.075702-.393804.154314-.175024.535735-.306292.151403h-5.25072l-.306292.614348h-.21878l-.962632.535734-.481316.075702-.131268.154314h-.350048l-.393804.305718-.175024.075702-.262536.075702-.43756.078613-.306292.151403-.43756.535734-.262536.078614-.087512.227104-.393804.078614-.65634.230016-.087512.227105h-.87512l-.043756.230016h-.306292l-.43756.384331-1.006388.611436-.350048.611436-.393804.230017-.831364.305718-.131268.305718-.568828.078613-.306292.305718-1.006388.075702-.918876.154314-1.443948 1.222872-.525072.69005-1.268924.611436-.831364.614347-1.662728.457121-1.181412.384332-1.050144 1.14717-1.793996 1.301485-1.793996 1.452889-3.019164 1.991534-11.551584 9.337501-18.114984 15.079177-230.637876 231.687658" stroke="#ff7f0e" stroke-linejoin="round" stroke-opacity=".9" stroke-width="1.6"/><path clip-path="url(#a)" d="m485.28 26.88-110.790192 14.543442-8.53242 2.524357-7.482276 1.071469-2.581604.535734-1.268924.460033-5.557012 1.607203-.612584.460033-1.31268.460033-.962632.535734-1.356436.457122-.787608.078613-1.400192.457121-.350048.230016-.481316.154315h-.21878l-.21878.151403-.700096.230017-.743852.384331-.087512.151403-1.793996.920066-1.006388.151403-.087512.305718-1.268924.078613-.612584.457121-.918876.384332-.131268.151403h-.087512l-1.050144 1.071469-.481316.308629-.350048.151403v.075702h-.087512-.087512v.078613l-.087512.151403-.43756.078614-.262536.305718-.525072.075701-.175024.154315-.043756.151403-1.050144.460033-.087512.154315-.65634.305718h-.131268l-.262536.230016-.700096.227105-.087512.230016-.131268.078614-.306292.075701-.087512.075702v.154315l-.21878.305718-.525072.381419-.262536.154315-.43756.075702-.306292.230016-.612584.690049-.43756.075702-.525072.075701-.43756.305718-.700096.230017-.131268.384331-.262536.305718-.306292.075702-.43756.384331-1.006388.151403-.306292.230016-1.0939.38142-.306292.30863-2.450336 1.071468-.65634.075702-1.006388.687138-.700096.614347-2.581604 1.452889-.65634 1.150082-1.356436.841452-1.793996 1.531502-3.763016 3.365809-6.34462 4.515892-249.496712 239.572271" stroke="#2ca02c" stroke-linejoin="round" stroke-opacity=".9" stroke-width="1.6"/><path clip-path="url(#a)" d="m485.28 26.88-164.697584 34.214212-10.939 2.448655-5.513256 1.452889-4.025552.844364-2.450336.687137-4.681892.535735-1.0939.384331-5.732036.917154-2.931652 1.377187-.787608.154314-.831364.38142-1.050144.230016-.831364.078614-.43756.305718-7.00096 1.452888-.393804.305718-1.487704.305718-.21878.230016h-.481316l-2.275312.614348-1.53146.457121-.525072.460033-.568828.154315-1.225168.151403-2.100288.535734-.568828.535735h-.525072l-.568828.230016-1.31268.230017-.568828.305718-.700096.154314-4.025552 1.83722-3.981796.687138-.65634.460032-1.050144.460033-.612584.535735-1.181412.76575-1.31268.305718-1.400192.151404-3.675504.920065-1.31268.611436-2.275312.611436-3.06292.614348-4.200576 1.14717-1.793996.765751-2.144044.460033-1.662728 1.377187-8.663688 1.301485-2.62536 1.071469-3.06292 1.377186-2.494092 1.912922-3.106676 1.225783-3.106676 1.83722-8.051104 3.825842-4.15682 3.138705-4.463112 3.060092-5.381988 3.444422-4.550624 5.205941-6.300864 5.663062-5.90706 6.201708-6.475888 9.488905-11.989144 9.567517-12.732996 21.507989-6.12584 10.869003-8.051104 8.571751-6.038328 8.344645-7.175984 7.960315-6.038328 7.960314-8.53242 5.281642-8.051104 7.654597-7.526032 6.734531-4.944428 6.888845-3.981796 4.82161-3.50048 8.877468-4.463112 10.333269-2.975408 33.678477-2.931652 20.512222-.962632.995767h-.787608" stroke="#d62728" stroke-linejoin="round" stroke-opacity=".9" stroke-width="1.6"/><path clip-path="url(#a)" d="m485.28 26.88-15.795916 4.134472-14.833284 1.912921-1.050144.457121-1.53146.538646-3.631748.535735-.131268.227105-5.25072.384331-1.443948.381419h-.43756l-.131268.154315-.831364.075702-.306292.075701-.525072.078614-.175024.075701-.043756.154315-1.0939.227105-.393804.230016-.175024.305718-.43756.078613-.175024.151404-.21878.078613-.131268.151403-.306292.384331-.043756.151403-.568828.075702-.087512.078613-.350048.075702-.962632.765751-.787608.075701-.131268.078613h-.350048l-.087512.151404-.306292.075701-.131268.078613-.481316.075702-.21878.154315h-.21878l-.087512.305718-.65634.075701-.043756.154315-.21878.075702-1.181412.075701-5.557012.154315v.075702l-.21878.154315-.131268.381419h-.087512l-.131268.305718h-.131268l-.043756.230017-.21878.154314-.43756.38142-.350048.075702-.131268.230016-1.881508.920066-.700096.457121-.306292.535734-.393804.230017-.87512.154314-.262536.611436-.831364.230017-.262536.305718-.65634.535734-.393804.611436-3.850528 2.908689-1.575216 2.297252-2.537848 2.448656-7.482276 6.507426-352.148288 256.945788" stroke="#9467bd" stroke-linejoin="round" stroke-opacity=".9" stroke-width="1.6"/><path clip-path="url(#a)" d="m485.28 26.88-329.351412 34.749946-40.518056 16.762081-12.382948 9.2618-10.195148 11.634753-3.71926 5.814466-2.056532 5.051626-1.400192 4.05877-1.53146 3.138705-1.356436 4.285875-1.0939 2.754374-1.31268 3.825842-1.487704 3.674439-2.012776 8.344646-.787608 4.210173-.87512 2.905777-.43756 2.987302-2.231556 8.496049-.525072 3.060091-.962632 3.980157-.568828 3.214407-1.400192 5.817377-1.225168 9.416114-1.31268 2.754374-.481316 2.372954-.568828 1.837219-1.53146 8.341734-.21878 1.991535-.612584 2.524357-.87512 5.281642-1.181412 5.051626-.481316 5.205941-1.75024 8.95317-.21878 1.83722-.481316 1.915832-.831364 4.055859-.481316 1.147171-.43756 2.98439-.481316 1.071468-1.356436 9.876148-.612584 1.912921-.21878 2.60297v.992856l-.350048.844364-.087512.917154-.21878.381419-.21878 1.301486-.087512.76575-.393804 2.757286-.481316 1.452888-.043756 1.301485-.43756 1.682905-.087512.995767-.087512.535735-.131268.995767-.087512.841452-.87512 9.948937-.175024.384332-.350048 6.353111-.043756 1.758606-.131268.30863-.262536 1.682905-.043756.151403-.043756 1.531501-.525072 8.036016-.131268 3.523036-.087512 5.663062-.612584 6.888846" stroke="#8c564b" stroke-linejoin="round" stroke-opacity=".9" stroke-width="1.6"/><path clip-path="url(#a)" d="m485.28 26.88-374.945164 42.325929-13.520604 15.690613-6.694668 7.348878-3.2817 7.654596-1.793996 4.975925-1.575216 3.135793-.918876 4.134472-1.137656 3.290108-.743852 3.138705-1.225168 4.055859-2.1878 10.181865-.65634 1.988623-.262536 1.225783-.65634 1.452889-.175024 1.607203-.262536.690049-.393804.611436-.087512 1.301485-.175024.535735-.175024.920065-.262536 1.301485-.525072.535735-.21878.687137-.043756 1.147171-.21878.230016-.43756 2.372954-.306292 2.832987-.43756 1.452888-.131268.920066-.568828 1.988623-.175024.995767-.043756 1.071469-.481316 1.912921-.21878.305718-.087512 1.83722-.393804.154314-.087512 1.147171-.043756.460033-.262536.154314-.131268.227105-.262536 3.063003-.087512 2.754374-.131268.614348v.535734l-.21878.305718-.131268 1.912921-.087512 1.301485-.043756.765751-.087512.535735-.043756.305718-.262536.381419v.078613l-.21878.151404-.175024 1.915832-.087512 2.524358-.262536 1.452888-.525072 8.804678-.568828 10.024639-.568828 2.987302-.43756 6.580216-.481316 3.293019-2.450336 13.623377-4.550624 14.773458-9.932612 74.472905" stroke="#e377c2" stroke-linejoin="round" stroke-opacity=".9" stroke-width="1.6"/><path clip-path="url(#a)" d="m485.28 26.88-363.918652 70.111328-9.320028 4.591593-3.93804 2.602971-3.06292 1.14717-2.144044 1.225784-3.763016 1.682904-.918876.995768-1.96902 1.071468-.262536.230017-1.53146.995767-.43756.457121-3.456724 2.451567-.568828.76284h-.21878l-.043756.154314h-.262536l-.43756.384332-.087512.457121h-.043756l-.175024.230016-.262536.075702-.21878.308629-.481316.075702-.568828.841452-.525072.230017-.087512.230016-.131268.075702-.175024.381419-.087512.078614-.043756.381419-.131268.075702-.43756.078613-.21878.611436h-.175024l-.175024.305718-.175024.078613-.087512.075702-.306292.075701-.087512.460033-.131268.151403-.350048.154315h-.175024l-.175024.38142-.568828.384331-.175024.230016-.21878.535735-.043756.230016h-.043756l-.131268.227105-.043756.230016-.175024.154315-.21878.305718h-.131268l-.087512.154315-.262536.227105-.306292 1.531501-.175024.305718-.612584.384332-.262536.460032-.65634.687138-.918876 1.377187-.43756.230016-.87512 1.991535-.481316.76575-.700096 1.758607-1.925264 3.293019-2.362824 3.214407-4.506868 9.031783-13.958164 67.659761" stroke="#7f7f7f" stroke-linejoin="round" stroke-opacity=".9" stroke-width="1.6"/><path clip-path="url(#a)" d="m485.28 26.88-307.954728 72.714298-10.151392 2.754374-1.706484 2.067236-3.2817 1.531502-2.1878 1.377186-1.0939.535735-.525072.611436-.743852 1.225783-.831364.305718-.612584.765751-.568828.230017-.612584.992855-1.181412.384331-.568828.230017-2.056532.151403-1.268924.614348-.21878.762839-.525072.078613-.21878.38142h-.131268l-.087512.154314-.350048.075702-.087512.075702h-.262536l-.393804.305718-.21878.690049-.175024.075701-.131268.384332-.175024.075701-.175024.611436v.078613l-.743852.075702v.154315h-.087512l-.612584.227105h-.087512l-.21878.308629-.21878.075702v.151403h-.087512l-.262536.078613-.21878.305718h-.087512v.151403l-.350048.30863v.227105l-.21878.230016-.043756.154315-.262536.38142-.21878.614347-.262536.075702-.262536.305718h-.087512v.075701.154315l-.131268.154315-.131268.305718-.350048.075702-.131268.460032-.568828.38142-.087512.154315-.350048.151403-.43756.154315-.175024.305718-.350048.075701-.087512.230017-.21878.075701-.21878.614348-.262536.151403-.21878.614348-.175024.075701-.306292.460033-.568828.38142h-.131268l-.306292.230016-3.50048.230017-.087512.151403h-.262536l-.131268.308629-.21878.305718h-.087512v.305718l-.262536.460033-.21878.075702-1.137656 1.377187-.393804.460032-.306292.687138-.481316.535734-.306292 1.225784-.481316.305718-1.706484 2.142938-.962632.920065-5.994572 1.682905-1.487704 1.531502-2.537848 2.98439-3.50048 5.58736-65.458976 170.532412" stroke="#bcbd22" stroke-linejoin="round" stroke-opacity=".9" stroke-width="1.6"/><path clip-path="url(#a)" d="m485.28 26.88-276.275384 20.052189-10.545196 1.4558-5.163208 1.147171-2.84414.995767-2.712872.381419-2.494092.69005-1.487704.690049-1.31268.457121-1.400192.078613-4.81316 1.452889-1.137656.230016-.743852.535734h-.612584l-1.487704.535735-1.662728.611436h-.87512l-.350048.154315h-.700096l-.306292.305718-.787608.154314-.087512.151404-.700096.078613-.481316.535734-1.181412.305718-.393804.151403-1.181412.078614-1.137656.227104-1.181412.230017v.154315l-.612584.305718h-.21878l-.918876.460032-.43756.305718-1.443948.460033-.350048.687138-.612584.154315h-.962632l-.743852.535734-.393804.230016-1.050144.305718-.087512.230017-.65634.075701-.21878.154315-.525072.151403-.262536.384332-.743852.075701-.043756.075702-.65634.460033-1.443948.305718-.393804.305718h-.21878l-.393804.305718h-.743852l-.21878.154314h-.306292l-.43756.305718h-.612584l-.831364.305718h-.262536l-.21878.154315h-.393804l-.131268.305718h-.43756v.075702l-.787608.460033-.393804.075701-.21878.230017h-.262536l-.087512.230016-.21878.154315h-.21878l-.131268.305718-.262536.075701-.21878.230017-.700096.151403-.918876.765751-1.400192.384331-1.050144.38142h-.306292l-.525072.384331-.262536.227105h-.350048l-.21878.308629-.787608.305718-1.0939.687138-.175024.308629-.481316.075702-.43756.230016-.43756.075702-.306292.230016-.787608.38142-.21878.384331-.393804.305718-.700096.151403-.481316.230017-1.31268.841452-.393804.460033-.612584.230016-1.0939.69005-1.487704.535734-1.181412.611436-1.487704.305718-1.225168 1.14717-2.450336 1.225784-2.450336 1.761518-3.894284 2.218639-27.3475 34.444228" stroke="#17becf" stroke-linejoin="round" stroke-opacity=".9" stroke-width="1.6"/><path clip-path="url(#a)" d="m485.28 26.88h-2.450336l-64.627612.38142-151.61454 4.364488-46.731408 5.127328-18.508788 3.75014-9.40754 2.987302-6.34462 1.682905-4.200576 1.682905-9.801344 3.138704-1.31268.535735-1.356436.230016-1.181412.460033-.787608.457121-2.1878.614348-1.618972.305718-.43756.230016-.393804.305718-.21878.230017-.918876.305718-.65634.841452-1.793996.38142-.306292.384331-.43756.151403-.175024.230016-.43756.154315-.831364.151403h-.131268l-.087512.230017-.350048.078613-.043756.075702-.21878.075701-.306292.305718-.262536.30863-.43756.305718-.700096.075701-.087512.230017-.175024.075701-.131268.075702-.131268.154315-.262536.075701-.043756.078614-.87512.075701v.075702l-.787608.075701-.43756.384332-.43756.075701-.131268.154315-1.793996.075702-.087512.075701-.65634.078613-.612584.227105-.21878.535735h-.393804l-.043756.154314-.43756.075702-.568828.305718-.568828.078613-1.31268.38142h-.43756l-.700096.305718-1.181412.230016-3.06292 1.377187-1.53146.230016-1.31268.69005-2.362824 1.531501-4.113064 1.83722-7.044716 4.13156-11.507828 7.730298-15.708404 20.360819-29.141496 109.377166-17.72118 108.532801-.262536.765751" stroke="#1f77b4" stroke-linejoin="round" stroke-opacity=".9" stroke-width="1.6"/><path clip-path="url(#a)" d="m485.28 26.88h-2.144044l-24.809652.230016-80.554796 1.758607-57.932944 3.753052-35.136068 4.591593-25.072188 2.21864-14.526992 1.4558-9.18876 1.301485-5.732036 1.607203-8.576176 1.758606-6.169596 1.685817-4.288088.841452-1.487704.765751-2.40658.687138-.743852.690049-2.319068.611436-1.050144.384331-.743852.151403-1.881508.690049-1.706484.075702-3.106676.765751h-.65634l-1.53146.690049h-.481316l-1.575216.535734-.525072.151404-.350048.230016-.043756.230016-.700096.305718-.612584.075702-.262536.305718-.65634.230016h-.568828l-.481316.305718-1.006388.154315h-.831364l-1.137656.460033-.831364.075702-.262536.075701h-.393804l-.21878.154315h-.21878l-.306292.154315-.612584.075701h-4.988184l-.043756.230017-.21878.075701h-.65634l-.700096.38142-.525072.154315h-.21878l-.21878.230016-.43756.075702-.087512.075701-.350048.078614-.393804.075701-.481316.075702-.21878.154315-1.31268.075701-.743852.305718-.393804.078613-1.268924.075702-.21878.230016-.393804.151404-.175024.230016h-.393804l-.262536.154315-1.268924.075701-.131268.154315-.43756.151403h-.743852l-.831364.230017-.481316.075701-.262536.154315-.831364.230017-1.793996.075701-5.075696.765751-.612584.075702h-.918876l-.918876.230016h-.743852l-1.181412.535734-2.056532.765751-1.356436.305718-.743852.384331-.918876.227105-2.144044.844364-1.225168.917154-2.669116.841453-1.793996.841452-3.06292.920066-11.420316 7.040248-8.7512 6.888846-11.989144 19.900786-18.202496 45.848965-20.215272 71.794233-13.826896 88.099193-.918876 9.643219h-1.487704" stroke="#ff7f0e" stroke-linejoin="round" stroke-opacity=".9" stroke-width="1.6"/><path d="m47.72 318.04v-291.16" stroke="#000" stroke-linejoin="miter" stroke-width=".8"/><path d="m485.28 318.04v-291.16" stroke="#000" stroke-linejoin="miter" stroke-width=".8"/><path d="m47.72 318.04h437.56" stroke="#000" stroke-linejoin="miter" stroke-width=".8"/><path d="m47.72 26.88h437.56" stroke="#000" stroke-linejoin="miter" stroke-width=".8"/></g><g stroke-linejoin="round" transform="matrix(.12 0 0 -.12 88.175313 20.88)"><path d="m2522 4238q-688 0-1093-513-404-512-404-1397 0-881 404-1394 405-512 1093-512 687 0 1089 512 402 513 402 1394 0 885-402 1397-402 513-1089 513zm0 512q981 0 1568-658 588-658 588-1764 0-1103-588-1761-587-658-1568-658-984 0-1574 656-589 657-589 1763 0 1106 589 1764 590 658 1574 658z" transform="scale(.015625)"/><use transform="translate(78.710938)" xlink:href="#o"/><use transform="translate(142.1875)" xlink:href="#m"/><use transform="translate(203.710938)" xlink:href="#t"/><use transform="translate(244.824219)" xlink:href="#j"/><use transform="translate(306.103516)" xlink:href="#r"/><use transform="translate(345.3125)" xlink:href="#q"/><use transform="translate(373.095703)" xlink:href="#u"/><use transform="translate(436.474609)" xlink:href="#w"/><use transform="translate(531.738281)" xlink:href="#y"/><use transform="translate(586.71875)" xlink:href="#C"/><use transform="translate(650.097656)" xlink:href="#t"/><use transform="translate(691.210938)" xlink:href="#s"/><use transform="translate(750.390625)" xlink:href="#m"/><path d="m313 1978h5775v-450h-5775z" transform="translate(843.701172)"/><use transform="translate(975.488281)" xlink:href="#y"/><use transform="translate(1030.46875)" xlink:href="#j"/><use transform="translate(1091.748047)" xlink:href="#r"/><use transform="translate(1130.957031)" xlink:href="#y"/><use transform="translate(1185.9375)" xlink:href="#D"/><use transform="translate(1281.103516)" xlink:href="#t"/><use transform="translate(1322.216797)" xlink:href="#j"/><use transform="translate(1383.496094)" xlink:href="#r"/><use transform="translate(1422.705078)" xlink:href="#m"/><use transform="translate(1516.015625)" xlink:href="#s"/><use transform="translate(1575.195312)" xlink:href="#l"/><use transform="translate(1659.082031)" xlink:href="#x"/><use transform="translate(1694.287109)" xlink:href="#j"/><use transform="translate(1755.566406)" xlink:href="#k"/><use transform="translate(1783.349609)" xlink:href="#l"/><use transform="translate(1835.449219)" xlink:href="#m"/><use transform="translate(1928.759766)" xlink:href="#j"/><use transform="translate(1990.039062)" xlink:href="#k"/><use transform="translate(2017.822266)" xlink:href="#j"/><use transform="translate(2079.101562)" xlink:href="#t"/><use transform="translate(2118.464844)" xlink:href="#E"/><use transform="translate(2215.876953)" xlink:href="#l"/><use transform="translate(2299.763672)" xlink:href="#p"/><use transform="translate(2360.945312)" xlink:href="#u"/><use transform="translate(2456.111328)" xlink:href="#t"/><use transform="translate(2494.974609)" xlink:href="#m"/><use transform="translate(2556.498047)" xlink:href="#j"/><use transform="translate(2617.777344)" xlink:href="#k"/><use transform="translate(2677.347656)" xlink:href="#r"/><use transform="translate(2716.556641)" xlink:href="#t"/><use transform="translate(2757.669922)" xlink:href="#j"/><use transform="translate(2818.949219)" xlink:href="#x"/><use transform="translate(2854.154297)" xlink:href="#x"/><use transform="translate(2889.359375)" xlink:href="#q"/><use transform="translate(2917.142578)" xlink:href="#y"/></g><g stroke-linejoin="round"><path d="m311.486406 314.54h168.893594q1.4 0 1.4-1.4v-122.59625q0-1.4-1.4-1.4h-168.893594q-1.4 0-1.4 1.4v122.59625q0 1.4 1.4 1.4z" fill="#fff" opacity=".8" stroke="#ccc" stroke-linejoin="miter"/><g stroke-linejoin="round"><path d="m312.886406 194.812656h7 7" fill="none" stroke="#1f77b4" stroke-linecap="square" stroke-opacity=".9" stroke-width="1.6"/><g transform="matrix(.07 0 0 -.07 332.486406 197.262656)"><use xlink:href="#v"/><use transform="translate(63.476562)" xlink:href="#j"/><use transform="translate(124.755859)" xlink:href="#l"/><use transform="translate(176.855469)" xlink:href="#r"/><use transform="translate(216.064453)" xlink:href="#q"/><use transform="translate(243.847656)" xlink:href="#p"/><use transform="translate(305.029297)" xlink:href="#u"/><use transform="translate(368.408203)" xlink:href="#n"/><use transform="translate(404.492188)" xlink:href="#o"/><use transform="translate(467.96875)" xlink:href="#t"/><use transform="translate(506.832031)" xlink:href="#p"/><use transform="translate(568.013672)" xlink:href="#E"/><use transform="translate(665.425781)" xlink:href="#o"/><use transform="translate(728.902344)" xlink:href="#r"/><use transform="translate(768.111328)" xlink:href="#n"/><use transform="translate(804.195312)" xlink:href="#o"/><use transform="translate(867.671875)" xlink:href="#t"/><use transform="translate(906.535156)" xlink:href="#p"/><use transform="translate(967.716797)" xlink:href="#r"/><use transform="translate(1006.925781)" xlink:href="#m"/><use transform="translate(1068.449219)" xlink:href="#y"/><use transform="translate(1123.429688)" xlink:href="#r"/><use transform="translate(1162.638672)" xlink:href="#q"/><use transform="translate(1190.421875)" xlink:href="#p"/><use transform="translate(1251.603516)" xlink:href="#u"/><use transform="translate(1346.769531)" xlink:href="#A"/><use transform="translate(1385.783203)" xlink:href="#F"/><use transform="translate(1449.40625)" xlink:href="#c"/><use transform="translate(1513.029297)" xlink:href="#G"/><use transform="translate(1599.308594)" xlink:href="#B"/></g><path d="m312.886406 205.087344h7 7" fill="none" stroke="#ff7f0e" stroke-linecap="square" stroke-opacity=".9" stroke-width="1.6"/><g transform="matrix(.07 0 0 -.07 332.486406 207.537344)"><use xlink:href="#H"/><use transform="translate(63.476562)" xlink:href="#m"/><use transform="translate(125)" xlink:href="#m"/><use transform="translate(186.523438)" xlink:href="#o"/><use transform="translate(250)" xlink:href="#l"/><use transform="translate(302.099609)" xlink:href="#m"/><use transform="translate(363.623047)" xlink:href="#r"/><use transform="translate(434.619141)" xlink:href="#q"/><use transform="translate(462.402344)" xlink:href="#u"/><use transform="translate(525.78125)" xlink:href="#I"/><use transform="translate(553.564453)" xlink:href="#m"/><use transform="translate(615.087891)" xlink:href="#y"/><use transform="translate(670.068359)" xlink:href="#r"/><use transform="translate(709.277344)" xlink:href="#q"/><use transform="translate(737.060547)" xlink:href="#p"/><use transform="translate(798.242188)" xlink:href="#u"/><use transform="translate(893.408203)" xlink:href="#A"/><use transform="translate(932.421875)" xlink:href="#i"/><use transform="translate(996.044922)" xlink:href="#h"/><use transform="translate(1059.667969)" xlink:href="#f"/><use transform="translate(1123.291016)" xlink:href="#G"/><use transform="translate(1209.570312)" xlink:href="#B"/></g><path d="m312.886406 215.362031h7 7" fill="none" stroke="#2ca02c" stroke-linecap="square" stroke-opacity=".9" stroke-width="1.6"/><g transform="matrix(.07 0 0 -.07 332.486406 217.812031)"><use xlink:href="#x"/><use transform="translate(35.205078)" xlink:href="#E"/><use transform="translate(132.617188)" xlink:href="#p"/><use transform="translate(193.798828)" xlink:href="#o"/><use transform="translate(257.275391)" xlink:href="#l"/><use transform="translate(341.162109)" xlink:href="#H"/><use transform="translate(404.638672)" xlink:href="#q"/><use transform="translate(432.421875)" xlink:href="#l"/><use transform="translate(484.521484)" xlink:href="#r"/><use transform="translate(523.730469)" xlink:href="#q"/><use transform="translate(551.513672)" xlink:href="#k"/><use transform="translate(579.296875)" xlink:href="#v"/><use transform="translate(642.773438)" xlink:href="#m"/><use transform="translate(704.296875)" xlink:href="#t"/><use transform="translate(745.410156)" xlink:href="#r"/><use transform="translate(816.40625)" xlink:href="#A"/><use transform="translate(855.419922)" xlink:href="#g"/><use transform="translate(919.042969)" xlink:href="#F"/><use transform="translate(982.666016)" xlink:href="#G"/><use transform="translate(1068.945312)" xlink:href="#B"/></g><path d="m312.886406 225.636719h7 7" fill="none" stroke="#d62728" stroke-linecap="square" stroke-opacity=".9" stroke-width="1.6"/><g transform="matrix(.07 0 0 -.07 332.486406 228.086719)"><use xlink:href="#D"/><use transform="translate(63.378906)" xlink:href="#k"/><path d="m2059-325q-243-625-475-815-231-191-618-191h-460v481h338q237 0 368 113 132 112 291 531l103 262-1415 3444h609l1094-2737 1094 2737h609z" transform="translate(91.162109)"/><use transform="translate(150.341797)" xlink:href="#u"/><use transform="translate(245.507812)" xlink:href="#I"/><use transform="translate(273.291016)" xlink:href="#C"/><use transform="translate(336.669922)" xlink:href="#H"/><use transform="translate(400.146484)" xlink:href="#w"/><use transform="translate(463.623047)" xlink:href="#m"/><use transform="translate(556.933594)" xlink:href="#A"/><use transform="translate(595.947266)" xlink:href="#F"/><use transform="translate(659.570312)" xlink:href="#c"/><use transform="translate(723.193359)" xlink:href="#G"/><use transform="translate(809.472656)" xlink:href="#B"/></g><path d="m312.886406 235.911406h7 7" fill="none" stroke="#9467bd" stroke-linecap="square" stroke-opacity=".9" stroke-width="1.6"/><g transform="matrix(.07 0 0 -.07 332.486406 238.361406)"><use xlink:href="#E"/><use transform="translate(97.412109)" xlink:href="#m"/><use transform="translate(158.935547)" xlink:href="#r"/><use transform="translate(198.144531)" xlink:href="#j"/><use transform="translate(291.210938)" xlink:href="#o"/><use transform="translate(354.6875)" xlink:href="#t"/><use transform="translate(393.550781)" xlink:href="#p"/><use transform="translate(454.732422)" xlink:href="#E"/><use transform="translate(552.144531)" xlink:href="#o"/><use transform="translate(615.621094)" xlink:href="#r"/><use transform="translate(654.830078)" xlink:href="#n"/><use transform="translate(690.914062)" xlink:href="#w"/><use transform="translate(754.390625)" xlink:href="#C"/><use transform="translate(817.769531)" xlink:href="#j"/><use transform="translate(879.048828)" xlink:href="#t"/><use transform="translate(918.412109)" xlink:href="#H"/><use transform="translate(1013.675781)" xlink:href="#s"/><use transform="translate(1072.855469)" xlink:href="#i"/><use transform="translate(1168.265625)" xlink:href="#A"/><use transform="translate(1207.279297)" xlink:href="#h"/><use transform="translate(1270.902344)" xlink:href="#g"/><use transform="translate(1334.525391)" xlink:href="#G"/><use transform="translate(1420.804688)" xlink:href="#J"/><use transform="translate(1484.378906)" xlink:href="#H"/><use transform="translate(1547.855469)" xlink:href="#m"/><use transform="translate(1609.378906)" xlink:href="#o"/><use transform="translate(1672.855469)" xlink:href="#t"/><use transform="translate(1711.71875)" xlink:href="#m"/><use transform="translate(1773.242188)" xlink:href="#y"/><use transform="translate(1828.222656)" xlink:href="#j"/><use transform="translate(1889.501953)" xlink:href="#r"/><use transform="translate(1928.710938)" xlink:href="#m"/><use transform="translate(1990.234375)" xlink:href="#H"/><use transform="translate(2053.710938)" xlink:href="#B"/></g><path d="m312.886406 246.186094h7 7" fill="none" stroke="#8c564b" stroke-linecap="square" stroke-opacity=".9" stroke-width="1.6"/><g transform="matrix(.07 0 0 -.07 332.486406 248.636094)"><use xlink:href="#E"/><use transform="translate(97.412109)" xlink:href="#m"/><use transform="translate(158.935547)" xlink:href="#r"/><use transform="translate(198.144531)" xlink:href="#j"/><use transform="translate(291.210938)" xlink:href="#o"/><use transform="translate(354.6875)" xlink:href="#t"/><use transform="translate(393.550781)" xlink:href="#p"/><use transform="translate(454.732422)" xlink:href="#E"/><use transform="translate(552.144531)" xlink:href="#o"/><use transform="translate(615.621094)" xlink:href="#r"/><use transform="translate(654.830078)" xlink:href="#n"/><use transform="translate(690.914062)" xlink:href="#w"/><use transform="translate(754.390625)" xlink:href="#C"/><use transform="translate(817.769531)" xlink:href="#j"/><use transform="translate(879.048828)" xlink:href="#t"/><use transform="translate(918.412109)" xlink:href="#H"/><use transform="translate(1013.675781)" xlink:href="#s"/><use transform="translate(1072.855469)" xlink:href="#e"/><use transform="translate(1168.265625)" xlink:href="#A"/><use transform="translate(1207.279297)" xlink:href="#e"/><use transform="translate(1270.902344)" xlink:href="#e"/><use transform="translate(1334.525391)" xlink:href="#G"/><use transform="translate(1420.804688)" xlink:href="#B"/></g><path d="m312.886406 256.460781h7 7" fill="none" stroke="#e377c2" stroke-linecap="square" stroke-opacity=".9" stroke-width="1.6"/><g transform="matrix(.07 0 0 -.07 332.486406 258.910781)"><use xlink:href="#E"/><use transform="translate(97.412109)" xlink:href="#m"/><use transform="translate(158.935547)" xlink:href="#r"/><use transform="translate(198.144531)" xlink:href="#j"/><use transform="translate(291.210938)" xlink:href="#o"/><use transform="translate(354.6875)" xlink:href="#t"/><use transform="translate(393.550781)" xlink:href="#p"/><use transform="translate(454.732422)" xlink:href="#E"/><use transform="translate(552.144531)" xlink:href="#o"/><use transform="translate(615.621094)" xlink:href="#r"/><use transform="translate(654.830078)" xlink:href="#n"/><use transform="translate(690.914062)" xlink:href="#w"/><use transform="translate(754.390625)" xlink:href="#C"/><use transform="translate(817.769531)" xlink:href="#j"/><use transform="translate(879.048828)" xlink:href="#t"/><use transform="translate(918.412109)" xlink:href="#H"/><use transform="translate(1013.675781)" xlink:href="#s"/><use transform="translate(1072.855469)" xlink:href="#e"/><use transform="translate(1168.265625)" xlink:href="#A"/><use transform="translate(1207.279297)" xlink:href="#h"/><use transform="translate(1270.902344)" xlink:href="#g"/><use transform="translate(1334.525391)" xlink:href="#G"/><use transform="translate(1420.804688)" xlink:href="#B"/></g><path d="m312.886406 266.735469h7 7" fill="none" stroke="#7f7f7f" stroke-linecap="square" stroke-opacity=".9" stroke-width="1.6"/><g transform="matrix(.07 0 0 -.07 332.486406 269.185469)"><use xlink:href="#o"/><use transform="translate(63.476562)" xlink:href="#t"/><use transform="translate(102.339844)" xlink:href="#p"/><use transform="translate(163.521484)" xlink:href="#r"/><use transform="translate(202.730469)" xlink:href="#m"/><use transform="translate(264.253906)" xlink:href="#y"/><use transform="translate(319.234375)" xlink:href="#r"/><use transform="translate(358.443359)" xlink:href="#j"/><use transform="translate(419.722656)" xlink:href="#q"/><use transform="translate(479.292969)" xlink:href="#s"/><use transform="translate(538.472656)" xlink:href="#e"/><use transform="translate(633.882812)" xlink:href="#A"/><use transform="translate(672.896484)" xlink:href="#i"/><use transform="translate(736.519531)" xlink:href="#h"/><use transform="translate(800.142578)" xlink:href="#f"/><use transform="translate(863.765625)" xlink:href="#G"/><use transform="translate(950.044922)" xlink:href="#B"/></g><path d="m312.886406 277.010156h7 7" fill="none" stroke="#bcbd22" stroke-linecap="square" stroke-opacity=".9" stroke-width="1.6"/><g transform="matrix(.07 0 0 -.07 332.486406 279.460156)"><use xlink:href="#o"/><use transform="translate(63.476562)" xlink:href="#t"/><use transform="translate(102.339844)" xlink:href="#p"/><use transform="translate(163.521484)" xlink:href="#s"/><use transform="translate(222.701172)" xlink:href="#m"/><use transform="translate(284.224609)" xlink:href="#u"/><use transform="translate(347.603516)" xlink:href="#r"/><use transform="translate(386.8125)" xlink:href="#t"/><use transform="translate(427.925781)" xlink:href="#j"/><use transform="translate(520.992188)" xlink:href="#E"/><use transform="translate(618.404297)" xlink:href="#H"/><use transform="translate(681.880859)" xlink:href="#m"/><use transform="translate(743.404297)" xlink:href="#v"/><use transform="translate(806.880859)" xlink:href="#m"/><use transform="translate(868.404297)" xlink:href="#t"/><use transform="translate(909.517578)" xlink:href="#r"/><use transform="translate(948.726562)" xlink:href="#j"/><use transform="translate(1041.792969)" xlink:href="#A"/><use transform="translate(1080.806641)" xlink:href="#e"/><use transform="translate(1144.429688)" xlink:href="#h"/><use transform="translate(1208.052734)" xlink:href="#c"/><use transform="translate(1271.675781)" xlink:href="#G"/><use transform="translate(1357.955078)" xlink:href="#B"/></g><path d="m312.886406 287.284844h7 7" fill="none" stroke="#17becf" stroke-linecap="square" stroke-opacity=".9" stroke-width="1.6"/><g transform="matrix(.07 0 0 -.07 332.486406 289.734844)"><use xlink:href="#l"/><use transform="translate(52.099609)" xlink:href="#m"/><use transform="translate(113.623047)" xlink:href="#u"/><use transform="translate(177.001953)" xlink:href="#r"/><use transform="translate(216.210938)" xlink:href="#q"/><use transform="translate(243.994141)" xlink:href="#u"/><use transform="translate(307.373047)" xlink:href="#m"/><use transform="translate(368.896484)" xlink:href="#k"/><use transform="translate(428.466797)" xlink:href="#A"/><path d="m947 1747q0-634 261-995 261-361 717-361 456 0 718 361 263 361 263 995 0 634-263 995-262 361-718 361-456 0-717-361-261-361-261-995zm1959-1222q-181-312-458-464-276-152-664-152-634 0-1033 506-398 507-398 1332 0 825 398 1331 399 506 1033 506 388 0 664-152 277-151 458-463v531h575v-4831h-575z" transform="translate(467.480469)"/><use transform="translate(530.957031)" xlink:href="#C"/><use transform="translate(594.335938)" xlink:href="#j"/><use transform="translate(655.615234)" xlink:href="#k"/><use transform="translate(683.398438)" xlink:href="#q"/><use transform="translate(711.181641)" xlink:href="#x"/><use transform="translate(746.386719)" xlink:href="#q"/><use transform="translate(774.169922)" xlink:href="#t"/><use transform="translate(813.033203)" xlink:href="#m"/><use transform="translate(874.556641)" xlink:href="#J"/><use transform="translate(938.130859)" xlink:href="#K"/><path d="m703 97v575q238-113 481-172 244-59 479-59 625 0 954 420 330 420 377 1277-181-269-460-413-278-144-615-144-700 0-1108 423-408 424-408 1159 0 718 425 1152 425 435 1131 435 810 0 1236-621 427-620 427-1801 0-1103-524-1761-523-658-1407-658-238 0-482 47-243 47-506 141zm1256 1978q425 0 673 290 249 291 249 798 0 503-249 795-248 292-673 292-425 0-673-292-248-292-248-795 0-507 248-798 248-290 673-290z" transform="translate(1001.753906)"/><path d="m691 4666h2478v-532h-1900v-1143q137 47 274 70 138 23 276 23 781 0 1237-428 457-428 457-1159 0-753-469-1171-469-417-1322-417-294 0-599 50-304 50-629 150v635q281-153 581-228 300-75 634-75 541 0 856 284 316 284 316 772 0 487-316 771-315 285-856 285-253 0-505-56-251-56-513-175z" transform="translate(1065.376953)"/><use transform="translate(1129)" xlink:href="#G"/><use transform="translate(1215.279297)" xlink:href="#B"/></g><path d="m312.886406 297.559531h7 7" fill="none" stroke="#1f77b4" stroke-linecap="square" stroke-opacity=".9" stroke-width="1.6"/><g transform="matrix(.07 0 0 -.07 332.486406 300.009531)"><use xlink:href="#L"/><use transform="translate(81.787109)" xlink:href="#p"/><use transform="translate(142.96875)" xlink:href="#k"/><use transform="translate(170.751953)" xlink:href="#x"/><use transform="translate(200.457031)" xlink:href="#n"/><use transform="translate(236.541016)" xlink:href="#H"/><use transform="translate(300.017578)" xlink:href="#m"/><use transform="translate(361.541016)" xlink:href="#x"/><use transform="translate(396.746094)" xlink:href="#m"/><use transform="translate(458.269531)" xlink:href="#u"/><use transform="translate(521.648438)" xlink:href="#H"/><use transform="translate(585.125)" xlink:href="#m"/><use transform="translate(646.648438)" xlink:href="#t"/><use transform="translate(719.548828)" xlink:href="#A"/><use transform="translate(758.5625)" xlink:href="#c"/><use transform="translate(822.185547)" xlink:href="#d"/><use transform="translate(853.972656)" xlink:href="#K"/><use transform="translate(917.595703)" xlink:href="#M"/><use transform="translate(986.199219)" xlink:href="#B"/></g><path d="m312.886406 307.834219h7 7" fill="none" stroke="#ff7f0e" stroke-linecap="square" stroke-opacity=".9" stroke-width="1.6"/><g transform="matrix(.07 0 0 -.07 332.486406 310.284219)"><use xlink:href="#L"/><use transform="translate(81.787109)" xlink:href="#p"/><use transform="translate(142.96875)" xlink:href="#k"/><use transform="translate(170.751953)" xlink:href="#x"/><use transform="translate(200.457031)" xlink:href="#n"/><use transform="translate(236.541016)" xlink:href="#H"/><use transform="translate(300.017578)" xlink:href="#m"/><use transform="translate(361.541016)" xlink:href="#x"/><use transform="translate(396.746094)" xlink:href="#m"/><use transform="translate(458.269531)" xlink:href="#u"/><use transform="translate(521.648438)" xlink:href="#H"/><use transform="translate(585.125)" xlink:href="#m"/><use transform="translate(646.648438)" xlink:href="#t"/><use transform="translate(681.386719)" xlink:href="#n"/><use transform="translate(717.470703)" xlink:href="#l"/><use transform="translate(769.570312)" xlink:href="#E"/><use transform="translate(866.982422)" xlink:href="#j"/><use transform="translate(928.261719)" xlink:href="#k"/><use transform="translate(956.044922)" xlink:href="#k"/><use transform="translate(1015.615234)" xlink:href="#A"/><use transform="translate(1054.628906)" xlink:href="#c"/><use transform="translate(1118.251953)" xlink:href="#d"/><use transform="translate(1150.039062)" xlink:href="#i"/><use transform="translate(1213.662109)" xlink:href="#M"/><use transform="translate(1282.265625)" xlink:href="#B"/></g></g></g></g></g></svg>